<?xml version="1.0" standalone="no"?>
<!DOCTYPE svg PUBLIC "-//W3C//DTD SVG 1.1//EN" "http://www.w3.org/Graphics/SVG/1.1/DTD/svg11.dtd" >
<svg xmlns="http://www.w3.org/2000/svg" xmlns:xlink="http://www.w3.org/1999/xlink" version="1.1">
<metadata>
Created by FontForge 20150715 at Thu Dec 10 12:46:04 2015
 By Jimmy Wärting
Copyright \(c\) 2013 by Frank Hemmekam. All rights reserved.
</metadata>
<defs>
<font id="BaronNeueItalic" horiz-adv-x="559" >
  <font-face 
    font-family="Baron Neue Italic"
    font-weight="400"
    font-style="italic"
    font-stretch="normal"
    units-per-em="1000"
    panose-1="0 0 5 0 0 0 0 0 0 0"
    ascent="750"
    descent="-250"
    x-height="700"
    cap-height="700"
    bbox="-169 -240 1025 975"
    underline-thickness="50"
    underline-position="-100"
    stemh="117"
    stemv="88"
    unicode-range="U+0020-25CA"
  />
<missing-glyph horiz-adv-x="440" 
 />
    <glyph glyph-name=".notdef" horiz-adv-x="440" 
 />
    <glyph glyph-name="Y.alt" horiz-adv-x="641" 
d="M303 332l-73 -331h-116l73 331l-185 368h642zM199 583l65 -132l125 132h-190z" />
    <glyph glyph-name="W.alt" horiz-adv-x="997" 
d="M569 -21l-99 568l-340 -568l-128 721l1000 -1zM361 583h-214l44 -289zM800 583h-214l44 -289z" />
    <glyph glyph-name="exclam" unicode="!" horiz-adv-x="276" 
d="M196 700l-105 -496h-117l105 496h117zM5 125c42 0 69 -35 61 -74c-7 -33 -37 -59 -69 -59c-41 0 -69 34 -61 73c7 33 38 60 69 60z" />
    <glyph glyph-name="period" unicode="." horiz-adv-x="180" 
d="M-45 120c41 0 67 -33 59 -71c-7 -31 -35 -55 -66 -55c-39 0 -65 32 -57 69c6 32 35 57 64 57z" />
    <glyph glyph-name="question" unicode="?" horiz-adv-x="490" 
d="M225 710c123 0 204 -76 174 -218c-19 -88 -99 -159 -195 -176l-31 -122h-106l40 211c120 -8 168 55 178 101c15 72 -22 87 -65 87c-53 0 -105 -32 -115 -80l-114 8c24 112 126 189 234 189zM30 68c17 82 150 77 131 -14c-18 -82 -151 -77 -131 14z" />
    <glyph glyph-name="bracketright" unicode="]" horiz-adv-x="352" 
d="M-109 0l25 117h117l99 466h-117l25 117h233l-149 -700h-233z" />
    <glyph glyph-name="bracketleft" unicode="[" horiz-adv-x="344" 
d="M311 700l-25 -117h-116l-99 -466h116l-25 -117h-233l149 700h233z" />
    <glyph glyph-name="eight" unicode="8" horiz-adv-x="487" 
d="M293 347c38 -35 59 -89 46 -149c-58 -276 -466 -269 -406 14c12 54 52 109 105 144c-33 31 -55 88 -43 148c59 276 466 266 406 -14c-11 -54 -48 -110 -108 -143zM103 490c-10 -49 19 -87 65 -87c57 0 114 46 125 101c28 128 -161 121 -190 -14zM44 198
c-26 -126 156 -118 184 14c10 47 -17 83 -63 83c-55 0 -109 -44 -121 -97z" />
    <glyph glyph-name="three" unicode="3" horiz-adv-x="493" 
d="M28 587l24 113h414l-226 -293c86 -21 134 -93 109 -209c-31 -149 -141 -204 -248 -204c-118 0 -204 83 -178 208l113 -8c-11 -55 27 -84 70 -84c68 0 115 38 129 107c11 49 -4 98 -76 98h-104l205 272h-232z" />
    <glyph glyph-name="seven" unicode="7" horiz-adv-x="436" 
d="M-6 586l24 113h420l-412 -699h-128l346 586h-250z" />
    <glyph glyph-name="nine" unicode="9" horiz-adv-x="486" 
d="M228 708c151 0 211 -140 143 -281l-243 -427h-126l181 310c-14 -7 -29 -8 -48 -8c-116 0 -166 103 -143 209c23 110 129 197 236 197zM266 476c7 4 16 20 19 36c10 47 -18 84 -62 84c-55 0 -111 -45 -122 -98c-10 -47 18 -84 63 -84c42 0 84 27 102 62z" />
    <glyph glyph-name="six" unicode="6" horiz-adv-x="472" 
d="M91 -8c-151 0 -212 140 -144 281l243 427h126l-181 -310c15 7 29 8 48 8c116 0 166 -103 143 -209c-23 -110 -128 -197 -235 -197zM52 224c-7 -4 -15 -20 -19 -36c-10 -47 18 -84 62 -84c55 0 111 45 122 98c10 47 -18 84 -63 84c-42 0 -84 -27 -102 -62z" />
    <glyph glyph-name="zero" unicode="0" horiz-adv-x="565" 
d="M444 502l-66 -311c-57 -265 -463 -257 -406 8l66 311c56 265 462 257 406 -8zM261 193l70 326c24 114 -152 105 -176 -8l-69 -326c-25 -115 151 -106 175 8z" />
    <glyph glyph-name="bar" unicode="|" horiz-adv-x="281" 
d="M40 0h-117l149 700h117z" />
    <glyph glyph-name="five" unicode="5" horiz-adv-x="501" 
d="M107 -7c-118 0 -199 74 -170 208l114 -8c-13 -61 16 -84 60 -84c53 0 116 34 130 104c10 45 15 110 -69 110h-204l80 377h376l-23 -110h-259l-34 -158h77c148 0 200 -91 170 -233c-28 -131 -141 -206 -248 -206z" />
    <glyph glyph-name="four" unicode="4" horiz-adv-x="515" 
d="M172 0l45 212h-289l22 110l369 378h118l-149 -700h-116zM239 314l46 209l-210 -209h164z" />
    <glyph glyph-name="two" unicode="2" horiz-adv-x="490" 
d="M-113 0l21 106l324 348c73 78 50 138 -5 138c-47 0 -103 -28 -116 -88l-108 8c24 112 98 197 229 197c145 0 249 -150 93 -318l-269 -274h264l-25 -117h-408z" />
    <glyph glyph-name="one" unicode="1" horiz-adv-x="332" 
d="M-11 0l122 567l-111 -38l-22 84l177 87h100l-149 -700h-117z" />
    <glyph glyph-name="braceright" unicode="}" horiz-adv-x="360" 
d="M-109 0l25 117h78l99 466h-78l25 117h195l-62 -285l118 -65l-143 -65l-62 -285h-195z" />
    <glyph glyph-name="braceleft" unicode="{" horiz-adv-x="346" 
d="M310 700l-25 -117h-78l-99 -466h78l-25 -117h-195l62 285l-117 65l142 65l62 285h195z" />
    <glyph glyph-name="ampersand" unicode="&#x26;" horiz-adv-x="653" 
d="M400 0l-66 80c-124 -124 -321 -103 -375 16c-52 95 -13 220 103 305c-27 29 -45 79 -33 136c20 93 110 168 201 168c102 0 167 -83 146 -182c-13 -62 -55 -116 -116 -147l79 -108l31 135h186l-22 -105h-88l-14 -64c-4 -20 -8 -30 -19 -48l85 -103zM226 594
c-40 0 -81 -33 -89 -71c-6 -32 12 -58 42 -58c40 0 81 34 89 72c7 32 -12 57 -42 57zM266 169l-125 152c-62 -37 -110 -104 -82 -164c33 -54 139 -60 207 12z" />
    <glyph glyph-name="percent" unicode="%" horiz-adv-x="664" 
d="M-150 2l691 698h115l-691 -698h-115zM114 412c-84 0 -140 69 -122 151c16 76 89 137 163 137c84 0 139 -69 122 -151c-16 -76 -89 -137 -163 -137zM158 618c-39 0 -78 -32 -86 -69c-7 -31 10 -54 39 -54c39 0 78 31 86 68c6 31 -10 55 -39 55zM348 2
c-85 0 -141 69 -123 152c17 78 89 139 164 139c86 0 142 -69 124 -153c-16 -77 -89 -138 -165 -138zM392 210c-39 0 -79 -32 -87 -70c-7 -31 11 -55 40 -55c40 0 80 32 88 69c7 32 -11 56 -41 56z" />
    <glyph glyph-name="dollar" unicode="$" horiz-adv-x="543" 
d="M383 190c-26 -119 -114 -181 -212 -195l-20 -69h-87l21 73c-97 16 -161 87 -137 202l115 -8c-8 -44 10 -68 43 -79l50 184c-19 3 -43 9 -60 23c-71 32 -102 96 -84 182c24 112 114 184 213 202l22 80h87l-22 -82c95 -17 155 -96 135 -200l-114 8c7 44 -9 67 -43 76
l-49 -184c18 -3 42 -10 59 -22c72 -33 103 -96 83 -191zM126 489c-9 -41 9 -66 44 -78l47 174c-41 -11 -80 -44 -91 -96zM270 204c11 54 -10 76 -43 86l-47 -175c39 9 79 37 90 89z" />
    <glyph glyph-name="colon" unicode=":" horiz-adv-x="180" 
d="M15 405c41 0 67 -33 59 -71c-6 -31 -34 -55 -65 -55c-39 0 -66 32 -58 69c7 32 35 57 64 57zM-45 120c41 0 67 -33 59 -71c-7 -31 -35 -55 -66 -55c-39 0 -65 32 -57 69c6 32 35 57 64 57z" />
    <glyph glyph-name="semicolon" unicode=";" horiz-adv-x="181" 
d="M15 405c41 0 67 -33 59 -71c-6 -31 -34 -55 -65 -55c-39 0 -66 32 -58 69c7 32 35 57 64 57zM-52 116c123 0 45 -170 -31 -212l20 88c-34 0 -61 32 -53 69c7 31 35 55 64 55z" />
    <glyph glyph-name="comma" unicode="," horiz-adv-x="186" 
d="M-52 116c123 0 45 -170 -31 -212l20 88c-34 0 -61 32 -53 69c7 31 35 55 64 55z" />
    <glyph glyph-name="asciitilde" unicode="~" horiz-adv-x="464" 
d="M33 259l-93 34c40 111 139 127 227 79c28 -9 68 -28 102 24l94 -35c-64 -121 -136 -117 -225 -77c-43 13 -78 31 -105 -25z" />
    <glyph glyph-name="OE" unicode="&#x152;" horiz-adv-x="946" 
d="M564 588l-38 -180h241l-24 -111h-241l-38 -182h300l-25 -115h-406c-26 -5 -53 -7 -76 -7c-452 0 -309 716 132 716c35 0 63 -4 88 -10l397 1l-24 -112h-286zM347 110l112 483c-22 8 -48 12 -72 12c-284 0 -403 -509 -128 -509c34 0 62 6 88 14z" />
    <glyph glyph-name="numbersign" unicode="#" horiz-adv-x="683" 
d="M374 247h88l-51 -102h-88l-72 -146h-118l72 146h-115l-72 -146h-117l71 146h-87l51 102h87l88 179h-88l49 99h88l86 175h118l-86 -175h115l86 175h118l-86 -175h88l-49 -99h-88zM226 429l-91 -185h123l91 185h-123z" />
    <glyph glyph-name="quotesingle" unicode="'" horiz-adv-x="166" 
d="M137 700l-47 -223h-106l47 223h106z" />
    <glyph glyph-name="quotedbl" unicode="&#x22;" horiz-adv-x="332" 
d="M137 700l-47 -223h-106l47 223h106zM297 700l-47 -223h-106l47 223h106z" />
    <glyph glyph-name="grave" unicode="`" horiz-adv-x="265" 
d="M7 647l69 85l161 -104l-64 -81z" />
    <glyph glyph-name="underscore" unicode="_" horiz-adv-x="539" 
d="M-129 -97l20 96h462l-20 -96h-462z" />
    <glyph glyph-name="asterisk" unicode="*" horiz-adv-x="383" 
d="M211 522l58 -71l-39 -35l-57 70l-22 -91h-51l22 91l-85 -70l-32 35l84 71h-89l11 51h93l-58 71l40 36l58 -71l21 91h51l-21 -91l83 71l32 -36l-84 -71h89l-11 -51h-93z" />
    <glyph glyph-name="plus" unicode="+" horiz-adv-x="467" 
d="M189 299l-33 -154h-102l33 154h-145l21 101h145l33 152h102l-33 -152h152l-21 -101h-152z" />
    <glyph glyph-name="minus" unicode="&#x2212;" horiz-adv-x="401" 
d="M-70 286l22 105h337l-22 -105h-337z" />
    <glyph glyph-name="equal" unicode="=" horiz-adv-x="427" 
d="M-42 329l21 100h350l-21 -100h-350zM-80 151l22 101h350l-22 -101h-350z" />
    <glyph glyph-name="endash" unicode="&#x2013;" horiz-adv-x="509" 
d="M-49 285l23 111h423l-23 -111h-423z" />
    <glyph glyph-name="emdash" unicode="&#x2014;" horiz-adv-x="579" 
d="M-49 285l23 111h483l-23 -111h-483z" />
    <glyph glyph-name="divide" unicode="&#xf7;" horiz-adv-x="490" 
d="M213 574c44 0 73 -35 64 -76c-7 -35 -39 -62 -73 -62c-43 0 -72 35 -63 76c7 35 39 62 72 62zM-29 391l-22 -103h425l22 103h-425zM142 239c44 0 73 -35 64 -76c-8 -35 -39 -62 -73 -62c-43 0 -72 35 -63 76c7 35 39 62 72 62z" />
    <glyph glyph-name="slash" unicode="/" horiz-adv-x="452" 
d="M-31 -1h-120l474 701h123z" />
    <glyph glyph-name="backslash" unicode="\" horiz-adv-x="454" 
d="M293 -1h-115l-176 701h115z" />
    <glyph glyph-name="hyphen" unicode="-" horiz-adv-x="443" 
d="M-44 299l22 106h352l-22 -106h-352z" />
    <glyph glyph-name="multiply" unicode="&#xd7;" horiz-adv-x="403" 
d="M104 270l-127 -104l-58 70l126 104l-83 103l82 71l83 -105l126 104l58 -70l-126 -103l82 -104l-82 -70z" />
    <glyph glyph-name="questiondown" unicode="&#xbf;" horiz-adv-x="490" 
d="M302 632c-18 -82 -151 -77 -131 14c17 82 150 77 131 -14zM106 -10c-123 0 -204 76 -174 218c19 88 99 159 195 176l31 122h106l-40 -211c-119 8 -168 -55 -178 -101c-15 -72 22 -87 65 -87c53 0 105 32 115 80l114 -8c-24 -112 -126 -189 -234 -189z" />
    <glyph glyph-name="exclamdown" unicode="&#xa1;" horiz-adv-x="276" 
d="M119 567c-42 0 -70 35 -62 74c7 33 38 59 70 59c41 0 69 -34 60 -73c-7 -33 -37 -60 -68 -60zM-72 -8l105 496h117l-105 -496h-117z" />
    <glyph glyph-name="degree" unicode="&#xb0;" horiz-adv-x="365" 
d="M130 409c-89 0 -147 73 -129 160c17 81 95 146 174 146c89 0 148 -73 129 -160c-17 -81 -95 -146 -174 -146zM178 636c-45 0 -91 -38 -100 -81c-8 -37 14 -66 49 -66c45 0 91 37 100 80c8 37 -14 67 -49 67z" />
    <glyph glyph-name="lozenge" unicode="&#x25ca;" horiz-adv-x="484" 
d="M-68 349l305 351l163 -351l-304 -351zM128 185l147 164l-70 163l-148 -163z" />
    <glyph glyph-name="dagger" unicode="&#x2020;" horiz-adv-x="543" 
d="M443 408h-175l-87 -408h-117l87 408h-175l25 117h175l37 175h117l-37 -175h175z" />
    <glyph glyph-name="daggerdbl" unicode="&#x2021;" horiz-adv-x="537" 
d="M466 525l-25 -117h-175l-22 -103h175l-25 -117h-175l-40 -188h-117l40 188h-175l25 117h175l22 103h-175l25 117h175l37 175h117l-37 -175h175z" />
    <glyph glyph-name="A.alt" horiz-adv-x="683" 
d="M539 578c25 -53 16 -109 15 -115l-99 -463h-117l25 117h-291l-25 -117h-117l100 471c2 6 12 60 54 119c44 50 119 110 247 110c139 0 192 -66 208 -122zM388 233l50 237c1 2 8 32 0 64c-19 34 -55 49 -112 49c-68 0 -118 -22 -147 -65c-24 -25 -33 -55 -33 -55l-49 -230
h291z" />
    <glyph glyph-name="C.alt" horiz-adv-x="456" 
d="M274 117l-15 -117c-193 0 -321 161 -279 357c40 190 225 343 418 343l-15 -117c-129 0 -261 -108 -289 -240c-27 -126 51 -226 180 -226z" />
    <glyph glyph-name="A.alt1" horiz-adv-x="554" 
d="M280 720l128 -720h-559zM49 116h216l-46 289z" />
    <glyph glyph-name="O.011" horiz-adv-x="261" 
d="M69 700h117l-87 -409h-117zM6 175c53 0 88 -44 77 -95c-9 -45 -51 -81 -94 -81c-54 0 -89 44 -78 95c10 45 51 81 95 81z" />
    <glyph glyph-name="germandbls" unicode="&#xdf;" horiz-adv-x="592" 
d="M-70 0l149 699h238s227 -4 183 -211c-29 -137 -141 -140 -146 -140c109 -17 92 -148 91 -151c-43 -201 -277 -197 -277 -197l19 112s126 8 145 99c18 84 -102 80 -102 80l19 113s119 8 138 98c18 84 -99 84 -99 87l-109 -4l-126 -585h-123z" />
    <glyph glyph-name="parenright" unicode=")" horiz-adv-x="308" 
d="M28 702l129 -6c14 -44 27 -103 29 -175c4 -48 2 -109 -13 -180c-22 -100 -68 -218 -161 -344l-139 6c96 112 160 228 186 350c10 47 15 99 15 153c-5 93 -31 162 -46 196z" />
    <glyph glyph-name="parenleft" unicode="(" horiz-adv-x="311" 
d="M133 -3l-129 6c-34 106 -43 227 -15 356c21 100 67 217 160 343l139 -6c-96 -112 -160 -228 -186 -350c-26 -121 -16 -243 31 -349z" />
    <glyph glyph-name="trademark" unicode="&#x2122;" horiz-adv-x="646" 
d="M150 651l-53 -248h-50l53 248h-69l10 49h188l-10 -49h-69zM541 700l-156 -231l-64 231h-52l-63 -297h49l37 186l52 -186h46l124 182l-37 -182h50l63 297h-49z" />
    <glyph glyph-name="cent" unicode="&#xa2;" horiz-adv-x="580" 
d="M129 -1l21 73c-126 28 -201 146 -172 285c28 132 143 244 280 272l23 85h90l-22 -81c65 -7 122 -42 153 -87c5 0 10 -6 7 -9l-77 -64c-6 -5 -11 1 -15 6h3c-21 24 -50 39 -84 45l-84 -347c37 6 75 25 108 49l-2 1c7 5 10 -2 12 -6l52 -65c2 -3 4 -10 3 -15
c-54 -42 -116 -68 -187 -75l-19 -67h-90zM92 343c-15 -73 12 -134 71 -159l80 330c-70 -25 -134 -92 -151 -171z" />
    <glyph glyph-name="acute" unicode="&#xb4;" horiz-adv-x="278" 
d="M214 739l37 -84l-211 -102l-34 82z" />
    <glyph glyph-name="pi" unicode="&#x3c0;" horiz-adv-x="564" 
d="M501 584h-87l-124 -584h-118l124 584h-79l-124 -584h-117l124 584h-87l25 116h488z" />
    <glyph glyph-name="periodcentered" unicode="&#xb7;" horiz-adv-x="204" 
d="M27 421c43 0 70 -35 62 -75c-7 -33 -38 -59 -71 -59c-41 0 -69 34 -60 73c7 34 38 61 69 61z" />
    <glyph glyph-name="Euro" unicode="&#x20ac;" horiz-adv-x="593" 
d="M-45 459l71 4c67 132 190 237 370 237c65 0 108 -17 153 -43l-68 -99c-30 17 -55 25 -90 25c-108 0 -191 -57 -239 -127l171 3l-19 -86l-193 -4c-6 -19 -12 -38 -13 -57l194 4l-18 -86l-169 -3c22 -65 75 -110 167 -110c43 0 88 11 122 27l24 -115
c-48 -20 -104 -29 -151 -29c-185 0 -269 106 -284 233l-77 -3l18 86l59 4c2 19 5 38 10 57l-57 -4z" />
    <glyph glyph-name="at" unicode="@" horiz-adv-x="895" 
d="M303 525c101 0 167 -83 146 -182c-3 -17 -10 -36 -19 -54l76 3l13 62c34 156 -57 241 -181 241c-164 0 -280 -120 -308 -252c-27 -126 33 -238 189 -238h355l-24 -113h-345c-220 0 -330 169 -288 365c40 190 210 353 425 353c198 0 341 -138 293 -364l-37 -171h-355
c-97 0 -162 82 -141 182c20 93 109 168 201 168zM209 343c-7 -33 12 -58 43 -58c41 0 82 33 90 72c7 33 -12 58 -43 58c-41 0 -82 -33 -90 -72z" />
    <glyph glyph-name="V.001" horiz-adv-x="424" 
d="M188 578l-180 -143l-55 61l255 204l175 -204l-75 -61z" />
    <glyph glyph-name="less" unicode="&#x3c;" horiz-adv-x="349" 
d="M77 342l120 -162l-77 -70l-175 232l265 233l57 -69z" />
    <glyph glyph-name="greater" unicode="&#x3e;" horiz-adv-x="346" 
d="M249 342l-265 -232l-57 70l190 162l-120 164l77 69z" />
    <glyph glyph-name="F.alt" horiz-adv-x="617" 
d="M521 583h-467l25 117h467zM484 408l-25 -116h-350l-62 -292h-117l87 408h467z" />
    <glyph glyph-name="onesuperior" unicode="&#xb9;" horiz-adv-x="267" 
d="M41 354l59 269l-58 -21l-13 62l96 36h58l-74 -346h-68z" />
    <glyph glyph-name="twosuperior" unicode="&#xb2;" horiz-adv-x="341" 
d="M-47 298l10 60l221 238c0 23 -13 37 -33 37c-32 0 -66 -27 -72 -54l-65 8c14 64 72 113 131 113c70 0 116 -57 102 -121v-7l-191 -207h146l-14 -67h-235z" />
    <glyph glyph-name="threesuperior" unicode="&#xb3;" horiz-adv-x="333" 
d="M87 299c-70 0 -115 56 -102 121l66 -8c-6 -28 7 -46 30 -46c33 0 66 26 72 57c5 22 -5 39 -29 42l-34 1l15 67l24 1c26 4 54 28 60 56c5 25 -8 43 -31 43c-33 0 -66 -26 -72 -54l-65 8c14 64 71 113 131 113c69 0 115 -57 101 -124c-7 -30 -22 -59 -53 -82
c14 -19 25 -50 17 -85c-13 -62 -71 -110 -130 -110z" />
    <glyph glyph-name="D.alt" horiz-adv-x="670" 
d="M79 700h112c170 0 405 -43 338 -357c-63 -296 -303 -343 -477 -343h-122zM414 357c45 211 -116 232 -198 231l146 -354c22 31 41 71 52 123zM145 451l-73 -333s99 -17 195 32z" />
    <glyph glyph-name="E.alt" horiz-adv-x="617" 
d="M152 496h350l-25 -117h-350l-13 -58h350l-24 -117h-350l-19 -87h350l-25 -117h-467l149 700h467l-25 -117h-350z" />
    <glyph glyph-name="space" unicode=" " horiz-adv-x="345" 
 />
    <glyph glyph-name="X.alt" horiz-adv-x="647" 
d="M492 1h-643l327 349l-174 350h643l-326 -350zM389 583h-190l65 -132zM104 117h190l-65 133z" />
    <glyph glyph-name="dieresis" unicode="&#xa8;" horiz-adv-x="376" 
d="M133 633c-7 -32 -38 -58 -69 -58c-40 0 -67 34 -59 72c7 33 37 59 67 59c41 0 69 -34 61 -73zM342 633c-7 -32 -38 -58 -69 -58c-40 0 -67 34 -59 72c7 33 37 59 67 59c41 0 69 -34 61 -73z" />
    <glyph glyph-name="M.alt" horiz-adv-x="740" 
d="M447 231l50 224l-171 -218h-93l-88 225l-51 -231h-116l100 469h106l119 -314l249 314h110l-100 -469h-115zM-71 0l25 116h584l-25 -116h-584z" />
    <glyph glyph-name="asciicircum" unicode="^" horiz-adv-x="594" 
d="M192 578l-180 -143l-55 61l255 204l175 -204l-75 -61z" />
    <glyph glyph-name="cedilla" unicode="&#xb8;" horiz-adv-x="429" 
d="M16 -240c-98 0 -161 80 -141 173l93 -8c-8 -40 14 -69 49 -69c45 0 89 37 99 80c7 37 -14 65 -54 65l11 96c92 0 156 -80 136 -175c-19 -90 -106 -162 -193 -162z" />
    <glyph glyph-name="bullet" unicode="&#x2022;" horiz-adv-x="312" 
d="M180 343c-12 -56 -64 -101 -119 -101c-64 0 -107 53 -94 115c12 57 66 101 120 101c65 0 107 -52 93 -115z" />
    <glyph glyph-name="circumflex" unicode="&#x2c6;" horiz-adv-x="392" 
d="M202 729l156 -93l-59 -77l-114 72l-136 -72l-35 71z" />
    <glyph glyph-name="scaron" unicode="&#x161;" horiz-adv-x="543" 
d="M288 759l-157 93l60 77l113 -72l137 72l35 -71zM132 -10c-125 3 -211 77 -185 208l116 -8c-11 -58 27 -83 74 -83c59 0 120 39 133 97c11 56 -32 88 -73 90c-11 0 -60 2 -101 26c-71 33 -102 97 -84 183c28 130 145 207 253 207c126 0 206 -86 183 -205l-115 8
c11 58 -25 80 -73 80c-60 0 -119 -36 -134 -104c-12 -55 28 -82 75 -82c10 0 59 -2 99 -26c72 -33 101 -105 83 -191c-28 -131 -143 -200 -251 -200z" />
    <glyph glyph-name="caron" unicode="&#x2c7;" horiz-adv-x="395" 
d="M172 559l-156 93l59 77l114 -72l136 72l35 -71z" />
    <glyph glyph-name="yen" unicode="&#xa5;" horiz-adv-x="640" 
d="M362 395h81l-22 -103h-128l-10 -49h128l-22 -101h-128l-30 -142h-117l30 142h-132l22 101h132l10 49h-133l22 103h89l-152 305h139l124 -250l233 250h147z" />
    <glyph glyph-name="infinity" unicode="&#x221e;" horiz-adv-x="812" 
d="M316 261l-158 -130h-18c-5 0 -51 3 -88 28c-64 32 -91 97 -74 180c17 77 63 138 131 173c57 22 102 21 107 21h24l100 -130l159 130h18c5 0 51 -3 88 -28c64 -32 91 -97 73 -180c-16 -77 -62 -138 -130 -173c-57 -22 -102 -21 -107 -21h-24zM399 332l73 -97
c11 2 28 8 37 16c38 14 63 43 72 88c9 39 3 65 -20 83c-15 5 -28 7 -36 9zM258 332l-74 97c-10 -2 -27 -7 -36 -15c-38 -14 -63 -44 -73 -89c-8 -39 -2 -64 21 -82c15 -5 27 -8 36 -10z" />
    <glyph glyph-name="notequal" unicode="&#x2260;" horiz-adv-x="524" 
d="M206 305h189l-23 -107h-239l-74 -109h-123l73 109h-65l23 107h115l73 108h-165l23 107h215l63 95h124l-64 -95h90l-23 -107h-139z" />
    <glyph glyph-name="A.alt2" horiz-adv-x="558" 
d="M276 700l132 -700h-122l-71 385l-236 -385h-130z" />
    <glyph glyph-name="sterling" unicode="&#xa3;" horiz-adv-x="592" 
d="M257 243l-152 -4c-16 -37 -32 -78 -43 -121l364 4l-26 -122h-487l14 65c14 65 32 126 54 182l-72 -4l26 122l103 3c12 20 24 39 35 61c59 78 127 142 204 192c142 80 262 79 268 79l-16 -122c-1 0 -96 -4 -196 -69c-63 -34 -117 -85 -160 -147l110 3z" />
    <glyph glyph-name="T.alt" horiz-adv-x="556" 
d="M282 456h175l-22 -106h-175l-75 -350h-117l75 350h-175l22 106h175l29 135h-175l23 109h467l-23 -109h-175z" />
    <glyph glyph-name="O.alt" horiz-adv-x="855" 
d="M-69 2l148 698h698l-148 -698h-698zM537 118l99 466h-466l-99 -466h466z" />
    <glyph glyph-name="H.alt" horiz-adv-x="568" 
d="M388 233h-116l37 175h-175l-37 -175h-117l99 467h117l-37 -175h175l37 175h116zM-45 117l-25 -117h408l25 117h-408z" />
    <glyph glyph-name="O.alt1" horiz-adv-x="817" 
d="M399 700c198 0 326 -161 284 -357c-40 -191 -225 -343 -413 -343c-198 0 -326 160 -284 357c40 190 225 343 413 343zM275 116c134 0 266 109 294 241c27 126 -51 226 -175 226c-134 0 -266 -108 -294 -240c-27 -126 51 -227 175 -227zM253 350l61 -83l104 83l-63 82z
" />
    <glyph glyph-name="zero.alt" horiz-adv-x="558" 
d="M266 702c118 0 194 -96 170 -209l-62 -292c-24 -113 -129 -201 -237 -201c-118 0 -194 96 -170 209l62 292c24 113 129 201 237 201zM262 585c-54 0 -108 -43 -118 -92l-40 -178l203 252c-13 13 -29 18 -45 18zM142 117c53 0 106 43 117 92l39 178l-201 -252
c12 -13 29 -18 45 -18z" />
    <glyph glyph-name="O.alt2" horiz-adv-x="812" 
d="M396 699c198 0 326 -161 284 -357c-40 -190 -225 -342 -413 -342c-198 0 -325 160 -283 356c40 190 224 343 412 343zM444 576l-106 -451c105 26 204 120 228 231c22 106 -28 194 -122 220zM97 342c-22 -105 29 -193 123 -219l106 451c-105 -26 -205 -120 -229 -232z" />
    <glyph glyph-name="S.alt" horiz-adv-x="528" 
d="M121 0c-10 0 -57 3 -95 25c-70 29 -104 92 -91 170l6 34l126 94c-58 35 -84 98 -67 178c26 122 142 197 250 197c10 0 59 -3 99 -26c72 -33 102 -99 84 -182l-3 -21l-125 -94c57 -35 83 -98 66 -178c-26 -122 -142 -197 -250 -197zM113 487c-11 -50 18 -70 59 -79
l151 114c-1 24 -9 38 -25 50c-22 6 -41 8 -55 8c-58 0 -118 -33 -130 -93zM199 290l-150 -114c0 -44 42 -60 77 -60c60 0 120 37 132 95c10 49 -18 70 -59 79z" />
    <glyph glyph-name="C.alt1" horiz-adv-x="687" 
d="M269 117c69 0 136 29 185 71l71 -89c-76 -63 -169 -99 -261 -99c-198 0 -326 161 -284 357c40 190 225 343 413 343c102 0 182 -42 232 -106l-93 -76c-33 42 -85 65 -144 65c-134 0 -266 -108 -294 -240c-27 -126 51 -226 175 -226zM437 357c12 57 -21 101 -76 101
c-64 0 -129 -52 -143 -115c-12 -56 23 -101 77 -101c65 0 129 53 142 115z" />
    <glyph glyph-name="copyright" unicode="&#xa9;" horiz-adv-x="692" 
d="M334 700c172 0 280 -139 245 -308c-35 -162 -190 -291 -352 -291c-171 0 -280 137 -244 305c34 163 190 294 351 294zM223 178c128 0 254 104 281 228c25 120 -49 216 -167 216c-126 0 -254 -104 -280 -230c-26 -118 50 -214 166 -214zM257 307c33 0 60 14 79 30l34 -38
c-32 -26 -68 -39 -103 -39c-81 0 -135 68 -118 147c16 75 87 135 158 135c45 0 77 -19 100 -45l-35 -27c-13 17 -32 25 -55 25c-56 0 -112 -46 -124 -102c-10 -48 18 -86 64 -86z" />
    <glyph glyph-name="registered" unicode="&#xae;" horiz-adv-x="675" 
d="M329 700c172 0 280 -139 245 -308c-35 -162 -190 -291 -352 -291c-171 0 -280 137 -244 305c34 163 190 294 351 294zM220 186c124 0 245 100 271 220c24 116 -45 208 -160 208c-122 0 -246 -100 -271 -222c-25 -114 48 -206 160 -206zM225 374l-26 -120h-50l62 289h104
s94 -4 75 -91c-9 -43 -39 -62 -70 -71l29 -127h-50l-32 120h-42zM235 423h54s46 4 54 43c7 32 -39 28 -39 28h-54z" />
    <glyph glyph-name="W.alt1" horiz-adv-x="1024" 
d="M2 701h122l112 -549l143 223l-64 326h122l35 -174l110 174h131l-207 -326l43 -223l346 549h130l-441 -701h-126l-44 224l-142 -224h-127z" />
    <glyph glyph-name="O.alt3" horiz-adv-x="745" 
d="M246 120l-255 -120l99 253l-145 179l258 37l161 230l66 -230l250 -37l-223 -179l-12 -253zM203 284l-38 -102l100 48l85 -48l4 102l89 74l-97 15l-26 93l-68 -93l-110 -15z" />
    <glyph glyph-name="N.alt" horiz-adv-x="742" 
d="M513 0h-116l-117 247l-231 -247h-119l149 700h116l243 -498l108 498h116zM155 498l-67 -297l138 147z" />
    <glyph glyph-name="S.alt1" horiz-adv-x="505" 
d="M430 409l-257 -408h-130l184 291h-316l257 408h130l-183 -291h315z" />
    <glyph glyph-name="E.alt1" horiz-adv-x="583" 
d="M32 583l25 117h467l-25 -117h-467zM-30 292l25 116h467l-25 -116h-467zM-67 117h467l-25 -117h-467z" />
    <glyph glyph-name="A" unicode="A" 
d="M25 81l-47 -81h-129l431 720l128 -720h-122l-14 81h-247zM255 182l-31 243l-139 -243h170z" />
    <glyph glyph-name="B" unicode="B" horiz-adv-x="603" 
d="M353 347c121 -26 95 -150 94 -153c-40 -189 -232 -194 -279 -194h-238l149 700h238s228 1 185 -204c-19 -89 -81 -133 -149 -149zM133 408h122s112 4 131 94c19 91 -94 82 -94 82h-122zM71 116h112c49 0 134 16 151 95c19 91 -104 80 -104 80h-122z" />
    <glyph glyph-name="C" unicode="C" horiz-adv-x="694" 
d="M270 107c69 0 136 29 185 71l71 -89c-76 -63 -169 -99 -261 -99c-198 0 -330 144 -283 367c44 208 216 353 416 353c102 0 182 -42 233 -106l-94 -76c-33 42 -85 65 -144 65c-149 0 -264 -106 -295 -250c-31 -147 48 -236 172 -236z" />
    <glyph glyph-name="D" unicode="D" horiz-adv-x="662" 
d="M79 700h112c170 0 405 -43 338 -357c-63 -296 -303 -343 -477 -343h-122zM177 585l-105 -467s283 -40 342 239c59 277 -237 228 -237 228z" />
    <glyph glyph-name="E" unicode="E" horiz-adv-x="588" 
d="M134 408h291l-25 -116h-291l-37 -175h350l-25 -117h-467l149 700h467l-25 -117h-350z" />
    <glyph glyph-name="F" unicode="F" horiz-adv-x="580" 
d="M134 408h291l-25 -116h-291l-62 -292h-117l149 700h467l-25 -117h-350z" />
    <glyph glyph-name="G" unicode="G" horiz-adv-x="773" 
d="M551 -3h-102l11 63c-68 -53 -130 -70 -208 -70c-193 0 -316 135 -267 367c44 205 227 353 415 353c102 0 182 -42 233 -106l-94 -76c-33 42 -85 65 -144 65c-134 0 -263 -94 -296 -250c-36 -168 49 -236 173 -236c75 0 146 33 199 82l24 98h-117l24 111h234z" />
    <glyph glyph-name="H" unicode="H" horiz-adv-x="686" 
d="M457 0h-117l62 292h-291l-62 -292h-117l149 700h117l-62 -290h291l62 290h117z" />
    <glyph glyph-name="I" unicode="I" horiz-adv-x="350" 
d="M106 107h82l-23 -107h-281l23 107h82l103 486h-78l23 107h273l-23 -107h-78z" />
    <glyph glyph-name="K" unicode="K" horiz-adv-x="646" 
d="M480 0h-149l-157 266l-84 -74l-43 -192h-117l149 700h117l-77 -353l362 353h150l-367 -356z" />
    <glyph glyph-name="L" unicode="L" horiz-adv-x="501" 
d="M331 117l-25 -117h-376l149 700h117l-124 -583h259z" />
    <glyph glyph-name="M" unicode="M" horiz-adv-x="916" 
d="M571 0l94 430l-293 -430h-110l-120 439l-96 -439h-117l149 701h117l149 -545l372 545h121l-149 -701h-117z" />
    <glyph glyph-name="N" unicode="N" horiz-adv-x="742" 
d="M397 0l-242 498l-108 -498h-117l149 700h116l243 -498l108 498h116l-149 -700h-116z" />
    <glyph glyph-name="O" unicode="O" horiz-adv-x="638" 
d="M219 190c-148 0 -245 121 -214 267c30 140 166 253 304 253c148 0 244 -121 213 -267c-29 -140 -165 -253 -303 -253zM304 594c-85 0 -168 -68 -186 -151c-16 -77 30 -137 105 -137c85 0 169 68 186 151c17 77 -30 137 -105 137zM-66 0l25 116h462l-25 -116h-462z" />
    <glyph glyph-name="P" unicode="P" horiz-adv-x="583" 
d="M79 700h238s227 -4 183 -211c-43 -201 -270 -197 -270 -197h-121l-62 -292h-117l87 408h113l-74 175zM191 583l69 -174c32 4 112 23 127 94c18 84 -95 80 -95 80h-101z" />
    <glyph glyph-name="Q" unicode="Q" horiz-adv-x="822" 
d="M537 -16l-56 73c-67 -43 -142 -66 -215 -66c-199 0 -327 159 -282 368c40 191 214 351 415 351c211 0 326 -168 285 -365c-16 -72 -52 -148 -106 -205l58 -76zM569 359c26 126 -50 234 -175 234c-41 0 -78 -10 -113 -25l231 -334c25 33 47 81 57 125zM271 108
c51 0 100 16 142 39l-238 344c-36 -38 -66 -93 -77 -146c-31 -142 49 -237 173 -237z" />
    <glyph glyph-name="R" unicode="R" horiz-adv-x="612" 
d="M179 292h-69l-62 -292h-117l87 408h113l-74 175l23 117h238s228 -4 184 -211c-26 -121 -116 -167 -190 -186l120 -303h-133zM192 583l69 -174c32 3 112 22 127 94c18 84 -95 80 -95 80h-101z" />
    <glyph glyph-name="S" unicode="S" horiz-adv-x="543" 
d="M132 -10c-125 3 -211 77 -185 208l116 -8c-11 -58 27 -83 74 -83c59 0 120 39 133 97c11 56 -32 88 -73 90c-11 0 -60 2 -101 26c-71 33 -102 97 -84 183c28 130 145 207 253 207c126 0 206 -86 183 -205l-115 8c11 58 -25 80 -73 80c-60 0 -119 -36 -134 -104
c-12 -55 28 -82 75 -82c10 0 59 -2 99 -26c72 -33 101 -105 83 -191c-28 -131 -143 -200 -251 -200z" />
    <glyph glyph-name="T" unicode="T" horiz-adv-x="448" 
d="M260 593l-126 -593h-116l126 593h-147l23 107h410l-23 -107h-147z" />
    <glyph glyph-name="U" unicode="U" horiz-adv-x="740" 
d="M661 700l-90 -423c-1 -7 -14 -73 -62 -145c-69 -92 -168 -142 -280 -142c-122 0 -204 56 -229 156c-22 64 -11 132 -9 139l88 415h582zM409 195c34 41 48 90 48 91l63 297h-350l-63 -298s-13 -55 -1 -104c20 -51 61 -74 128 -74c78 0 136 29 175 88z" />
    <glyph glyph-name="V" unicode="V" horiz-adv-x="556" 
d="M128 -29l-126 729h559zM361 584h-215l43 -298z" />
    <glyph glyph-name="W" unicode="W" horiz-adv-x="1001" 
d="M471 548l-342 -576l-125 728h123l63 -413l243 413h131l64 -413l243 413h130l-434 -728z" />
    <glyph glyph-name="X" unicode="X" horiz-adv-x="674" 
d="M19 700h139l124 -250l233 250h147l-326 -350l173 -350h-139l-123 250l-234 -250h-147l327 350z" />
    <glyph glyph-name="Y" unicode="Y" horiz-adv-x="645" 
d="M304 331l-73 -331h-117l73 331l-185 369h139l124 -250l233 250h147z" />
    <glyph glyph-name="Z" unicode="Z" horiz-adv-x="475" 
d="M-118 0l358 583h-233l25 117h409l-357 -583h232l-25 -117h-409z" />
    <glyph glyph-name="a" unicode="a" 
d="M25 81l-47 -81h-129l431 720l128 -720h-122l-14 81h-247zM255 182l-31 243l-139 -243h170z" />
    <glyph glyph-name="b" unicode="b" horiz-adv-x="603" 
d="M353 347c121 -26 95 -150 94 -153c-40 -189 -232 -194 -279 -194h-238l149 699h238s228 2 185 -203c-19 -89 -81 -133 -149 -149zM133 408h122s112 4 131 94c19 91 -94 81 -94 81h-122zM71 116h112c49 0 134 16 151 95c19 91 -104 80 -104 80h-122z" />
    <glyph glyph-name="c" unicode="c" horiz-adv-x="694" 
d="M270 107c69 0 136 29 185 71l71 -89c-76 -63 -169 -99 -261 -99c-198 0 -330 144 -283 367c44 208 216 353 416 353c102 0 182 -42 233 -106l-94 -76c-33 42 -85 65 -144 65c-149 0 -264 -106 -295 -250c-31 -147 48 -236 172 -236z" />
    <glyph glyph-name="d" unicode="d" horiz-adv-x="662" 
d="M79 700h112c170 0 405 -43 338 -357c-63 -296 -303 -343 -477 -343h-122zM177 585l-105 -467s283 -40 342 239c59 277 -237 228 -237 228z" />
    <glyph glyph-name="e" unicode="e" horiz-adv-x="588" 
d="M134 408h291l-25 -116h-291l-37 -175h350l-25 -117h-467l149 700h467l-25 -117h-350z" />
    <glyph glyph-name="f" unicode="f" horiz-adv-x="580" 
d="M134 408h291l-25 -116h-291l-62 -292h-117l149 700h467l-25 -117h-350z" />
    <glyph glyph-name="H.alt1" horiz-adv-x="681" 
d="M455 0h-117l37 175h-291l-37 -175h-117l149 700h117l-37 -175h291l37 175h117zM425 408h-291l-25 -116h291z" />
    <glyph glyph-name="i" unicode="i" horiz-adv-x="280" 
d="M82 700h117l-149 -700h-117z" />
    <glyph glyph-name="k" unicode="k" horiz-adv-x="646" 
d="M480 0h-149l-157 266l-84 -74l-43 -192h-117l149 700h117l-77 -353l362 353h150l-367 -356z" />
    <glyph glyph-name="l.001" horiz-adv-x="561" 
d="M72 117h320l-25 -117h-437l149 700h117l-74 -350h310l-23 -107h-310z" />
    <glyph glyph-name="M.alt1" horiz-adv-x="1022" 
d="M872 0h-122l-111 549l-143 -223l63 -326h-122l-35 174l-110 -174h-131l208 326l-43 223l-347 -549h-130l441 701h126l45 -224l141 224h127z" />
    <glyph glyph-name="n" unicode="n" horiz-adv-x="742" 
d="M397 0l-242 498l-108 -498h-117l149 700h116l243 -498l108 498h116l-149 -700h-116z" />
    <glyph glyph-name="o" unicode="o" horiz-adv-x="797" 
d="M389 709c464 0 322 -718 -133 -718c-467 0 -323 718 133 718zM260 104c308 0 423 491 125 491c-307 0 -423 -491 -125 -491z" />
    <glyph glyph-name="p" unicode="p" horiz-adv-x="580" 
d="M79 700h239s228 -4 184 -212c-43 -202 -271 -198 -271 -198h-122l-62 -292h-117zM134 407h122s113 4 132 95c18 85 -95 81 -95 81h-122z" />
    <glyph glyph-name="q" unicode="q" horiz-adv-x="827" 
d="M533 -19l-59 72c-65 -41 -140 -63 -211 -63c-216 0 -324 170 -282 367c40 190 203 353 415 353c213 0 324 -171 282 -367c-15 -72 -52 -151 -107 -208l59 -72zM268 106c43 0 94 15 134 36l-56 72l97 83l60 -71c27 34 52 85 62 131c27 126 -26 236 -174 236
c-152 0 -268 -118 -296 -250c-27 -126 37 -237 173 -237z" />
    <glyph glyph-name="r" unicode="r" horiz-adv-x="599" 
d="M108 292l-62 -292h-117l149 700h238s228 -4 184 -211c-23 -110 -100 -157 -170 -180l72 -309h-125l-72 292h-97zM133 408h121s113 4 132 95c18 84 -95 80 -95 80h-121z" />
    <glyph glyph-name="s" unicode="s" horiz-adv-x="543" 
d="M132 -10c-125 3 -211 77 -185 208l116 -8c-11 -58 27 -83 74 -83c59 0 120 38 132 96c12 56 -31 89 -72 91c-11 0 -60 2 -101 26c-71 33 -102 97 -84 183c28 130 145 207 253 207c126 0 206 -86 183 -205l-115 8c11 58 -25 80 -73 80c-60 0 -119 -36 -134 -104
c-12 -55 28 -82 75 -82c10 0 59 -2 99 -26c72 -33 101 -106 82 -192c-27 -131 -142 -199 -250 -199z" />
    <glyph glyph-name="t" unicode="t" horiz-adv-x="448" 
d="M260 593l-126 -593h-116l126 593h-147l23 107h410l-23 -107h-147z" />
    <glyph glyph-name="u" unicode="u" horiz-adv-x="683" 
d="M200 -10c-149 0 -252 94 -221 238l100 472h117l-102 -480c-11 -81 42 -113 111 -113c78 0 165 43 182 121l100 472h117l-102 -480c-32 -149 -158 -230 -302 -230z" />
    <glyph glyph-name="v" unicode="v" horiz-adv-x="560" 
d="M129 -18l-127 718h123l63 -413l243 413h130z" />
    <glyph glyph-name="w" unicode="w" horiz-adv-x="1001" 
d="M471 548l-342 -576l-125 728h123l63 -413l243 413h131l64 -413l243 413h130l-434 -728z" />
    <glyph glyph-name="x" unicode="x" horiz-adv-x="674" 
d="M19 700h139l124 -250l233 250h147l-326 -350l173 -350h-139l-123 250l-234 -250h-147l327 350z" />
    <glyph glyph-name="y" unicode="y" horiz-adv-x="645" 
d="M304 331l-73 -331h-117l73 331l-185 369h139l124 -250l233 250h147z" />
    <glyph glyph-name="z" unicode="z" horiz-adv-x="583" 
d="M332 583h-327l25 117h539l-482 -583h356l-25 -117h-569z" />
    <glyph glyph-name="h" unicode="h" horiz-adv-x="686" 
d="M457 0h-117l62 292h-291l-62 -292h-117l149 700h117l-62 -290h291l62 290h117z" />
    <glyph glyph-name="l" unicode="l" horiz-adv-x="501" 
d="M331 117l-25 -117h-376l149 700h117l-124 -583h259z" />
    <glyph glyph-name="O.alt4" horiz-adv-x="778" 
d="M241 2c-198 0 -325 161 -284 356c40 189 224 342 412 342c197 0 324 -161 282 -356c-40 -189 -223 -342 -410 -342zM379 652c-171 0 -341 -139 -377 -308c-34 -163 68 -293 229 -293c170 0 339 138 375 307c35 163 -67 294 -227 294zM193 466c16 72 41 129 58 129
c27 0 35 -65 18 -143c-15 -71 -39 -128 -56 -128c-27 0 -36 65 -20 142zM387 466c16 72 40 129 57 129c26 0 34 -65 17 -143c-15 -71 -39 -128 -55 -128c-27 0 -35 65 -19 142zM264 111c-138 0 -227 112 -199 244l46 -8c-23 -106 42 -188 143 -188c111 0 221 90 244 196
l46 -8c-28 -132 -153 -236 -280 -236z" />
    <glyph glyph-name="O.alt5" horiz-adv-x="819" 
d="M55 0l-129 351l274 350h405l130 -350l-275 -351h-405zM414 116l187 235l-83 234h-271l-187 -234l83 -235h271z" />
    <glyph glyph-name="m" unicode="m" horiz-adv-x="916" 
d="M571 0l94 430l-293 -430h-110l-120 439l-96 -439h-117l149 701h117l149 -545l372 545h121l-149 -701h-117z" />
    <glyph glyph-name="A.alt3" horiz-adv-x="558" 
d="M286 0l-21 121l-75 -121h-115l-21 121l-75 -121h-130l427 700l79 -422l53 -278h-122zM215 385l-68 -107l17 -107l68 107z" />
    <glyph glyph-name="A.alt4" horiz-adv-x="624" 
d="M334 583l109 -583h-122l-71 385l-236 -385h-130l357 583h-231l25 117h559l-25 -117h-235z" />
    <glyph glyph-name="j" unicode="j" horiz-adv-x="406" 
d="M327 701l-106 -501c-44 -204 -243 -200 -243 -200h-93l25 117h83c88 0 112 91 112 91l105 493h117z" />
    <glyph glyph-name="J" unicode="J" horiz-adv-x="406" 
d="M327 701l-106 -501c-44 -204 -243 -200 -243 -200h-93l25 117h83c88 0 112 91 112 91l82 386h-126l23 107h243z" />
    <glyph glyph-name="O.alt6" horiz-adv-x="808" 
d="M392 699c198 0 326 -160 284 -356c-40 -190 -225 -343 -413 -343c-198 0 -325 161 -283 357c40 190 224 342 412 342zM562 357c27 125 -51 226 -175 226c-48 0 -92 -14 -132 -34l234 -329c34 38 62 85 73 137zM93 343c-27 -126 52 -226 175 -226c43 0 81 11 117 26
l-230 323c-28 -35 -52 -77 -62 -123z" />
    <glyph glyph-name="O.alt7" horiz-adv-x="1135" 
d="M717 700c198 0 326 -161 284 -357c-40 -190 -225 -343 -413 -343c-62 0 -114 16 -152 39c-59 -27 -116 -39 -168 -39c-198 0 -326 161 -284 357c40 190 225 343 413 343c62 0 115 -16 153 -39c58 27 115 39 167 39zM98 343c-27 -126 51 -226 175 -226c23 0 43 3 65 10
c-35 61 -52 141 -33 230c18 84 63 162 132 224c-13 1 -32 2 -45 2c-134 0 -266 -108 -294 -240zM593 117c134 0 266 108 294 240c27 126 -51 226 -175 226c-23 0 -43 -3 -65 -10c35 -60 52 -140 33 -230c-18 -83 -62 -161 -131 -224c12 -1 31 -2 44 -2zM567 357
c14 64 2 123 -31 162c-58 -45 -103 -106 -118 -176c-13 -63 -2 -123 32 -162c57 45 102 107 117 176z" />
    <glyph glyph-name="I.alt" horiz-adv-x="562" 
d="M329 107h79l-23 -107h-507l23 107h78l103 486h-78l23 107h507l-23 -107h-79zM199 593l-103 -486h117l103 486h-117z" />
    <glyph glyph-name="O.009" horiz-adv-x="1022" 
d="M796 117h58l-25 -117h-934l25 117h58l99 467h-58l25 117h934l-25 -117h-58zM311 584h-117l-99 -467h117zM545 584h-117l-99 -467h117zM661 584l-99 -467h117l99 467h-117z" />
    <glyph glyph-name="ampersand.alt" horiz-adv-x="607" 
d="M382 -12l-66 80c-52 -43 -115 -68 -176 -68c-134 0 -221 109 -193 241c13 58 45 113 96 157c-28 29 -45 79 -33 136c19 93 109 168 200 168c102 0 169 -83 148 -182c-13 -62 -56 -117 -117 -147l65 -85l28 122h117l-38 -180c-4 -19 -9 -37 -19 -55l85 -104zM206 585
c-37 0 -75 -30 -82 -65c-7 -30 10 -52 37 -52c38 0 75 30 83 66c6 29 -10 51 -38 51zM145 117c38 0 75 17 102 40l-125 160c-28 -21 -53 -53 -61 -90c-13 -61 24 -110 84 -110z" />
    <glyph glyph-name="A.alt5" horiz-adv-x="817" 
d="M114 0h-130l100 156c-79 66 -120 177 -93 303c42 199 235 358 431 358c206 0 339 -167 296 -369l-115 8c29 135 -51 240 -185 244l125 -700h-122l-18 83l-235 5zM105 445c-15 -70 -1 -135 39 -181l268 436c-137 0 -277 -115 -307 -255zM351 385l-115 -174
c14 -4 30 -6 47 -7h101z" />
    <glyph glyph-name="perthousand" unicode="&#x2030;" horiz-adv-x="997" 
d="M-150 2l691 698h115l-691 -698h-115zM114 412c-84 0 -140 69 -122 151c16 76 89 137 163 137c84 0 139 -69 122 -151c-16 -76 -89 -137 -163 -137zM158 618c-39 0 -78 -32 -86 -69c-7 -31 10 -54 39 -54c39 0 78 31 86 68c6 31 -10 55 -39 55zM348 2
c-85 0 -141 69 -123 152c17 78 89 139 164 139c86 0 142 -69 124 -153c-16 -77 -89 -138 -165 -138zM684 2c-85 0 -141 69 -123 152c17 78 89 139 164 139c86 0 142 -69 124 -153c-16 -77 -89 -138 -165 -138zM392 210c-39 0 -79 -32 -87 -70c-7 -31 11 -55 40 -55
c40 0 80 32 88 69c7 32 -11 56 -41 56zM728 210c-39 0 -79 -32 -87 -70c-7 -31 11 -55 40 -55c40 0 80 32 88 69c7 32 -11 56 -41 56z" />
    <glyph glyph-name="quotedblbase" unicode="&#x201e;" horiz-adv-x="393" 
d="M-43 116c123 0 45 -170 -31 -212l20 88c-34 0 -61 32 -53 69c7 31 35 55 64 55zM140 116c123 0 45 -170 -31 -212l20 88c-34 0 -61 32 -53 69c7 31 35 55 64 55z" />
    <glyph glyph-name="dotaccent" unicode="&#x2d9;" horiz-adv-x="273" 
d="M175 633c-7 -31 -38 -56 -72 -56c-42 0 -71 33 -63 70c7 33 38 58 70 58c44 0 73 -33 65 -72z" />
    <glyph glyph-name="plusminus" unicode="&#xb1;" horiz-adv-x="518" 
d="M228 331l-34 -158h-104l34 158h-156l21 101h156l33 155h104l-33 -155h155l-21 -101h-155zM-75 132l-22 -103h412l22 103h-412z" />
    <glyph glyph-name="guillemotleft" unicode="&#xab;" horiz-adv-x="499" 
d="M71 320l96 -156l-86 -63l-143 219l230 233l65 -60zM264 320l96 -156l-86 -63l-143 219l230 233l65 -60z" />
    <glyph glyph-name="guillemotright" unicode="&#xbb;" horiz-adv-x="499" 
d="M205 320l-229 -219l-66 63l162 156l-88 173l85 60zM398 320l-229 -219l-66 63l162 156l-88 173l85 60z" />
    <glyph glyph-name="guilsinglleft" unicode="&#x2039;" horiz-adv-x="314" 
d="M71 320l96 -156l-86 -63l-143 219l230 233l65 -60z" />
    <glyph glyph-name="guilsinglright" unicode="&#x203a;" horiz-adv-x="314" 
d="M206 320l-229 -219l-66 63l162 156l-88 173l85 60z" />
    <glyph glyph-name="section" unicode="&#xa7;" horiz-adv-x="416" 
d="M337 560l-83 8c6 27 2 42 -14 54c-22 7 -53 4 -49 3c2 0 -20 0 -38 -11c-27 -9 -46 -28 -52 -57c-5 -24 -2 -40 14 -51c20 -7 46 -6 48 -6c5 -1 39 -4 64 -21c54 -22 76 -75 64 -137c-9 -41 -28 -75 -67 -104c19 -25 32 -62 21 -110c-12 -57 -47 -103 -102 -128
c-44 -16 -90 -15 -89 -15c2 0 -34 3 -63 21c-54 22 -77 73 -64 133l83 -8c-6 -27 -2 -42 14 -54c22 -7 53 -5 49 -5c-3 0 20 2 38 14c27 8 46 27 52 56c6 25 2 40 -14 51c-21 7 -47 6 -49 6c-3 1 -37 4 -63 21c-54 22 -76 75 -64 137c9 41 28 75 67 105
c-20 23 -32 61 -21 109c12 57 47 103 102 128c45 16 90 15 88 15c-1 0 36 -3 64 -21c54 -22 77 -73 64 -133zM107 399c-27 -8 -46 -27 -52 -56c-5 -25 -1 -40 14 -51c19 -5 45 -6 49 -6c-1 0 22 3 39 14c27 8 46 27 52 57c5 24 1 39 -14 50c-19 5 -45 6 -49 6
c1 0 -22 -3 -39 -14z" />
    <glyph glyph-name="O.alt8" horiz-adv-x="814" 
d="M396 700c199 0 326 -161 284 -357c-40 -190 -224 -342 -413 -342c-198 0 -325 160 -283 356c40 190 224 343 412 343zM272 117c134 0 266 109 294 240c27 126 -51 226 -175 226c-133 0 -266 -108 -294 -240c-26 -125 52 -226 175 -226zM441 357c12 57 -21 101 -76 101
c-64 0 -129 -52 -143 -115c-12 -56 23 -101 77 -101c65 0 129 53 142 115z" />
    <glyph glyph-name="X.alt1" horiz-adv-x="571" 
d="M408 0h-122l-71 385l-236 -385h-130l217 350l-64 350h122l35 -193l117 193l36 -193l119 193h130l-216 -350z" />
    <glyph glyph-name="g" unicode="g" horiz-adv-x="773" 
d="M551 -1h-102l11 61c-68 -53 -130 -70 -208 -70c-193 0 -316 135 -267 367c44 205 227 353 415 353c102 0 182 -42 233 -106l-94 -76c-33 42 -85 65 -144 65c-134 0 -263 -94 -296 -250c-36 -168 49 -236 173 -236c75 0 146 33 199 82l26 106h-186l22 103h303z" />
    <glyph glyph-name="tilde" unicode="&#x2dc;" horiz-adv-x="392" 
d="M86 582l-77 31c34 101 118 116 191 72c24 -9 58 -25 88 22l78 -32c-56 -111 -117 -107 -190 -70c-36 11 -66 28 -90 -23z" />
    <glyph glyph-name="quotesinglbase" unicode="&#x201a;" horiz-adv-x="201" 
d="M-43 116c123 0 45 -170 -31 -212l20 88c-34 0 -61 32 -53 69c7 31 35 55 64 55z" />
    <glyph glyph-name="ellipsis" unicode="&#x2026;" horiz-adv-x="556" 
d="M-45 120c41 0 67 -33 59 -71c-7 -31 -35 -55 -66 -55c-39 0 -65 32 -57 69c6 32 35 57 64 57zM135 120c41 0 67 -33 59 -71c-7 -31 -35 -55 -66 -55c-39 0 -65 32 -57 69c6 32 35 57 64 57zM315 120c41 0 67 -33 59 -71c-7 -31 -35 -55 -66 -55c-39 0 -65 32 -57 69
c6 32 35 57 64 57z" />
    <glyph glyph-name="Scaron" unicode="&#x160;" horiz-adv-x="543" 
d="M288 759l-157 93l60 77l113 -72l137 72l35 -71zM132 -10c-125 3 -211 77 -185 208l116 -8c-11 -58 27 -83 74 -83c59 0 120 39 133 97c11 56 -32 88 -73 90c-11 0 -60 2 -101 26c-71 33 -102 97 -84 183c28 130 145 207 253 207c126 0 206 -86 183 -205l-115 8
c11 58 -25 80 -73 80c-60 0 -119 -36 -134 -104c-12 -55 28 -82 75 -82c10 0 59 -2 99 -26c72 -33 101 -105 83 -191c-28 -131 -143 -200 -251 -200z" />
    <glyph glyph-name="oe" unicode="&#x153;" horiz-adv-x="946" 
d="M564 588l-38 -180h241l-24 -111h-241l-38 -182h300l-25 -115h-406c-26 -5 -53 -7 -76 -7c-452 0 -309 716 132 716c35 0 63 -4 88 -10l397 1l-24 -112h-286zM347 110l112 483c-22 8 -48 12 -72 12c-284 0 -403 -509 -128 -509c34 0 62 6 88 14z" />
    <glyph glyph-name="Zcaron" unicode="&#x17d;" horiz-adv-x="475" 
d="M248 745l-154 91l59 75l111 -70l133 70l34 -69zM-118 0l358 583h-233l25 117h409l-357 -583h232l-25 -117h-409z" />
    <glyph glyph-name="zcaron" unicode="&#x17e;" horiz-adv-x="583" 
d="M306 748l-156 93l59 77l114 -72l136 72l35 -71zM332 583h-327l25 117h539l-482 -583h356l-25 -117h-569z" />
    <glyph glyph-name="Ydieresis" unicode="&#x178;" horiz-adv-x="645" 
d="M306 809c-7 -32 -37 -58 -68 -58c-40 0 -68 34 -60 72c7 33 38 59 68 59c41 0 68 -34 60 -73zM515 809c-7 -32 -37 -58 -68 -58c-40 0 -68 34 -60 72c7 33 38 59 68 59c41 0 68 -34 60 -73zM304 331l-73 -331h-117l73 331l-185 369h139l124 -250l233 250h147z" />
    <glyph glyph-name="Agrave" unicode="&#xc0;" 
d="M196 840l69 85l161 -104l-63 -81zM25 81l-47 -81h-129l431 720l128 -720h-122l-14 81h-247zM255 182l-31 243l-139 -243h170z" />
    <glyph glyph-name="Aacute" unicode="&#xc1;" 
d="M393 925l37 -84l-212 -102l-33 82zM25 81l-47 -81h-129l431 720l128 -720h-122l-14 81h-247zM255 182l-31 243l-139 -243h170z" />
    <glyph glyph-name="Acircumflex" unicode="&#xc2;" 
d="M318 898l156 -93l-59 -77l-114 72l-136 -72l-35 71zM25 81l-47 -81h-129l431 720l128 -720h-122l-14 81h-247zM255 182l-31 243l-139 -243h170z" />
    <glyph glyph-name="Atilde" unicode="&#xc3;" 
d="M200 744l-77 31c34 101 119 116 191 72c24 -9 59 -25 89 22l77 -32c-55 -111 -117 -107 -190 -70c-35 11 -66 28 -90 -23zM25 81l-47 -81h-129l431 720l128 -720h-122l-14 81h-247zM255 182l-31 243l-139 -243h170z" />
    <glyph glyph-name="Adieresis" unicode="&#xc4;" 
d="M261 801c-6 -32 -37 -58 -68 -58c-40 0 -68 34 -60 72c7 33 38 59 68 59c41 0 69 -34 60 -73zM470 801c-6 -32 -37 -58 -68 -58c-40 0 -68 34 -60 72c7 33 38 59 68 59c41 0 69 -34 60 -73zM25 81l-47 -81h-129l431 720l128 -720h-122l-14 81h-247zM255 182l-31 243
l-139 -243h170z" />
    <glyph glyph-name="ring" unicode="&#x2da;" horiz-adv-x="341" 
d="M120 445c-79 0 -131 65 -115 142c15 71 83 128 152 128c79 0 131 -65 115 -142c-15 -71 -83 -128 -152 -128zM161 637c-36 0 -73 -30 -80 -64c-6 -28 10 -49 36 -49c36 0 72 29 79 63c6 28 -9 50 -35 50z" />
    <glyph glyph-name="Aring" unicode="&#xc5;" 
d="M-151 0l364 596c-46 19 -76 72 -63 132c15 71 83 128 152 128c79 0 131 -65 115 -142c-12 -54 -52 -101 -110 -120l101 -594h-123l-13 81h-247l-47 -81h-129zM306 778c-36 0 -73 -30 -80 -64c-6 -28 10 -49 36 -49c36 0 72 29 79 63c6 28 -9 50 -35 50zM255 182l-31 243
l-139 -243h170z" />
    <glyph glyph-name="AE" unicode="&#xc6;" horiz-adv-x="790" 
d="M460 586l-38 -178h203l-24 -112h-203l-39 -183h262l-24 -113h-379l17 81h-189l-60 -81h-139l517 697l3 3h2l-2 1l3 -1h364l-24 -114h-250zM334 502l-104 -165l-108 -146h137l34 155z" />
    <glyph glyph-name="Ccedilla" unicode="&#xc7;" horiz-adv-x="694" 
d="M272 117c69 0 136 29 185 71l71 -89c-45 -37 -92 -63 -151 -84c15 -22 25 -54 17 -93c-19 -90 -106 -162 -193 -162c-98 0 -163 68 -144 161l94 -8c-9 -40 16 -57 51 -57c45 0 89 37 99 80c7 34 -10 60 -38 65c-195 1 -321 161 -280 356c40 190 225 343 413 343
c102 0 182 -42 232 -106l-93 -76c-33 42 -85 65 -144 65c-134 0 -266 -108 -294 -240c-27 -126 51 -226 175 -226z" />
    <glyph glyph-name="Edieresis" unicode="&#xcb;" horiz-adv-x="588" 
d="M317 808c-7 -32 -37 -58 -68 -58c-40 0 -68 34 -60 72c7 33 37 59 67 59c41 0 69 -34 61 -73zM526 808c-7 -32 -37 -58 -68 -58c-40 0 -68 34 -60 72c7 33 37 59 67 59c41 0 69 -34 61 -73zM134 408h291l-25 -116h-291l-37 -175h350l-25 -117h-467l149 700h467l-25 -117
h-350z" />
    <glyph glyph-name="Ecircumflex" unicode="&#xca;" horiz-adv-x="588" 
d="M368 916l156 -93l-59 -77l-114 72l-136 -72l-35 71zM134 408h291l-25 -116h-291l-37 -175h350l-25 -117h-467l149 700h467l-25 -117h-350z" />
    <glyph glyph-name="Eacute" unicode="&#xc9;" horiz-adv-x="588" 
d="M440 939l37 -84l-212 -102l-33 82zM134 408h291l-25 -116h-291l-37 -175h350l-25 -117h-467l149 700h467l-25 -117h-350z" />
    <glyph glyph-name="Egrave" unicode="&#xc8;" horiz-adv-x="588" 
d="M238 852l69 85l161 -104l-63 -81zM134 408h291l-25 -116h-291l-37 -175h350l-25 -117h-467l149 700h467l-25 -117h-350z" />
    <glyph glyph-name="agrave" unicode="&#xe0;" 
d="M196 840l69 85l161 -104l-63 -81zM25 81l-47 -81h-129l431 720l128 -720h-122l-14 81h-247zM255 182l-31 243l-139 -243h170z" />
    <glyph glyph-name="aacute" unicode="&#xe1;" 
d="M393 925l37 -84l-212 -102l-33 82zM25 81l-47 -81h-129l431 720l128 -720h-122l-14 81h-247zM255 182l-31 243l-139 -243h170z" />
    <glyph glyph-name="acircumflex" unicode="&#xe2;" 
d="M318 898l156 -93l-59 -77l-114 72l-136 -72l-35 71zM25 81l-47 -81h-129l431 720l128 -720h-122l-14 81h-247zM255 182l-31 243l-139 -243h170z" />
    <glyph glyph-name="atilde" unicode="&#xe3;" 
d="M200 744l-77 31c34 101 119 116 191 72c24 -9 59 -25 89 22l77 -32c-55 -111 -117 -107 -190 -70c-35 11 -66 28 -90 -23zM25 81l-47 -81h-129l431 720l128 -720h-122l-14 81h-247zM255 182l-31 243l-139 -243h170z" />
    <glyph glyph-name="adieresis" unicode="&#xe4;" 
d="M261 801c-6 -32 -37 -58 -68 -58c-40 0 -68 34 -60 72c7 33 38 59 68 59c41 0 69 -34 60 -73zM470 801c-6 -32 -37 -58 -68 -58c-40 0 -68 34 -60 72c7 33 38 59 68 59c41 0 69 -34 60 -73zM25 81l-47 -81h-129l431 720l128 -720h-122l-14 81h-247zM255 182l-31 243
l-139 -243h170z" />
    <glyph glyph-name="aring" unicode="&#xe5;" 
d="M-151 0l364 596c-46 19 -76 72 -63 132c15 71 83 128 152 128c79 0 131 -65 115 -142c-12 -54 -52 -101 -110 -120l101 -594h-123l-13 81h-247l-47 -81h-129zM306 778c-36 0 -73 -30 -80 -64c-6 -28 10 -49 36 -49c36 0 72 29 79 63c6 28 -9 50 -35 50zM255 182l-31 243
l-139 -243h170z" />
    <glyph glyph-name="ae" unicode="&#xe6;" horiz-adv-x="790" 
d="M460 586l-38 -178h203l-24 -112h-203l-39 -183h262l-24 -113h-379l17 81h-189l-60 -81h-139l517 697l3 3h2l-2 1l3 -1h364l-24 -114h-250zM334 502l-104 -165l-108 -146h137l34 155z" />
    <glyph glyph-name="ccedilla" unicode="&#xe7;" horiz-adv-x="694" 
d="M272 117c69 0 136 29 185 71l71 -89c-45 -37 -92 -63 -151 -84c15 -22 25 -54 17 -93c-19 -90 -106 -162 -193 -162c-98 0 -163 68 -144 161l94 -8c-9 -40 16 -57 51 -57c45 0 89 37 99 80c7 34 -10 60 -38 65c-195 1 -321 161 -280 356c40 190 225 343 413 343
c102 0 182 -42 232 -106l-93 -76c-33 42 -85 65 -144 65c-134 0 -266 -108 -294 -240c-27 -126 51 -226 175 -226z" />
    <glyph glyph-name="egrave" unicode="&#xe8;" horiz-adv-x="588" 
d="M238 852l69 85l161 -104l-63 -81zM134 408h291l-25 -116h-291l-37 -175h350l-25 -117h-467l149 700h467l-25 -117h-350z" />
    <glyph glyph-name="eacute" unicode="&#xe9;" horiz-adv-x="588" 
d="M440 939l37 -84l-212 -102l-33 82zM134 408h291l-25 -116h-291l-37 -175h350l-25 -117h-467l149 700h467l-25 -117h-350z" />
    <glyph glyph-name="ecircumflex" unicode="&#xea;" horiz-adv-x="588" 
d="M368 916l156 -93l-59 -77l-114 72l-136 -72l-35 71zM134 408h291l-25 -116h-291l-37 -175h350l-25 -117h-467l149 700h467l-25 -117h-350z" />
    <glyph glyph-name="edieresis" unicode="&#xeb;" horiz-adv-x="588" 
d="M317 808c-7 -32 -37 -58 -68 -58c-40 0 -68 34 -60 72c7 33 37 59 67 59c41 0 69 -34 61 -73zM526 808c-7 -32 -37 -58 -68 -58c-40 0 -68 34 -60 72c7 33 37 59 67 59c41 0 69 -34 61 -73zM134 408h291l-25 -116h-291l-37 -175h350l-25 -117h-467l149 700h467l-25 -117
h-350z" />
    <glyph glyph-name="Igrave" unicode="&#xcc;" horiz-adv-x="350" 
d="M89 847l69 85l161 -104l-63 -81zM106 107h82l-23 -107h-281l23 107h82l103 486h-78l23 107h273l-23 -107h-78z" />
    <glyph glyph-name="Idieresis" unicode="&#xcf;" horiz-adv-x="350" 
d="M161 812c-7 -32 -38 -58 -69 -58c-40 0 -67 34 -59 72c7 33 37 59 67 59c41 0 69 -34 61 -73zM370 812c-7 -32 -38 -58 -69 -58c-40 0 -67 34 -59 72c7 33 37 59 67 59c41 0 69 -34 61 -73zM106 107h82l-23 -107h-281l23 107h82l103 486h-78l23 107h273l-23 -107h-78z
" />
    <glyph glyph-name="Icircumflex" unicode="&#xce;" horiz-adv-x="350" 
d="M219 920l156 -93l-59 -77l-114 72l-136 -72l-35 71zM106 107h82l-23 -107h-281l23 107h82l103 486h-78l23 107h273l-23 -107h-78z" />
    <glyph glyph-name="Iacute" unicode="&#xcd;" horiz-adv-x="350" 
d="M289 929l37 -84l-212 -102l-33 82zM106 107h82l-23 -107h-281l23 107h82l103 486h-78l23 107h273l-23 -107h-78z" />
    <glyph glyph-name="Eth" unicode="&#xd0;" horiz-adv-x="662" 
d="M79 700h112c170 0 405 -43 338 -357c-63 -296 -303 -343 -477 -343h-122l62 292h-76l23 106h76zM109 292l-37 -174s283 -40 342 239c59 277 -237 228 -237 228l-45 -187h131l-23 -106h-131z" />
    <glyph glyph-name="Ntilde" unicode="&#xd1;" horiz-adv-x="742" 
d="M300 769l-78 31c35 101 119 116 192 72c24 -9 58 -25 88 22l77 -32c-55 -111 -116 -107 -189 -70c-36 11 -66 28 -90 -23zM397 0l-242 498l-108 -498h-117l149 700h116l243 -498l108 498h116l-149 -700h-116z" />
    <glyph glyph-name="eth" unicode="&#xf0;" horiz-adv-x="662" 
d="M79 700h112c170 0 405 -43 338 -357c-63 -296 -303 -343 -477 -343h-122l62 292h-76l23 106h76zM109 292l-37 -174s283 -40 342 239c59 277 -237 228 -237 228l-45 -187h131l-23 -106h-131z" />
    <glyph glyph-name="ntilde" unicode="&#xf1;" horiz-adv-x="742" 
d="M300 769l-78 31c35 101 119 116 192 72c24 -9 58 -25 88 22l77 -32c-55 -111 -116 -107 -189 -70c-36 11 -66 28 -90 -23zM397 0l-242 498l-108 -498h-117l149 700h116l243 -498l108 498h116l-149 -700h-116z" />
    <glyph glyph-name="igrave" unicode="&#xec;" horiz-adv-x="280" 
d="M52 835l69 85l161 -104l-64 -81zM82 700h117l-149 -700h-117z" />
    <glyph glyph-name="iacute" unicode="&#xed;" horiz-adv-x="280" 
d="M254 926l37 -84l-211 -102l-34 82zM82 700h117l-149 -700h-117z" />
    <glyph glyph-name="icircumflex" unicode="&#xee;" horiz-adv-x="280" 
d="M180 903l156 -93l-59 -77l-114 72l-136 -72l-35 71zM82 700h117l-149 -700h-117z" />
    <glyph glyph-name="idieresis" unicode="&#xef;" horiz-adv-x="280" 
d="M122 801c-6 -32 -37 -58 -68 -58c-40 0 -68 34 -60 72c7 33 38 59 68 59c41 0 69 -34 60 -73zM331 801c-6 -32 -37 -58 -68 -58c-40 0 -68 34 -60 72c7 33 38 59 68 59c41 0 69 -34 60 -73zM82 700h117l-149 -700h-117z" />
    <glyph glyph-name="Odieresis" unicode="&#xd6;" horiz-adv-x="638" 
d="M302 803c-7 -32 -37 -58 -68 -58c-40 0 -68 34 -60 72c7 33 37 59 67 59c41 0 69 -34 61 -73zM511 803c-7 -32 -37 -58 -68 -58c-40 0 -68 34 -60 72c7 33 37 59 67 59c41 0 69 -34 61 -73zM219 190c-148 0 -245 121 -214 267c30 140 166 253 304 253
c148 0 244 -121 213 -267c-29 -140 -165 -253 -303 -253zM304 594c-85 0 -168 -68 -186 -151c-16 -77 30 -137 105 -137c85 0 169 68 186 151c17 77 -30 137 -105 137zM-66 0l25 116h462l-25 -116h-462z" />
    <glyph glyph-name="Otilde" unicode="&#xd5;" horiz-adv-x="638" 
d="M244 760l-78 31c35 101 119 116 192 72c24 -9 58 -25 88 22l78 -32c-56 -111 -117 -107 -190 -70c-36 11 -66 28 -90 -23zM219 190c-148 0 -245 121 -214 267c30 140 166 253 304 253c148 0 244 -121 213 -267c-29 -140 -165 -253 -303 -253zM304 594
c-85 0 -168 -68 -186 -151c-16 -77 30 -137 105 -137c85 0 169 68 186 151c17 77 -30 137 -105 137zM-66 0l25 116h462l-25 -116h-462z" />
    <glyph glyph-name="Ocircumflex" unicode="&#xd4;" horiz-adv-x="638" 
d="M360 914l157 -93l-60 -77l-113 72l-137 -72l-35 71zM219 190c-148 0 -245 121 -214 267c30 140 166 253 304 253c148 0 244 -121 213 -267c-29 -140 -165 -253 -303 -253zM304 594c-85 0 -168 -68 -186 -151c-16 -77 30 -137 105 -137c85 0 169 68 186 151
c17 77 -30 137 -105 137zM-66 0l25 116h462l-25 -116h-462z" />
    <glyph glyph-name="Oacute" unicode="&#xd3;" horiz-adv-x="638" 
d="M435 939l37 -84l-212 -102l-33 82zM219 190c-148 0 -245 121 -214 267c30 140 166 253 304 253c148 0 244 -121 213 -267c-29 -140 -165 -253 -303 -253zM304 594c-85 0 -168 -68 -186 -151c-16 -77 30 -137 105 -137c85 0 169 68 186 151c17 77 -30 137 -105 137zM-66 0
l25 116h462l-25 -116h-462z" />
    <glyph glyph-name="Ograve" unicode="&#xd2;" horiz-adv-x="638" 
d="M233 847l69 85l161 -104l-63 -81zM219 190c-148 0 -245 121 -214 267c30 140 166 253 304 253c148 0 244 -121 213 -267c-29 -140 -165 -253 -303 -253zM304 594c-85 0 -168 -68 -186 -151c-16 -77 30 -137 105 -137c85 0 169 68 186 151c17 77 -30 137 -105 137zM-66 0
l25 116h462l-25 -116h-462z" />
    <glyph glyph-name="Oslash" unicode="&#xd8;" horiz-adv-x="638" 
d="M216 180c-40 0 -71 8 -97 20l-41 -41h-123l91 97c-39 48 -59 115 -43 191c30 140 166 253 304 253c44 0 80 -11 107 -26l50 52h126l-104 -112c33 -47 49 -110 34 -181c-30 -140 -166 -253 -304 -253zM302 584c-85 0 -168 -68 -186 -151c-6 -31 -5 -61 7 -85l215 231
c-12 4 -27 5 -36 5zM407 447c6 25 4 51 -3 73l-207 -222c9 -2 19 -2 24 -2c85 0 169 68 186 151zM-66 0l25 116h462l-25 -116h-462z" />
    <glyph glyph-name="Udieresis" unicode="&#xdc;" horiz-adv-x="740" 
d="M356 818c-7 -32 -37 -58 -68 -58c-40 0 -68 34 -60 72c7 33 38 59 68 59c41 0 68 -34 60 -73zM565 818c-7 -32 -37 -58 -68 -58c-40 0 -68 34 -60 72c7 33 38 59 68 59c41 0 68 -34 60 -73zM661 700l-90 -423c-1 -7 -14 -73 -62 -145c-69 -92 -168 -142 -280 -142
c-122 0 -204 56 -229 156c-22 64 -11 132 -9 139l88 415h582zM409 195c34 41 48 90 48 91l63 297h-350l-63 -298s-13 -55 -1 -104c20 -51 61 -74 128 -74c78 0 136 29 175 88z" />
    <glyph glyph-name="Ucircumflex" unicode="&#xdb;" horiz-adv-x="740" 
d="M415 929l156 -93l-59 -77l-114 72l-136 -72l-35 71zM661 700l-90 -423c-1 -7 -14 -73 -62 -145c-69 -92 -168 -142 -280 -142c-122 0 -204 56 -229 156c-22 64 -11 132 -9 139l88 415h582zM409 195c34 41 48 90 48 91l63 297h-350l-63 -298s-13 -55 -1 -104
c20 -51 61 -74 128 -74c78 0 136 29 175 88z" />
    <glyph glyph-name="Uacute" unicode="&#xda;" horiz-adv-x="740" 
d="M486 939l37 -84l-212 -102l-33 82zM661 700l-90 -423c-1 -7 -14 -73 -62 -145c-69 -92 -168 -142 -280 -142c-122 0 -204 56 -229 156c-22 64 -11 132 -9 139l88 415h582zM409 195c34 41 48 90 48 91l63 297h-350l-63 -298s-13 -55 -1 -104c20 -51 61 -74 128 -74
c78 0 136 29 175 88z" />
    <glyph glyph-name="Ugrave" unicode="&#xd9;" horiz-adv-x="740" 
d="M284 847l69 85l161 -104l-63 -81zM661 700l-90 -423c-1 -7 -14 -73 -62 -145c-69 -92 -168 -142 -280 -142c-122 0 -204 56 -229 156c-22 64 -11 132 -9 139l88 415h582zM409 195c34 41 48 90 48 91l63 297h-350l-63 -298s-13 -55 -1 -104c20 -51 61 -74 128 -74
c78 0 136 29 175 88z" />
    <glyph glyph-name="Yacute" unicode="&#xdd;" horiz-adv-x="645" 
d="M436 928l38 -84l-212 -102l-34 82zM304 331l-73 -331h-117l73 331l-185 369h139l124 -250l233 250h147z" />
    <glyph glyph-name="Thorn" unicode="&#xde;" horiz-adv-x="583" 
d="M166 558h121s227 -4 183 -211c-43 -201 -270 -197 -270 -197h-121l-32 -150h-117l57 266h113l-74 175l53 260h117zM161 441l69 -174c32 4 112 23 127 94c18 84 -95 80 -95 80h-101z" />
    <glyph glyph-name="thorn" unicode="&#xfe;" horiz-adv-x="580" 
d="M167 564h122s228 -4 184 -212c-43 -202 -271 -198 -271 -198h-122l-33 -156h-117l149 702h117zM105 271h122s113 4 132 95c18 85 -95 81 -95 81h-122z" />
    <glyph glyph-name="ydieresis" unicode="&#xff;" horiz-adv-x="645" 
d="M306 808c-7 -32 -37 -58 -68 -58c-40 0 -68 34 -60 72c7 33 37 59 67 59c41 0 69 -34 61 -73zM515 808c-7 -32 -37 -58 -68 -58c-40 0 -68 34 -60 72c7 33 37 59 67 59c41 0 69 -34 61 -73zM304 331l-73 -331h-117l73 331l-185 369h139l124 -250l233 250h147z" />
    <glyph glyph-name="yacute" unicode="&#xfd;" horiz-adv-x="645" 
d="M441 931l37 -84l-211 -102l-34 82zM304 331l-73 -331h-117l73 331l-185 369h139l124 -250l233 250h147z" />
    <glyph glyph-name="ograve" unicode="&#xf2;" horiz-adv-x="797" 
d="M312 852l69 85l161 -104l-63 -81zM389 709c464 0 322 -718 -133 -718c-467 0 -323 718 133 718zM260 104c308 0 423 491 125 491c-307 0 -423 -491 -125 -491z" />
    <glyph glyph-name="oacute" unicode="&#xf3;" horiz-adv-x="797" 
d="M522 939l37 -84l-212 -102l-33 82zM389 709c464 0 322 -718 -133 -718c-467 0 -323 718 133 718zM260 104c308 0 423 491 125 491c-307 0 -423 -491 -125 -491z" />
    <glyph glyph-name="ocircumflex" unicode="&#xf4;" horiz-adv-x="797" 
d="M441 916l156 -93l-59 -77l-114 72l-136 -72l-35 71zM389 709c464 0 322 -718 -133 -718c-467 0 -323 718 133 718zM260 104c308 0 423 491 125 491c-307 0 -423 -491 -125 -491z" />
    <glyph glyph-name="otilde" unicode="&#xf5;" horiz-adv-x="797" 
d="M330 768l-77 31c35 101 119 116 191 72c24 -9 59 -25 89 22l77 -32c-55 -111 -117 -107 -190 -70c-35 11 -66 28 -90 -23zM389 709c464 0 322 -718 -133 -718c-467 0 -323 718 133 718zM260 104c308 0 423 491 125 491c-307 0 -423 -491 -125 -491z" />
    <glyph glyph-name="odieresis" unicode="&#xf6;" horiz-adv-x="797" 
d="M383 814c-7 -32 -37 -58 -68 -58c-40 0 -68 34 -60 72c7 33 38 59 68 59c41 0 69 -34 60 -73zM592 814c-7 -32 -37 -58 -68 -58c-40 0 -68 34 -60 72c7 33 38 59 68 59c41 0 69 -34 60 -73zM389 709c464 0 322 -718 -133 -718c-467 0 -323 718 133 718zM260 104
c308 0 423 491 125 491c-307 0 -423 -491 -125 -491z" />
    <glyph glyph-name="oslash" unicode="&#xf8;" horiz-adv-x="797" 
d="M389 709c52 0 92 -9 126 -22l64 78h123l-106 -130c185 -182 26 -642 -339 -642c-55 0 -97 9 -132 24l-67 -82h-120l108 133c-183 183 -22 641 343 641zM385 595c-238 0 -363 -293 -268 -426l330 417c-20 6 -42 9 -62 9zM261 106c240 0 364 297 264 429l-333 -419
c21 -7 46 -10 69 -10z" />
    <glyph glyph-name="ugrave" unicode="&#xf9;" horiz-adv-x="683" 
d="M240 840l69 85l161 -104l-63 -81zM200 -10c-149 0 -252 94 -221 238l100 472h117l-102 -480c-11 -81 42 -113 111 -113c78 0 165 43 182 121l100 472h117l-102 -480c-32 -149 -158 -230 -302 -230z" />
    <glyph glyph-name="uacute" unicode="&#xfa;" horiz-adv-x="683" 
d="M462 923l38 -84l-212 -102l-34 82zM200 -10c-149 0 -252 94 -221 238l100 472h117l-102 -480c-11 -81 42 -113 111 -113c78 0 165 43 182 121l100 472h117l-102 -480c-32 -149 -158 -230 -302 -230z" />
    <glyph glyph-name="ucircumflex" unicode="&#xfb;" horiz-adv-x="683" 
d="M383 914l157 -93l-60 -77l-113 72l-137 -72l-35 71zM200 -10c-149 0 -252 94 -221 238l100 472h117l-102 -480c-11 -81 42 -113 111 -113c78 0 165 43 182 121l100 472h117l-102 -480c-32 -149 -158 -230 -302 -230z" />
    <glyph glyph-name="udieresis" unicode="&#xfc;" horiz-adv-x="683" 
d="M325 809c-7 -32 -37 -58 -68 -58c-40 0 -68 34 -60 72c7 33 38 59 68 59c41 0 68 -34 60 -73zM534 809c-7 -32 -37 -58 -68 -58c-40 0 -68 34 -60 72c7 33 38 59 68 59c41 0 68 -34 60 -73zM200 -10c-149 0 -252 94 -221 238l100 472h117l-102 -480
c-11 -81 42 -113 111 -113c78 0 165 43 182 121l100 472h117l-102 -480c-32 -149 -158 -230 -302 -230z" />
    <glyph glyph-name="Sacute" unicode="&#x15a;" horiz-adv-x="543" 
d="M393 939l37 -84l-212 -102l-33 82zM132 -10c-125 3 -211 77 -185 208l116 -8c-11 -58 27 -83 74 -83c59 0 120 39 133 97c11 56 -32 88 -73 90c-11 0 -60 2 -101 26c-71 33 -102 97 -84 183c28 130 145 207 253 207c126 0 206 -86 183 -205l-115 8c11 58 -25 80 -73 80
c-60 0 -119 -36 -134 -104c-12 -55 28 -82 75 -82c10 0 59 -2 99 -26c72 -33 101 -105 83 -191c-28 -131 -143 -200 -251 -200z" />
    <glyph glyph-name="Tcaron" unicode="&#x164;" horiz-adv-x="448" 
d="M240 759l-157 93l60 77l113 -72l137 72l35 -71zM260 593l-126 -593h-116l126 593h-147l23 107h410l-23 -107h-147z" />
    <glyph glyph-name="Zacute" unicode="&#x179;" horiz-adv-x="475" 
d="M360 933l37 -84l-212 -102l-34 82zM-118 0l358 583h-233l25 117h409l-357 -583h232l-25 -117h-409z" />
    <glyph glyph-name="sacute" unicode="&#x15b;" horiz-adv-x="543" 
d="M388 925l37 -84l-212 -102l-33 82zM132 -10c-125 3 -211 77 -185 208l116 -8c-11 -58 27 -83 74 -83c59 0 120 38 132 96c12 56 -31 89 -72 91c-11 0 -60 2 -101 26c-71 33 -102 97 -84 183c28 130 145 207 253 207c126 0 206 -86 183 -205l-115 8c11 58 -25 80 -73 80
c-60 0 -119 -36 -134 -104c-12 -55 28 -82 75 -82c10 0 59 -2 99 -26c72 -33 101 -106 82 -192c-27 -131 -142 -199 -250 -199z" />
    <glyph glyph-name="tcaron" unicode="&#x165;" horiz-adv-x="448" 
d="M236 746l-156 93l59 77l114 -72l136 72l35 -71zM260 593l-126 -593h-116l126 593h-147l23 107h410l-23 -107h-147z" />
    <glyph glyph-name="zacute" unicode="&#x17a;" horiz-adv-x="583" 
d="M418 931l37 -84l-211 -102l-34 82zM332 583h-327l25 117h539l-482 -583h356l-25 -117h-569z" />
    <glyph glyph-name="breve" unicode="&#x2d8;" horiz-adv-x="342" 
d="M239 714l89 -8c-23 -110 -93 -146 -169 -146c-86 0 -159 44 -136 154l89 -8c-15 -88 105 -80 127 8z" />
    <glyph glyph-name="Lslash" unicode="&#x141;" horiz-adv-x="501" 
d="M306 0h-376l52 245l-76 -23l22 101l76 23l75 354h117l-67 -316l117 36l-21 -101l-118 -36l-35 -166h259z" />
    <glyph glyph-name="ogonek" unicode="&#x2db;" horiz-adv-x="301" 
d="M-47 11l98 -4c-44 -20 -93 -69 -84 -111c18 -39 80 -11 113 9l18 -82c-78 -44 -219 -54 -223 57c-8 54 27 98 78 131z" />
    <glyph glyph-name="Aogonek" unicode="&#x104;" 
d="M280 720l135 -720c-87 -6 -129 -67 -121 -104c18 -39 80 -11 113 9l18 -82c-78 -44 -219 -54 -223 57c-8 54 26 98 78 131l-8 70h-247l-47 -81h-129zM255 182l-31 243l-139 -243h170z" />
    <glyph glyph-name="aogonek" unicode="&#x105;" 
d="M280 720l135 -720c-87 -6 -129 -67 -121 -104c18 -39 80 -11 113 9l18 -82c-78 -44 -219 -54 -223 57c-8 54 26 98 78 131l-8 70h-247l-47 -81h-129zM255 182l-31 243l-139 -243h170z" />
    <glyph glyph-name="Scedilla" unicode="&#x15e;" horiz-adv-x="543" 
d="M96 -232c-94 0 -155 75 -137 162l90 -8c-8 -37 13 -64 46 -64c44 0 86 35 95 75c7 34 -12 60 -51 60h-11c-121 3 -206 77 -180 208l115 -8c-10 -58 28 -83 75 -83c59 0 119 36 132 94c11 56 -32 88 -73 90c-11 0 -60 2 -101 26c-71 33 -102 97 -84 183
c28 130 145 205 253 205c126 0 205 -86 182 -205l-114 8c10 58 -25 80 -73 80c-60 0 -119 -34 -134 -102c-12 -55 28 -82 75 -82c10 0 59 -2 99 -26c72 -33 101 -105 83 -191c-17 -80 -66 -137 -135 -171c24 -18 41 -52 31 -100c-18 -84 -99 -151 -183 -151z" />
    <glyph glyph-name="Zdotaccent" unicode="&#x17b;" horiz-adv-x="475" 
d="M334 810c-6 -32 -39 -58 -75 -58c-43 0 -73 34 -65 72c8 34 40 60 73 60c46 0 76 -34 67 -74zM-118 0l358 583h-233l25 117h409l-357 -583h232l-25 -117h-409z" />
    <glyph glyph-name="lslash" unicode="&#x142;" horiz-adv-x="490" 
d="M306 0h-376l52 245l-76 -23l22 101l76 23l75 354h117l-67 -316l117 36l-21 -101l-118 -36l-35 -166h259z" />
    <glyph glyph-name="scedilla" unicode="&#x15f;" horiz-adv-x="543" 
d="M96 -232c-94 0 -155 75 -137 162l90 -8c-8 -37 13 -64 46 -64c44 0 86 35 95 75c7 34 -12 60 -51 60h-11c-121 3 -206 77 -180 208l115 -8c-10 -58 28 -83 75 -83c59 0 119 36 132 94c11 56 -32 88 -73 90c-11 0 -60 2 -101 26c-71 33 -102 97 -84 183
c28 130 145 205 253 205c126 0 205 -86 182 -205l-114 8c10 58 -25 80 -73 80c-60 0 -119 -34 -134 -102c-12 -55 28 -82 75 -82c10 0 59 -2 99 -26c72 -33 101 -105 83 -191c-17 -80 -66 -137 -135 -171c24 -18 41 -52 31 -100c-18 -84 -99 -151 -183 -151z" />
    <glyph glyph-name="zdotaccent" unicode="&#x17c;" horiz-adv-x="585" 
d="M408 820c-8 -34 -43 -61 -83 -61c-47 0 -81 35 -73 75c8 36 45 63 82 63c50 0 82 -35 74 -77zM332 583h-327l25 117h539l-482 -583h356l-25 -117h-569z" />
    <glyph glyph-name="Lcaron" unicode="&#x13d;" horiz-adv-x="501" 
d="M360 701c123 0 45 -170 -31 -212l20 88c-34 0 -60 32 -52 69c6 31 34 55 63 55zM331 117l-25 -117h-376l149 700h117l-124 -583h259z" />
    <glyph glyph-name="lcaron" unicode="&#x13e;" horiz-adv-x="501" 
d="M360 701c123 0 45 -170 -31 -212l20 88c-34 0 -60 32 -52 69c6 31 34 55 63 55zM331 117l-25 -117h-376l149 700h117l-124 -583h259z" />
    <glyph glyph-name="hungarumlaut" unicode="&#x2dd;" horiz-adv-x="416" 
d="M151 754l62 -68l-163 -127l-57 66zM347 754l62 -68l-163 -127l-57 66z" />
    <glyph glyph-name="Racute" unicode="&#x154;" horiz-adv-x="612" 
d="M413 932l37 -84l-211 -102l-34 82zM179 292h-69l-62 -292h-117l87 408h113l-74 175l23 117h238s228 -4 184 -211c-26 -121 -116 -167 -190 -186l120 -303h-133zM192 583l69 -174c32 3 112 22 127 94c18 84 -95 80 -95 80h-101z" />
    <glyph glyph-name="Abreve" unicode="&#x102;" 
d="M382 895l90 -8c-24 -110 -93 -146 -169 -146c-86 0 -160 44 -137 154l90 -8c-16 -88 105 -80 126 8zM25 81l-47 -81h-129l431 720l128 -720h-122l-14 81h-247zM255 182l-31 243l-139 -243h170z" />
    <glyph glyph-name="abreve" unicode="&#x103;" 
d="M383 891l89 -8c-23 -110 -93 -146 -169 -146c-86 0 -160 44 -136 154l89 -8c-16 -88 105 -80 127 8zM25 81l-47 -81h-129l431 720l128 -720h-122l-14 81h-247zM255 182l-31 243l-139 -243h170z" />
    <glyph glyph-name="Lacute" unicode="&#x139;" horiz-adv-x="501" 
d="M263 925l37 -84l-212 -102l-33 82zM331 117l-25 -117h-376l149 700h117l-124 -583h259z" />
    <glyph glyph-name="Cacute" unicode="&#x106;" horiz-adv-x="694" 
d="M518 927l37 -84l-211 -102l-34 82zM270 107c69 0 136 29 185 71l71 -89c-76 -63 -169 -99 -261 -99c-198 0 -330 144 -283 367c44 208 216 353 416 353c102 0 182 -42 233 -106l-94 -76c-33 42 -85 65 -144 65c-149 0 -264 -106 -295 -250c-31 -147 48 -236 172 -236z
" />
    <glyph glyph-name="Ccaron" unicode="&#x10c;" horiz-adv-x="694" 
d="M407 739l-156 93l59 77l114 -72l136 72l35 -71zM270 107c69 0 136 29 185 71l71 -89c-76 -63 -169 -99 -261 -99c-198 0 -330 144 -283 367c44 208 216 353 416 353c102 0 182 -42 233 -106l-94 -76c-33 42 -85 65 -144 65c-149 0 -264 -106 -295 -250
c-31 -147 48 -236 172 -236z" />
    <glyph glyph-name="Eogonek" unicode="&#x118;" horiz-adv-x="588" 
d="M134 408h291l-25 -116h-291l-37 -175h350l-20 -117c-89 0 -131 -67 -123 -104c18 -39 80 -11 113 9l18 -82c-77 -44 -222 -56 -226 53c-8 49 26 105 80 125l-334 -1l149 700h467l-25 -117h-350z" />
    <glyph glyph-name="Ecaron" unicode="&#x11a;" horiz-adv-x="588" 
d="M334 745l-157 93l60 77l113 -72l137 72l35 -71zM134 408h291l-25 -116h-291l-37 -175h350l-25 -117h-467l149 700h467l-25 -117h-350z" />
    <glyph glyph-name="Dcaron" unicode="&#x10e;" horiz-adv-x="662" 
d="M313 743l-156 93l59 77l114 -72l136 72l35 -71zM79 700h112c170 0 405 -43 338 -357c-63 -296 -303 -343 -477 -343h-122zM177 585l-105 -467s283 -40 342 239c59 277 -237 228 -237 228z" />
    <glyph glyph-name="Dcroat" unicode="&#x110;" horiz-adv-x="662" 
d="M15 398l64 302h112c170 0 405 -43 338 -357c-63 -296 -303 -343 -477 -343h-122l63 294h-66l22 104h66zM110 294l-38 -176s283 -40 342 239c59 277 -237 228 -237 228l-45 -187h134l-22 -104h-134z" />
    <glyph glyph-name="Nacute" unicode="&#x143;" horiz-adv-x="742" 
d="M489 927l38 -86l-215 -105l-34 84zM397 0l-242 498l-108 -498h-117l149 700h116l243 -498l108 498h116l-149 -700h-116z" />
    <glyph glyph-name="Ncaron" unicode="&#x147;" horiz-adv-x="742" 
d="M382 741l-157 93l60 77l114 -72l136 72l35 -71zM397 0l-242 498l-108 -498h-117l149 700h116l243 -498l108 498h116l-149 -700h-116z" />
    <glyph glyph-name="Ohungarumlaut" unicode="&#x150;" horiz-adv-x="638" 
d="M330 920l61 -63l-159 -117l-59 61zM525 920l62 -63l-160 -117l-59 61zM219 190c-148 0 -245 121 -214 267c30 140 166 253 304 253c148 0 244 -121 213 -267c-29 -140 -165 -253 -303 -253zM304 594c-85 0 -168 -68 -186 -151c-16 -77 30 -137 105 -137
c85 0 169 68 186 151c17 77 -30 137 -105 137zM-66 0l25 116h462l-25 -116h-462z" />
    <glyph glyph-name="Rcaron" unicode="&#x158;" horiz-adv-x="612" 
d="M306 745l-157 93l60 77l113 -72l137 72l35 -71zM179 292h-69l-62 -292h-117l87 408h113l-74 175l23 117h238s228 -4 184 -211c-26 -121 -116 -167 -190 -186l120 -303h-133zM192 583l69 -174c32 3 112 22 127 94c18 84 -95 80 -95 80h-101z" />
    <glyph glyph-name="Uring" unicode="&#x16e;" horiz-adv-x="740" 
d="M393 732c-80 0 -135 59 -120 129c14 64 81 114 151 114c80 0 134 -58 119 -128c-13 -64 -80 -115 -150 -115zM430 905c-37 0 -73 -27 -80 -58c-5 -25 11 -43 38 -43c36 0 72 26 78 57c6 25 -10 44 -36 44zM661 700l-90 -423c-1 -7 -14 -73 -62 -145
c-69 -92 -168 -142 -280 -142c-122 0 -204 56 -229 156c-22 64 -11 132 -9 139l88 415h582zM409 195c34 41 48 90 48 91l63 297h-350l-63 -298s-13 -55 -1 -104c20 -51 61 -74 128 -74c78 0 136 29 175 88z" />
    <glyph glyph-name="Uhungarumlaut" unicode="&#x170;" horiz-adv-x="740" 
d="M366 924l60 -61l-156 -116l-55 60zM555 924l61 -61l-156 -116l-56 60zM661 700l-90 -423c-1 -7 -14 -73 -62 -145c-69 -92 -168 -142 -280 -142c-122 0 -204 56 -229 156c-22 64 -11 132 -9 139l88 415h582zM409 195c34 41 48 90 48 91l63 297h-350l-63 -298
s-13 -55 -1 -104c20 -51 61 -74 128 -74c78 0 136 29 175 88z" />
    <glyph glyph-name="racute" unicode="&#x155;" horiz-adv-x="599" 
d="M407 926l37 -84l-211 -102l-34 82zM108 292l-62 -292h-117l149 700h238s228 -4 184 -211c-23 -110 -100 -157 -170 -180l72 -309h-125l-72 292h-97zM133 408h121s113 4 132 95c18 84 -95 80 -95 80h-121z" />
    <glyph glyph-name="uni0162" unicode="&#x162;" horiz-adv-x="448" 
d="M260 593l-126 -593h-116l126 593h-147l23 107h410l-23 -107h-147zM57 -34c124 0 48 -161 -29 -201l19 83c-34 0 -61 31 -53 66c6 29 34 52 63 52z" />
    <glyph glyph-name="uni0163" unicode="&#x163;" horiz-adv-x="448" 
d="M260 593l-126 -593h-116l126 593h-147l23 107h410l-23 -107h-147zM57 -35c124 0 48 -161 -29 -201l19 83c-34 0 -61 31 -53 66c6 29 34 52 63 52z" />
    <glyph glyph-name="lacute" unicode="&#x13a;" horiz-adv-x="501" 
d="M275 930l37 -84l-212 -102l-33 82zM331 117l-25 -117h-376l149 700h117l-124 -583h259z" />
    <glyph glyph-name="cacute" unicode="&#x107;" horiz-adv-x="694" 
d="M523 931l37 -84l-211 -102l-34 82zM270 107c69 0 136 29 185 71l71 -89c-76 -63 -169 -99 -261 -99c-198 0 -330 144 -283 367c44 208 216 353 416 353c102 0 182 -42 233 -106l-94 -76c-33 42 -85 65 -144 65c-149 0 -264 -106 -295 -250c-31 -147 48 -236 172 -236z
" />
    <glyph glyph-name="ccaron" unicode="&#x10d;" horiz-adv-x="694" 
d="M415 741l-157 93l60 77l114 -72l136 72l35 -71zM270 107c69 0 136 29 185 71l71 -89c-76 -63 -169 -99 -261 -99c-198 0 -330 144 -283 367c44 208 216 353 416 353c102 0 182 -42 233 -106l-94 -76c-33 42 -85 65 -144 65c-149 0 -264 -106 -295 -250
c-31 -147 48 -236 172 -236z" />
    <glyph glyph-name="eogonek" unicode="&#x119;" horiz-adv-x="588" 
d="M134 408h291l-25 -116h-291l-37 -175h350l-20 -117c-89 0 -131 -67 -123 -104c18 -39 80 -11 113 9l18 -82c-77 -44 -222 -56 -226 53c-8 49 26 105 80 125l-334 -1l149 700h467l-25 -117h-350z" />
    <glyph glyph-name="ecaron" unicode="&#x11b;" horiz-adv-x="588" 
d="M328 742l-156 93l59 77l114 -72l136 72l35 -71zM134 408h291l-25 -116h-291l-37 -175h350l-25 -117h-467l149 700h467l-25 -117h-350z" />
    <glyph glyph-name="dcaron" unicode="&#x10f;" horiz-adv-x="662" 
d="M291 741l-157 93l60 77l114 -72l136 72l35 -71zM79 700h112c170 0 405 -43 338 -357c-63 -296 -303 -343 -477 -343h-122zM177 585l-105 -467s283 -40 342 239c59 277 -237 228 -237 228z" />
    <glyph glyph-name="dcroat" unicode="&#x111;" horiz-adv-x="633" 
d="M15 398l64 302h112c170 0 405 -43 338 -357c-63 -296 -303 -343 -477 -343h-122l63 294h-66l22 104h66zM110 294l-38 -176s283 -40 342 239c59 277 -237 228 -237 228l-45 -187h134l-22 -104h-134z" />
    <glyph glyph-name="nacute" unicode="&#x144;" horiz-adv-x="742" 
d="M486 923l38 -84l-212 -102l-34 82zM397 0l-242 498l-108 -498h-117l149 700h116l243 -498l108 498h116l-149 -700h-116z" />
    <glyph glyph-name="ncaron" unicode="&#x148;" horiz-adv-x="742" 
d="M380 732l-156 93l59 77l114 -72l136 72l35 -71zM397 0l-242 498l-108 -498h-117l149 700h116l243 -498l108 498h116l-149 -700h-116z" />
    <glyph glyph-name="ohungarumlaut" unicode="&#x151;" horiz-adv-x="797" 
d="M409 928l64 -66l-165 -122l-60 64zM610 928l64 -66l-165 -122l-59 64zM389 709c464 0 322 -718 -133 -718c-467 0 -323 718 133 718zM260 104c308 0 423 491 125 491c-307 0 -423 -491 -125 -491z" />
    <glyph glyph-name="rcaron" unicode="&#x159;" horiz-adv-x="599" 
d="M309 740l-157 93l60 77l113 -72l137 72l35 -71zM108 292l-62 -292h-117l149 700h238s228 -4 184 -211c-23 -110 -100 -157 -170 -180l72 -309h-125l-72 292h-97zM133 408h121s113 4 132 95c18 84 -95 80 -95 80h-121z" />
    <glyph glyph-name="uring" unicode="&#x16f;" horiz-adv-x="683" 
d="M355 728c-78 0 -131 57 -116 125c13 62 78 112 146 112c78 0 130 -58 116 -126c-14 -62 -78 -111 -146 -111zM391 896c-35 0 -71 -27 -77 -57c-6 -24 11 -42 36 -42c35 0 70 26 77 56c5 24 -11 43 -36 43zM200 -10c-149 0 -252 94 -221 238l100 472h117l-102 -480
c-11 -81 42 -113 111 -113c78 0 165 43 182 121l100 472h117l-102 -480c-32 -149 -158 -230 -302 -230z" />
    <glyph glyph-name="uhungarumlaut" unicode="&#x171;" horiz-adv-x="683" 
d="M347 919l63 -62l-161 -114l-59 59zM545 919l62 -62l-161 -114l-58 59zM200 -10c-149 0 -252 94 -221 238l100 472h117l-102 -480c-11 -81 42 -113 111 -113c78 0 165 43 182 121l100 472h117l-102 -480c-32 -149 -158 -230 -302 -230z" />
    <glyph glyph-name="a.alt" 
d="M25 81l-47 -81h-129l431 720l128 -720h-122l-14 81h-247zM255 182l-31 243l-139 -243h170z" />
    <glyph glyph-name="uni0401" unicode="&#x401;" horiz-adv-x="588" 
d="M305 812c-7 -32 -38 -58 -69 -58c-40 0 -67 34 -59 72c7 33 37 59 67 59c41 0 69 -34 61 -73zM514 812c-7 -32 -38 -58 -69 -58c-40 0 -67 34 -59 72c7 33 37 59 67 59c41 0 69 -34 61 -73zM134 408h291l-25 -116h-291l-37 -175h350l-25 -117h-467l149 700h467l-25 -117
h-350z" />
    <glyph glyph-name="uni0451" unicode="&#x451;" horiz-adv-x="588" 
d="M303 811c-7 -30 -37 -55 -68 -55c-40 0 -68 33 -60 69c6 31 36 55 66 55c41 0 69 -32 62 -69zM512 811c-7 -30 -37 -55 -68 -55c-40 0 -68 33 -60 69c6 31 36 55 66 55c41 0 69 -32 62 -69zM134 408h291l-25 -116h-291l-37 -175h350l-25 -117h-467l149 700h467l-25 -117
h-350z" />
    <glyph glyph-name="uni0410" unicode="&#x410;" horiz-adv-x="683" 
d="M539 578c25 -53 16 -109 15 -115l-99 -463h-117l25 117h-291l-25 -117h-117l100 471c2 6 12 60 54 119c44 50 119 110 247 110c139 0 192 -66 208 -122zM388 233l50 237c1 2 8 32 0 64c-19 34 -55 49 -112 49c-68 0 -118 -22 -147 -65c-24 -25 -33 -55 -33 -55l-49 -230
h291z" />
    <glyph glyph-name="uni0411" unicode="&#x411;" horiz-adv-x="603" 
d="M135 418h112c167 0 230 -83 203 -213c-40 -189 -235 -205 -282 -205h-238l149 700h434l-24 -113h-318zM71 116h112c49 0 135 18 153 103c16 77 -51 86 -103 86h-122z" />
    <glyph glyph-name="uni0412" unicode="&#x412;" horiz-adv-x="603" 
d="M353 347c121 -26 95 -150 94 -153c-40 -189 -232 -194 -279 -194h-238l149 700h238s228 1 185 -204c-19 -89 -81 -133 -149 -149zM133 408h122s112 4 131 94c19 91 -94 82 -94 82h-122zM71 116h112c49 0 134 16 151 95c19 91 -104 80 -104 80h-122z" />
    <glyph glyph-name="uni0413" unicode="&#x413;" horiz-adv-x="548" 
d="M-70 0l149 700h434l-24 -113h-318l-125 -587h-116z" />
    <glyph glyph-name="uni0414" unicode="&#x414;" horiz-adv-x="714" 
d="M-46 -107h-109l46 214h31c24 2 62 17 73 69l62 295c31 144 138 229 279 229h254l-126 -593h81l-46 -214h-109l23 107h-436zM173 463l-63 -295c-4 -17 -11 -41 -31 -64l265 3l102 480h-120c-75 0 -137 -46 -153 -124z" />
    <glyph glyph-name="uni0415" unicode="&#x415;" horiz-adv-x="595" 
d="M152 496h330l-23 -107h-330l-15 -68h330l-22 -107h-330l-21 -97h340l-25 -117h-457l149 700h457l-25 -117h-340z" />
    <glyph glyph-name="uni0416" unicode="&#x416;" horiz-adv-x="870" 
d="M494 700l-72 -328l103 124l199 204h145l-320 -329l172 -371h-141l-126 280l-60 -58l-49 -222h-117l49 222l-31 60l-249 -282h-149l334 371l-176 329h137l109 -205l53 -123l72 328h117z" />
    <glyph glyph-name="uni0417" unicode="&#x417;" horiz-adv-x="493" 
d="M101 -10c-130 0 -205 83 -179 208l114 -8c-12 -65 27 -87 71 -87c55 0 114 50 126 109c13 61 -18 92 -73 92h-58l22 104h48c43 0 94 37 108 102c11 54 -12 87 -61 87c-59 0 -110 -38 -120 -86l-105 8c23 112 115 191 229 191c126 0 199 -82 170 -215
c-11 -54 -44 -111 -111 -138c48 -25 82 -88 67 -159c-31 -149 -143 -208 -248 -208z" />
    <glyph glyph-name="uni0418" unicode="&#x418;" horiz-adv-x="742" 
d="M199 700l-110 -508l457 508h122l-149 -700h-119l112 517l-458 -517h-122l149 700h118z" />
    <glyph glyph-name="uni0419" unicode="&#x419;" horiz-adv-x="744" 
d="M485 897l89 -8c-23 -110 -93 -146 -169 -146c-86 0 -160 44 -136 154l89 -8c-16 -88 105 -80 127 8zM199 700l-110 -508l457 508h122l-149 -700h-119l112 517l-458 -517h-122l149 700h118z" />
    <glyph glyph-name="uni041A" unicode="&#x41a;" horiz-adv-x="646" 
d="M480 0h-149l-157 266l-84 -74l-43 -192h-117l149 700h117l-77 -353l362 353h150l-367 -356z" />
    <glyph glyph-name="uni041B" unicode="&#x41b;" horiz-adv-x="656" 
d="M-128 -5l15 116c15 -2 86 -7 102 67l62 293c31 144 130 229 271 229h254l-149 -700h-120l125 587h-120c-75 0 -129 -46 -145 -124l-63 -293c-12 -57 -46 -189 -232 -175z" />
    <glyph glyph-name="uni041C" unicode="&#x41c;" horiz-adv-x="1022" 
d="M872 0h-122l-111 549l-143 -223l63 -326h-122l-35 174l-110 -174h-131l208 326l-43 223l-347 -549h-130l441 701h126l45 -224l141 224h127z" />
    <glyph glyph-name="uni041D" unicode="&#x41d;" horiz-adv-x="681" 
d="M455 0h-117l37 175h-291l-37 -175h-117l149 700h117l-37 -175h291l37 175h117zM425 408h-291l-25 -116h291z" />
    <glyph glyph-name="uni041E" unicode="&#x41e;" horiz-adv-x="638" 
d="M219 190c-148 0 -245 121 -214 267c30 140 166 253 304 253c148 0 244 -121 213 -267c-29 -140 -165 -253 -303 -253zM304 594c-85 0 -168 -68 -186 -151c-16 -77 30 -137 105 -137c85 0 169 68 186 151c17 77 -30 137 -105 137zM-66 0l25 116h462l-25 -116h-462z" />
    <glyph glyph-name="uni041F" unicode="&#x41f;" horiz-adv-x="686" 
d="M457 0h-117l125 585h-291l-125 -585h-117l149 700h525z" />
    <glyph glyph-name="uni0420" unicode="&#x420;" horiz-adv-x="583" 
d="M79 700h238s227 -4 183 -211c-43 -201 -270 -197 -270 -197h-121l-62 -292h-117l87 408h113l-74 175zM191 583l69 -174c32 4 112 23 127 94c18 84 -95 80 -95 80h-101z" />
    <glyph glyph-name="uni0421" unicode="&#x421;" horiz-adv-x="687" 
d="M269 117c69 0 136 29 185 71l71 -89c-76 -63 -169 -99 -261 -99c-198 0 -326 161 -284 357c40 190 225 343 413 343c102 0 182 -42 232 -106l-93 -76c-33 42 -85 65 -144 65c-134 0 -266 -108 -294 -240c-27 -126 51 -226 175 -226zM437 357c12 57 -21 101 -76 101
c-64 0 -129 -52 -143 -115c-12 -56 23 -101 77 -101c65 0 129 53 142 115z" />
    <glyph glyph-name="uni0422" unicode="&#x422;" horiz-adv-x="448" 
d="M260 593l-126 -593h-116l126 593h-147l23 107h410l-23 -107h-147z" />
    <glyph glyph-name="uni0423" unicode="&#x423;" horiz-adv-x="508" 
d="M183 368l196 332h128l-421 -700h-124l131 218l-85 482h131z" />
    <glyph glyph-name="uni0424" unicode="&#x424;" horiz-adv-x="746" 
d="M161 -10l24 91c-374 0 -260 534 104 534l23 85h117l-23 -85c371 0 273 -534 -104 -534l-24 -91h-117zM198 185l78 324c-229 0 -287 -324 -78 -324zM393 509l-78 -324c206 0 303 324 78 324z" />
    <glyph glyph-name="uni0425" unicode="&#x425;" horiz-adv-x="674" 
d="M19 700h139l124 -250l233 250h147l-326 -350l173 -350h-139l-123 250l-234 -250h-147l327 350z" />
    <glyph glyph-name="uni0426" unicode="&#x426;" horiz-adv-x="700" 
d="M80 700h117l-124 -585h291l124 585h117l-126 -593h69l-46 -216h-109l23 109h-485z" />
    <glyph glyph-name="uni0427" unicode="&#x427;" horiz-adv-x="634" 
d="M289 0l62 274c-46 -25 -96 -39 -146 -39c-143 0 -230 97 -200 238l48 227h117l-50 -235c-10 -82 41 -115 107 -115c50 0 103 19 143 49l68 301h117l-149 -700h-117z" />
    <glyph glyph-name="uni0428" unicode="&#x428;" horiz-adv-x="1010" 
d="M80 700h117l-124 -585h251l124 585h115l-124 -585h251l124 585h117l-149 -700h-851z" />
    <glyph glyph-name="uni0429" unicode="&#x429;" horiz-adv-x="1026" 
d="M80 700h117l-124 -585h251l124 585h115l-124 -585h251l124 585h117l-126 -593h69l-46 -216h-109l23 109h-811z" />
    <glyph glyph-name="uni042A" unicode="&#x42a;" horiz-adv-x="624" 
d="M107 595h-122l22 105h239l-62 -290h112c23 0 241 -4 196 -212c-43 -202 -260 -198 -273 -198h-239zM122 117h112c16 0 123 4 142 95c18 85 -69 83 -94 83h-122z" />
    <glyph glyph-name="uni042B" unicode="&#x42b;" horiz-adv-x="848" 
d="M79 700h117l-62 -290h112c23 0 241 -4 196 -212c-43 -202 -260 -198 -273 -198h-239zM503 0l149 700h117l-149 -700h-117zM72 117h112c16 0 123 4 142 95c18 85 -69 83 -94 83h-122z" />
    <glyph glyph-name="uni042C" unicode="&#x42c;" horiz-adv-x="580" 
d="M79 700h117l-62 -290h112c23 0 241 -4 196 -212c-43 -202 -260 -198 -273 -198h-239zM72 117h112c16 0 123 4 142 95c18 85 -69 83 -94 83h-122z" />
    <glyph glyph-name="uni042D" unicode="&#x42d;" horiz-adv-x="694" 
d="M164 108c115 0 229 86 276 191l-293 -4l24 114l297 4c3 122 -74 180 -181 180c-69 0 -136 -29 -185 -71l-71 88c76 64 169 100 261 100c198 0 329 -147 282 -367c-43 -202 -227 -352 -415 -352c-102 0 -181 42 -232 105l93 77c33 -42 85 -65 144 -65z" />
    <glyph glyph-name="uni042E" unicode="&#x42e;" horiz-adv-x="993" 
d="M612 709c451 0 310 -717 -132 -717c-204 0 -279 147 -268 304l-101 -4l-62 -292h-117l149 700h117l-62 -290l99 4c56 157 183 295 377 295zM484 105c293 0 407 490 124 490c-289 0 -404 -490 -124 -490z" />
    <glyph glyph-name="uni042F" unicode="&#x42f;" horiz-adv-x="618" 
d="M-116 0l262 305c-64 19 -144 71 -117 198c43 201 271 197 271 197h238l-23 -117l-148 -175h109l-87 -408h-117l62 292h-65l-244 -292h-141zM372 583h-97s-113 -4 -132 -94c-14 -66 50 -77 78 -80z" />
    <glyph glyph-name="uni0430" unicode="&#x430;" 
d="M25 81l-47 -81h-129l431 720l128 -720h-122l-14 81h-247zM255 182l-31 243l-139 -243h170z" />
    <glyph glyph-name="uni0431" unicode="&#x431;" horiz-adv-x="603" 
d="M135 418h112c167 0 230 -83 203 -213c-40 -189 -235 -205 -282 -205h-238l149 700h434l-24 -113h-318zM71 116h112c49 0 135 18 153 103c16 77 -51 86 -103 86h-122z" />
    <glyph glyph-name="uni0432" unicode="&#x432;" horiz-adv-x="603" 
d="M353 347c121 -26 95 -150 94 -153c-40 -189 -232 -194 -279 -194h-238l149 700h238s228 1 185 -204c-19 -89 -81 -133 -149 -149zM133 408h122s112 4 131 94c19 91 -94 82 -94 82h-122zM71 116h112c49 0 134 16 151 95c19 91 -104 80 -104 80h-122z" />
    <glyph glyph-name="uni0433" unicode="&#x433;" horiz-adv-x="548" 
d="M-70 0l149 700h434l-24 -113h-318l-125 -587h-116z" />
    <glyph glyph-name="uni0434" unicode="&#x434;" horiz-adv-x="617" 
d="M-61 -107h-108l46 212h65l369 617l109 -617h70l-46 -212h-107l23 107h-398zM300 105l-46 320l-185 -320h231z" />
    <glyph glyph-name="uni0435" unicode="&#x435;" horiz-adv-x="588" 
d="M134 408h291l-25 -116h-291l-37 -175h350l-25 -117h-467l149 700h467l-25 -117h-350z" />
    <glyph glyph-name="uni0436" unicode="&#x436;" horiz-adv-x="875" 
d="M494 700l-72 -328l103 124l199 204h145l-320 -329l172 -371h-141l-126 280l-60 -58l-49 -222h-117l49 222l-31 60l-249 -282h-149l334 371l-176 329h137l109 -205l53 -123l72 328h117z" />
    <glyph glyph-name="uni0437" unicode="&#x437;" horiz-adv-x="493" 
d="M101 -10c-130 0 -205 83 -179 208l114 -8c-12 -65 27 -87 71 -87c55 0 114 50 126 109c13 61 -18 92 -73 92h-58l22 104h48c43 0 94 37 108 102c11 54 -12 87 -61 87c-59 0 -110 -38 -120 -86l-105 8c23 112 115 191 229 191c126 0 199 -82 170 -215
c-11 -54 -44 -111 -111 -138c48 -25 82 -88 67 -159c-31 -149 -143 -208 -248 -208z" />
    <glyph glyph-name="uni0438" unicode="&#x438;" horiz-adv-x="744" 
d="M199 700l-110 -508l457 508h122l-149 -700h-119l112 517l-458 -517h-122l149 700h118z" />
    <glyph glyph-name="uni0439" unicode="&#x439;" horiz-adv-x="747" 
d="M483 895l90 -8c-24 -110 -93 -146 -169 -146c-86 0 -160 44 -137 154l90 -8c-16 -88 105 -80 126 8zM199 700l-110 -508l457 508h122l-149 -700h-119l112 517l-458 -517h-122l149 700h118z" />
    <glyph glyph-name="uni043A" unicode="&#x43a;" horiz-adv-x="646" 
d="M480 0h-149l-157 266l-84 -74l-43 -192h-117l149 700h117l-77 -353l362 353h150l-367 -356z" />
    <glyph glyph-name="uni043B" unicode="&#x43b;" 
d="M-22 0h-129l431 720l128 -720h-123l-62 423z" />
    <glyph glyph-name="uni043C" unicode="&#x43c;" horiz-adv-x="916" 
d="M571 0l94 430l-293 -430h-110l-120 439l-96 -439h-117l149 701h117l149 -545l372 545h121l-149 -701h-117z" />
    <glyph glyph-name="uni043D" unicode="&#x43d;" horiz-adv-x="686" 
d="M457 0h-117l62 292h-291l-62 -292h-117l149 700h117l-62 -290h291l62 290h117z" />
    <glyph glyph-name="uni043E" unicode="&#x43e;" horiz-adv-x="797" 
d="M389 709c464 0 322 -718 -133 -718c-467 0 -323 718 133 718zM260 104c308 0 423 491 125 491c-307 0 -423 -491 -125 -491z" />
    <glyph glyph-name="uni043F" unicode="&#x43f;" horiz-adv-x="686" 
d="M457 0h-117l124 584h-291l-124 -584h-117l149 700h525z" />
    <glyph glyph-name="uni0440" unicode="&#x440;" horiz-adv-x="580" 
d="M79 700h239s228 -4 184 -212c-43 -202 -271 -198 -271 -198h-122l-62 -292h-117zM134 407h122s113 4 132 95c18 85 -95 81 -95 81h-122z" />
    <glyph glyph-name="uni0441" unicode="&#x441;" horiz-adv-x="694" 
d="M270 107c69 0 136 29 185 71l71 -89c-76 -63 -169 -99 -261 -99c-198 0 -330 144 -283 367c44 208 216 353 416 353c102 0 182 -42 233 -106l-94 -76c-33 42 -85 65 -144 65c-149 0 -264 -106 -295 -250c-31 -147 48 -236 172 -236z" />
    <glyph glyph-name="uni0442" unicode="&#x442;" horiz-adv-x="448" 
d="M260 593l-126 -593h-116l126 593h-147l23 107h410l-23 -107h-147z" />
    <glyph glyph-name="uni0443" unicode="&#x443;" horiz-adv-x="511" 
d="M183 368l196 332h128l-421 -700h-124l131 218l-85 482h131z" />
    <glyph glyph-name="uni0444" unicode="&#x444;" horiz-adv-x="746" 
d="M161 -10l24 91c-374 0 -260 534 104 534l23 85h117l-23 -85c371 0 273 -534 -104 -534l-24 -91h-117zM198 185l78 324c-229 0 -287 -324 -78 -324zM393 509l-78 -324c206 0 303 324 78 324z" />
    <glyph glyph-name="uni0445" unicode="&#x445;" horiz-adv-x="674" 
d="M19 700h139l124 -250l233 250h147l-326 -350l173 -350h-139l-123 250l-234 -250h-147l327 350z" />
    <glyph glyph-name="uni0446" unicode="&#x446;" horiz-adv-x="700" 
d="M80 700h117l-124 -585h291l124 585h117l-126 -593h69l-46 -216h-109l23 109h-485z" />
    <glyph glyph-name="uni0447" unicode="&#x447;" horiz-adv-x="634" 
d="M289 0l62 274c-46 -25 -96 -39 -146 -39c-143 0 -230 97 -200 238l48 227h117l-50 -235c-10 -82 41 -115 107 -115c50 0 103 19 143 49l68 301h117l-149 -700h-117z" />
    <glyph glyph-name="uni0448" unicode="&#x448;" horiz-adv-x="1011" 
d="M80 700h117l-124 -585h251l124 585h115l-124 -585h251l124 585h117l-149 -700h-851z" />
    <glyph glyph-name="uni0449" unicode="&#x449;" horiz-adv-x="1026" 
d="M80 700h117l-124 -585h251l124 585h115l-124 -585h251l124 585h117l-126 -593h69l-46 -216h-109l23 109h-811z" />
    <glyph glyph-name="uni044A" unicode="&#x44a;" horiz-adv-x="624" 
d="M107 595h-122l22 105h239l-62 -290h112c23 0 241 -4 196 -212c-43 -202 -260 -198 -273 -198h-239zM122 117h112c16 0 123 4 142 95c18 85 -69 83 -94 83h-122z" />
    <glyph glyph-name="uni044B" unicode="&#x44b;" horiz-adv-x="848" 
d="M79 700h117l-62 -290h112c23 0 241 -4 196 -212c-43 -202 -260 -198 -273 -198h-239zM503 0l149 700h117l-149 -700h-117zM72 117h112c16 0 123 4 142 95c18 85 -69 83 -94 83h-122z" />
    <glyph glyph-name="uni044C" unicode="&#x44c;" horiz-adv-x="580" 
d="M79 700h117l-62 -290h112c23 0 241 -4 196 -212c-43 -202 -260 -198 -273 -198h-239zM72 117h112c16 0 123 4 142 95c18 85 -69 83 -94 83h-122z" />
    <glyph glyph-name="uni044D" unicode="&#x44d;" horiz-adv-x="694" 
d="M164 108c115 0 229 86 276 191l-293 -4l24 114l297 4c3 122 -74 180 -181 180c-69 0 -136 -29 -185 -71l-71 88c76 64 169 100 261 100c198 0 329 -147 282 -367c-43 -202 -227 -352 -415 -352c-102 0 -181 42 -232 105l93 77c33 -42 85 -65 144 -65z" />
    <glyph glyph-name="uni044E" unicode="&#x44e;" horiz-adv-x="993" 
d="M612 709c451 0 310 -717 -132 -717c-204 0 -279 147 -268 304l-101 -4l-62 -292h-117l149 700h117l-62 -290l99 4c56 157 183 295 377 295zM484 105c293 0 407 490 124 490c-289 0 -404 -490 -124 -490z" />
    <glyph glyph-name="uni044F" unicode="&#x44f;" horiz-adv-x="593" 
d="M-112 0l216 311c-58 23 -124 76 -99 192c43 201 271 197 271 197h238l-149 -700h-117l62 292h-93l-196 -292h-133zM373 586h-121s-114 -7 -133 -97c-18 -85 94 -85 94 -85h121z" />
    </font>
</defs>
</svg>
