<?xml version="1.0" standalone="no"?>
<!DOCTYPE svg PUBLIC "-//W3C//DTD SVG 1.1//EN" "http://www.w3.org/Graphics/SVG/1.1/DTD/svg11.dtd" >
<svg xmlns="http://www.w3.org/2000/svg" xmlns:xlink="http://www.w3.org/1999/xlink" version="1.1">
<metadata>
Created by FontForge 20141024 at Thu Dec 10 12:46:05 2015
 By Jimmy Warting
Copyright \(c\) 2013 by Frank Hemmekam. All rights reserved.
</metadata>
<defs>
<font id="BaronNeueBold" horiz-adv-x="559" >
  <font-face 
    font-family="Baron Neue Bold"
    font-weight="700"
    font-stretch="normal"
    units-per-em="1000"
    panose-1="2 11 0 0 0 0 0 0 0 0"
    ascent="750"
    descent="-250"
    x-height="694"
    cap-height="700"
    bbox="-38.6875 -241 1069 985"
    underline-thickness="50"
    underline-position="-50"
    stemh="117"
    stemv="117"
    unicode-range="U+0020-25CA"
  />
<missing-glyph horiz-adv-x="440" 
 />
    <glyph glyph-name=".notdef" horiz-adv-x="440" 
 />
    <glyph glyph-name="Y.alt" horiz-adv-x="641" 
d="M4 700h627c9 0 13 -7 8 -13l-255 -357v-321c0 -4 -4 -8 -10 -8h-113c-6 0 -10 4 -10 8v321l-255 357c-5 6 -1 13 8 13zM317 450l105 149h-209z" />
    <glyph glyph-name="W.alt" horiz-adv-x="997" 
d="M6 700l977 -1c8 0 12 -5 9 -11l-275 -704c-3 -6 -14 -6 -17 0l-206 532l-206 -532c-3 -6 -15 -6 -17 0l-274 705c-3 6 1 11 9 11zM177 574l102 -274l103 274h-205zM609 578l100 -277l101 277h-201z" />
    <glyph glyph-name="exclam" unicode="!" horiz-adv-x="276" 
d="M79 700h114c6 0 10 -4 10 -8v-485c0 -4 -4 -8 -10 -8h-114c-6 0 -10 4 -10 8v485c0 4 4 8 10 8zM135 138c43 0 76 -34 76 -73c0 -40 -33 -73 -76 -73c-40 0 -74 33 -74 73c0 39 34 73 74 73z" />
    <glyph glyph-name="period" unicode="." horiz-adv-x="180" 
d="M87 133c41 0 72 -32 72 -70s-31 -69 -72 -69c-38 0 -70 31 -70 69s32 70 70 70z" />
    <glyph glyph-name="question" unicode="?" horiz-adv-x="490" 
d="M230 710c122 0 216 -74 216 -214c0 -86 -75 -161 -159 -185v-114c0 -3 -4 -7 -10 -7h-103c-6 0 -10 4 -10 7v207c0 5 5 8 11 8c109 -7 137 46 137 84c0 67 -40 84 -82 84s-76 -25 -76 -67c0 -4 -4 -8 -10 -8h-113c-6 0 -10 4 -10 8c0 115 93 197 209 197zM153 67
c0 47 38 72 76 72s75 -24 75 -72c0 -46 -38 -71 -77 -71c-37 0 -74 24 -74 71z" />
    <glyph glyph-name="bracketright" unicode="]" horiz-adv-x="352" 
d="M278 692v-684c0 -4 -3 -8 -9 -8h-228c-6 0 -10 4 -10 8v114c0 4 4 8 10 8h104v440h-104c-6 0 -10 4 -10 8v114c0 4 4 8 10 8h228c6 0 9 -4 9 -8z" />
    <glyph glyph-name="bracketleft" unicode="[" horiz-adv-x="344" 
d="M78 700h228c6 0 10 -4 10 -8v-114c0 -4 -4 -8 -10 -8h-103v-440h103c6 0 10 -4 10 -8v-114c0 -4 -4 -8 -10 -8h-228c-5 0 -9 4 -9 8v684c0 4 4 8 9 8z" />
    <glyph glyph-name="eight" unicode="8" horiz-adv-x="487" 
d="M449 497c0 -55 -28 -114 -73 -147c45 -37 73 -93 73 -147c0 -142 -106 -213 -211 -213c-104 0 -209 71 -209 213c0 54 30 114 69 148c-40 35 -69 92 -69 146c0 140 105 212 209 212c105 0 211 -72 211 -212zM157 497c0 -47 36 -84 81 -84s82 37 82 84c0 59 -41 89 -82 89
s-81 -30 -81 -89zM160 203c0 -58 39 -87 78 -87s79 29 79 87c0 45 -35 85 -79 85c-43 0 -78 -40 -78 -85z" />
    <glyph glyph-name="three" unicode="3" horiz-adv-x="493" 
d="M130 337l139 237h-215c-6 0 -10 4 -10 8v110c0 4 4 8 10 8h402c8 0 13 -6 9 -12l-148 -260c93 -27 145 -108 145 -220c0 -154 -111 -218 -226 -218s-215 80 -215 207c0 4 4 8 10 8h113c5 0 9 -4 9 -8c0 -48 41 -78 83 -78c60 0 91 49 91 97c0 61 -37 104 -94 109h-94
c-8 0 -13 6 -9 12z" />
    <glyph glyph-name="seven" unicode="7" horiz-adv-x="436" 
d="M42 11l212 563h-234c-6 0 -10 4 -10 8v110c0 4 4 8 10 8h409c7 0 12 -5 9 -11l-258 -684c-1 -3 -4 -5 -8 -5h-122c-6 0 -11 5 -8 11z" />
    <glyph glyph-name="nine" unicode="9" horiz-adv-x="486" 
d="M233 708c125 0 206 -96 206 -210c0 -22 -3 -45 -11 -72l-147 -421c-1 -3 -5 -5 -9 -5h-121c-7 0 -11 5 -9 11l102 287c-10 -3 -20 -3 -36 -3c-114 0 -184 101 -184 206c0 114 95 207 209 207zM232 418c43 0 81 37 81 84c0 46 -37 83 -81 83c-45 0 -81 -37 -81 -83
s36 -84 81 -84z" />
    <glyph glyph-name="six" unicode="6" horiz-adv-x="472" 
d="M228 -8c-124 0 -205 96 -205 210c0 24 3 47 10 71l148 422c1 3 4 5 8 5h122c6 0 10 -5 8 -11l-101 -287c9 3 20 3 36 3c114 0 184 -101 184 -206c0 -114 -95 -207 -210 -207zM229 284c-44 0 -82 -39 -82 -86s37 -85 82 -85c46 0 84 38 84 85s-38 86 -84 86z" />
    <glyph glyph-name="zero" unicode="0" horiz-adv-x="565" 
d="M488 192c0 -134 -105 -202 -209 -202c-105 0 -209 68 -209 202v316c0 133 104 202 209 202c104 0 209 -69 209 -202v-316zM354 516c0 51 -38 76 -75 76c-38 0 -75 -25 -75 -76v-329c0 -51 38 -77 75 -77c38 0 75 26 75 77v329z" />
    <glyph glyph-name="bar" unicode="|" horiz-adv-x="281" 
d="M72 700h114c6 0 10 -4 10 -8v-684c0 -4 -4 -8 -10 -8h-114c-6 0 -10 4 -10 8v684c0 4 4 8 10 8z" />
    <glyph glyph-name="five" unicode="5" horiz-adv-x="501" 
d="M244 -7c-116 0 -209 72 -209 207c0 4 4 8 10 8h113c6 0 10 -4 10 -8c0 -53 34 -78 76 -78c56 0 86 46 86 94c0 60 -27 106 -86 110h-194c-6 0 -10 4 -10 8v358c0 4 4 8 10 8h367c6 0 10 -4 10 -8v-106c0 -4 -4 -8 -10 -8h-243v-135h70c152 0 219 -93 219 -234
c0 -136 -104 -216 -219 -216z" />
    <glyph glyph-name="four" unicode="4" horiz-adv-x="515" 
d="M440 692v-684c0 -4 -4 -8 -10 -8h-114c-5 0 -9 4 -9 8v199h-273c-6 0 -10 4 -10 8v110l285 372c1 1 5 3 7 3h114c6 0 10 -4 10 -8zM308 513l-151 -190h151v190z" />
    <glyph glyph-name="two" unicode="2" horiz-adv-x="490" 
d="M447 122v-114c0 -4 -4 -8 -10 -8h-399c-6 0 -10 4 -10 8v105l247 341c17 23 24 44 24 63c0 36 -27 62 -62 62c-36 0 -75 -22 -75 -75c0 -3 -4 -7 -10 -7h-107c-6 0 -10 4 -10 7c0 114 63 205 202 205c104 0 201 -77 201 -185c0 -42 -16 -89 -50 -136l-195 -258h244
c6 0 10 -4 10 -8z" />
    <glyph glyph-name="one" unicode="1" horiz-adv-x="332" 
d="M260 692v-684c0 -4 -3 -8 -9 -8h-115c-6 0 -9 4 -9 8v542c-31 -10 -60 -22 -89 -33c-5 -1 -10 1 -12 5l-38 82c-2 4 -1 8 4 10l159 86h100c6 0 9 -4 9 -8z" />
    <glyph glyph-name="braceright" unicode="}" horiz-adv-x="360" 
d="M242 283v-275c0 -4 -4 -8 -10 -8h-191c-6 0 -9 4 -9 8v114c0 4 3 8 9 8h67v440h-67c-6 0 -9 4 -9 8v114c0 4 3 8 9 8h191c6 0 10 -4 10 -8v-275c41 -20 80 -41 121 -60c8 -3 8 -11 0 -14z" />
    <glyph glyph-name="braceleft" unicode="{" horiz-adv-x="346" 
d="M104 417v275c0 4 4 8 10 8h191c6 0 9 -4 9 -8v-114c0 -4 -3 -8 -9 -8h-67v-440h67c6 0 9 -4 9 -8v-114c0 -4 -3 -8 -9 -8h-191c-6 0 -10 4 -10 8v275c-41 20 -80 41 -121 60c-8 3 -8 11 0 14z" />
    <glyph glyph-name="ampersand" unicode="&#x26;" horiz-adv-x="653" 
d="M626 83l-82 -81c-4 -3 -9 -3 -13 0l-74 73c-48 -54 -115 -83 -183 -83c-88 0 -158 36 -201 96c-65 99 -48 221 41 307c-40 33 -57 84 -57 131c0 98 82 179 180 179c101 0 181 -81 181 -179c0 -60 -36 -116 -81 -150l90 -94v120c0 4 4 8 10 8h172c6 0 10 -4 10 -8v-93
c0 -4 -4 -8 -10 -8h-76v-60c0 -19 -3 -30 -7 -44l-1 -2l101 -100c3 -3 3 -9 0 -12zM237 588c-33 0 -59 -28 -59 -62s26 -63 59 -63c34 0 60 29 60 63s-26 62 -60 62zM369 166l-156 152c-90 -71 -48 -195 66 -195c33 0 65 14 90 43z" />
    <glyph glyph-name="percent" unicode="%" horiz-adv-x="664" 
d="M165 413c-82 0 -151 67 -151 148c0 82 69 149 151 149s151 -67 151 -149c0 -81 -69 -148 -151 -148zM165 619c-30 0 -55 -25 -55 -58c0 -32 25 -56 55 -56s55 24 55 56c0 33 -25 58 -55 58zM488 -9c-84 0 -152 67 -152 150s68 150 152 150c85 0 152 -67 152 -150
s-67 -150 -152 -150zM488 198c-31 0 -55 -25 -55 -57s24 -57 55 -57c30 0 56 25 56 57s-26 57 -56 57zM112 2h-108c-9 0 -13 7 -8 13l531 682c1 1 6 3 8 3h108c9 0 13 -7 8 -13l-531 -682c-1 -1 -6 -3 -8 -3z" />
    <glyph glyph-name="dollar" unicode="$" horiz-adv-x="543" 
d="M329 778v-77c92 -23 157 -97 159 -196c0 -5 -4 -9 -10 -9h-112c-5 0 -10 4 -10 9c-2 50 -41 74 -87 74c-49 0 -89 -28 -89 -88c0 -51 43 -78 89 -78c5 0 54 0 104 -23c76 -36 117 -108 117 -191c0 -112 -72 -181 -161 -202v-72c0 -3 -4 -7 -10 -7h-95c-6 0 -10 4 -10 7
v72c-96 19 -166 87 -167 200c0 4 4 7 10 7h113c5 0 10 -3 10 -7c2 -52 43 -77 89 -77c47 0 89 30 89 79c0 53 -49 86 -89 88c-6 0 -55 0 -106 23c-74 35 -116 98 -116 181c0 113 75 189 167 210v77c0 4 4 8 10 8h95c6 0 10 -4 10 -8z" />
    <glyph glyph-name="colon" unicode=":" horiz-adv-x="180" 
d="M87 133c41 0 72 -32 72 -70s-31 -69 -72 -69c-38 0 -70 31 -70 69s32 70 70 70zM87 418c41 0 72 -32 72 -70s-31 -69 -72 -69c-38 0 -70 31 -70 69s32 70 70 70z" />
    <glyph glyph-name="semicolon" unicode=";" horiz-adv-x="181" 
d="M87 418c41 0 72 -32 72 -70s-31 -69 -72 -69c-38 0 -70 31 -70 69s32 70 70 70zM81 129c57 0 79 -35 79 -77c0 -52 -34 -118 -74 -143c-7 -4 -15 0 -15 7v76c-34 4 -60 34 -60 69c0 37 32 68 70 68z" />
    <glyph glyph-name="comma" unicode="," horiz-adv-x="186" 
d="M81 129c57 0 79 -35 79 -77c0 -52 -34 -118 -74 -143c-7 -4 -15 0 -15 7v76c-34 4 -60 34 -60 69c0 37 32 68 70 68z" />
    <glyph glyph-name="asciitilde" unicode="~" horiz-adv-x="464" 
d="M122 257l-94 26c-5 1 -9 4 -8 8c12 79 63 114 128 114c31 0 65 -8 99 -24h-1c1 -1 3 -1 4 -1c12 -5 27 -12 40 -12c12 0 23 6 33 27c2 3 8 6 12 5l95 -28c5 0 9 -5 7 -9c-25 -80 -68 -110 -125 -110c-30 0 -65 8 -101 23l-15 6c-14 4 -26 10 -37 10c-10 0 -18 -8 -24 -29
c-2 -4 -8 -7 -13 -6z" />
    <glyph glyph-name="OE" unicode="&#x152;" horiz-adv-x="946" 
d="M860 575h-270v-160h226c6 0 10 -4 10 -8v-109c0 -4 -4 -8 -10 -8h-226v-162h283c6 0 10 -4 10 -8v-112c0 -4 -4 -8 -10 -8l-399 1c-24 -5 -53 -8 -81 -8c-224 0 -337 179 -337 358s113 358 337 358c29 0 61 -4 85 -9h382c6 0 10 -4 10 -8v-109c0 -4 -4 -8 -10 -8z
M393 109c24 0 47 3 69 10v462c-21 6 -46 10 -69 10c-130 0 -195 -121 -195 -241s65 -241 195 -241z" />
    <glyph glyph-name="numbersign" unicode="#" horiz-adv-x="654" 
d="M587 416h-77c-16 -55 -32 -103 -46 -159h74c7 0 12 -5 10 -10l-28 -99c-1 -3 -6 -6 -10 -6h-78l-39 -137c-1 -3 -5 -6 -9 -6h-104c-7 0 -11 5 -10 10l38 133h-94l-38 -137c-1 -3 -6 -6 -10 -6h-103c-6 0 -11 5 -9 10l36 133h-83c-6 0 -11 5 -9 10l28 99c1 3 6 6 10 6h86
c15 56 30 104 46 159h-84c-7 0 -12 5 -10 10l27 97c1 3 6 6 10 6h87l47 165c1 3 6 6 10 6h103c7 0 12 -5 10 -10l-46 -161h94l47 165c1 3 6 6 10 6h103c7 0 12 -5 10 -10l-46 -161h74c7 0 12 -5 10 -10l-27 -97c-1 -3 -6 -6 -10 -6zM346 244l54 185h-114l-54 -185h114z" />
    <glyph glyph-name="quotesingle" unicode="'" horiz-adv-x="166" 
d="M21 474v218c0 4 4 8 10 8h104c6 0 10 -4 10 -8v-218c0 -4 -4 -8 -10 -8h-104c-6 0 -10 4 -10 8z" />
    <glyph glyph-name="quotedbl" unicode="&#x22;" horiz-adv-x="318" 
d="M22 474v218c0 4 4 8 10 8h94c6 0 10 -4 10 -8v-218c0 -4 -4 -8 -10 -8h-94c-6 0 -10 4 -10 8zM179 474v218c0 4 4 8 10 8h93c6 0 10 -4 10 -8v-218c0 -4 -4 -8 -10 -8h-93c-6 0 -10 4 -10 8z" />
    <glyph glyph-name="grave" unicode="`" horiz-adv-x="265" 
d="M256 618l-47 -79c-3 -4 -9 -5 -14 -3l-180 98c-5 1 -7 6 -4 10l52 83c3 4 9 5 14 3l175 -101c5 -2 7 -7 4 -11z" />
    <glyph glyph-name="underscore" unicode="_" horiz-adv-x="539" 
d="M504 7v-94c0 -4 -4 -8 -10 -8h-452c-6 0 -10 4 -10 8v94c0 4 4 8 10 8h452c6 0 10 -4 10 -8z" />
    <glyph glyph-name="asterisk" unicode="*" horiz-adv-x="383" 
d="M346 568v-50c0 -4 -4 -8 -10 -8h-68l56 -55c4 -3 4 -9 0 -12l-35 -34c-4 -3 -10 -3 -14 0l-52 51v-66c0 -4 -4 -8 -10 -8h-50c-5 0 -9 4 -9 8v66l-53 -51c-4 -3 -10 -3 -14 0l-35 34c-4 3 -4 9 0 12l56 55h-69c-6 0 -10 4 -10 8v50c0 4 4 8 10 8h69l-56 56
c-4 2 -4 8 0 11l35 35c4 3 10 3 14 0l53 -52v66c0 4 4 8 9 8h50c6 0 10 -4 10 -8v-66l52 52c4 3 10 3 14 0l35 -35c4 -3 4 -9 0 -11l-56 -56h68c6 0 10 -4 10 -8z" />
    <glyph glyph-name="plus" unicode="+" horiz-adv-x="467" 
d="M429 399v-99c0 -4 -4 -8 -10 -8h-139v-142c0 -4 -4 -8 -10 -8h-99c-6 0 -10 4 -10 8v142h-132c-6 0 -10 4 -10 8v99c0 4 4 8 10 8h132v140c0 4 4 8 10 8h99c6 0 10 -4 10 -8v-140h139c6 0 10 -4 10 -8z" />
    <glyph glyph-name="minus" unicode="&#x2212;" horiz-adv-x="401" 
d="M359 390v-103c0 -3 -4 -7 -10 -7h-329c-6 0 -10 4 -10 7v103c0 4 4 8 10 8h329c6 0 10 -4 10 -8z" />
    <glyph glyph-name="equal" unicode="=" horiz-adv-x="427" 
d="M390 427v-98c0 -3 -3 -7 -9 -7h-342c-6 0 -10 4 -10 7v98c0 4 4 8 10 8h342c6 0 9 -4 9 -8zM390 254v-99c0 -3 -3 -7 -9 -7h-342c-6 0 -10 4 -10 7v99c0 4 4 8 10 8h342c6 0 9 -4 9 -8z" />
    <glyph glyph-name="endash" unicode="&#x2013;" horiz-adv-x="509" 
d="M464 395v-109c0 -3 -4 -7 -10 -7h-413c-6 0 -10 4 -10 7v109c0 4 4 8 10 8h413c6 0 10 -4 10 -8z" />
    <glyph glyph-name="emdash" unicode="&#x2014;" horiz-adv-x="579" 
d="M523 395v-109c0 -3 -4 -7 -10 -7h-472c-6 0 -10 4 -10 7v109c0 4 4 8 10 8h472c6 0 10 -4 10 -8z" />
    <glyph glyph-name="divide" unicode="&#xf7;" horiz-adv-x="490" 
d="M445 287v109h-396v-109h396zM247 249c44 0 78 -34 78 -75s-34 -75 -78 -75c-43 0 -77 34 -77 75s34 75 77 75zM247 583c44 0 78 -34 78 -75c0 -42 -34 -76 -78 -76c-43 0 -77 34 -77 76c0 41 34 75 77 75z" />
    <glyph glyph-name="slash" unicode="/" horiz-adv-x="452" 
d="M320 700h117c7 0 11 -5 8 -11l-320 -685c-1 -2 -6 -5 -9 -5h-114c-7 0 -11 5 -8 11l317 685c1 2 6 5 9 5z" />
    <glyph glyph-name="backslash" unicode="\" horiz-adv-x="454" 
d="M128 695l317 -685c3 -6 -1 -11 -8 -11h-117c-3 0 -8 3 -9 5l-317 685c-3 6 1 11 8 11h117c3 0 8 -3 9 -5z" />
    <glyph glyph-name="hyphen" unicode="-" horiz-adv-x="443" 
d="M396 404v-104c0 -4 -3 -8 -9 -8h-344c-6 0 -10 4 -10 8v104c0 4 4 8 10 8h344c6 0 9 -4 9 -8z" />
    <glyph glyph-name="multiply" unicode="&#xd7;" horiz-adv-x="403" 
d="M367 233l-70 -69c-4 -3 -9 -3 -13 0l-95 95l-94 -95c-4 -3 -10 -3 -14 0l-68 69c-4 3 -4 8 0 11l96 96l-97 95c-4 3 -4 9 0 12l69 69c4 3 10 3 14 0l96 -96l94 95c4 3 9 3 13 0l69 -68c4 -3 4 -9 0 -12l-96 -95l96 -96c4 -3 4 -8 0 -11z" />
    <glyph glyph-name="questiondown" unicode="&#xbf;" horiz-adv-x="490" 
d="M244 -10c-121 0 -215 74 -215 214c0 86 74 161 159 185v114c0 3 3 7 9 7h104c6 0 10 -4 10 -7v-207c0 -5 -5 -8 -11 -8c-110 7 -137 -46 -137 -84c0 -67 39 -84 81 -84s76 25 76 67c0 4 4 8 10 8h114c6 0 9 -4 9 -8c0 -115 -92 -197 -209 -197zM321 633
c0 -47 -38 -72 -76 -72c-37 0 -74 24 -74 72c0 46 38 71 76 71c37 0 74 -24 74 -71z" />
    <glyph glyph-name="exclamdown" unicode="&#xa1;" horiz-adv-x="276" 
d="M192 -8h-114c-6 0 -10 4 -10 8v485c0 4 4 8 10 8h114c6 0 10 -4 10 -8v-485c0 -4 -4 -8 -10 -8zM135 554c-42 0 -75 35 -75 74s33 72 75 72c41 0 75 -33 75 -72s-34 -74 -75 -74z" />
    <glyph glyph-name="degree" unicode="&#xb0;" horiz-adv-x="365" 
d="M180 400c-87 0 -159 71 -159 157s72 158 159 158s159 -72 159 -158s-72 -157 -159 -157zM180 622c-34 0 -62 -30 -62 -65s28 -63 62 -63s62 28 62 63s-28 65 -62 65z" />
    <glyph glyph-name="lozenge" unicode="&#x25ca;" horiz-adv-x="484" 
d="M475 345l-229 -343c-4 -5 -12 -5 -16 0l-228 343c-2 2 -2 6 0 8l228 343c4 5 12 5 16 0l229 -343c2 -2 2 -6 0 -8zM238 493l-96 -144c35 -52 61 -94 96 -146c33 48 64 97 96 146z" />
    <glyph glyph-name="dagger" unicode="&#x2020;" horiz-adv-x="543" 
d="M335 529h162c6 0 10 -4 10 -8v-114c0 -4 -4 -8 -10 -8h-162v-391c0 -4 -3 -8 -9 -8h-115c-6 0 -10 4 -10 8v391h-161c-6 0 -10 4 -10 8v114c0 4 4 8 10 8h161v163c0 4 4 8 10 8h115c6 0 9 -4 9 -8v-163z" />
    <glyph glyph-name="daggerdbl" unicode="&#x2021;" horiz-adv-x="537" 
d="M333 529h162c6 0 10 -4 10 -8v-114c0 -4 -4 -8 -10 -8h-162v-85h162c6 0 10 -4 10 -8v-114c0 -4 -4 -8 -10 -8h-162v-176c0 -4 -3 -8 -9 -8h-115c-6 0 -9 4 -9 8v176h-162c-6 0 -10 4 -10 8v114c0 4 4 8 10 8h162v85h-162c-6 0 -10 4 -10 8v114c0 4 4 8 10 8h162v163
c0 4 3 8 9 8h115c6 0 9 -4 9 -8v-163z" />
    <glyph glyph-name="A.alt" horiz-adv-x="683" 
d="M570 583c33 -56 34 -113 34 -119v-456c0 -4 -4 -8 -10 -8h-114c-6 0 -10 4 -10 8v116h-265v-116c0 -4 -4 -8 -10 -8h-114c-6 0 -10 4 -10 8v456c0 6 1 62 34 119c31 53 96 117 232 117c137 0 202 -64 233 -117zM205 243h265v220c0 2 -1 33 -16 57c-22 33 -59 50 -117 50
c-57 0 -95 -18 -116 -53c-15 -26 -16 -53 -16 -53v-221z" />
    <glyph glyph-name="C.alt" horiz-adv-x="456" 
d="M406 122v-114c0 -4 -4 -8 -9 -8c-195 0 -352 157 -352 350s157 350 352 350c5 0 9 -4 9 -8v-114c0 -4 -4 -8 -9 -8c-121 0 -218 -98 -218 -220s97 -220 218 -220c5 0 9 -4 9 -8z" />
    <glyph glyph-name="A.alt1" horiz-adv-x="554" 
d="M550 0h-547c-8 0 -12 5 -9 11l273 704c3 7 15 7 18 0l273 -704c3 -6 -1 -11 -8 -11zM381 115l-104 290l-105 -290h209z" />
    <glyph glyph-name="O.011" horiz-adv-x="261" 
d="M183 284h-114c-6 0 -10 4 -10 8v400c0 4 4 8 10 8h114c6 0 10 -4 10 -8v-400c0 -4 -4 -8 -10 -8zM127 187c52 0 94 -43 94 -94s-42 -94 -94 -94c-54 0 -96 43 -96 94s42 94 96 94z" />
    <glyph glyph-name="germandbls" unicode="&#xdf;" horiz-adv-x="592" 
d="M211 574l-1 -566c0 -4 -4 -8 -9 -8h-120c-5 0 -9 4 -9 8v684c0 4 4 8 9 8h226s236 0 236 -206c0 -103 -69 -146 -101 -149c109 -32 107 -140 107 -140c0 -205 -242 -205 -242 -205c-6 0 -9 4 -9 8v112c0 4 3 8 9 8c0 0 111 0 111 77s-111 77 -111 77c-6 0 -9 4 -9 8v113
c0 4 3 8 9 8c20 0 104 1 104 83c0 59 -61 80 -105 80h-95z" />
    <glyph glyph-name="parenright" unicode=")" horiz-adv-x="308" 
d="M158 699l9 -4c23 -44 48 -102 65 -169c13 -50 23 -110 23 -178c0 -102 -23 -220 -89 -344c-1 -2 -6 -4 -9 -4h-132c-9 0 -13 6 -8 12c70 106 105 218 105 334c0 48 -7 98 -20 148c-24 96 -63 161 -84 193c-5 6 -1 12 8 12h132z" />
    <glyph glyph-name="parenleft" unicode="(" horiz-adv-x="311" 
d="M149 0l-9 4c-56 105 -88 224 -88 348c0 102 22 219 89 343c1 2 6 4 9 4h132c8 0 12 -6 7 -12c-69 -106 -104 -218 -104 -334c0 -120 37 -240 103 -341c5 -6 1 -12 -7 -12h-132z" />
    <glyph glyph-name="trademark" unicode="&#x2122;" horiz-adv-x="646" 
d="M229 692v-44c0 -4 -4 -8 -10 -8h-57v-238c0 -4 -4 -8 -10 -8h-49c-6 0 -10 4 -10 8v238h-58c-5 0 -9 4 -9 8v44c0 4 4 8 9 8h184c6 0 10 -4 10 -8zM613 696v-299c0 -2 -2 -4 -4 -4h-56c-3 0 -4 2 -4 4v172l-77 -162c-1 -1 -3 -2 -4 -2h-47c-2 0 -3 1 -4 2l-83 166v-176
c0 -2 -1 -4 -4 -4h-58c-2 0 -4 2 -4 4v299c0 2 2 4 4 4h59c1 0 3 -1 4 -2l109 -209l104 209c1 1 3 2 4 2h57c2 0 4 -2 4 -4z" />
    <glyph glyph-name="cent" unicode="&#xa2;" horiz-adv-x="580" 
d="M265 7v64c-128 32 -222 145 -222 279c0 133 94 246 222 278v78c0 4 4 8 10 8h88c6 0 10 -4 10 -8v-72c66 -8 123 -40 165 -80c4 -7 6 -19 1 -24l-63 -63c-9 -9 -22 -8 -29 2c-21 20 -47 34 -74 40v-319c29 7 54 22 75 43c9 8 20 6 32 -4l58 -59c4 -7 6 -19 1 -24
c-43 -43 -100 -72 -166 -80v-59c0 -4 -4 -8 -10 -8h-88c-6 0 -10 4 -10 8zM177 350c0 -67 33 -123 88 -149v298c-51 -28 -88 -83 -88 -149z" />
    <glyph glyph-name="acute" unicode="&#xb4;" horiz-adv-x="278" 
d="M59 545l-48 80c-3 4 -1 9 4 10l186 102c5 2 11 1 14 -3l52 -82c2 -4 0 -9 -4 -11l-190 -99c-5 -2 -11 -1 -14 3z" />
    <glyph glyph-name="pi" unicode="&#x3c0;" horiz-adv-x="564" 
d="M41 694h473c6 0 10 -4 10 -8v-112c0 -4 -4 -8 -10 -8h-75v-558c0 -4 -3 -8 -9 -8h-115c-5 0 -9 4 -9 8v558h-57v-558c0 -4 -4 -8 -10 -8h-114c-5 0 -9 4 -9 8v558h-75c-6 0 -9 4 -9 8v112c0 4 3 8 9 8z" />
    <glyph glyph-name="periodcentered" unicode="&#xb7;" horiz-adv-x="204" 
d="M95 427c43 0 76 -34 76 -74c0 -39 -33 -72 -76 -72c-40 0 -74 33 -74 72c0 40 34 74 74 74z" />
    <glyph glyph-name="Euro" unicode="&#x20ac;" horiz-adv-x="593" 
d="M-1 372v85c0 3 4 7 10 7h62c41 129 146 236 329 236c61 0 108 -15 157 -41c4 -2 6 -7 3 -11l-52 -101c-3 -3 -9 -4 -14 -2c-31 15 -57 25 -94 25c-92 0 -152 -44 -185 -106h154c6 0 10 -4 10 -7v-85c0 -3 -4 -7 -10 -7h-181c-1 -13 -1 -28 1 -40h180c6 0 10 -4 10 -8v-84
c0 -4 -4 -8 -10 -8h-147c34 -55 94 -95 178 -95c36 0 75 9 106 23c6 2 10 1 12 -3l39 -109c1 -4 0 -8 -5 -10c-44 -20 -100 -31 -152 -31c-180 0 -283 99 -326 225h-65c-6 0 -10 4 -10 8v84c0 4 4 8 10 8h45c-1 13 -1 27 -1 40h-44c-6 0 -10 4 -10 7z" />
    <glyph glyph-name="at" unicode="@" horiz-adv-x="895" 
d="M346 529c99 0 181 -81 181 -179c0 -17 -4 -51 -14 -69h63v69c0 148 -109 235 -230 235c-149 0 -234 -113 -234 -235s87 -236 234 -236h342c6 0 10 -4 10 -8v-106c0 -4 -4 -8 -10 -8h-342c-221 0 -362 165 -362 358s141 360 362 360c194 0 362 -134 362 -360v-171
c0 -4 -4 -8 -10 -8h-352c-101 0 -181 80 -181 179c0 98 80 179 181 179zM285 350c0 -35 28 -63 61 -63s61 28 61 63s-28 63 -61 63s-61 -28 -61 -63z" />
    <glyph glyph-name="V.001" horiz-adv-x="424" 
d="M426 487l-64 -60c-4 -3 -10 -3 -14 0l-139 134c-48 -45 -92 -89 -140 -134c-4 -3 -10 -3 -14 0l-63 60c-4 3 -4 9 0 12l210 199c4 3 10 3 13 0l211 -199c4 -3 4 -9 0 -12z" />
    <glyph glyph-name="less" unicode="&#x3c;" horiz-adv-x="349" 
d="M244 576l66 -68c4 -3 4 -7 0 -10l-147 -156l147 -153c4 -3 4 -8 0 -11l-66 -69c-4 -2 -9 -2 -13 0l-215 227c-4 3 -4 9 0 12l215 228c4 3 9 3 13 0z" />
    <glyph glyph-name="greater" unicode="&#x3e;" horiz-adv-x="346" 
d="M32 508l66 68c4 3 10 3 14 0l215 -228c4 -3 4 -9 0 -12l-215 -227c-4 -2 -10 -2 -14 0l-66 69c-4 3 -4 8 0 11l147 153l-147 156c-4 3 -4 7 0 10z" />
    <glyph glyph-name="F.alt" horiz-adv-x="617" 
d="M81 700h456c6 0 10 -4 10 -8v-114c0 -4 -4 -8 -10 -8h-456c-6 0 -10 4 -10 8v114c0 4 4 8 10 8zM71 8v399c0 4 4 8 10 8h456c6 0 10 -4 10 -8v-114c0 -4 -4 -8 -10 -8h-332v-277c0 -4 -4 -8 -10 -8h-114c-6 0 -10 4 -10 8z" />
    <glyph glyph-name="onesuperior" unicode="&#xb9;" horiz-adv-x="267" 
d="M190 692v-338c0 -4 -4 -8 -10 -8h-66c-6 0 -10 4 -10 8v250l-39 -14c-5 -2 -11 0 -13 3l-24 61c-2 4 0 8 5 10l89 36h58c6 0 10 -4 10 -8z" />
    <glyph glyph-name="twosuperior" unicode="&#xb2;" horiz-adv-x="341" 
d="M278 365v-65c0 -4 -4 -8 -9 -8h-230c-6 0 -10 4 -10 8v60l137 192c35 46 10 75 -15 75c-18 0 -37 -10 -37 -35c0 -4 -4 -8 -10 -8h-65c-6 0 -10 4 -10 8c0 66 50 116 124 116c96 0 161 -94 90 -193l-102 -143h128c5 0 9 -3 9 -7z" />
    <glyph glyph-name="threesuperior" unicode="&#xb3;" horiz-adv-x="333" 
d="M160 292c-69 0 -124 55 -124 123c0 3 4 7 10 7h65c6 0 10 -4 10 -7c0 -24 18 -42 39 -42c25 0 44 20 44 42c0 26 -14 49 -38 49h-27c-6 0 -10 3 -10 7v55c0 4 4 8 10 8h28c24 0 35 24 35 44c0 23 -20 41 -42 41c-21 0 -41 -18 -41 -41c0 -4 -4 -8 -10 -8h-63
c-6 0 -10 4 -10 8c0 66 55 122 124 122c68 0 127 -50 127 -122c0 -31 -12 -62 -40 -80c32 -22 43 -53 43 -83c0 -80 -62 -123 -130 -123z" />
    <glyph glyph-name="D.alt" horiz-adv-x="670" 
d="M81 700h114c171 0 410 -39 410 -350c0 -299 -236 -350 -410 -350h-114c-6 0 -10 4 -10 8v684c0 4 4 8 10 8zM473 341c0 201 -150 236 -234 239l218 -342c9 28 16 64 16 103zM205 416v-290c6 -1 16 -1 29 -1c34 0 87 5 135 30c-60 97 -103 164 -164 261z" />
    <glyph glyph-name="E.alt" horiz-adv-x="617" 
d="M536 570h-332v-69h332c6 0 10 -4 10 -8v-108c0 -4 -4 -7 -10 -7h-332v-57h332c6 0 10 -3 10 -7v-107c0 -4 -4 -8 -10 -8h-332v-69h332c6 0 10 -4 10 -8v-114c0 -4 -4 -8 -10 -8h-456c-6 0 -10 4 -10 8v684c0 4 4 8 10 8h456c6 0 10 -4 10 -8v-114c0 -4 -4 -8 -10 -8z" />
    <glyph glyph-name="space" unicode=" " horiz-adv-x="345" 
 />
    <glyph glyph-name="X.alt" horiz-adv-x="647" 
d="M640 687l-241 -337c79 -111 162 -225 241 -336c5 -6 1 -13 -8 -13h-628c-9 0 -13 7 -8 13l241 336l-241 337c-5 6 -1 13 8 13h628c9 0 13 -7 8 -13zM226 580l91 -125c32 45 59 79 92 125h-183zM414 116l-97 134c-32 -48 -60 -84 -96 -134h193z" />
    <glyph glyph-name="dieresis" unicode="&#xa8;" horiz-adv-x="376" 
d="M156 634c0 -39 -35 -72 -75 -72c-39 0 -73 33 -73 72s34 72 73 72c40 0 75 -33 75 -72zM360 634c0 -39 -34 -72 -74 -72s-74 33 -74 72s34 72 74 72s74 -33 74 -72z" />
    <glyph glyph-name="M.alt" horiz-adv-x="740" 
d="M661 692v-458c0 -4 -4 -8 -10 -8h-112c-6 0 -10 4 -10 8v197l-103 -180c-1 -2 -6 -4 -9 -4h-91c-3 0 -8 2 -9 4l-113 188v-205c0 -4 -4 -8 -10 -8h-114c-5 0 -9 4 -9 8v458c0 4 4 8 9 8h106c3 0 8 -2 9 -4l175 -292c56 98 110 194 167 292c1 2 6 4 9 4h105
c6 0 10 -4 10 -8zM661 121v-113c0 -4 -4 -8 -10 -8h-571c-5 0 -9 4 -9 8v113c0 4 4 8 9 8h571c6 0 10 -4 10 -8z" />
    <glyph glyph-name="asciicircum" unicode="^" horiz-adv-x="594" 
d="M430 487l-64 -60c-4 -3 -10 -3 -14 0l-139 134c-48 -45 -92 -89 -140 -134c-4 -3 -10 -3 -14 0l-63 60c-4 3 -4 9 0 12l210 199c4 3 10 3 13 0l211 -199c4 -3 4 -9 0 -12z" />
    <glyph glyph-name="cedilla" unicode="&#xb8;" horiz-adv-x="429" 
d="M204 -235c-97 0 -174 79 -174 173c0 4 4 8 9 8h93c6 0 10 -4 10 -8c0 -35 27 -63 62 -63c33 0 60 28 60 63c0 36 -27 63 -60 63c-6 0 -10 4 -10 8v94c0 4 4 7 10 7c95 0 174 -78 174 -172s-79 -173 -174 -173z" />
    <glyph glyph-name="bullet" unicode="&#x2022;" horiz-adv-x="312" 
d="M262 350c0 -62 -51 -113 -116 -113c-62 0 -115 51 -115 113c0 63 53 113 115 113c65 0 116 -50 116 -113z" />
    <glyph glyph-name="circumflex" unicode="&#x2c6;" horiz-adv-x="392" 
d="M69 550l-47 69c-3 4 -2 10 3 12l166 96c2 1 8 1 10 0l169 -91c5 -2 7 -6 4 -10l-44 -76c-3 -3 -9 -4 -14 -3l-120 68l-115 -68c-3 -1 -9 0 -12 3z" />
    <glyph glyph-name="scaron" unicode="&#x161;" horiz-adv-x="543" 
d="M270 -10c-124 3 -222 75 -224 207c0 4 4 8 10 8h114c5 0 10 -4 10 -8c2 -51 44 -77 90 -77c48 0 90 32 90 80c0 53 -49 85 -90 87c-6 0 -55 0 -107 24c-75 35 -117 98 -117 182c0 135 109 217 224 217c123 0 219 -83 221 -205c0 -3 -4 -7 -10 -7h-113c-5 0 -10 4 -10 7
c-2 51 -41 75 -88 75c-49 0 -90 -29 -90 -87c0 -52 44 -79 90 -79c5 0 55 0 106 -24c76 -35 117 -106 117 -190c0 -135 -108 -210 -223 -210zM399 920l46 -66c3 -4 2 -10 -3 -12l-163 -95h-9l-166 89c-4 2 -6 7 -3 11l43 73c3 4 8 5 12 3l119 -66l111 66c4 2 10 0 13 -3z
" />
    <glyph glyph-name="caron" unicode="&#x2c7;" horiz-adv-x="395" 
d="M325 724l47 -68c3 -4 2 -10 -3 -12l-166 -97h-10l-169 91c-5 2 -7 7 -4 11l44 75c3 4 9 5 13 3l121 -67l114 67c4 2 10 0 13 -3z" />
    <glyph glyph-name="yen" unicode="&#xa5;" horiz-adv-x="640" 
d="M492 700h140c9 0 13 -7 8 -13l-211 -295h71c6 0 10 -4 10 -8v-91c0 -4 -4 -8 -10 -8h-115v-42h115c6 0 10 -4 10 -8v-88c0 -4 -4 -8 -10 -8h-115v-131c0 -4 -4 -8 -10 -8h-114c-6 0 -10 4 -10 8v131h-119c-6 0 -10 4 -10 8v88c0 4 4 8 10 8h119v42h-120c-6 0 -10 4 -10 8
v91c0 4 4 8 10 8h73c-67 94 -141 201 -208 295c-5 6 -1 13 8 13h139c2 0 7 -1 8 -3l167 -237l167 237c1 2 5 3 7 3z" />
    <glyph glyph-name="infinity" unicode="&#x221e;" horiz-adv-x="812" 
d="M549 128h-20c-2 0 -6 1 -7 2l-121 120l-119 -120c-1 -1 -5 -2 -7 -2h-20c-5 0 -53 1 -101 25c-67 35 -105 98 -105 179c0 82 38 145 105 180c48 24 96 25 101 25h20c2 0 6 -1 7 -2l119 -120l121 120c1 1 5 2 7 2h20c5 0 52 -1 100 -25c68 -35 106 -98 106 -180
c0 -81 -38 -144 -106 -179c-48 -24 -95 -25 -100 -25zM572 419l-88 -87l88 -87c8 2 16 6 26 11c27 14 40 38 40 76c0 39 -13 64 -40 78c-9 6 -18 7 -26 9zM320 332l-88 87c-8 -2 -17 -3 -26 -9c-27 -14 -40 -39 -40 -78c0 -38 13 -62 40 -76c10 -5 18 -9 26 -11z" />
    <glyph glyph-name="notequal" unicode="&#x2260;" horiz-adv-x="524" 
d="M471 404h-131c-14 -33 -27 -56 -42 -90h173c6 0 10 -4 10 -8v-105c0 -4 -4 -7 -10 -7h-229l-47 -102c-1 -2 -6 -5 -9 -5h-117c-7 0 -11 5 -8 11l44 96h-52c-6 0 -10 3 -10 7v105c0 4 4 8 10 8h107c15 33 28 56 42 90h-149c-6 0 -10 4 -10 8v104c0 4 4 8 10 8h205l40 88
c1 2 6 5 9 5h117c8 0 12 -5 9 -11l-38 -82h76c6 0 10 -4 10 -8v-104c0 -4 -4 -8 -10 -8z" />
    <glyph glyph-name="A.alt2" horiz-adv-x="558" 
d="M126 0h-123c-8 0 -12 5 -9 11l273 684c4 7 14 7 18 0l273 -684c3 -6 -1 -11 -8 -11h-124c-2 0 -7 2 -8 5l-142 354l-141 -354c-1 -3 -6 -5 -9 -5z" />
    <glyph glyph-name="sterling" unicode="&#xa3;" horiz-adv-x="592" 
d="M349 238h-141c-6 -34 -11 -67 -13 -103h345c6 0 10 -4 10 -8v-119c0 -4 -4 -8 -10 -8h-476c-6 0 -10 4 -10 8v59c0 61 5 119 14 171h-59c-6 0 -10 3 -10 7v120c0 4 4 7 10 7h96c8 21 13 37 21 52c38 79 98 146 166 194c118 75 243 82 249 82s10 -4 10 -8v-119
c0 -4 -4 -8 -10 -8c-1 0 -88 -2 -174 -62c-47 -33 -84 -77 -113 -131h95c6 0 10 -3 10 -7v-120c0 -4 -4 -7 -10 -7z" />
    <glyph glyph-name="T.alt" horiz-adv-x="556" 
d="M501 578h-162v-117h162c6 0 9 -3 9 -7v-104c0 -4 -3 -8 -9 -8h-162v-334c0 -4 -4 -8 -9 -8h-115c-6 0 -10 4 -10 8v334h-161c-6 0 -10 4 -10 8v104c0 4 4 7 10 7h161v117h-161c-6 0 -10 4 -10 8v106c0 4 4 8 10 8h457c6 0 9 -4 9 -8v-106c0 -4 -3 -8 -9 -8z" />
    <glyph glyph-name="O.alt" horiz-adv-x="855" 
d="M774 692v-682c0 -4 -4 -8 -10 -8h-682c-6 0 -10 4 -10 8v682c0 4 4 8 10 8h682c6 0 10 -4 10 -8zM205 571v-440h436v440h-436z" />
    <glyph glyph-name="H.alt" horiz-adv-x="568" 
d="M366 700h113c6 0 10 -4 10 -8v-456c0 -4 -4 -8 -10 -8h-113c-6 0 -10 4 -10 8v163h-151v-163c0 -4 -4 -8 -10 -8h-115c-5 0 -9 4 -9 8v456c0 4 4 8 9 8h115c6 0 10 -4 10 -8v-163h151v163c0 4 4 8 10 8zM470 16v98h-380v-98h380z" />
    <glyph glyph-name="O.alt1" horiz-adv-x="817" 
d="M404 700c195 0 352 -157 352 -350c0 -194 -157 -350 -352 -350c-194 0 -352 156 -352 350c0 193 158 350 352 350zM404 129c121 0 218 99 218 221s-97 220 -218 220c-120 0 -218 -98 -218 -220s98 -221 218 -221zM490 350l-86 84l-84 -84l84 -85z" />
    <glyph glyph-name="zero.alt" horiz-adv-x="558" 
d="M272 709c115 0 207 -93 207 -207v-306c0 -113 -92 -206 -207 -206c-116 0 -209 93 -209 206v306c0 114 93 207 209 207zM271 580c-42 0 -75 -34 -75 -75v-219l120 278c-12 10 -28 16 -45 16zM271 120c42 0 75 34 75 75v214l-119 -275c12 -9 27 -14 44 -14z" />
    <glyph glyph-name="O.alt2" horiz-adv-x="812" 
d="M403 706c230 0 346 -179 346 -358c0 -177 -116 -357 -346 -357c-233 0 -348 180 -348 357c0 179 115 358 348 358zM191 347c0 -98 51 -197 154 -224v448c-103 -27 -154 -126 -154 -224zM614 347c0 97 -50 195 -149 223v-446c99 29 149 126 149 223z" />
    <glyph glyph-name="S.alt" horiz-adv-x="528" 
d="M257 0c-5 0 -53 2 -102 22c-71 34 -117 95 -121 173v37c0 1 2 5 3 6l91 83c-61 37 -94 95 -94 170c0 127 108 207 223 207c5 0 54 -1 106 -23c76 -36 117 -100 117 -184v-25c0 -1 -2 -5 -3 -6l-90 -83c61 -37 93 -95 93 -170c0 -127 -108 -207 -223 -207zM281 282
l-110 -100c10 -37 52 -53 86 -53c49 0 90 29 90 78c0 45 -28 67 -66 75zM167 491c0 -46 29 -67 67 -75l110 101c-5 21 -17 30 -36 40c-17 7 -34 10 -52 10c-47 0 -89 -25 -89 -76z" />
    <glyph glyph-name="C.alt1" horiz-adv-x="687" 
d="M398 130c60 0 114 24 154 65c4 2 10 2 14 0l80 -82c4 -3 4 -8 0 -11c-62 -63 -150 -102 -248 -102c-195 0 -352 157 -352 350s157 350 352 350c98 0 186 -39 248 -103c4 -3 4 -8 0 -11l-80 -81c-4 -2 -10 -2 -14 0c-40 41 -94 65 -154 65c-120 0 -218 -98 -218 -220
s98 -220 218 -220zM493 350c0 55 -43 98 -96 98s-96 -43 -96 -98c0 -54 43 -98 96 -98s96 44 96 98z" />
    <glyph glyph-name="copyright" unicode="&#xa9;" horiz-adv-x="692" 
d="M340 700c169 0 303 -136 303 -302c0 -165 -134 -299 -303 -299c-168 0 -302 134 -302 299c0 166 134 302 302 302zM340 190c115 0 207 94 207 208c0 116 -92 210 -207 210c-113 0 -207 -94 -207 -210c0 -114 94 -208 207 -208zM347 316c23 0 43 10 59 24c4 3 9 3 13 0
l34 -31c3 -3 3 -9 0 -12c-27 -26 -64 -43 -106 -43c-79 0 -147 67 -147 145c0 80 68 147 147 147c42 0 79 -17 106 -43c3 -3 3 -9 0 -12l-34 -32c-4 -3 -9 -3 -13 0c-16 15 -36 25 -59 25c-45 0 -81 -37 -81 -85c0 -46 36 -83 81 -83z" />
    <glyph glyph-name="registered" unicode="&#xae;" horiz-adv-x="675" 
d="M335 700c169 0 303 -136 303 -302c0 -165 -134 -299 -303 -299c-168 0 -302 134 -302 299c0 166 134 302 302 302zM335 197c111 0 200 90 200 201c0 112 -88 202 -200 202c-109 0 -199 -90 -199 -202c0 -111 90 -201 199 -201zM378 253l-54 116h-23v-113
c0 -4 -4 -8 -10 -8h-49c-6 0 -9 4 -9 8v280c0 4 3 8 9 8h97c67 0 109 -39 109 -91c0 -28 -17 -58 -55 -77l56 -117c3 -6 -1 -11 -9 -11h-53c-3 0 -8 3 -9 5zM301 483v-57h38c27 0 39 14 39 28c0 15 -14 28 -39 29h-38z" />
    <glyph glyph-name="W.alt1" horiz-adv-x="1024" 
d="M415 0h-124c-3 0 -8 2 -9 5l-285 685c-3 6 1 11 9 11h123c3 0 8 -2 9 -5l215 -516l81 194c-44 105 -87 212 -131 316c-3 6 1 11 9 11h123c3 0 8 -3 9 -5l62 -155l62 155c1 3 6 5 9 5h124c8 0 12 -5 9 -11l-132 -316c30 -71 50 -122 81 -194l215 516c1 3 6 5 9 5h123
c8 0 12 -5 9 -11l-286 -685c-1 -3 -6 -5 -9 -5h-123c-3 0 -8 2 -9 5l-82 198l-82 -198c-1 -2 -6 -5 -9 -5z" />
    <glyph glyph-name="O.alt3" horiz-adv-x="745" 
d="M554 252l41 -243c1 -7 -7 -11 -15 -8l-217 114c-72 -39 -145 -76 -217 -114c-8 -3 -16 1 -15 8l42 243l-176 172c-6 5 -3 13 6 14l242 35l109 222c4 6 14 6 18 0l109 -222l243 -35c8 -1 11 -9 6 -14zM312 371l-95 -14l70 -70c2 -1 3 -6 3 -8l-15 -94c29 16 54 28 82 44
c3 1 9 1 12 0l84 -45c-6 32 -13 64 -17 95c0 2 1 7 3 8l71 70l-96 14c-2 0 -8 4 -9 6l-42 82l-42 -82c-1 -2 -7 -6 -9 -6z" />
    <glyph glyph-name="N.alt" horiz-adv-x="742" 
d="M538 700h113c6 0 10 -4 10 -8v-684c0 -4 -4 -8 -10 -8h-115c-2 0 -7 1 -8 3l-160 230c-54 -77 -111 -154 -164 -230c-1 -2 -6 -3 -8 -3h-115c-5 0 -9 4 -9 8v684c0 4 4 8 9 8h116c2 0 7 -1 8 -3l323 -461v456c0 4 4 8 10 8zM206 222l89 116l-89 127v-243z" />
    <glyph glyph-name="S.alt1" horiz-adv-x="505" 
d="M301 689l-114 -273h295c8 0 12 -5 9 -11l-167 -399c-1 -3 -5 -5 -8 -5h-124c-7 0 -11 5 -8 11l115 273h-296c-8 0 -12 5 -9 11l166 399c1 3 6 5 9 5h123c8 0 12 -5 9 -11z" />
    <glyph glyph-name="E.alt1" horiz-adv-x="583" 
d="M525 692v-114c0 -4 -4 -8 -9 -8h-457c-6 0 -10 4 -10 8v114c0 4 4 8 10 8h457c5 0 9 -4 9 -8zM516 0h-457c-6 0 -10 4 -10 8v114c0 4 4 8 10 8h457c5 0 9 -4 9 -8v-114c0 -4 -4 -8 -9 -8zM525 407v-114c0 -4 -4 -8 -9 -8h-457c-6 0 -10 4 -10 8v114c0 4 4 8 10 8h457
c5 0 9 -4 9 -8z" />
    <glyph glyph-name="A" unicode="A" horiz-adv-x="570" 
d="M427 5l-29 74h-227l-27 -74c-1 -3 -5 -5 -9 -5h-123c-8 0 -12 5 -9 11l273 704c3 7 15 7 18 0l273 -704c3 -6 -1 -11 -8 -11h-124c-3 0 -7 2 -8 5zM285 407l-71 -210h141z" />
    <glyph glyph-name="B" unicode="B" horiz-adv-x="603" 
d="M546 500c0 -82 -44 -128 -97 -150c111 -38 107 -146 107 -146c0 -195 -200 -204 -247 -204h-228c-6 0 -10 4 -10 8v684c0 4 4 8 10 8h228s237 5 237 -200zM204 575v-160h105s103 0 103 77c0 84 -103 83 -103 83h-105zM309 128c44 0 113 12 113 79c0 83 -113 77 -113 77
h-105v-156h105z" />
    <glyph glyph-name="C" unicode="C" horiz-adv-x="694" 
d="M401 120c60 0 114 25 154 65c4 3 10 3 14 0l80 -81c4 -3 4 -9 0 -12c-62 -63 -150 -102 -248 -102c-194 0 -353 140 -353 360c0 211 147 360 353 360c98 0 186 -39 248 -103c4 -3 4 -9 0 -12l-80 -80c-4 -3 -10 -3 -14 0c-40 40 -94 65 -154 65
c-135 0 -217 -97 -217 -230c0 -142 97 -230 217 -230z" />
    <glyph glyph-name="D" unicode="D" horiz-adv-x="662" 
d="M81 700h114c171 0 410 -39 410 -350c0 -299 -236 -350 -410 -350h-114c-6 0 -10 4 -10 8v684c0 4 4 8 10 8zM205 572v-443c85 -4 265 5 265 221c0 166 -113 230 -265 222z" />
    <glyph glyph-name="E" unicode="E" horiz-adv-x="588" 
d="M528 573h-323v-158h275c5 0 9 -4 9 -8v-111c0 -4 -4 -8 -9 -8h-275v-158h332c6 0 10 -4 10 -8v-114c0 -4 -4 -8 -10 -8h-456c-6 0 -10 4 -10 8v684c0 4 4 8 10 8h447c6 0 10 -4 10 -8v-111c0 -4 -4 -8 -10 -8z" />
    <glyph glyph-name="F" unicode="F" horiz-adv-x="580" 
d="M537 570h-332v-158h275c5 0 9 -4 9 -8v-111c0 -4 -4 -8 -9 -8h-275v-277c0 -4 -4 -8 -10 -8h-114c-6 0 -10 4 -10 8v684c0 4 4 8 10 8h456c6 0 10 -4 10 -8v-114c0 -4 -4 -8 -10 -8z" />
    <glyph glyph-name="G" unicode="G" horiz-adv-x="773" 
d="M451 405h238c5 0 9 -4 9 -8v-392c0 -4 -4 -8 -9 -8h-100c-5 0 -10 3 -10 7l-4 65c-48 -55 -109 -79 -187 -79c-189 0 -337 131 -337 360c0 208 158 360 352 360c98 0 186 -39 248 -103c4 -3 4 -9 0 -12l-80 -80c-4 -3 -10 -3 -13 0c-40 40 -95 65 -155 65
c-120 0 -218 -85 -218 -230c0 -161 98 -230 218 -230c64 0 120 28 161 73v91h-113c-6 0 -10 3 -10 7v106c0 4 4 8 10 8z" />
    <glyph glyph-name="H" unicode="H" horiz-adv-x="686" 
d="M482 700h114c6 0 10 -4 10 -8v-684c0 -4 -4 -8 -10 -8h-114c-6 0 -10 4 -10 8v277h-265v-277c0 -4 -4 -8 -10 -8h-114c-6 0 -10 4 -10 8v684c0 4 4 8 10 8h114c6 0 10 -4 10 -8v-276h265v276c0 4 4 8 10 8z" />
    <glyph glyph-name="I" unicode="I" horiz-adv-x="350" 
d="M305 580h-66v-460h70c6 0 10 -4 10 -8v-104c0 -4 -4 -8 -10 -8h-275c-6 0 -10 4 -10 8v104c0 4 4 8 10 8h71v460h-67c-6 0 -10 4 -10 8v104c0 4 4 8 10 8h267c6 0 10 -4 10 -8v-104c0 -4 -4 -8 -10 -8z" />
    <glyph glyph-name="K" unicode="K" horiz-adv-x="646" 
d="M627 687l-279 -343l281 -331c6 -6 1 -13 -8 -13h-150c-2 0 -7 2 -8 3l-204 252c-17 -19 -35 -42 -54 -61v-186c0 -4 -4 -8 -9 -8h-115c-6 0 -10 4 -10 8v684c0 4 4 8 10 8h115c5 0 9 -4 9 -8v-318l263 323c1 1 6 3 8 3h143c9 0 14 -7 8 -13z" />
    <glyph glyph-name="L" unicode="L" horiz-adv-x="501" 
d="M204 130h244c6 0 10 -4 10 -8v-114c0 -4 -4 -8 -10 -8h-368c-6 0 -10 4 -10 8v684c0 4 4 8 10 8h115c5 0 9 -4 9 -8v-562z" />
    <glyph glyph-name="M" unicode="M" horiz-adv-x="916" 
d="M833 693v-685c0 -4 -4 -8 -10 -8h-114c-6 0 -10 4 -10 8v384l-178 -359c-1 -2 -6 -5 -8 -5h-108c-3 0 -8 3 -9 5l-190 368v-393c0 -4 -4 -8 -10 -8h-115c-6 0 -9 4 -9 8v685c0 4 3 8 9 8h117c3 0 8 -3 9 -5l251 -514l240 514c1 2 6 5 9 5h116c6 0 10 -4 10 -8z" />
    <glyph glyph-name="N" unicode="N" horiz-adv-x="742" 
d="M661 692v-684c0 -4 -4 -8 -10 -8h-115c-2 0 -7 1 -8 3l-322 461v-456c0 -4 -4 -8 -10 -8h-115c-5 0 -9 4 -9 8v684c0 4 4 8 9 8h116c2 0 7 -1 8 -3l323 -461v456c0 4 4 8 10 8h113c6 0 10 -4 10 -8z" />
    <glyph glyph-name="O" unicode="O" horiz-adv-x="638" 
d="M313 186c-145 0 -264 118 -264 262c0 143 119 262 264 262s264 -119 264 -262c0 -144 -119 -262 -264 -262zM313 581c-72 0 -131 -59 -131 -133c0 -75 59 -133 131 -133c73 0 131 58 131 133c0 74 -58 133 -131 133zM546 121v-113c0 -4 -4 -8 -10 -8h-451
c-6 0 -10 4 -10 8v113c0 4 4 8 10 8h451c6 0 10 -4 10 -8z" />
    <glyph glyph-name="P" unicode="P" horiz-adv-x="583" 
d="M309 700c0 0 237 0 237 -207c0 -208 -237 -208 -237 -208h-104v-277c0 -4 -4 -8 -10 -8h-114c-6 0 -10 4 -10 8v399c0 4 4 8 10 8h93c-35 53 -69 109 -103 162v115c0 4 4 8 10 8h228zM309 570h-88l97 -154c36 0 95 20 95 77c0 77 -82 77 -104 77z" />
    <glyph glyph-name="Q" unicode="Q" horiz-adv-x="822" 
d="M697 149l68 -73c4 -3 4 -9 0 -11l-83 -79c-4 -3 -10 -3 -14 0l-65 68c-57 -40 -124 -63 -200 -63c-196 0 -353 155 -353 361c0 194 145 358 353 358c207 0 353 -164 353 -358c0 -71 -22 -147 -59 -203zM622 352c0 122 -98 228 -219 228c-31 0 -60 -7 -86 -18l284 -313
c13 30 21 69 21 103zM403 121c39 0 78 13 110 31c-100 110 -196 215 -296 325c-20 -34 -33 -83 -33 -125c0 -137 98 -231 219 -231z" />
    <glyph glyph-name="R" unicode="R" horiz-adv-x="612" 
d="M574 0h-134c-3 0 -8 2 -9 4l-176 281h-49v-277c0 -4 -4 -8 -10 -8h-114c-6 0 -10 4 -10 8v399c0 4 4 8 10 8h93c-34 53 -69 109 -103 162v115c0 4 4 8 10 8h228s238 0 238 -207c0 -123 -79 -172 -147 -193l180 -288c4 -6 0 -12 -7 -12zM226 570l97 -154c38 1 91 17 91 77
c0 77 -81 77 -104 77h-84z" />
    <glyph glyph-name="S" unicode="S" horiz-adv-x="543" 
d="M270 -10c-124 3 -222 75 -224 207c0 4 4 8 10 8h114c5 0 10 -4 10 -8c2 -51 44 -77 90 -77c48 0 90 32 90 80c0 53 -49 85 -90 87c-6 0 -55 0 -107 24c-75 35 -117 98 -117 182c0 135 109 217 224 217c123 0 219 -83 221 -205c0 -3 -4 -7 -10 -7h-113c-5 0 -10 4 -10 7
c-2 51 -41 75 -88 75c-49 0 -90 -29 -90 -87c0 -52 44 -79 90 -79c5 0 55 0 106 -24c76 -35 117 -106 117 -190c0 -135 -108 -210 -223 -210z" />
    <glyph glyph-name="T" unicode="T" horiz-adv-x="448" 
d="M433 692v-104c0 -4 -4 -8 -10 -8h-134v-572c0 -4 -4 -8 -10 -8h-113c-6 0 -10 4 -10 8v572h-134c-6 0 -10 4 -10 8v104c0 4 4 8 10 8h401c6 0 10 -4 10 -8z" />
    <glyph glyph-name="U" unicode="U" horiz-adv-x="740" 
d="M81 700h569c6 0 10 -4 10 -8v-409c0 -7 -1 -75 -35 -143c-49 -96 -140 -150 -259 -150s-211 53 -259 150c-34 68 -35 136 -35 143v409c0 4 4 8 9 8zM504 196c22 42 23 87 23 88v296h-322v-297s1 -45 23 -87c27 -51 72 -76 138 -76s111 25 138 76z" />
    <glyph glyph-name="V" unicode="V" horiz-adv-x="575" 
d="M14 700h547c6 0 11 -5 8 -11l-272 -712c-3 -7 -15 -7 -18 0l-274 712c-3 6 2 11 9 11zM186 576l102 -280l101 280h-203z" />
    <glyph glyph-name="W" unicode="W" horiz-adv-x="1014" 
d="M1004 689l-274 -711c-3 -7 -14 -7 -17 0l-206 539l-205 -539c-3 -7 -15 -7 -17 0l-273 711c-3 6 2 11 9 11h123c4 0 8 -2 9 -5l140 -379l144 379c1 3 5 5 9 5h123c4 0 8 -2 9 -5l144 -379l141 379c1 3 5 5 9 5h123c8 0 12 -5 9 -11z" />
    <glyph glyph-name="X" unicode="X" horiz-adv-x="674" 
d="M13 13l240 337c-80 111 -160 226 -240 337c-5 6 -1 13 7 13h140c2 0 7 -1 8 -3l167 -233l166 233c1 2 6 3 8 3h140c9 0 13 -7 8 -13l-241 -337c81 -111 161 -226 241 -337c5 -6 1 -13 -8 -13h-140c-2 0 -7 1 -8 3l-166 233l-167 -233c-1 -2 -6 -3 -8 -3h-140
c-8 0 -12 7 -7 13z" />
    <glyph glyph-name="Y" unicode="Y" horiz-adv-x="645" 
d="M492 700h140c9 0 13 -7 8 -13l-255 -358v-321c0 -4 -4 -8 -10 -8h-114c-6 0 -10 4 -10 8v321c-84 120 -171 239 -255 358c-5 6 -1 13 8 13h139c2 0 7 -1 8 -3l167 -233l167 233c1 2 5 3 7 3z" />
    <glyph glyph-name="Z" unicode="Z" horiz-adv-x="475" 
d="M443 122v-114c0 -4 -4 -8 -10 -8h-398c-8 0 -12 5 -9 11l224 559h-216c-6 0 -10 4 -10 8v114c0 4 4 8 10 8h398c8 0 12 -5 9 -11l-224 -559h216c6 0 10 -4 10 -8z" />
    <glyph glyph-name="a" unicode="a" horiz-adv-x="571" 
d="M427 5l-29 74h-227l-27 -74c-1 -3 -5 -5 -9 -5h-123c-8 0 -12 5 -9 11l273 704c3 7 15 7 18 0l273 -704c3 -6 -1 -11 -8 -11h-124c-3 0 -7 2 -8 5zM285 407l-71 -210h141z" />
    <glyph glyph-name="b" unicode="b" horiz-adv-x="603" 
d="M543 502c0 -80 -44 -125 -96 -146c109 -38 105 -153 105 -153c0 -194 -197 -203 -245 -203h-226c-5 0 -9 4 -9 8v684c0 4 4 8 9 8h226s236 6 236 -198zM204 572v-160h103c19 0 103 7 103 83c0 83 -103 77 -103 77h-103zM307 128c44 0 113 13 113 79c0 83 -91 83 -113 83
h-103v-162h103z" />
    <glyph glyph-name="c" unicode="c" horiz-adv-x="694" 
d="M399 119c59 0 113 24 153 64c4 3 10 3 14 0l79 -80c4 -3 4 -9 0 -12c-62 -62 -149 -101 -246 -101c-192 0 -350 139 -350 357c0 209 145 363 350 363c97 0 184 -38 246 -101c4 -3 4 -9 0 -12l-79 -79c-4 -3 -10 -3 -14 0c-40 39 -94 64 -153 64
c-134 0 -215 -103 -215 -235c0 -141 96 -228 215 -228z" />
    <glyph glyph-name="d" unicode="d" horiz-adv-x="662" 
d="M82 700h113c169 0 406 -40 406 -348c0 -297 -233 -352 -406 -352h-113c-6 0 -10 4 -10 8v684c0 4 4 8 10 8zM205 576v-451c84 -4 263 12 263 227c0 185 -112 232 -263 224z" />
    <glyph glyph-name="e" unicode="e" horiz-adv-x="588" 
d="M534 573h-330v-162h273c6 0 9 -4 9 -8v-109c0 -4 -3 -8 -9 -8h-273v-160h330c6 0 10 -4 10 -8v-110c0 -4 -4 -8 -10 -8h-453c-5 0 -9 4 -9 8v684c0 4 4 8 9 8h453c6 0 10 -4 10 -8v-111c0 -4 -4 -8 -10 -8z" />
    <glyph glyph-name="f" unicode="f" horiz-adv-x="580" 
d="M534 565h-330v-154h273c6 0 9 -4 9 -8v-112c0 -4 -3 -8 -9 -8h-273v-275c0 -4 -3 -8 -9 -8h-114c-5 0 -9 4 -9 8v678c0 4 4 8 9 8h453c6 0 10 -4 10 -8v-113c0 -4 -4 -8 -10 -8z" />
    <glyph glyph-name="H.alt1" horiz-adv-x="681" 
d="M480 700h114c6 0 10 -4 10 -8v-684c0 -4 -4 -8 -10 -8h-114c-6 0 -10 4 -10 8v163h-265v-163c0 -4 -4 -8 -10 -8h-114c-6 0 -10 4 -10 8v684c0 4 4 8 10 8h114c6 0 10 -4 10 -8v-163h265v163c0 4 4 8 10 8zM205 301h265v98h-265v-98z" />
    <glyph glyph-name="i" unicode="i" horiz-adv-x="280" 
d="M72 8v684c0 4 4 8 10 8h113c6 0 10 -4 10 -8v-684c0 -4 -4 -8 -10 -8h-113c-6 0 -10 4 -10 8z" />
    <glyph glyph-name="k" unicode="k" horiz-adv-x="646" 
d="M626 687l-278 -343l280 -331c6 -6 1 -13 -8 -13h-149c-2 0 -7 2 -8 3l-204 252c-17 -19 -34 -42 -53 -61v-186c0 -4 -4 -8 -10 -8h-114c-6 0 -10 4 -10 8v684c0 4 4 8 10 8h114c6 0 10 -4 10 -8v-324l262 329c1 1 6 3 8 3h142c9 0 14 -7 8 -13z" />
    <glyph glyph-name="l.001" horiz-adv-x="561" 
d="M495 235h-291v-106h301c5 0 9 -4 9 -8v-113c0 -4 -4 -8 -9 -8h-424c-6 0 -10 4 -10 8v678c0 4 4 8 10 8h114c5 0 9 -4 9 -8v-331h291c6 0 10 -4 10 -8v-104c0 -4 -4 -8 -10 -8z" />
    <glyph glyph-name="M.alt1" horiz-adv-x="1022" 
d="M596 701h124c3 0 8 -2 9 -5l286 -685c3 -6 -1 -11 -9 -11h-123c-3 0 -8 2 -9 5l-215 516l-81 -194c44 -105 87 -212 131 -316c3 -6 -1 -11 -9 -11h-123c-3 0 -8 3 -9 5l-63 148l-61 -148c-1 -3 -6 -5 -9 -5h-124c-8 0 -12 5 -9 11l132 316c-30 71 -51 122 -81 194
l-215 -516c-1 -3 -6 -5 -9 -5h-123c-8 0 -12 5 -9 11l285 685c1 3 6 5 9 5h123c3 0 8 -2 9 -5l82 -198l82 198c1 2 6 5 9 5z" />
    <glyph glyph-name="n" unicode="n" horiz-adv-x="742" 
d="M657 693v-685c0 -4 -4 -8 -10 -8h-114c-2 0 -7 1 -8 3l-320 466v-461c0 -4 -4 -8 -9 -8h-114c-6 0 -9 4 -9 8v685c0 4 3 8 9 8h115c2 0 6 -1 7 -3l321 -470v465c0 4 4 8 10 8h112c6 0 10 -4 10 -8z" />
    <glyph glyph-name="o" unicode="o" horiz-adv-x="797" 
d="M393 710c229 0 345 -180 345 -359s-116 -360 -345 -360c-233 0 -347 181 -347 360s114 359 347 359zM393 117c139 0 210 116 210 232c0 117 -71 234 -210 234c-141 0 -211 -117 -211 -234c0 -116 70 -232 211 -232z" />
    <glyph glyph-name="p" unicode="p" horiz-adv-x="580" 
d="M308 700c28 0 237 -4 237 -211c0 -206 -220 -208 -237 -208h-104v-275c0 -4 -3 -8 -9 -8h-114c-5 0 -9 4 -9 8v686c0 4 4 8 9 8h227zM308 410c18 0 104 2 104 79c0 78 -88 82 -104 82h-104v-161h104z" />
    <glyph glyph-name="q" unicode="q" horiz-adv-x="827" 
d="M754 63l-79 -79c-4 -3 -10 -3 -14 0l-66 66c-57 -37 -125 -60 -197 -60c-210 0 -349 169 -349 361c0 191 133 359 349 359c207 0 349 -168 349 -359c0 -71 -23 -152 -60 -209l67 -67c4 -3 4 -9 0 -12zM398 118c32 0 70 10 102 26c-23 22 -43 44 -65 65c-4 3 -4 9 0 12
l80 80c4 3 10 3 14 0l62 -62c15 31 24 76 24 112c0 121 -76 231 -217 231c-137 0 -216 -110 -216 -231s85 -233 216 -233z" />
    <glyph glyph-name="r" unicode="r" horiz-adv-x="599" 
d="M407 5l-128 278h-75v-275c0 -4 -4 -8 -10 -8h-114c-5 0 -9 4 -9 8v684c0 4 4 8 9 8h226c40 0 237 -2 237 -208c0 -107 -59 -163 -129 -188c44 -99 91 -195 135 -293c3 -6 -1 -11 -8 -11h-125c-3 0 -8 3 -9 5zM204 573v-162h102c29 0 104 4 104 81s-83 81 -104 81h-102z
" />
    <glyph glyph-name="s" unicode="s" horiz-adv-x="543" 
d="M269 -10c-123 3 -220 74 -222 206c0 4 4 7 10 7h113c5 0 10 -3 10 -7c2 -52 43 -77 89 -77c47 0 89 30 89 79c0 52 -49 85 -89 87c-6 0 -55 0 -106 23c-74 35 -116 103 -116 186c0 134 107 215 222 215c122 0 217 -82 219 -202c0 -4 -4 -8 -10 -8h-112c-5 0 -10 4 -10 8
c-2 50 -41 74 -87 74c-49 0 -89 -28 -89 -87c0 -51 43 -84 89 -84c5 0 54 0 104 -23c76 -35 117 -107 117 -189c0 -135 -107 -208 -221 -208z" />
    <glyph glyph-name="t" unicode="t" horiz-adv-x="448" 
d="M430 686v-104c0 -4 -4 -7 -10 -7h-133v-567c0 -4 -3 -8 -9 -8h-113c-6 0 -9 4 -9 8v567h-133c-6 0 -10 3 -10 7v104c0 4 4 8 10 8h397c6 0 10 -4 10 -8z" />
    <glyph glyph-name="u" unicode="u" horiz-adv-x="683" 
d="M336 -10c-145 0 -264 90 -264 235v461c0 4 4 8 10 8h113c6 0 10 -4 10 -8v-460c8 -70 66 -107 131 -107c66 0 131 35 131 106v461c0 4 4 8 10 8h114c5 0 9 -4 9 -8v-461c0 -149 -114 -235 -264 -235z" />
    <glyph glyph-name="v" unicode="v" horiz-adv-x="571" 
d="M435 700h122c8 0 12 -5 9 -11l-272 -702c-3 -6 -14 -6 -17 0l-270 702c-3 6 1 11 8 11h122c4 0 8 -2 9 -5l140 -391l140 391c1 3 5 5 9 5z" />
    <glyph glyph-name="w" unicode="w" horiz-adv-x="1005" 
d="M993 689l-271 -711c-3 -7 -14 -7 -17 0l-204 541l-203 -541c-3 -7 -15 -7 -18 0l-270 711c-3 6 2 11 9 11h122c4 0 8 -2 9 -5l139 -390l141 390c1 3 4 5 8 5h126c4 0 8 -2 9 -5l140 -390l141 390c1 3 5 5 9 5h122c8 0 11 -5 8 -11z" />
    <glyph glyph-name="x" unicode="x" horiz-adv-x="674" 
d="M14 13l238 334c-79 110 -159 230 -238 340c-5 6 -1 13 8 13h138c2 0 7 -1 8 -3l166 -237l164 237c1 2 6 3 8 3h139c8 0 12 -7 8 -13l-239 -340c80 -111 159 -224 239 -334c4 -6 0 -13 -8 -13h-139c-2 0 -7 1 -8 3l-164 231l-166 -231c-1 -2 -6 -3 -8 -3h-138
c-9 0 -13 7 -8 13z" />
    <glyph glyph-name="y" unicode="y" horiz-adv-x="655" 
d="M499 700h139c9 0 13 -7 8 -13l-253 -360v-319c0 -4 -4 -8 -10 -8h-113c-6 0 -10 4 -10 8v319c-83 118 -169 242 -253 360c-5 6 -1 13 8 13h139c1 0 6 -1 7 -3l166 -237l165 237c1 2 6 3 7 3z" />
    <glyph glyph-name="z" unicode="z" horiz-adv-x="583" 
d="M554 0h-550c-7 0 -12 6 -8 12l341 559h-304c-5 0 -9 4 -9 8v113c0 4 4 8 9 8h521c8 0 12 -6 9 -12l-341 -559h332c6 0 9 -4 9 -8v-113c0 -4 -3 -8 -9 -8z" />
    <glyph glyph-name="h" unicode="h" horiz-adv-x="686" 
d="M479 700h114c5 0 9 -4 9 -8v-684c0 -4 -4 -8 -9 -8h-114c-6 0 -10 4 -10 8v284h-262v-284c0 -4 -4 -8 -10 -8h-113c-6 0 -10 4 -10 8v684c0 4 4 8 10 8h113c6 0 10 -4 10 -8v-273h262v273c0 4 4 8 10 8z" />
    <glyph glyph-name="l" unicode="l" horiz-adv-x="501" 
d="M204 129h241c6 0 10 -4 10 -8v-113c0 -4 -4 -8 -10 -8h-364c-6 0 -10 4 -10 8v684c0 4 4 8 10 8h113c6 0 10 -4 10 -8v-563z" />
    <glyph glyph-name="O.alt4" horiz-adv-x="778" 
d="M375 109c-136 0 -246 109 -246 242c0 4 4 8 10 8h47c6 0 10 -4 10 -8c0 -100 80 -180 179 -180c98 0 178 80 178 180c0 4 4 8 9 8h47c6 0 10 -4 10 -8c0 -133 -110 -242 -244 -242zM375 2c-195 0 -351 157 -351 349s156 349 351 349c193 0 350 -157 350 -349
s-157 -349 -350 -349zM375 637c-157 0 -285 -128 -285 -286s128 -285 285 -285c155 0 283 127 283 285s-128 286 -283 286zM232 457c0 77 22 140 49 140s48 -63 48 -140s-21 -140 -48 -140s-49 63 -49 140zM422 457c0 77 20 140 48 140c26 0 47 -63 47 -140
s-21 -140 -47 -140c-28 0 -48 63 -48 140z" />
    <glyph glyph-name="O.alt5" horiz-adv-x="819" 
d="M804 347l-197 -343c-1 -2 -6 -4 -9 -4h-396c-3 0 -8 2 -9 4l-197 343c-1 2 -1 6 0 8l197 342c1 2 6 4 9 4h396c3 0 8 -2 9 -4l197 -342c1 -2 1 -6 0 -8zM146 351l128 -222h252l128 222c-43 74 -85 146 -128 221h-252c-43 -74 -85 -146 -128 -221z" />
    <glyph glyph-name="m" unicode="m" horiz-adv-x="916" 
d="M828 692v-684c0 -4 -4 -8 -10 -8h-113c-6 0 -10 4 -10 8v394l-176 -370c-1 -2 -6 -5 -9 -5h-107c-3 0 -7 3 -8 5l-189 378v-402c0 -4 -4 -8 -10 -8h-113c-6 0 -10 4 -10 8v684c0 4 4 8 10 8h115c3 0 8 -3 9 -5l249 -515l238 515c1 2 6 5 9 5h115c6 0 10 -4 10 -8z" />
    <glyph glyph-name="A.alt3" horiz-adv-x="558" 
d="M450 283l108 -272c3 -6 -1 -11 -8 -11h-124c-2 0 -7 2 -8 5l-38 112l-48 -112c-1 -3 -5 -5 -8 -5h-96c-3 0 -8 2 -9 5l-46 112l-38 -112c-1 -3 -6 -5 -9 -5h-123c-8 0 -12 5 -9 11l273 684c4 7 14 7 18 0zM276 174l47 106l-47 116l-46 -116z" />
    <glyph glyph-name="A.alt4" horiz-adv-x="624" 
d="M594 692v-114c0 -4 -4 -8 -10 -8h-215c74 -188 150 -372 224 -559c3 -6 -1 -11 -9 -11h-123c-3 0 -8 2 -9 5l-142 354l-140 -354c-1 -3 -6 -5 -9 -5h-123c-8 0 -12 5 -9 11l224 559h-215c-6 0 -10 4 -10 8v114c0 4 4 8 10 8h546c6 0 10 -4 10 -8z" />
    <glyph glyph-name="j" unicode="j" horiz-adv-x="406" 
d="M206 700h114c5 0 9 -4 9 -8v-487c0 -205 -208 -205 -208 -205h-85c-6 0 -10 4 -10 8v113c0 4 4 8 10 8h85c76 0 76 76 76 76v487c0 4 3 8 9 8z" />
    <glyph glyph-name="J" unicode="J" horiz-adv-x="406" 
d="M84 701h238c6 0 9 -4 9 -8v-486c0 -207 -210 -207 -210 -207h-86c-6 0 -10 4 -10 8v114c0 4 4 8 10 8h86c77 0 77 77 77 77v374h-114c-6 0 -10 4 -10 8v104c0 4 4 8 10 8z" />
    <glyph glyph-name="O.alt6" horiz-adv-x="808" 
d="M398 699c194 0 351 -156 351 -349s-157 -350 -351 -350c-195 0 -351 157 -351 350s156 349 351 349zM616 350c0 121 -98 220 -218 220c-37 0 -71 -9 -101 -25l286 -311c22 34 33 72 33 116zM179 350c0 -122 98 -220 219 -220c33 0 60 6 87 18c-97 104 -183 198 -281 304
c-15 -30 -25 -67 -25 -102z" />
    <glyph glyph-name="O.alt7" horiz-adv-x="1135" 
d="M717 700c195 0 352 -157 352 -350s-157 -350 -352 -350c-56 0 -109 13 -156 36c-47 -23 -101 -36 -157 -36c-194 0 -352 157 -352 350s158 350 352 350c56 0 110 -13 157 -36c47 23 100 36 156 36zM622 350c0 60 -24 113 -61 153c-39 -40 -62 -92 -62 -153
c0 -59 25 -113 62 -153c39 40 61 93 61 153zM186 350c0 -122 98 -220 218 -220c11 0 26 1 37 3c-48 61 -75 135 -75 217s27 156 75 217c-11 2 -26 3 -37 3c-120 0 -218 -98 -218 -220zM717 130c120 0 218 98 218 220s-98 220 -218 220c-11 0 -25 -1 -37 -3
c48 -61 75 -135 75 -217s-27 -156 -75 -217c12 -2 26 -3 37 -3z" />
    <glyph glyph-name="I.alt" horiz-adv-x="562" 
d="M525 580h-67v-460h67c6 0 10 -4 10 -8v-104c0 -4 -4 -8 -10 -8h-495c-6 0 -10 4 -10 8v104c0 4 4 8 10 8h66v460h-66c-6 0 -10 4 -10 8v104c0 4 4 8 10 8h495c6 0 10 -4 10 -8v-104c0 -4 -4 -8 -10 -8zM325 120v460h-95v-460h95z" />
    <glyph glyph-name="O.009" horiz-adv-x="1022" 
d="M962 571h-47v-441h47c6 0 10 -4 10 -8v-114c0 -4 -4 -8 -10 -8h-913c-6 0 -10 4 -10 8v114c0 4 4 8 10 8h47v441h-47c-6 0 -10 4 -10 8v114c0 4 4 8 10 8h913c6 0 10 -4 10 -8v-114c0 -4 -4 -8 -10 -8zM230 130h94v441h-94v-441zM458 130h95v441h-95v-441zM781 130v441
h-95v-441h95z" />
    <glyph glyph-name="ampersand.alt" horiz-adv-x="607" 
d="M606 71l-81 -81c-3 -3 -9 -3 -13 0l-74 74c-42 -40 -86 -75 -163 -75c-150 0 -242 117 -242 245c0 59 28 112 64 154c-31 32 -58 84 -58 130c0 97 81 178 179 178c100 0 181 -81 181 -178c0 -63 -31 -116 -82 -148l62 -61v96c0 4 4 8 10 8h113c6 0 10 -4 10 -8v-171
c0 -17 -3 -36 -6 -52l100 -100c4 -3 4 -8 0 -11zM218 577c-31 0 -56 -25 -56 -59s25 -59 56 -59s58 25 58 59s-27 59 -58 59zM272 122c29 0 55 9 74 28l-155 154c-17 -18 -27 -44 -27 -73c0 -60 48 -109 108 -109z" />
    <glyph glyph-name="A.alt5" horiz-adv-x="817" 
d="M518 81l-217 5c-10 -26 -23 -55 -32 -81c-1 -3 -5 -5 -9 -5h-123c-8 0 -12 5 -9 11l57 144c-91 67 -149 173 -149 295c0 201 164 364 366 364c203 0 367 -163 367 -364c0 -4 -4 -8 -10 -8h-114c-6 0 -10 4 -10 8c0 124 -92 225 -211 234l268 -673c3 -6 -1 -11 -9 -11
h-123c-3 0 -8 3 -9 5zM170 450c0 -63 27 -123 67 -166c52 133 107 266 160 400c-127 -3 -227 -106 -227 -234zM402 684h-5c1 3 2 7 3 11l9 -11h-7zM341 221c14 -4 28 -6 44 -7h95l-70 178z" />
    <glyph glyph-name="perthousand" unicode="&#x2030;" horiz-adv-x="1008" 
d="M167 403c-82 0 -151 67 -151 148c0 82 69 149 151 149s150 -67 150 -149c0 -81 -68 -148 -150 -148zM167 604c-28 0 -50 -23 -50 -53c0 -29 22 -51 50 -51c27 0 50 22 50 51c0 30 -23 53 -50 53zM481 2c-85 0 -152 67 -152 150s67 150 152 150s152 -67 152 -150
s-67 -150 -152 -150zM481 205c-29 0 -51 -23 -51 -53s22 -53 51 -53c28 0 51 23 51 53s-23 53 -51 53zM114 2h-109c-8 0 -12 7 -7 13l530 682c1 1 6 3 8 3h109c9 0 12 -7 8 -13l-531 -682c-1 -1 -6 -3 -8 -3zM819 2c-84 0 -152 67 -152 150s68 150 152 150
c85 0 153 -67 153 -150s-68 -150 -153 -150zM819 205c-28 0 -51 -23 -51 -53s23 -53 51 -53s52 23 52 53s-24 53 -52 53z" />
    <glyph glyph-name="quotedblbase" unicode="&#x201e;" horiz-adv-x="393" 
d="M90 129c57 0 79 -35 79 -77c0 -52 -34 -118 -74 -143c-7 -4 -15 0 -15 7v76c-34 4 -60 34 -60 69c0 37 32 68 70 68zM273 129c57 0 79 -35 79 -77c0 -52 -34 -118 -74 -143c-7 -4 -15 0 -15 7v76c-34 4 -60 34 -60 69c0 37 32 68 70 68z" />
    <glyph glyph-name="dotaccent" unicode="&#x2d9;" horiz-adv-x="273" 
d="M196 634c0 -38 -34 -70 -78 -70c-41 0 -77 32 -77 70c0 39 36 71 77 71c44 0 78 -32 78 -71z" />
    <glyph glyph-name="plusminus" unicode="&#xb1;" horiz-adv-x="518" 
d="M463 430v-99c0 -3 -4 -7 -9 -7h-142v-147c0 -4 -4 -8 -10 -8h-102c-6 0 -9 4 -9 8v147h-143c-6 0 -10 4 -10 7v99c0 4 4 8 10 8h143v144c0 4 3 8 9 8h102c6 0 10 -4 10 -8v-144h142c5 0 9 -4 9 -8zM441 8v114h-383v-114h383z" />
    <glyph glyph-name="guillemotleft" unicode="&#xab;" horiz-adv-x="504" 
d="M201 554l73 -58c4 -3 5 -8 2 -11l-128 -164l132 -148c3 -3 2 -8 -2 -11l-74 -61c-4 -3 -10 -2 -14 1l-181 214c-3 3 -3 7 0 10l178 227c3 3 10 4 14 1zM400 554l73 -58c4 -3 5 -8 2 -11l-118 -164l122 -148c3 -3 2 -8 -2 -11l-74 -61c-4 -3 -10 -2 -14 1l-179 214
c-3 3 -3 7 0 10l176 227c3 3 10 4 14 1z" />
    <glyph glyph-name="guillemotright" unicode="&#xbb;" horiz-adv-x="499" 
d="M213 496l73 58c4 3 11 2 14 -1l179 -227c3 -3 3 -7 0 -10l-182 -214c-4 -3 -10 -4 -14 -1l-74 61c-4 3 -5 8 -2 11l122 148l-118 164c-3 3 -2 8 2 11zM24 496l74 58c4 3 10 2 13 -1l179 -227c3 -3 3 -7 0 -10l-182 -214c-4 -3 -9 -4 -13 -1l-75 61c-3 3 -4 8 -2 11
l123 148l-119 164c-3 3 -2 8 2 11z" />
    <glyph glyph-name="guilsinglleft" unicode="&#x2039;" horiz-adv-x="314" 
d="M205 554l73 -58c4 -3 5 -8 2 -11l-118 -164l122 -148c3 -3 2 -8 -2 -11l-74 -61c-4 -3 -10 -2 -14 1l-182 214c-3 3 -3 7 0 10l179 227c3 3 10 4 14 1z" />
    <glyph glyph-name="guilsinglright" unicode="&#x203a;" horiz-adv-x="314" 
d="M24 496l74 58c3 3 10 2 13 -1l179 -227c3 -3 3 -7 0 -10l-182 -214c-4 -3 -9 -4 -13 -1l-75 61c-4 3 -5 8 -2 11l123 148l-119 164c-3 3 -2 8 2 11z" />
    <glyph glyph-name="section" unicode="&#xa7;" horiz-adv-x="416" 
d="M283 486c57 -26 87 -76 88 -137c0 -42 -14 -77 -40 -104c26 -27 40 -63 40 -105c0 -60 -34 -110 -88 -136c-36 -17 -75 -19 -79 -19c-3 0 -41 2 -79 19c-53 26 -88 76 -88 136c0 4 4 8 10 8h83c6 0 10 -4 10 -8c0 -24 9 -38 28 -46c16 -8 35 -8 36 -8c2 0 21 0 39 9
c16 8 25 22 25 45c0 24 -9 39 -27 47s-36 8 -37 8c-3 0 -41 2 -79 18c-52 27 -87 78 -88 137c0 41 14 77 41 105c-27 26 -41 61 -41 104c0 60 35 110 88 136c38 17 76 19 79 19c4 0 43 -2 79 -19c54 -26 88 -76 88 -136c0 -4 -4 -8 -10 -8h-83c-6 0 -10 4 -10 8
c0 24 -9 38 -27 46c-10 5 -25 7 -32 8c-2 0 -5 1 -5 1c-1 0 -2 -1 -3 -1c-8 -1 -24 -2 -35 -8h1c-18 -9 -27 -23 -27 -46s9 -39 28 -47c17 -8 36 -8 36 -8c4 0 42 -1 79 -18zM243 304c16 8 25 23 25 46c0 22 -12 38 -27 46c-16 6 -35 8 -36 8c-2 0 -24 -3 -39 -9
c-15 -8 -26 -23 -26 -45s12 -39 28 -47c15 -6 35 -8 36 -8c2 0 21 1 39 9z" />
    <glyph glyph-name="O.alt8" horiz-adv-x="814" 
d="M401 700c196 0 352 -157 352 -350s-156 -349 -352 -349c-194 0 -351 156 -351 349s157 350 351 350zM401 130c121 0 218 99 218 220c0 122 -97 220 -218 220c-120 0 -218 -98 -218 -220c0 -121 98 -220 218 -220zM497 350c0 55 -43 98 -96 98c-52 0 -95 -43 -95 -98
c0 -54 43 -98 95 -98c53 0 96 44 96 98z" />
    <glyph glyph-name="X.alt1" horiz-adv-x="571" 
d="M558 689l-135 -339l135 -339c3 -6 -1 -11 -8 -11h-124c-2 0 -7 2 -8 5l-142 354l-141 -354c-1 -3 -6 -5 -9 -5h-123c-8 0 -12 5 -9 11l136 339l-136 339c-3 6 1 11 9 11h113c3 0 8 -2 9 -5l77 -185l65 185c3 7 14 7 18 0l66 -185c21 53 56 132 77 185c1 3 5 5 8 5h114
c7 0 11 -5 8 -11z" />
    <glyph glyph-name="g" unicode="g" horiz-adv-x="773" 
d="M393 405h295c6 0 10 -4 10 -8v-391c0 -4 -4 -8 -10 -8h-100c-5 0 -9 3 -9 7l-4 61c-51 -51 -109 -77 -186 -77c-189 0 -337 131 -337 361c0 208 157 360 351 360c98 0 185 -38 248 -102c4 -3 4 -9 0 -12l-80 -80c-4 -3 -10 -3 -14 0c-39 39 -94 65 -154 65
c-120 0 -217 -86 -217 -231c0 -162 97 -231 217 -231c64 0 123 28 164 73v96h-174c-6 0 -10 4 -10 8v101c0 4 4 8 10 8z" />
    <glyph glyph-name="tilde" unicode="&#x2dc;" horiz-adv-x="392" 
d="M106 573l-79 22c-5 1 -8 5 -7 9c10 72 54 105 110 105c26 0 55 -7 83 -22h-3c1 0 4 -1 5 -1c10 -5 24 -10 35 -10c9 0 18 5 26 23c2 3 7 6 12 5l79 -25c5 -1 9 -5 7 -9c-22 -74 -58 -101 -108 -101c-26 0 -54 8 -85 21l-14 5c-9 4 -22 9 -29 9s-14 -6 -19 -25
c-2 -4 -8 -7 -13 -6z" />
    <glyph glyph-name="quotesinglbase" unicode="&#x201a;" horiz-adv-x="201" 
d="M90 129c57 0 79 -35 79 -77c0 -52 -34 -118 -74 -143c-7 -4 -15 0 -15 7v76c-34 4 -60 34 -60 69c0 37 32 68 70 68z" />
    <glyph glyph-name="ellipsis" unicode="&#x2026;" horiz-adv-x="556" 
d="M89 133c41 0 72 -32 72 -70s-31 -69 -72 -69c-38 0 -70 31 -70 69s32 70 70 70zM265 133c41 0 72 -32 72 -70s-31 -69 -72 -69c-38 0 -70 31 -70 69s32 70 70 70zM441 133c41 0 72 -32 72 -70s-31 -69 -72 -69c-38 0 -70 31 -70 69s32 70 70 70z" />
    <glyph glyph-name="Scaron" unicode="&#x160;" horiz-adv-x="543" 
d="M270 -10c-124 3 -222 75 -224 207c0 4 4 8 10 8h114c5 0 10 -4 10 -8c2 -51 44 -77 90 -77c48 0 90 32 90 80c0 53 -49 85 -90 87c-6 0 -55 0 -107 24c-75 35 -117 98 -117 182c0 135 109 217 224 217c123 0 219 -83 221 -205c0 -3 -4 -7 -10 -7h-113c-5 0 -10 4 -10 7
c-2 51 -41 75 -88 75c-49 0 -90 -29 -90 -87c0 -52 44 -79 90 -79c5 0 55 0 106 -24c76 -35 117 -106 117 -190c0 -135 -108 -210 -223 -210zM404 926l47 -68c3 -4 2 -10 -3 -12l-166 -97h-10l-169 91c-5 2 -7 7 -4 11l44 75c3 4 9 5 13 3l121 -67l114 67c4 2 10 0 13 -3z
" />
    <glyph glyph-name="oe" unicode="&#x153;" horiz-adv-x="946" 
d="M854 570h-267v-159h224c5 0 9 -4 9 -8v-107c0 -4 -4 -8 -9 -8h-224v-161h281c6 0 10 -4 10 -8v-111c0 -4 -4 -8 -10 -8l-396 1c-24 -5 -53 -8 -80 -8c-223 0 -334 178 -334 355s111 355 334 355c28 0 60 -4 84 -9h378c6 0 10 -4 10 -8v-108c0 -4 -4 -8 -10 -8zM392 109
c23 0 47 2 68 9v458c-20 5 -46 10 -68 10c-129 0 -194 -120 -194 -239s65 -238 194 -238z" />
    <glyph glyph-name="Zcaron" unicode="&#x17d;" horiz-adv-x="475" 
d="M443 122v-114c0 -4 -4 -8 -10 -8h-398c-8 0 -12 5 -9 11l224 559h-216c-6 0 -10 4 -10 8v114c0 4 4 8 10 8h398c8 0 12 -5 9 -11l-224 -559h216c6 0 10 -4 10 -8zM364 915l46 -66c3 -4 2 -10 -3 -12l-162 -95h-10l-165 89c-5 2 -7 7 -4 11l43 73c3 4 9 5 12 3l119 -66
l112 66c4 2 9 0 12 -3z" />
    <glyph glyph-name="zcaron" unicode="&#x17e;" horiz-adv-x="583" 
d="M554 0h-550c-7 0 -12 6 -8 12l341 559h-304c-5 0 -9 4 -9 8v113c0 4 4 8 9 8h521c8 0 12 -6 9 -12l-341 -559h332c6 0 9 -4 9 -8v-113c0 -4 -3 -8 -9 -8zM420 924l47 -68c3 -4 2 -10 -3 -12l-166 -97h-10l-169 91c-5 2 -7 7 -4 11l44 75c3 4 9 5 13 3l121 -67l114 67
c4 2 10 0 13 -3z" />
    <glyph glyph-name="Ydieresis" unicode="&#x178;" horiz-adv-x="645" 
d="M492 700h140c9 0 13 -7 8 -13l-255 -358v-321c0 -4 -4 -8 -10 -8h-114c-6 0 -10 4 -10 8v321c-84 120 -171 239 -255 358c-5 6 -1 13 8 13h139c2 0 7 -1 8 -3l167 -233l167 233c1 2 5 3 7 3zM292 817c0 -39 -35 -72 -75 -72c-39 0 -73 33 -73 72s34 72 73 72
c40 0 75 -33 75 -72zM496 817c0 -39 -34 -72 -74 -72s-74 33 -74 72s34 72 74 72s74 -33 74 -72z" />
    <glyph glyph-name="Agrave" unicode="&#xc0;" 
d="M418 5l-29 74h-227l-27 -74c-1 -3 -5 -5 -9 -5h-123c-8 0 -12 5 -9 11l273 704c3 7 15 7 18 0l273 -704c3 -6 -1 -11 -8 -11h-124c-3 0 -7 2 -8 5zM276 407l-71 -210h141zM404 811l-47 -79c-3 -4 -9 -5 -14 -3l-180 98c-5 1 -7 6 -4 10l52 83c3 4 9 5 14 3l175 -101
c5 -2 7 -7 4 -11z" />
    <glyph glyph-name="Aacute" unicode="&#xc1;" 
d="M418 5l-29 74h-227l-27 -74c-1 -3 -5 -5 -9 -5h-123c-8 0 -12 5 -9 11l273 704c3 7 15 7 18 0l273 -704c3 -6 -1 -11 -8 -11h-124c-3 0 -7 2 -8 5zM276 407l-71 -210h141zM198 731l-48 80c-3 4 -1 9 4 10l186 102c5 2 11 1 14 -3l52 -82c2 -4 0 -9 -4 -11l-190 -99
c-5 -2 -11 -1 -14 3z" />
    <glyph glyph-name="Acircumflex" unicode="&#xc2;" 
d="M418 5l-29 74h-227l-27 -74c-1 -3 -5 -5 -9 -5h-123c-8 0 -12 5 -9 11l273 704c3 7 15 7 18 0l273 -704c3 -6 -1 -11 -8 -11h-124c-3 0 -7 2 -8 5zM276 407l-71 -210h141zM149 719l-47 69c-3 4 -2 10 3 12l166 96c2 1 8 1 10 0l169 -91c5 -2 7 -6 4 -10l-44 -76
c-3 -3 -9 -4 -14 -3l-120 68l-115 -68c-3 -1 -9 0 -12 3z" />
    <glyph glyph-name="Atilde" unicode="&#xc3;" 
d="M418 5l-29 74h-227l-27 -74c-1 -3 -5 -5 -9 -5h-123c-8 0 -12 5 -9 11l273 704c3 7 15 7 18 0l273 -704c3 -6 -1 -11 -8 -11h-124c-3 0 -7 2 -8 5zM276 407l-71 -210h141zM186 744l-79 22c-5 1 -8 5 -7 9c10 72 54 105 110 105c26 0 55 -7 83 -22h-3c1 0 4 -1 5 -1
c10 -5 24 -10 35 -10c9 0 18 5 26 23c2 3 7 6 12 5l79 -25c5 -1 9 -5 7 -9c-22 -74 -58 -101 -108 -101c-26 0 -54 8 -85 21l-14 5c-9 4 -22 9 -29 9s-14 -6 -19 -25c-2 -4 -8 -7 -13 -6z" />
    <glyph glyph-name="Adieresis" unicode="&#xc4;" 
d="M418 5l-29 74h-227l-27 -74c-1 -3 -5 -5 -9 -5h-123c-8 0 -12 5 -9 11l273 704c3 7 15 7 18 0l273 -704c3 -6 -1 -11 -8 -11h-124c-3 0 -7 2 -8 5zM276 407l-71 -210h141zM249 802c0 -39 -35 -72 -75 -72c-39 0 -73 33 -73 72s34 72 73 72c40 0 75 -33 75 -72zM453 802
c0 -39 -34 -72 -74 -72s-74 33 -74 72s34 72 74 72s74 -33 74 -72z" />
    <glyph glyph-name="ring" unicode="&#x2da;" horiz-adv-x="341" 
d="M162 435c-77 0 -142 64 -142 140s65 140 142 140s142 -64 142 -140s-65 -140 -142 -140zM162 623c-24 0 -45 -22 -45 -48c0 -27 21 -47 45 -47c25 0 45 20 45 47c0 26 -20 48 -45 48z" />
    <glyph glyph-name="Aring" unicode="&#xc5;" 
d="M126 0h-123c-8 0 -12 5 -9 11l222 575c-50 20 -82 69 -82 127c0 76 65 140 142 140s142 -64 142 -140c0 -53 -38 -104 -83 -127l223 -575c3 -6 -1 -11 -8 -11h-124c-3 0 -7 2 -8 5l-29 74h-227l-27 -74c-1 -3 -5 -5 -9 -5zM276 394l-71 -200h141c-26 76 -44 123 -70 200z
M276 761c-25 0 -45 -22 -45 -48c0 -27 20 -47 45 -47c24 0 45 20 45 47c0 26 -21 48 -45 48z" />
    <glyph glyph-name="AE" unicode="&#xc6;" horiz-adv-x="790" 
d="M722 578h-235v-163h189c6 0 10 -4 10 -8v-106c0 -4 -4 -8 -10 -8h-189v-171h246c6 0 10 -4 10 -8v-106c0 -4 -4 -8 -10 -8h-370c-6 0 -10 4 -10 8v82h-163l-47 -86c-1 -2 -6 -4 -9 -4h-132c-8 0 -13 6 -9 12l351 681l-1 -4c0 1 2 2 2 3c0 4 4 8 10 8h367c6 0 10 -4 10 -8
v-106c0 -4 -4 -8 -10 -8zM244 204h109c0 49 1 103 6 252z" />
    <glyph glyph-name="Ccedilla" unicode="&#xc7;" horiz-adv-x="694" 
d="M402 129c60 0 115 24 156 66c4 2 10 2 14 0l81 -84c4 -3 4 -8 0 -11c-33 -34 -76 -62 -121 -81c20 -23 31 -50 31 -85c0 -95 -80 -175 -177 -175c-98 0 -176 67 -176 164c0 4 4 7 10 7h95c6 0 10 -3 10 -7c0 -36 27 -53 61 -53s62 29 62 64c0 34 -23 59 -51 63h1
c-196 2 -353 160 -353 355s159 357 357 357c99 0 188 -39 251 -104c4 -3 4 -8 0 -11l-81 -82c-4 -2 -10 -2 -14 0c-41 41 -96 65 -156 65c-122 0 -221 -102 -221 -225c0 -124 99 -223 221 -223z" />
    <glyph glyph-name="Edieresis" unicode="&#xcb;" horiz-adv-x="588" 
d="M528 573h-323v-158h275c5 0 9 -4 9 -8v-111c0 -4 -4 -8 -9 -8h-275v-158h332c6 0 10 -4 10 -8v-114c0 -4 -4 -8 -10 -8h-456c-6 0 -10 4 -10 8v684c0 4 4 8 10 8h447c6 0 10 -4 10 -8v-111c0 -4 -4 -8 -10 -8zM287 816c0 -39 -35 -72 -75 -72c-39 0 -73 33 -73 72
s34 72 73 72c40 0 75 -33 75 -72zM491 816c0 -39 -34 -72 -74 -72s-74 33 -74 72s34 72 74 72s74 -33 74 -72z" />
    <glyph glyph-name="Ecircumflex" unicode="&#xca;" horiz-adv-x="588" 
d="M528 573h-323v-158h275c5 0 9 -4 9 -8v-111c0 -4 -4 -8 -9 -8h-275v-158h332c6 0 10 -4 10 -8v-114c0 -4 -4 -8 -10 -8h-456c-6 0 -10 4 -10 8v684c0 4 4 8 10 8h447c6 0 10 -4 10 -8v-111c0 -4 -4 -8 -10 -8zM183 748l-47 69c-3 4 -2 10 3 12l166 96c2 1 8 1 10 0
l169 -91c5 -2 7 -6 4 -10l-44 -76c-3 -3 -9 -4 -14 -3l-120 68l-115 -68c-3 -1 -9 0 -12 3z" />
    <glyph glyph-name="Eacute" unicode="&#xc9;" horiz-adv-x="588" 
d="M528 573h-323v-158h275c5 0 9 -4 9 -8v-111c0 -4 -4 -8 -9 -8h-275v-158h332c6 0 10 -4 10 -8v-114c0 -4 -4 -8 -10 -8h-456c-6 0 -10 4 -10 8v684c0 4 4 8 10 8h447c6 0 10 -4 10 -8v-111c0 -4 -4 -8 -10 -8zM242 745l-48 80c-3 4 -1 9 4 10l186 102c5 2 11 1 14 -3
l52 -82c2 -4 0 -9 -4 -11l-190 -99c-5 -2 -11 -1 -14 3z" />
    <glyph glyph-name="Egrave" unicode="&#xc8;" horiz-adv-x="588" 
d="M528 573h-323v-158h275c5 0 9 -4 9 -8v-111c0 -4 -4 -8 -9 -8h-275v-158h332c6 0 10 -4 10 -8v-114c0 -4 -4 -8 -10 -8h-456c-6 0 -10 4 -10 8v684c0 4 4 8 10 8h447c6 0 10 -4 10 -8v-111c0 -4 -4 -8 -10 -8zM424 823l-47 -79c-3 -4 -9 -5 -14 -3l-180 98
c-5 1 -7 6 -4 10l52 83c3 4 9 5 14 3l175 -101c5 -2 7 -7 4 -11z" />
    <glyph glyph-name="agrave" unicode="&#xe0;" 
d="M418 5l-29 74h-227l-27 -74c-1 -3 -5 -5 -9 -5h-123c-8 0 -12 5 -9 11l273 704c3 7 15 7 18 0l273 -704c3 -6 -1 -11 -8 -11h-124c-3 0 -7 2 -8 5zM276 407l-71 -210h141zM404 811l-47 -79c-3 -4 -9 -5 -14 -3l-180 98c-5 1 -7 6 -4 10l52 83c3 4 9 5 14 3l175 -101
c5 -2 7 -7 4 -11z" />
    <glyph glyph-name="aacute" unicode="&#xe1;" 
d="M418 5l-29 74h-227l-27 -74c-1 -3 -5 -5 -9 -5h-123c-8 0 -12 5 -9 11l273 704c3 7 15 7 18 0l273 -704c3 -6 -1 -11 -8 -11h-124c-3 0 -7 2 -8 5zM276 407l-71 -210h141zM198 731l-48 80c-3 4 -1 9 4 10l186 102c5 2 11 1 14 -3l52 -82c2 -4 0 -9 -4 -11l-190 -99
c-5 -2 -11 -1 -14 3z" />
    <glyph glyph-name="acircumflex" unicode="&#xe2;" 
d="M418 5l-29 74h-227l-27 -74c-1 -3 -5 -5 -9 -5h-123c-8 0 -12 5 -9 11l273 704c3 7 15 7 18 0l273 -704c3 -6 -1 -11 -8 -11h-124c-3 0 -7 2 -8 5zM276 407l-71 -210h141zM149 719l-47 69c-3 4 -2 10 3 12l166 96c2 1 8 1 10 0l169 -91c5 -2 7 -6 4 -10l-44 -76
c-3 -3 -9 -4 -14 -3l-120 68l-115 -68c-3 -1 -9 0 -12 3z" />
    <glyph glyph-name="atilde" unicode="&#xe3;" 
d="M418 5l-29 74h-227l-27 -74c-1 -3 -5 -5 -9 -5h-123c-8 0 -12 5 -9 11l273 704c3 7 15 7 18 0l273 -704c3 -6 -1 -11 -8 -11h-124c-3 0 -7 2 -8 5zM276 407l-71 -210h141zM186 748l-79 22c-5 1 -8 5 -7 9c10 72 54 105 110 105c26 0 55 -7 83 -22h-3c1 0 4 -1 5 -1
c10 -5 24 -10 35 -10c9 0 18 5 26 23c2 3 7 6 12 5l79 -25c5 -1 9 -5 7 -9c-22 -74 -58 -101 -108 -101c-26 0 -54 8 -85 21l-14 5c-9 4 -22 9 -29 9s-14 -6 -19 -25c-2 -4 -8 -7 -13 -6z" />
    <glyph glyph-name="adieresis" unicode="&#xe4;" 
d="M418 5l-29 74h-227l-27 -74c-1 -3 -5 -5 -9 -5h-123c-8 0 -12 5 -9 11l273 704c3 7 15 7 18 0l273 -704c3 -6 -1 -11 -8 -11h-124c-3 0 -7 2 -8 5zM276 407l-71 -210h141zM249 802c0 -39 -35 -72 -75 -72c-39 0 -73 33 -73 72s34 72 73 72c40 0 75 -33 75 -72zM453 802
c0 -39 -34 -72 -74 -72s-74 33 -74 72s34 72 74 72s74 -33 74 -72z" />
    <glyph glyph-name="aring" unicode="&#xe5;" 
d="M126 0h-122c-7 0 -11 5 -8 11l220 569c-50 21 -82 69 -82 126c0 76 64 139 141 139c76 0 140 -63 140 -139c0 -52 -37 -102 -82 -126l222 -569c3 -6 -1 -11 -9 -11h-122c-4 0 -8 2 -9 5l-28 73h-225l-27 -73c-1 -3 -5 -5 -9 -5zM275 391l-70 -199h139
c-26 75 -43 122 -69 199zM275 754c-25 0 -45 -21 -45 -48c0 -26 20 -46 45 -46c24 0 44 20 44 46c0 27 -20 48 -44 48z" />
    <glyph glyph-name="ae" unicode="&#xe6;" horiz-adv-x="790" 
d="M717 568h-233v-157h187c6 0 10 -4 10 -8v-108c0 -4 -4 -8 -10 -8h-187v-162h245c5 0 9 -4 9 -8v-109c0 -4 -4 -8 -9 -8h-368c-5 0 -9 4 -9 8v70h-169l-40 -74c-1 -2 -5 -4 -8 -4h-131c-8 0 -13 6 -9 12l358 675l-1 -4c0 1 2 2 2 3c0 4 3 8 9 8h354c6 0 10 -4 10 -8v-110
c0 -4 -4 -8 -10 -8zM242 201h110c0 48 1 95 1 142l4 100l-50 -116z" />
    <glyph glyph-name="ccedilla" unicode="&#xe7;" horiz-adv-x="694" 
d="M399 129c59 0 113 24 153 64c4 3 10 3 14 0l79 -81c4 -3 4 -8 0 -11c-33 -33 -75 -60 -118 -79c19 -23 30 -50 30 -83c0 -94 -79 -172 -173 -172c-96 0 -172 65 -172 160c0 4 4 8 10 8h92c5 0 9 -4 9 -8c0 -34 27 -51 61 -51c33 0 60 28 60 63c0 32 -22 57 -50 61h1
c-191 2 -345 157 -345 347c0 191 156 347 349 347c97 0 184 -39 246 -102c4 -3 4 -9 0 -12l-79 -79c-4 -3 -10 -3 -14 0c-40 40 -94 64 -153 64c-119 0 -216 -97 -216 -218s97 -218 216 -218z" />
    <glyph glyph-name="egrave" unicode="&#xe8;" horiz-adv-x="588" 
d="M528 573h-323v-158h275c5 0 9 -4 9 -8v-111c0 -4 -4 -8 -9 -8h-275v-158h332c6 0 10 -4 10 -8v-114c0 -4 -4 -8 -10 -8h-456c-6 0 -10 4 -10 8v684c0 4 4 8 10 8h447c6 0 10 -4 10 -8v-111c0 -4 -4 -8 -10 -8zM444 823l-47 -79c-3 -4 -9 -5 -14 -3l-180 98
c-5 1 -7 6 -4 10l52 83c3 4 9 5 14 3l175 -101c5 -2 7 -7 4 -11z" />
    <glyph glyph-name="eacute" unicode="&#xe9;" horiz-adv-x="588" 
d="M528 573h-323v-158h275c5 0 9 -4 9 -8v-111c0 -4 -4 -8 -9 -8h-275v-158h332c6 0 10 -4 10 -8v-114c0 -4 -4 -8 -10 -8h-456c-6 0 -10 4 -10 8v684c0 4 4 8 10 8h447c6 0 10 -4 10 -8v-111c0 -4 -4 -8 -10 -8zM242 745l-48 80c-3 4 -1 9 4 10l186 102c5 2 11 1 14 -3
l52 -82c2 -4 0 -9 -4 -11l-190 -99c-5 -2 -11 -1 -14 3z" />
    <glyph glyph-name="ecircumflex" unicode="&#xea;" horiz-adv-x="588" 
d="M528 573h-323v-158h275c5 0 9 -4 9 -8v-111c0 -4 -4 -8 -9 -8h-275v-158h332c6 0 10 -4 10 -8v-114c0 -4 -4 -8 -10 -8h-456c-6 0 -10 4 -10 8v684c0 4 4 8 10 8h447c6 0 10 -4 10 -8v-111c0 -4 -4 -8 -10 -8zM192 751l-47 69c-3 4 -2 10 3 12l166 96c2 1 8 1 10 0
l169 -91c5 -2 7 -6 4 -10l-44 -76c-3 -3 -9 -4 -14 -3l-120 68l-115 -68c-3 -1 -9 0 -12 3z" />
    <glyph glyph-name="edieresis" unicode="&#xeb;" horiz-adv-x="588" 
d="M528 573h-323v-158h275c5 0 9 -4 9 -8v-111c0 -4 -4 -8 -9 -8h-275v-158h332c6 0 10 -4 10 -8v-114c0 -4 -4 -8 -10 -8h-456c-6 0 -10 4 -10 8v684c0 4 4 8 10 8h447c6 0 10 -4 10 -8v-111c0 -4 -4 -8 -10 -8zM303 809c0 -39 -35 -72 -75 -72c-39 0 -73 33 -73 72
s34 72 73 72c40 0 75 -33 75 -72zM507 809c0 -39 -34 -72 -74 -72s-74 33 -74 72s34 72 74 72s74 -33 74 -72z" />
    <glyph glyph-name="Igrave" unicode="&#xcc;" horiz-adv-x="350" 
d="M305 580h-66v-460h70c6 0 10 -4 10 -8v-104c0 -4 -4 -8 -10 -8h-275c-6 0 -10 4 -10 8v104c0 4 4 8 10 8h71v460h-67c-6 0 -10 4 -10 8v104c0 4 4 8 10 8h267c6 0 10 -4 10 -8v-104c0 -4 -4 -8 -10 -8zM296 818l-47 -79c-3 -4 -9 -5 -14 -3l-180 98c-5 1 -7 6 -4 10
l52 83c3 4 9 5 14 3l175 -101c5 -2 7 -7 4 -11z" />
    <glyph glyph-name="Idieresis" unicode="&#xcf;" horiz-adv-x="350" 
d="M305 580h-66v-460h70c6 0 10 -4 10 -8v-104c0 -4 -4 -8 -10 -8h-275c-6 0 -10 4 -10 8v104c0 4 4 8 10 8h71v460h-67c-6 0 -10 4 -10 8v104c0 4 4 8 10 8h267c6 0 10 -4 10 -8v-104c0 -4 -4 -8 -10 -8zM146 813c0 -39 -35 -72 -75 -72c-39 0 -73 33 -73 72s34 72 73 72
c40 0 75 -33 75 -72zM350 813c0 -39 -34 -72 -74 -72s-74 33 -74 72s34 72 74 72s74 -33 74 -72z" />
    <glyph glyph-name="Icircumflex" unicode="&#xce;" horiz-adv-x="350" 
d="M305 580h-66v-460h70c6 0 10 -4 10 -8v-104c0 -4 -4 -8 -10 -8h-275c-6 0 -10 4 -10 8v104c0 4 4 8 10 8h71v460h-67c-6 0 -10 4 -10 8v104c0 4 4 8 10 8h267c6 0 10 -4 10 -8v-104c0 -4 -4 -8 -10 -8zM45 747l-47 69c-3 4 -2 10 3 12l166 96c2 1 8 1 10 0l169 -91
c5 -2 7 -6 4 -10l-44 -76c-3 -3 -9 -4 -14 -3l-120 68l-115 -68c-3 -1 -9 0 -12 3z" />
    <glyph glyph-name="Iacute" unicode="&#xcd;" horiz-adv-x="350" 
d="M305 580h-66v-460h70c6 0 10 -4 10 -8v-104c0 -4 -4 -8 -10 -8h-275c-6 0 -10 4 -10 8v104c0 4 4 8 10 8h71v460h-67c-6 0 -10 4 -10 8v104c0 4 4 8 10 8h267c6 0 10 -4 10 -8v-104c0 -4 -4 -8 -10 -8zM93 735l-48 80c-3 4 -1 9 4 10l186 102c5 2 11 1 14 -3l52 -82
c2 -4 0 -9 -4 -11l-190 -99c-5 -2 -11 -1 -14 3z" />
    <glyph glyph-name="Eth" unicode="&#xd0;" horiz-adv-x="662" 
d="M81 700h114c170 0 410 -39 410 -350c0 -299 -236 -350 -410 -350h-114c-6 0 -10 4 -10 8v282h-65c-6 0 -9 4 -9 8v99c0 4 3 8 9 8h65v287c0 4 4 8 10 8zM205 290v-164c84 -4 265 8 265 224c0 165 -113 233 -265 225v-170h118c6 0 10 -4 10 -8v-99c0 -4 -4 -8 -10 -8h-118
z" />
    <glyph glyph-name="Ntilde" unicode="&#xd1;" horiz-adv-x="742" 
d="M661 692v-684c0 -4 -4 -8 -10 -8h-115c-2 0 -7 1 -8 3l-322 461v-456c0 -4 -4 -8 -10 -8h-115c-5 0 -9 4 -9 8v684c0 4 4 8 9 8h116c2 0 7 -1 8 -3l323 -461v456c0 4 4 8 10 8h113c6 0 10 -4 10 -8zM280 760l-79 22c-5 1 -8 5 -7 9c10 72 54 105 110 105
c26 0 55 -7 83 -22h-3c1 0 4 -1 5 -1c10 -5 24 -10 35 -10c9 0 18 5 26 23c2 3 7 6 12 5l79 -25c5 -1 9 -5 7 -9c-22 -74 -58 -101 -108 -101c-26 0 -54 8 -85 21l-14 5c-9 4 -22 9 -29 9s-14 -6 -19 -25c-2 -4 -8 -7 -13 -6z" />
    <glyph glyph-name="eth" unicode="&#xf0;" horiz-adv-x="662" 
d="M81 694h114c168 0 406 -39 406 -347c0 -297 -234 -347 -406 -347h-114c-6 0 -9 4 -9 8v285h-64c-6 0 -10 4 -10 8v92c0 4 4 8 10 8h64v285c0 4 3 8 9 8zM204 293v-168c6 -1 14 -1 26 -1c74 0 237 22 237 223c0 200 -156 224 -232 224c-12 0 -31 -1 -31 -1v-169h118
c5 0 9 -4 9 -8v-92c0 -4 -4 -8 -9 -8h-118zM204 118l-8 8s3 -1 8 -1v-7z" />
    <glyph glyph-name="ntilde" unicode="&#xf1;" horiz-adv-x="742" 
d="M661 692v-684c0 -4 -4 -8 -10 -8h-115c-2 0 -7 1 -8 3l-322 461v-456c0 -4 -4 -8 -10 -8h-115c-5 0 -9 4 -9 8v684c0 4 4 8 9 8h116c2 0 7 -1 8 -3l323 -461v456c0 4 4 8 10 8h113c6 0 10 -4 10 -8zM280 760l-79 22c-5 1 -8 5 -7 9c10 72 54 105 110 105
c26 0 55 -7 83 -22h-3c1 0 4 -1 5 -1c10 -5 24 -10 35 -10c9 0 18 5 26 23c2 3 7 6 12 5l79 -25c5 -1 9 -5 7 -9c-22 -74 -58 -101 -108 -101c-26 0 -54 8 -85 21l-14 5c-9 4 -22 9 -29 9s-14 -6 -19 -25c-2 -4 -8 -7 -13 -6z" />
    <glyph glyph-name="igrave" unicode="&#xec;" horiz-adv-x="280" 
d="M72 8v684c0 4 4 8 10 8h113c6 0 10 -4 10 -8v-684c0 -4 -4 -8 -10 -8h-113c-6 0 -10 4 -10 8zM261 825l-47 -79c-3 -4 -9 -5 -14 -3l-180 98c-5 1 -7 6 -4 10l52 83c3 4 9 5 14 3l175 -101c5 -2 7 -7 4 -11z" />
    <glyph glyph-name="iacute" unicode="&#xed;" horiz-adv-x="280" 
d="M72 8v684c0 4 4 8 10 8h113c6 0 10 -4 10 -8v-684c0 -4 -4 -8 -10 -8h-113c-6 0 -10 4 -10 8zM59 748l-48 80c-3 4 -1 9 4 10l186 102c5 2 11 1 14 -3l52 -82c2 -4 0 -9 -4 -11l-190 -99c-5 -2 -11 -1 -14 3z" />
    <glyph glyph-name="icircumflex" unicode="&#xee;" horiz-adv-x="280" 
d="M72 8v684c0 4 4 8 10 8h113c6 0 10 -4 10 -8v-684c0 -4 -4 -8 -10 -8h-113c-6 0 -10 4 -10 8zM10 738l-47 69c-3 4 -2 10 3 12l166 96c2 1 8 1 10 0l169 -91c5 -2 7 -6 4 -10l-44 -76c-3 -3 -9 -4 -14 -3l-120 68l-115 -68c-3 -1 -9 0 -12 3z" />
    <glyph glyph-name="idieresis" unicode="&#xef;" horiz-adv-x="280" 
d="M72 8v684c0 4 4 8 10 8h113c6 0 10 -4 10 -8v-684c0 -4 -4 -8 -10 -8h-113c-6 0 -10 4 -10 8zM110 822c0 -39 -35 -72 -75 -72c-39 0 -73 33 -73 72s34 72 73 72c40 0 75 -33 75 -72zM314 822c0 -39 -34 -72 -74 -72s-74 33 -74 72s34 72 74 72s74 -33 74 -72z" />
    <glyph glyph-name="Odieresis" unicode="&#xd6;" horiz-adv-x="638" 
d="M313 186c-145 0 -264 118 -264 262c0 143 119 262 264 262s264 -119 264 -262c0 -144 -119 -262 -264 -262zM313 581c-72 0 -131 -59 -131 -133c0 -75 59 -133 131 -133c73 0 131 58 131 133c0 74 -58 133 -131 133zM546 121v-113c0 -4 -4 -8 -10 -8h-451
c-6 0 -10 4 -10 8v113c0 4 4 8 10 8h451c6 0 10 -4 10 -8zM289 804c0 -39 -35 -72 -75 -72c-39 0 -73 33 -73 72s34 72 73 72c40 0 75 -33 75 -72zM493 804c0 -39 -34 -72 -74 -72s-74 33 -74 72s34 72 74 72s74 -33 74 -72z" />
    <glyph glyph-name="Otilde" unicode="&#xd5;" horiz-adv-x="638" 
d="M313 186c-145 0 -264 118 -264 262c0 143 119 262 264 262s264 -119 264 -262c0 -144 -119 -262 -264 -262zM313 581c-72 0 -131 -59 -131 -133c0 -75 59 -133 131 -133c73 0 131 58 131 133c0 74 -58 133 -131 133zM546 121v-113c0 -4 -4 -8 -10 -8h-451
c-6 0 -10 4 -10 8v113c0 4 4 8 10 8h451c6 0 10 -4 10 -8zM226 751l-79 22c-5 1 -8 5 -7 9c10 72 54 105 110 105c26 0 55 -7 83 -22h-3c1 0 4 -1 5 -1c10 -5 24 -10 35 -10c9 0 18 5 26 23c2 3 7 6 12 5l79 -25c5 -1 9 -5 7 -9c-22 -74 -58 -101 -108 -101
c-26 0 -54 8 -85 21l-14 5c-9 4 -22 9 -29 9s-14 -6 -19 -25c-2 -4 -8 -7 -13 -6z" />
    <glyph glyph-name="Ocircumflex" unicode="&#xd4;" horiz-adv-x="638" 
d="M313 186c-145 0 -264 118 -264 262c0 143 119 262 264 262s264 -119 264 -262c0 -144 -119 -262 -264 -262zM313 581c-72 0 -131 -59 -131 -133c0 -75 59 -133 131 -133c73 0 131 58 131 133c0 74 -58 133 -131 133zM546 121v-113c0 -4 -4 -8 -10 -8h-451
c-6 0 -10 4 -10 8v113c0 4 4 8 10 8h451c6 0 10 -4 10 -8zM188 735l-47 69c-3 4 -2 10 3 12l166 96c2 1 8 1 10 0l169 -91c5 -2 7 -6 4 -10l-44 -76c-3 -3 -9 -4 -14 -3l-120 68l-115 -68c-3 -1 -9 0 -12 3z" />
    <glyph glyph-name="Oacute" unicode="&#xd3;" horiz-adv-x="638" 
d="M313 186c-145 0 -264 118 -264 262c0 143 119 262 264 262s264 -119 264 -262c0 -144 -119 -262 -264 -262zM313 581c-72 0 -131 -59 -131 -133c0 -75 59 -133 131 -133c73 0 131 58 131 133c0 74 -58 133 -131 133zM546 121v-113c0 -4 -4 -8 -10 -8h-451
c-6 0 -10 4 -10 8v113c0 4 4 8 10 8h451c6 0 10 -4 10 -8zM237 745l-48 80c-3 4 -1 9 4 10l186 102c5 2 11 1 14 -3l52 -82c2 -4 0 -9 -4 -11l-190 -99c-5 -2 -11 -1 -14 3z" />
    <glyph glyph-name="Ograve" unicode="&#xd2;" horiz-adv-x="638" 
d="M313 186c-145 0 -264 118 -264 262c0 143 119 262 264 262s264 -119 264 -262c0 -144 -119 -262 -264 -262zM313 581c-72 0 -131 -59 -131 -133c0 -75 59 -133 131 -133c73 0 131 58 131 133c0 74 -58 133 -131 133zM546 121v-113c0 -4 -4 -8 -10 -8h-451
c-6 0 -10 4 -10 8v113c0 4 4 8 10 8h451c6 0 10 -4 10 -8zM440 818l-47 -79c-3 -4 -9 -5 -14 -3l-180 98c-5 1 -7 6 -4 10l52 83c3 4 9 5 14 3l175 -101c5 -2 7 -7 4 -11z" />
    <glyph glyph-name="Oslash" unicode="&#xd8;" horiz-adv-x="638" 
d="M313 176c-32 0 -61 5 -90 16l-25 -34c-1 -2 -6 -3 -8 -3h-116c-9 0 -13 6 -8 12l60 86c-44 48 -76 117 -76 185c0 144 118 262 263 262c36 0 72 -8 103 -21l29 43c1 2 6 3 8 3h120c8 0 12 -6 7 -12l-69 -102c42 -47 66 -108 66 -173c0 -144 -119 -262 -264 -262zM546 121
v-113c0 -4 -4 -8 -10 -8h-451c-6 0 -10 4 -10 8v113c0 4 4 8 10 8h451c6 0 10 -4 10 -8zM313 571c-72 0 -131 -59 -131 -133c0 -23 10 -53 20 -71c49 71 88 130 138 201c-9 2 -19 3 -27 3zM444 438c0 21 -5 41 -13 59l-131 -191c5 -1 9 -1 13 -1c73 0 131 59 131 133z" />
    <glyph glyph-name="Udieresis" unicode="&#xdc;" horiz-adv-x="740" 
d="M81 700h569c6 0 10 -4 10 -8v-409c0 -7 -1 -75 -35 -143c-49 -96 -140 -150 -259 -150s-211 53 -259 150c-34 68 -35 136 -35 143v409c0 4 4 8 9 8zM504 196c22 42 23 87 23 88v296h-322v-297s1 -45 23 -87c27 -51 72 -76 138 -76s111 25 138 76zM340 819
c0 -39 -35 -72 -75 -72c-39 0 -73 33 -73 72s34 72 73 72c40 0 75 -33 75 -72zM544 819c0 -39 -34 -72 -74 -72s-74 33 -74 72s34 72 74 72s74 -33 74 -72z" />
    <glyph glyph-name="Ucircumflex" unicode="&#xdb;" horiz-adv-x="740" 
d="M81 700h569c6 0 10 -4 10 -8v-409c0 -7 -1 -75 -35 -143c-49 -96 -140 -150 -259 -150s-211 53 -259 150c-34 68 -35 136 -35 143v409c0 4 4 8 9 8zM504 196c22 42 23 87 23 88v296h-322v-297s1 -45 23 -87c27 -51 72 -76 138 -76s111 25 138 76zM239 750l-47 69
c-3 4 -2 10 3 12l166 96c2 1 8 1 10 0l169 -91c5 -2 7 -6 4 -10l-44 -76c-3 -3 -9 -4 -14 -3l-120 68l-115 -68c-3 -1 -9 0 -12 3z" />
    <glyph glyph-name="Uacute" unicode="&#xda;" horiz-adv-x="740" 
d="M81 700h569c6 0 10 -4 10 -8v-409c0 -7 -1 -75 -35 -143c-49 -96 -140 -150 -259 -150s-211 53 -259 150c-34 68 -35 136 -35 143v409c0 4 4 8 9 8zM504 196c22 42 23 87 23 88v296h-322v-297s1 -45 23 -87c27 -51 72 -76 138 -76s111 25 138 76zM288 745l-48 80
c-3 4 -1 9 4 10l186 102c5 2 11 1 14 -3l52 -82c2 -4 0 -9 -4 -11l-190 -99c-5 -2 -11 -1 -14 3z" />
    <glyph glyph-name="Ugrave" unicode="&#xd9;" horiz-adv-x="740" 
d="M81 700h569c6 0 10 -4 10 -8v-409c0 -7 -1 -75 -35 -143c-49 -96 -140 -150 -259 -150s-211 53 -259 150c-34 68 -35 136 -35 143v409c0 4 4 8 9 8zM504 196c22 42 23 87 23 88v296h-322v-297s1 -45 23 -87c27 -51 72 -76 138 -76s111 25 138 76zM491 818l-47 -79
c-3 -4 -9 -5 -14 -3l-180 98c-5 1 -7 6 -4 10l52 83c3 4 9 5 14 3l175 -101c5 -2 7 -7 4 -11z" />
    <glyph glyph-name="Yacute" unicode="&#xdd;" horiz-adv-x="645" 
d="M492 700h140c9 0 13 -7 8 -13l-255 -358v-321c0 -4 -4 -8 -10 -8h-114c-6 0 -10 4 -10 8v321c-84 120 -171 239 -255 358c-5 6 -1 13 8 13h139c2 0 7 -1 8 -3l167 -233l167 233c1 2 5 3 7 3zM241 734l-48 80c-3 4 -1 9 4 10l186 102c5 2 11 1 14 -3l52 -82
c2 -4 0 -9 -4 -11l-190 -99c-5 -2 -11 -1 -14 3z" />
    <glyph glyph-name="Thorn" unicode="&#xde;" horiz-adv-x="583" 
d="M309 561c10 0 237 0 237 -207c0 -203 -202 -207 -237 -207h-104v-139c0 -4 -4 -8 -10 -8h-114c-6 0 -10 4 -10 8v260c0 4 4 8 10 8h93c-35 53 -69 109 -103 162v255c0 4 4 8 10 8h114c6 0 10 -4 10 -8v-132h104zM309 431h-88l97 -153c39 0 95 19 95 76
c0 69 -74 77 -104 77z" />
    <glyph glyph-name="thorn" unicode="&#xfe;" horiz-adv-x="580" 
d="M308 562c0 0 237 0 237 -206c0 -207 -237 -207 -237 -207h-104v-143c0 -4 -3 -8 -9 -8h-114c-5 0 -9 4 -9 8v680c0 4 4 8 9 8h114c6 0 9 -4 9 -8v-124h104zM308 278c0 0 104 0 104 78c0 77 -104 77 -104 77h-104v-155h104z" />
    <glyph glyph-name="ydieresis" unicode="&#xff;" horiz-adv-x="645" 
d="M489 700h139c9 0 13 -7 8 -13l-253 -360v-319c0 -4 -4 -8 -10 -8h-113c-6 0 -10 4 -10 8v319c-83 118 -169 242 -253 360c-5 6 -1 13 8 13h139c1 0 6 -1 7 -3l166 -237l165 237c1 2 6 3 7 3zM292 809c0 -39 -35 -72 -75 -72c-39 0 -73 33 -73 72s34 72 73 72
c40 0 75 -33 75 -72zM496 809c0 -39 -34 -72 -74 -72s-74 33 -74 72s34 72 74 72s74 -33 74 -72z" />
    <glyph glyph-name="yacute" unicode="&#xfd;" horiz-adv-x="645" 
d="M489 700h139c9 0 13 -7 8 -13l-253 -360v-319c0 -4 -4 -8 -10 -8h-113c-6 0 -10 4 -10 8v319c-83 118 -169 242 -253 360c-5 6 -1 13 8 13h139c1 0 6 -1 7 -3l166 -237l165 237c1 2 6 3 7 3zM245 737l-48 80c-3 4 -1 9 4 10l186 102c5 2 11 1 14 -3l52 -82
c2 -4 0 -9 -4 -11l-190 -99c-5 -2 -11 -1 -14 3z" />
    <glyph glyph-name="ograve" unicode="&#xf2;" horiz-adv-x="797" 
d="M393 710c229 0 345 -180 345 -359s-116 -360 -345 -360c-233 0 -347 181 -347 360s114 359 347 359zM393 117c139 0 210 116 210 232c0 117 -71 234 -210 234c-141 0 -211 -117 -211 -234c0 -116 70 -232 211 -232zM518 823l-47 -79c-3 -4 -9 -5 -14 -3l-180 98
c-5 1 -7 6 -4 10l52 83c3 4 9 5 14 3l175 -101c5 -2 7 -7 4 -11z" />
    <glyph glyph-name="oacute" unicode="&#xf3;" horiz-adv-x="797" 
d="M393 710c229 0 345 -180 345 -359s-116 -360 -345 -360c-233 0 -347 181 -347 360s114 359 347 359zM393 117c139 0 210 116 210 232c0 117 -71 234 -210 234c-141 0 -211 -117 -211 -234c0 -116 70 -232 211 -232zM324 745l-48 80c-3 4 -1 9 4 10l186 102
c5 2 11 1 14 -3l52 -82c2 -4 0 -9 -4 -11l-190 -99c-5 -2 -11 -1 -14 3z" />
    <glyph glyph-name="ocircumflex" unicode="&#xf4;" horiz-adv-x="797" 
d="M393 710c229 0 345 -180 345 -359s-116 -360 -345 -360c-233 0 -347 181 -347 360s114 359 347 359zM393 117c139 0 210 116 210 232c0 117 -71 234 -210 234c-141 0 -211 -117 -211 -234c0 -116 70 -232 211 -232zM268 737l-47 69c-3 4 -2 10 3 12l166 96c2 1 8 1 10 0
l169 -91c5 -2 7 -6 4 -10l-44 -76c-3 -3 -9 -4 -14 -3l-120 68l-115 -68c-3 -1 -9 0 -12 3z" />
    <glyph glyph-name="otilde" unicode="&#xf5;" horiz-adv-x="797" 
d="M393 710c229 0 345 -180 345 -359s-116 -360 -345 -360c-233 0 -347 181 -347 360s114 359 347 359zM393 117c139 0 210 116 210 232c0 117 -71 234 -210 234c-141 0 -211 -117 -211 -234c0 -116 70 -232 211 -232zM311 766l-79 22c-5 1 -8 5 -7 9c10 72 54 105 110 105
c26 0 55 -7 83 -22h-3c1 0 4 -1 5 -1c10 -5 24 -10 35 -10c9 0 18 5 26 23c2 3 7 6 12 5l79 -25c5 -1 9 -5 7 -9c-22 -74 -58 -101 -108 -101c-26 0 -54 8 -85 21l-14 5c-9 4 -22 9 -29 9s-14 -6 -19 -25c-2 -4 -8 -7 -13 -6z" />
    <glyph glyph-name="odieresis" unicode="&#xf6;" horiz-adv-x="797" 
d="M393 710c229 0 345 -180 345 -359s-116 -360 -345 -360c-233 0 -347 181 -347 360s114 359 347 359zM393 117c139 0 210 116 210 232c0 117 -71 234 -210 234c-141 0 -211 -117 -211 -234c0 -116 70 -232 211 -232zM368 820c0 -39 -35 -72 -75 -72c-39 0 -73 33 -73 72
s34 72 73 72c40 0 75 -33 75 -72zM572 820c0 -39 -34 -72 -74 -72s-74 33 -74 72s34 72 74 72s74 -33 74 -72z" />
    <glyph glyph-name="oslash" unicode="&#xf8;" horiz-adv-x="797" 
d="M391 703c42 0 84 -7 118 -18l38 68c1 2 6 4 9 4h115c8 0 12 -6 9 -12l-66 -119c83 -69 120 -173 120 -279c0 -177 -114 -354 -343 -354c-46 0 -87 7 -123 20c-14 -26 -27 -47 -41 -72c-1 -2 -6 -4 -9 -4h-112c-8 0 -13 6 -9 12l68 122c-77 69 -119 174 -119 277
c0 177 114 355 345 355zM391 118c139 0 210 115 210 229c0 61 -15 118 -55 162c-70 -123 -145 -259 -215 -383c19 -5 39 -8 60 -8zM391 577c-141 0 -210 -116 -210 -230c0 -59 14 -114 51 -157c73 129 139 251 212 380c-16 4 -36 7 -53 7z" />
    <glyph glyph-name="ugrave" unicode="&#xf9;" horiz-adv-x="683" 
d="M336 -10c-145 0 -264 90 -264 235v461c0 4 4 8 10 8h113c6 0 10 -4 10 -8v-460c8 -70 66 -107 131 -107c66 0 131 35 131 106v461c0 4 4 8 10 8h114c5 0 9 -4 9 -8v-461c0 -149 -114 -235 -264 -235zM448 811l-47 -79c-3 -4 -9 -5 -14 -3l-180 98c-5 1 -7 6 -4 10l52 83
c3 4 9 5 14 3l175 -101c5 -2 7 -7 4 -11z" />
    <glyph glyph-name="uacute" unicode="&#xfa;" horiz-adv-x="683" 
d="M336 -10c-145 0 -264 90 -264 235v461c0 4 4 8 10 8h113c6 0 10 -4 10 -8v-460c8 -70 66 -107 131 -107c66 0 131 35 131 106v461c0 4 4 8 10 8h114c5 0 9 -4 9 -8v-461c0 -149 -114 -235 -264 -235zM268 729l-48 80c-3 4 -1 9 4 10l186 102c5 2 11 1 14 -3l52 -82
c2 -4 0 -9 -4 -11l-190 -99c-5 -2 -11 -1 -14 3z" />
    <glyph glyph-name="ucircumflex" unicode="&#xfb;" horiz-adv-x="683" 
d="M336 -10c-145 0 -264 90 -264 235v461c0 4 4 8 10 8h113c6 0 10 -4 10 -8v-460c8 -70 66 -107 131 -107c66 0 131 35 131 106v461c0 4 4 8 10 8h114c5 0 9 -4 9 -8v-461c0 -149 -114 -235 -264 -235zM211 735l-47 69c-3 4 -2 10 3 12l166 96c2 1 8 1 10 0l169 -91
c5 -2 7 -6 4 -10l-44 -76c-3 -3 -9 -4 -14 -3l-120 68l-115 -68c-3 -1 -9 0 -12 3z" />
    <glyph glyph-name="udieresis" unicode="&#xfc;" horiz-adv-x="683" 
d="M336 -10c-145 0 -264 90 -264 235v461c0 4 4 8 10 8h113c6 0 10 -4 10 -8v-460c8 -70 66 -107 131 -107c66 0 131 35 131 106v461c0 4 4 8 10 8h114c5 0 9 -4 9 -8v-461c0 -149 -114 -235 -264 -235zM311 810c0 -39 -35 -72 -75 -72c-39 0 -73 33 -73 72s34 72 73 72
c40 0 75 -33 75 -72zM515 810c0 -39 -34 -72 -74 -72s-74 33 -74 72s34 72 74 72s74 -33 74 -72z" />
    <glyph glyph-name="Sacute" unicode="&#x15a;" horiz-adv-x="543" 
d="M270 -10c-124 3 -222 75 -224 207c0 4 4 8 10 8h114c5 0 10 -4 10 -8c2 -51 44 -77 90 -77c48 0 90 32 90 80c0 53 -49 85 -90 87c-6 0 -55 0 -107 24c-75 35 -117 98 -117 182c0 135 109 217 224 217c123 0 219 -83 221 -205c0 -3 -4 -7 -10 -7h-113c-5 0 -10 4 -10 7
c-2 51 -41 75 -88 75c-49 0 -90 -29 -90 -87c0 -52 44 -79 90 -79c5 0 55 0 106 -24c76 -35 117 -106 117 -190c0 -135 -108 -210 -223 -210zM195 745l-48 80c-3 4 -1 9 4 10l186 102c5 2 11 1 14 -3l52 -82c2 -4 0 -9 -4 -11l-190 -99c-5 -2 -11 -1 -14 3z" />
    <glyph glyph-name="Tcaron" unicode="&#x164;" horiz-adv-x="448" 
d="M433 692v-104c0 -4 -4 -8 -10 -8h-134v-572c0 -4 -4 -8 -10 -8h-113c-6 0 -10 4 -10 8v572h-134c-6 0 -10 4 -10 8v104c0 4 4 8 10 8h401c6 0 10 -4 10 -8zM350 924l47 -68c3 -4 2 -10 -3 -12l-166 -97h-10l-169 91c-5 2 -7 7 -4 11l44 75c3 4 9 5 13 3l121 -67l114 67
c4 2 10 0 13 -3z" />
    <glyph glyph-name="Zacute" unicode="&#x179;" horiz-adv-x="475" 
d="M443 122v-114c0 -4 -4 -8 -10 -8h-398c-8 0 -12 5 -9 11l224 559h-216c-6 0 -10 4 -10 8v114c0 4 4 8 10 8h398c8 0 12 -5 9 -11l-224 -559h216c6 0 10 -4 10 -8zM163 739l-48 80c-3 4 -1 9 4 10l186 102c5 2 11 1 14 -3l52 -82c2 -4 0 -9 -4 -11l-190 -99
c-5 -2 -11 -1 -14 3z" />
    <glyph glyph-name="sacute" unicode="&#x15b;" horiz-adv-x="543" 
d="M269 -10c-123 3 -220 74 -222 206c0 4 4 7 10 7h113c5 0 10 -3 10 -7c2 -52 43 -77 89 -77c47 0 89 30 89 79c0 52 -49 85 -89 87c-6 0 -55 0 -106 23c-74 35 -116 103 -116 186c0 134 107 215 222 215c122 0 217 -82 219 -202c0 -4 -4 -8 -10 -8h-112c-5 0 -10 4 -10 8
c-2 50 -41 74 -87 74c-49 0 -89 -28 -89 -87c0 -51 43 -84 89 -84c5 0 54 0 104 -23c76 -35 117 -107 117 -189c0 -135 -107 -208 -221 -208zM193 731l-48 80c-3 4 -1 9 4 10l186 102c5 2 11 1 14 -3l52 -82c2 -4 0 -9 -4 -11l-190 -99c-5 -2 -11 -1 -14 3z" />
    <glyph glyph-name="tcaron" unicode="&#x165;" horiz-adv-x="448" 
d="M430 686v-104c0 -4 -4 -7 -10 -7h-133v-567c0 -4 -3 -8 -9 -8h-113c-6 0 -9 4 -9 8v567h-133c-6 0 -10 3 -10 7v104c0 4 4 8 10 8h397c6 0 10 -4 10 -8zM349 911l47 -68c3 -4 2 -10 -3 -12l-166 -97h-10l-169 91c-5 2 -7 7 -4 11l44 75c3 4 9 5 13 3l121 -67l114 67
c4 2 10 0 13 -3z" />
    <glyph glyph-name="zacute" unicode="&#x17a;" horiz-adv-x="583" 
d="M554 0h-550c-7 0 -12 6 -8 12l341 559h-304c-5 0 -9 4 -9 8v113c0 4 4 8 9 8h521c8 0 12 -6 9 -12l-341 -559h332c6 0 9 -4 9 -8v-113c0 -4 -3 -8 -9 -8zM222 737l-48 80c-3 4 -1 9 4 10l186 102c5 2 11 1 14 -3l52 -82c2 -4 0 -9 -4 -11l-190 -99c-5 -2 -11 -1 -14 3z
" />
    <glyph glyph-name="breve" unicode="&#x2d8;" horiz-adv-x="342" 
d="M233 710h89c5 0 9 -4 9 -8c0 -113 -70 -155 -154 -155s-165 42 -165 155c0 4 4 8 9 8h89c5 0 10 -4 10 -8c1 -38 26 -57 51 -57s50 19 52 57c0 4 5 8 10 8z" />
    <glyph glyph-name="Lslash" unicode="&#x141;" horiz-adv-x="501" 
d="M204 130h243c6 0 10 -4 10 -8v-114c0 -4 -4 -8 -10 -8h-367c-6 0 -10 4 -10 8v228l-57 -19c-7 -2 -12 2 -12 8v99c0 3 3 6 6 7l63 21v340c0 4 4 8 10 8h114c6 0 10 -4 10 -8v-296l95 30c7 2 13 -2 13 -8v-98c0 -3 -3 -7 -7 -8l-101 -32v-150z" />
    <glyph glyph-name="ogonek" unicode="&#x2db;" horiz-adv-x="301" 
d="M100 24h91c10 0 14 -10 5 -14c-32 -17 -59 -61 -47 -93c8 -14 21 -20 34 -20c19 0 45 11 62 23c6 3 14 0 16 -5l24 -76c1 -3 -1 -7 -4 -9c-30 -21 -75 -34 -119 -34c-55 0 -107 23 -125 86c-3 10 -5 22 -5 33c0 43 29 80 68 109z" />
    <glyph glyph-name="Aogonek" unicode="&#x104;" 
d="M559 11l-8 -11c-75 -6 -96 -55 -80 -83c8 -15 20 -20 33 -20c20 0 45 11 63 23c5 3 13 0 15 -5l25 -76c1 -3 -1 -7 -4 -9c-31 -21 -76 -34 -120 -34c-54 0 -107 23 -125 86c-3 10 -5 23 -5 34c0 41 25 75 59 103l-22 60h-227l-28 -74c-1 -3 -5 -5 -8 -5h-124
c-7 0 -11 5 -8 11l272 704c3 7 15 7 18 0zM276 394l-70 -200h141c-27 76 -44 123 -71 200z" />
    <glyph glyph-name="aogonek" unicode="&#x105;" 
d="M555 11l-8 -11c-74 -6 -95 -54 -79 -82c8 -15 20 -20 33 -20c19 0 44 11 62 23c6 2 13 0 15 -5l25 -76c1 -3 -1 -7 -4 -9c-30 -20 -75 -34 -119 -34c-54 0 -106 24 -124 86c-2 10 -4 23 -4 34c0 40 24 74 58 101l-23 60h-224l-27 -73c-1 -3 -5 -5 -9 -5h-122
c-8 0 -12 5 -9 11l270 697c3 7 15 7 18 0zM275 391l-70 -199h140c-26 75 -44 122 -70 199z" />
    <glyph glyph-name="Scedilla" unicode="&#x15e;" horiz-adv-x="543" 
d="M281 -227c-93 0 -167 74 -167 162c0 4 3 8 9 8h89c6 0 10 -4 10 -8c0 -32 26 -58 59 -58c32 0 57 26 57 58c0 33 -25 58 -57 58h-11c-124 3 -222 74 -224 207c0 4 4 8 10 8h114c5 0 10 -4 10 -8c2 -51 44 -77 90 -77c48 0 90 29 90 77c0 53 -49 85 -90 87
c-6 0 -55 0 -107 24c-75 35 -117 98 -117 182c0 135 109 215 224 215c123 0 219 -83 221 -205c0 -3 -4 -7 -10 -7h-113c-5 0 -10 4 -10 7c-2 51 -41 75 -88 75c-49 0 -90 -27 -90 -85c0 -52 44 -79 90 -79c5 0 55 0 106 -24c76 -35 117 -106 117 -190
c0 -79 -36 -136 -90 -171c28 -21 45 -51 45 -94c0 -88 -74 -162 -167 -162z" />
    <glyph glyph-name="Zdotaccent" unicode="&#x17b;" horiz-adv-x="475" 
d="M443 122v-114c0 -4 -4 -8 -10 -8h-398c-8 0 -12 5 -9 11l224 559h-216c-6 0 -10 4 -10 8v114c0 4 4 8 10 8h398c8 0 12 -5 9 -11l-224 -559h216c6 0 10 -4 10 -8zM318 811c0 -39 -35 -72 -81 -72c-42 0 -80 33 -80 72c0 40 38 73 80 73c46 0 81 -33 81 -73z" />
    <glyph glyph-name="lslash" unicode="&#x142;" horiz-adv-x="490" 
d="M204 130h243c6 0 10 -4 10 -8v-114c0 -4 -4 -8 -10 -8h-367c-6 0 -10 4 -10 8v228l-57 -19c-7 -2 -12 2 -12 8v99c0 3 3 6 6 7l63 21v340c0 4 4 8 10 8h114c6 0 10 -4 10 -8v-296l95 30c7 2 13 -2 13 -8v-98c0 -3 -3 -7 -7 -8l-101 -32v-150z" />
    <glyph glyph-name="scedilla" unicode="&#x15f;" horiz-adv-x="543" 
d="M281 -227c-93 0 -167 74 -167 162c0 4 3 8 9 8h89c6 0 10 -4 10 -8c0 -32 26 -58 59 -58c32 0 57 26 57 58c0 33 -25 58 -57 58h-11c-124 3 -222 74 -224 207c0 4 4 8 10 8h114c5 0 10 -4 10 -8c2 -51 44 -77 90 -77c48 0 90 29 90 77c0 53 -49 85 -90 87
c-6 0 -55 0 -107 24c-75 35 -117 98 -117 182c0 135 109 215 224 215c123 0 219 -83 221 -205c0 -3 -4 -7 -10 -7h-113c-5 0 -10 4 -10 7c-2 51 -41 75 -88 75c-49 0 -90 -27 -90 -85c0 -52 44 -79 90 -79c5 0 55 0 106 -24c76 -35 117 -106 117 -190
c0 -79 -36 -136 -90 -171c28 -21 45 -51 45 -94c0 -88 -74 -162 -167 -162z" />
    <glyph glyph-name="zdotaccent" unicode="&#x17c;" horiz-adv-x="585" 
d="M390 821c0 -41 -39 -76 -89 -76c-47 0 -88 35 -88 76c0 42 41 76 88 76c50 0 89 -34 89 -76zM554 0h-550c-7 0 -12 6 -8 12l341 559h-304c-5 0 -9 4 -9 8v113c0 4 4 8 9 8h521c8 0 12 -6 9 -12l-341 -559h332c6 0 9 -4 9 -8v-113c0 -4 -3 -8 -9 -8z" />
    <glyph glyph-name="Lcaron" unicode="&#x13d;" horiz-adv-x="501" 
d="M204 130h244c6 0 10 -4 10 -8v-114c0 -4 -4 -8 -10 -8h-368c-6 0 -10 4 -10 8v684c0 4 4 8 10 8h115c5 0 9 -4 9 -8v-562zM369 714c57 0 79 -35 79 -77c0 -52 -34 -118 -74 -143c-7 -4 -15 0 -15 7v76c-34 4 -60 34 -60 69c0 37 32 68 70 68z" />
    <glyph glyph-name="lcaron" unicode="&#x13e;" horiz-adv-x="501" 
d="M204 130h244c6 0 10 -4 10 -8v-114c0 -4 -4 -8 -10 -8h-368c-6 0 -10 4 -10 8v684c0 4 4 8 10 8h115c5 0 9 -4 9 -8v-562zM369 714c57 0 79 -35 79 -77c0 -52 -34 -118 -74 -143c-7 -4 -15 0 -15 7v76c-34 4 -60 34 -60 69c0 37 32 68 70 68z" />
    <glyph glyph-name="hungarumlaut" unicode="&#x2dd;" horiz-adv-x="416" 
d="M60 557l-56 56c-4 3 -4 9 0 12l131 126c4 3 10 3 14 0l60 -58c4 -3 4 -8 0 -11l-136 -125c-3 -2 -9 -2 -13 0zM262 548l-56 61c-4 3 -4 9 0 12l131 126c4 3 10 3 14 0l61 -63c4 -3 4 -8 0 -11l-136 -125c-4 -2 -10 -2 -14 0z" />
    <glyph glyph-name="Racute" unicode="&#x154;" horiz-adv-x="612" 
d="M574 0h-134c-3 0 -8 2 -9 4l-176 281h-49v-277c0 -4 -4 -8 -10 -8h-114c-6 0 -10 4 -10 8v399c0 4 4 8 10 8h93c-34 53 -69 109 -103 162v115c0 4 4 8 10 8h228s238 0 238 -207c0 -123 -79 -172 -147 -193l180 -288c4 -6 0 -12 -7 -12zM226 570l97 -154c38 1 91 17 91 77
c0 77 -81 77 -104 77h-84zM217 738l-48 80c-3 4 -1 9 4 10l186 102c5 2 11 1 14 -3l52 -82c2 -4 0 -9 -4 -11l-190 -99c-5 -2 -11 -1 -14 3z" />
    <glyph glyph-name="Abreve" unicode="&#x102;" 
d="M418 5l-29 74h-227l-27 -74c-1 -3 -5 -5 -9 -5h-123c-8 0 -12 5 -9 11l273 704c3 7 15 7 18 0l273 -704c3 -6 -1 -11 -8 -11h-124c-3 0 -7 2 -8 5zM276 407l-71 -210h141zM338 891h89c5 0 9 -4 9 -8c0 -113 -70 -155 -154 -155s-165 42 -165 155c0 4 4 8 9 8h89
c5 0 10 -4 10 -8c1 -38 26 -57 51 -57s50 19 52 57c0 4 5 8 10 8z" />
    <glyph glyph-name="abreve" unicode="&#x103;" 
d="M418 5l-29 74h-227l-27 -74c-1 -3 -5 -5 -9 -5h-123c-8 0 -12 5 -9 11l273 704c3 7 15 7 18 0l273 -704c3 -6 -1 -11 -8 -11h-124c-3 0 -7 2 -8 5zM276 407l-71 -210h141zM339 887h89c5 0 9 -4 9 -8c0 -113 -70 -155 -154 -155s-165 42 -165 155c0 4 4 8 9 8h89
c5 0 10 -4 10 -8c1 -38 26 -57 51 -57s50 19 52 57c0 4 5 8 10 8z" />
    <glyph glyph-name="Lacute" unicode="&#x139;" horiz-adv-x="501" 
d="M204 130h244c6 0 10 -4 10 -8v-114c0 -4 -4 -8 -10 -8h-368c-6 0 -10 4 -10 8v684c0 4 4 8 10 8h115c5 0 9 -4 9 -8v-562zM68 731l-48 80c-3 4 -1 9 4 10l186 102c5 2 11 1 14 -3l52 -82c2 -4 0 -9 -4 -11l-190 -99c-5 -2 -11 -1 -14 3z" />
    <glyph glyph-name="Cacute" unicode="&#x106;" horiz-adv-x="694" 
d="M401 120c60 0 114 25 154 65c4 3 10 3 14 0l80 -81c4 -3 4 -9 0 -12c-62 -63 -150 -102 -248 -102c-194 0 -353 140 -353 360c0 211 147 360 353 360c98 0 186 -39 248 -103c4 -3 4 -9 0 -12l-80 -80c-4 -3 -10 -3 -14 0c-40 40 -94 65 -154 65
c-135 0 -217 -97 -217 -230c0 -142 97 -230 217 -230zM314 749l-48 80c-3 4 -1 9 4 10l186 102c5 2 11 1 14 -3l52 -82c2 -4 0 -9 -4 -11l-190 -99c-5 -2 -11 -1 -14 3z" />
    <glyph glyph-name="Ccaron" unicode="&#x10c;" horiz-adv-x="694" 
d="M401 120c60 0 114 25 154 65c4 3 10 3 14 0l80 -81c4 -3 4 -9 0 -12c-62 -63 -150 -102 -248 -102c-194 0 -353 140 -353 360c0 211 147 360 353 360c98 0 186 -39 248 -103c4 -3 4 -9 0 -12l-80 -80c-4 -3 -10 -3 -14 0c-40 40 -94 65 -154 65
c-135 0 -217 -97 -217 -230c0 -142 97 -230 217 -230zM522 922l47 -68c3 -4 2 -10 -3 -12l-166 -97h-10l-169 91c-5 2 -7 7 -4 11l44 75c3 4 9 5 13 3l121 -67l114 67c4 2 10 0 13 -3z" />
    <glyph glyph-name="Eogonek" unicode="&#x118;" horiz-adv-x="588" 
d="M538 570h-333v-155h275c6 0 10 -4 10 -8v-114c0 -4 -4 -8 -10 -8h-275v-155h333c5 0 9 -4 9 -8v-114c0 -4 -4 -8 -9 -8c-78 0 -97 -55 -82 -83c8 -15 21 -20 34 -20c19 0 45 11 62 23c6 3 14 0 16 -5l24 -76c1 -3 -2 -7 -5 -9c-31 -21 -78 -35 -122 -35
c-55 0 -105 24 -123 83c-3 10 -5 19 -5 31c0 36 16 69 45 91h-301c-6 0 -10 4 -10 8v684c0 4 4 8 10 8h457c5 0 9 -4 9 -8v-114c0 -4 -4 -8 -9 -8z" />
    <glyph glyph-name="Ecaron" unicode="&#x11a;" horiz-adv-x="588" 
d="M528 573h-323v-158h275c5 0 9 -4 9 -8v-111c0 -4 -4 -8 -9 -8h-275v-158h332c6 0 10 -4 10 -8v-114c0 -4 -4 -8 -10 -8h-456c-6 0 -10 4 -10 8v684c0 4 4 8 10 8h447c6 0 10 -4 10 -8v-111c0 -4 -4 -8 -10 -8zM447 910l47 -68c3 -4 2 -10 -3 -12l-166 -97h-10l-169 91
c-5 2 -7 7 -4 11l44 75c3 4 9 5 13 3l121 -67l114 67c4 2 10 0 13 -3z" />
    <glyph glyph-name="Dcaron" unicode="&#x10e;" horiz-adv-x="662" 
d="M81 700h114c171 0 410 -39 410 -350c0 -299 -236 -350 -410 -350h-114c-6 0 -10 4 -10 8v684c0 4 4 8 10 8zM205 572v-443c85 -4 265 5 265 221c0 166 -113 230 -265 222zM421 922l47 -68c3 -4 2 -10 -3 -12l-166 -97h-10l-169 91c-5 2 -7 7 -4 11l44 75c3 4 9 5 13 3
l121 -67l114 67c4 2 10 0 13 -3z" />
    <glyph glyph-name="Dcroat" unicode="&#x110;" horiz-adv-x="662" 
d="M6 295v102c0 4 4 8 10 8h55v287c0 4 4 8 10 8h114c170 0 410 -39 410 -350c0 -299 -236 -350 -410 -350h-114c-6 0 -10 4 -10 8v279h-55c-6 0 -10 4 -10 8zM205 287v-161c6 -1 14 -1 26 -1c75 0 239 23 239 225c0 201 -158 226 -234 226c-13 0 -31 -1 -31 -1v-170h121
c6 0 10 -4 10 -8v-102c0 -4 -4 -8 -10 -8h-121z" />
    <glyph glyph-name="Nacute" unicode="&#x143;" horiz-adv-x="742" 
d="M661 692v-684c0 -4 -4 -8 -10 -8h-115c-2 0 -7 1 -8 3l-322 461v-456c0 -4 -4 -8 -10 -8h-115c-5 0 -9 4 -9 8v684c0 4 4 8 9 8h116c2 0 7 -1 8 -3l323 -461v456c0 4 4 8 10 8h113c6 0 10 -4 10 -8zM292 728l-49 82c-3 4 -1 9 4 10l189 105c5 2 11 1 15 -3l52 -84
c2 -5 0 -10 -4 -12l-193 -101c-5 -2 -11 -1 -14 3z" />
    <glyph glyph-name="Ncaron" unicode="&#x147;" horiz-adv-x="742" 
d="M661 692v-684c0 -4 -4 -8 -10 -8h-115c-2 0 -7 1 -8 3l-322 461v-456c0 -4 -4 -8 -10 -8h-115c-5 0 -9 4 -9 8v684c0 4 4 8 9 8h116c2 0 7 -1 8 -3l323 -461v456c0 4 4 8 10 8h113c6 0 10 -4 10 -8zM496 906l47 -68c3 -4 2 -10 -3 -12l-166 -97h-10l-169 91
c-5 2 -7 7 -4 11l44 75c3 4 9 5 13 3l121 -67l114 67c4 2 10 0 13 -3z" />
    <glyph glyph-name="Ohungarumlaut" unicode="&#x150;" horiz-adv-x="638" 
d="M313 186c-145 0 -264 118 -264 262c0 143 119 262 264 262s264 -119 264 -262c0 -144 -119 -262 -264 -262zM313 581c-72 0 -131 -59 -131 -133c0 -75 59 -133 131 -133c73 0 131 58 131 133c0 74 -58 133 -131 133zM546 121v-113c0 -4 -4 -8 -10 -8h-451
c-6 0 -10 4 -10 8v113c0 4 4 8 10 8h451c6 0 10 -4 10 -8zM203 738l-56 52c-4 3 -4 8 0 11l131 116c4 3 10 3 14 0l59 -53c4 -3 4 -8 0 -10l-135 -116c-3 -2 -9 -2 -13 0zM404 730l-56 56c-4 3 -4 8 0 11l131 117c4 2 10 2 14 0l61 -59c4 -2 4 -7 0 -10l-136 -115
c-4 -2 -10 -2 -14 0z" />
    <glyph glyph-name="Rcaron" unicode="&#x158;" horiz-adv-x="612" 
d="M574 0h-134c-3 0 -8 2 -9 4l-176 281h-49v-277c0 -4 -4 -8 -10 -8h-114c-6 0 -10 4 -10 8v399c0 4 4 8 10 8h93c-34 53 -69 109 -103 162v115c0 4 4 8 10 8h228s238 0 238 -207c0 -123 -79 -172 -147 -193l180 -288c4 -6 0 -12 -7 -12zM226 570l97 -154c38 1 91 17 91 77
c0 77 -81 77 -104 77h-84zM419 910l47 -68c3 -4 2 -10 -3 -12l-166 -97h-10l-169 91c-5 2 -7 7 -4 11l44 75c3 4 9 5 13 3l121 -67l114 67c4 2 10 0 13 -3z" />
    <glyph glyph-name="Uring" unicode="&#x16e;" horiz-adv-x="740" 
d="M81 700h569c6 0 10 -4 10 -8v-409c0 -7 -1 -75 -35 -143c-49 -96 -140 -150 -259 -150s-211 53 -259 150c-34 68 -35 136 -35 143v409c0 4 4 8 9 8zM504 196c22 42 23 87 23 88v296h-322v-297s1 -45 23 -87c27 -51 72 -76 138 -76s111 25 138 76zM374 733
c-78 0 -144 58 -144 126c0 69 66 126 144 126s143 -57 143 -126c0 -68 -65 -126 -143 -126zM374 903c-24 0 -46 -20 -46 -44s22 -42 46 -42c25 0 45 18 45 42s-20 44 -45 44z" />
    <glyph glyph-name="Uhungarumlaut" unicode="&#x170;" horiz-adv-x="740" 
d="M81 700h569c6 0 10 -4 10 -8v-409c0 -7 -1 -75 -35 -143c-49 -96 -140 -150 -259 -150s-211 53 -259 150c-34 68 -35 136 -35 143v409c0 4 4 8 9 8zM504 196c22 42 23 87 23 88v296h-322v-297s1 -45 23 -87c27 -51 72 -76 138 -76s111 25 138 76zM241 746l-54 50
c-4 3 -4 9 0 11l126 115c4 2 10 2 14 0l58 -53c4 -3 4 -7 0 -10l-132 -113c-2 -2 -8 -2 -12 0zM436 737l-54 56c-4 3 -4 8 0 11l126 114c4 3 10 3 14 0l59 -57c4 -3 4 -7 0 -10l-132 -114c-3 -1 -9 -1 -13 0z" />
    <glyph glyph-name="racute" unicode="&#x155;" horiz-adv-x="599" 
d="M407 5l-128 278h-75v-275c0 -4 -4 -8 -10 -8h-114c-5 0 -9 4 -9 8v684c0 4 4 8 9 8h226c40 0 237 -2 237 -208c0 -107 -59 -163 -129 -188c44 -99 91 -195 135 -293c3 -6 -1 -11 -8 -11h-125c-3 0 -8 3 -9 5zM204 573v-162h102c29 0 104 4 104 81s-83 81 -104 81h-102z
M212 732l-48 80c-3 4 -1 9 4 10l186 102c5 2 11 1 14 -3l52 -82c2 -4 0 -9 -4 -11l-190 -99c-5 -2 -11 -1 -14 3z" />
    <glyph glyph-name="uni0162" unicode="&#x162;" horiz-adv-x="448" 
d="M433 692v-104c0 -4 -4 -8 -10 -8h-134v-572c0 -4 -4 -8 -10 -8h-113c-6 0 -10 4 -10 8v572h-134c-6 0 -10 4 -10 8v104c0 4 4 8 10 8h401c6 0 10 -4 10 -8zM222 -22c58 0 80 -33 80 -73c0 -49 -34 -112 -75 -135c-7 -4 -15 0 -15 6v72c-34 4 -60 33 -60 66
c0 35 32 64 70 64z" />
    <glyph glyph-name="uni0163" unicode="&#x163;" horiz-adv-x="448" 
d="M430 686v-104c0 -4 -4 -7 -10 -7h-133v-567c0 -4 -3 -8 -9 -8h-113c-6 0 -9 4 -9 8v567h-133c-6 0 -10 3 -10 7v104c0 4 4 8 10 8h397c6 0 10 -4 10 -8zM222 -23c58 0 80 -33 80 -73c0 -49 -34 -112 -75 -135c-7 -4 -15 0 -15 6v72c-34 4 -60 33 -60 66c0 35 32 64 70 64
z" />
    <glyph glyph-name="lacute" unicode="&#x13a;" horiz-adv-x="501" 
d="M204 129h241c6 0 10 -4 10 -8v-113c0 -4 -4 -8 -10 -8h-364c-6 0 -10 4 -10 8v684c0 4 4 8 10 8h113c6 0 10 -4 10 -8v-563zM79 736l-48 80c-3 4 -1 9 4 10l186 102c5 2 11 1 14 -3l52 -82c2 -4 0 -9 -4 -11l-190 -99c-5 -2 -11 -1 -14 3z" />
    <glyph glyph-name="cacute" unicode="&#x107;" horiz-adv-x="694" 
d="M399 119c59 0 113 24 153 64c4 3 10 3 14 0l79 -80c4 -3 4 -9 0 -12c-62 -62 -149 -101 -246 -101c-192 0 -350 139 -350 357c0 209 145 363 350 363c97 0 184 -38 246 -101c4 -3 4 -9 0 -12l-79 -79c-4 -3 -10 -3 -14 0c-40 39 -94 64 -153 64
c-134 0 -215 -103 -215 -235c0 -141 96 -228 215 -228zM327 746l-48 80c-3 4 -1 9 4 10l186 102c5 2 11 1 14 -3l52 -82c2 -4 0 -9 -4 -11l-190 -99c-5 -2 -11 -1 -14 3z" />
    <glyph glyph-name="ccaron" unicode="&#x10d;" horiz-adv-x="694" 
d="M399 119c59 0 113 24 153 64c4 3 10 3 14 0l79 -80c4 -3 4 -9 0 -12c-62 -62 -149 -101 -246 -101c-192 0 -350 139 -350 357c0 209 145 363 350 363c97 0 184 -38 246 -101c4 -3 4 -9 0 -12l-79 -79c-4 -3 -10 -3 -14 0c-40 39 -94 64 -153 64
c-134 0 -215 -103 -215 -235c0 -141 96 -228 215 -228zM529 921l47 -68c3 -4 2 -10 -3 -12l-166 -97h-10l-169 91c-5 2 -7 7 -4 11l44 75c3 4 9 5 13 3l121 -67l114 67c4 2 10 0 13 -3z" />
    <glyph glyph-name="eogonek" unicode="&#x119;" horiz-adv-x="588" 
d="M538 570h-333v-155h275c6 0 10 -4 10 -8v-114c0 -4 -4 -8 -10 -8h-275v-155h333c5 0 9 -4 9 -8v-114c0 -4 -4 -8 -9 -8c-78 0 -97 -55 -82 -83c8 -15 21 -20 34 -20c19 0 45 11 62 23c6 3 14 0 16 -5l24 -76c1 -3 -2 -7 -5 -9c-31 -21 -78 -35 -122 -35
c-55 0 -105 24 -123 83c-3 10 -5 19 -5 31c0 36 16 69 45 91h-301c-6 0 -10 4 -10 8v684c0 4 4 8 10 8h457c5 0 9 -4 9 -8v-114c0 -4 -4 -8 -9 -8z" />
    <glyph glyph-name="ecaron" unicode="&#x11b;" horiz-adv-x="588" 
d="M534 573h-330v-162h273c6 0 9 -4 9 -8v-109c0 -4 -3 -8 -9 -8h-273v-160h330c6 0 10 -4 10 -8v-110c0 -4 -4 -8 -10 -8h-453c-5 0 -9 4 -9 8v684c0 4 4 8 9 8h453c6 0 10 -4 10 -8v-111c0 -4 -4 -8 -10 -8zM442 907l47 -68c3 -4 2 -10 -3 -12l-166 -97h-10l-169 91
c-5 2 -7 7 -4 11l44 75c3 4 9 5 13 3l121 -67l114 67c4 2 10 0 13 -3z" />
    <glyph glyph-name="dcaron" unicode="&#x10f;" horiz-adv-x="662" 
d="M82 700h113c169 0 406 -40 406 -348c0 -297 -233 -352 -406 -352h-113c-6 0 -10 4 -10 8v684c0 4 4 8 10 8zM205 576v-451c84 -4 263 12 263 227c0 185 -112 232 -263 224zM405 925l47 -68c3 -4 2 -10 -3 -12l-166 -97h-10l-169 91c-5 2 -7 7 -4 11l44 75c3 4 9 5 13 3
l121 -67l114 67c4 2 10 0 13 -3z" />
    <glyph glyph-name="dcroat" unicode="&#x111;" horiz-adv-x="633" 
d="M8 293v100c0 4 4 8 9 8h55v285c0 4 4 8 9 8h114c168 0 406 -39 406 -347c0 -297 -234 -347 -406 -347h-114c-5 0 -9 4 -9 8v277h-55c-5 0 -9 4 -9 8zM204 285v-160c6 -1 14 -1 27 -1c73 0 236 22 236 223c0 200 -156 224 -232 224c-12 0 -31 -1 -31 -1v-169h121
c5 0 9 -4 9 -8v-100c0 -4 -4 -8 -9 -8h-121z" />
    <glyph glyph-name="nacute" unicode="&#x144;" horiz-adv-x="742" 
d="M657 693v-685c0 -4 -4 -8 -10 -8h-114c-2 0 -7 1 -8 3l-320 466v-461c0 -4 -4 -8 -9 -8h-114c-6 0 -9 4 -9 8v685c0 4 3 8 9 8h115c2 0 6 -1 7 -3l321 -470v465c0 4 4 8 10 8h112c6 0 10 -4 10 -8zM292 729l-48 80c-3 4 -1 9 4 10l186 102c5 2 11 1 14 -3l52 -82
c2 -4 0 -9 -4 -11l-190 -99c-5 -2 -11 -1 -14 3z" />
    <glyph glyph-name="ncaron" unicode="&#x148;" horiz-adv-x="742" 
d="M657 693v-685c0 -4 -4 -8 -10 -8h-114c-2 0 -7 1 -8 3l-320 466v-461c0 -4 -4 -8 -9 -8h-114c-6 0 -9 4 -9 8v685c0 4 3 8 9 8h115c2 0 6 -1 7 -3l321 -470v465c0 4 4 8 10 8h112c6 0 10 -4 10 -8zM496 897l47 -68c3 -4 2 -10 -3 -12l-166 -97h-10l-169 91
c-5 2 -7 7 -4 11l44 75c3 4 9 5 13 3l121 -67l114 67c4 2 10 0 13 -3z" />
    <glyph glyph-name="ohungarumlaut" unicode="&#x151;" horiz-adv-x="797" 
d="M393 710c229 0 345 -180 345 -359s-116 -360 -345 -360c-233 0 -347 181 -347 360s114 359 347 359zM393 117c139 0 210 116 210 232c0 117 -71 234 -210 234c-141 0 -211 -117 -211 -234c0 -116 70 -232 211 -232zM279 738l-58 54c-4 3 -4 9 0 12l135 121c4 3 10 3 14 0
l62 -56c4 -3 4 -8 0 -10l-140 -121c-3 -2 -9 -2 -13 0zM486 729l-57 59c-4 3 -4 9 0 12l134 121c4 3 10 3 15 0l62 -61c4 -2 4 -7 0 -10l-139 -121c-5 -2 -11 -2 -15 0z" />
    <glyph glyph-name="rcaron" unicode="&#x159;" horiz-adv-x="599" 
d="M407 5l-128 278h-75v-275c0 -4 -4 -8 -10 -8h-114c-5 0 -9 4 -9 8v684c0 4 4 8 9 8h226c40 0 237 -2 237 -208c0 -107 -59 -163 -129 -188c44 -99 91 -195 135 -293c3 -6 -1 -11 -8 -11h-125c-3 0 -8 3 -9 5zM204 573v-162h102c29 0 104 4 104 81s-83 81 -104 81h-102z
M423 905l47 -68c3 -4 2 -10 -3 -12l-166 -97h-10l-169 91c-5 2 -7 7 -4 11l44 75c3 4 9 5 13 3l121 -67l114 67c4 2 10 0 13 -3z" />
    <glyph glyph-name="uring" unicode="&#x16f;" horiz-adv-x="683" 
d="M336 -10c-145 0 -264 90 -264 235v461c0 4 4 8 10 8h113c6 0 10 -4 10 -8v-460c8 -70 66 -107 131 -107c66 0 131 35 131 106v461c0 4 4 8 10 8h114c5 0 9 -4 9 -8v-461c0 -149 -114 -235 -264 -235zM337 719c-76 0 -139 56 -139 123c0 66 63 123 139 123
s139 -57 139 -123c0 -67 -63 -123 -139 -123zM337 884c-24 0 -44 -19 -44 -42c0 -24 20 -42 44 -42c25 0 44 18 44 42c0 23 -19 42 -44 42z" />
    <glyph glyph-name="uhungarumlaut" unicode="&#x171;" horiz-adv-x="683" 
d="M336 -10c-145 0 -264 90 -264 235v461c0 4 4 8 10 8h113c6 0 10 -4 10 -8v-460c8 -70 66 -107 131 -107c66 0 131 35 131 106v461c0 4 4 8 10 8h114c5 0 9 -4 9 -8v-461c0 -149 -114 -235 -264 -235zM219 741l-56 50c-4 3 -4 8 0 11l132 114c4 3 10 3 14 0l61 -53
c4 -2 4 -7 0 -9l-137 -113c-3 -2 -10 -2 -14 0zM423 733l-56 55c-4 2 -4 8 0 10l132 114c4 3 10 3 14 0l61 -57c4 -2 4 -7 0 -10l-137 -112c-4 -2 -10 -2 -14 0z" />
    <glyph glyph-name="a.alt" 
d="M415 5l-28 73h-225l-27 -73c-1 -3 -5 -5 -9 -5h-122c-7 0 -11 5 -8 11l270 697c3 7 14 7 17 0l272 -697c3 -6 -1 -11 -9 -11h-122c-4 0 -8 2 -9 5zM275 391l-70 -199h139c-26 75 -43 122 -69 199z" />
    <glyph glyph-name="uni0401" unicode="&#x401;" horiz-adv-x="588" 
d="M528 573h-323v-158h275c5 0 9 -4 9 -8v-111c0 -4 -4 -8 -9 -8h-275v-158h332c6 0 10 -4 10 -8v-114c0 -4 -4 -8 -10 -8h-456c-6 0 -10 4 -10 8v684c0 4 4 8 10 8h447c6 0 10 -4 10 -8v-111c0 -4 -4 -8 -10 -8zM290 813c0 -39 -35 -72 -75 -72c-39 0 -73 33 -73 72
s34 72 73 72c40 0 75 -33 75 -72zM494 813c0 -39 -34 -72 -74 -72s-74 33 -74 72s34 72 74 72s74 -33 74 -72z" />
    <glyph glyph-name="uni0451" unicode="&#x451;" horiz-adv-x="588" 
d="M534 573h-330v-162h273c6 0 9 -4 9 -8v-109c0 -4 -3 -8 -9 -8h-273v-160h330c6 0 10 -4 10 -8v-110c0 -4 -4 -8 -10 -8h-453c-5 0 -9 4 -9 8v684c0 4 4 8 9 8h453c6 0 10 -4 10 -8v-111c0 -4 -4 -8 -10 -8zM288 812c0 -37 -35 -68 -75 -68c-39 0 -73 31 -73 68
s34 68 73 68c40 0 75 -31 75 -68zM492 812c0 -37 -34 -68 -74 -68s-74 31 -74 68s34 68 74 68s74 -31 74 -68z" />
    <glyph glyph-name="uni0410" unicode="&#x410;" horiz-adv-x="683" 
d="M570 583c33 -56 34 -113 34 -119v-456c0 -4 -4 -8 -10 -8h-114c-6 0 -10 4 -10 8v116h-265v-116c0 -4 -4 -8 -10 -8h-114c-6 0 -10 4 -10 8v456c0 6 1 62 34 119c31 53 96 117 232 117c137 0 202 -64 233 -117zM205 243h265v220c0 2 -1 33 -16 57c-22 33 -59 50 -117 50
c-57 0 -95 -18 -116 -53c-15 -26 -16 -53 -16 -53v-221z" />
    <glyph glyph-name="uni0411" unicode="&#x411;" horiz-adv-x="603" 
d="M309 424c170 0 247 -80 247 -209c0 -194 -200 -215 -247 -215h-228c-6 0 -10 4 -10 8v684c0 4 4 8 10 8h424c6 0 10 -4 10 -8v-110c0 -4 -4 -8 -10 -8h-301v-150h105zM309 129c44 0 113 13 113 86c0 71 -67 83 -113 83h-105v-169h105z" />
    <glyph glyph-name="uni0412" unicode="&#x412;" horiz-adv-x="603" 
d="M546 500c0 -82 -44 -128 -97 -150c111 -38 107 -146 107 -146c0 -195 -200 -204 -247 -204h-228c-6 0 -10 4 -10 8v684c0 4 4 8 10 8h228s237 5 237 -200zM204 575v-160h105s103 0 103 77c0 84 -103 83 -103 83h-105zM309 128c44 0 113 12 113 79c0 83 -113 77 -113 77
h-105v-156h105z" />
    <glyph glyph-name="uni0413" unicode="&#x413;" horiz-adv-x="548" 
d="M204 574v-566c0 -4 -4 -8 -10 -8h-113c-6 0 -10 4 -10 8v684c0 4 4 8 10 8h424c6 0 10 -4 10 -8v-110c0 -4 -4 -8 -10 -8h-301z" />
    <glyph glyph-name="uni0414" unicode="&#x414;" horiz-adv-x="714" 
d="M544 0h-407v-97c0 -4 -4 -8 -10 -8h-107c-5 0 -9 4 -9 8v209c0 4 4 8 9 8h36c19 2 42 12 42 56v288c0 146 96 236 239 236h244c6 0 9 -4 9 -8v-572h70c6 0 10 -4 10 -8v-209c0 -4 -4 -8 -10 -8h-107c-6 0 -9 4 -9 8v97zM232 176c0 -14 -6 -36 -15 -56h237v454h-113
c-67 0 -109 -38 -109 -110v-288z" />
    <glyph glyph-name="uni0415" unicode="&#x415;" horiz-adv-x="595" 
d="M526 570h-322v-77h313c6 0 9 -4 9 -8v-95c0 -4 -3 -8 -9 -8h-313v-60h313c6 0 9 -3 9 -7v-98c0 -4 -3 -8 -9 -8h-313v-79h322c6 0 10 -4 10 -8v-114c0 -4 -4 -8 -10 -8h-446c-6 0 -10 4 -10 8v684c0 4 4 8 10 8h446c6 0 10 -4 10 -8v-114c0 -4 -4 -8 -10 -8z" />
    <glyph glyph-name="uni0416" unicode="&#x416;" horiz-adv-x="870" 
d="M364 407v285c0 4 4 8 9 8h115c6 0 10 -4 10 -8v-289c19 31 39 63 58 94l151 200c1 1 6 3 8 3h137c9 0 13 -7 8 -13l-238 -316l243 -358c5 -6 1 -13 -8 -13h-141c-2 0 -7 2 -8 4l-177 263c-12 -16 -21 -29 -33 -45v-214c0 -4 -4 -8 -10 -8h-115c-5 0 -9 4 -9 8v215
c-14 18 -22 26 -36 45c-57 -88 -117 -176 -175 -264c-1 -2 -5 -4 -7 -4h-142c-9 0 -13 7 -8 13l243 358l-238 316c-5 6 -1 13 8 13h138c2 0 6 -2 7 -3l154 -203z" />
    <glyph glyph-name="uni0417" unicode="&#x417;" horiz-adv-x="493" 
d="M239 -10c-128 0 -218 80 -218 207c0 4 4 8 10 8h112c5 0 10 -4 10 -8c2 -57 45 -81 88 -81c44 0 81 41 81 92c0 58 -38 89 -86 89h-51c-6 0 -10 4 -10 8v102c0 4 4 8 10 8h51c38 0 70 29 70 85c0 50 -31 84 -77 84c-47 0 -81 -31 -81 -73c0 -4 -4 -8 -9 -8h-105
c-6 0 -10 4 -10 8c0 115 82 199 205 199c124 0 211 -79 211 -211c0 -53 -24 -109 -73 -139c51 -31 91 -89 91 -152c0 -154 -106 -218 -219 -218z" />
    <glyph glyph-name="uni0418" unicode="&#x418;" horiz-adv-x="742" 
d="M74 8v684c0 4 4 8 9 8h116c6 0 10 -4 10 -8v-466c102 148 221 322 323 471c1 2 6 3 8 3h117c6 0 10 -4 10 -8v-684c0 -4 -4 -8 -10 -8h-116c-6 0 -10 4 -10 8v475l-322 -479c-1 -2 -6 -4 -8 -4h-118c-5 0 -9 4 -9 8z" />
    <glyph glyph-name="uni0419" unicode="&#x419;" horiz-adv-x="744" 
d="M74 8v684c0 4 4 8 9 8h116c6 0 10 -4 10 -8v-466c102 148 221 322 323 471c1 2 6 3 8 3h117c6 0 10 -4 10 -8v-684c0 -4 -4 -8 -10 -8h-116c-6 0 -10 4 -10 8v475l-322 -479c-1 -2 -6 -4 -8 -4h-118c-5 0 -9 4 -9 8zM440 893h89c5 0 9 -4 9 -8c0 -113 -70 -155 -154 -155
s-165 42 -165 155c0 4 4 8 9 8h89c5 0 10 -4 10 -8c1 -38 26 -57 51 -57s50 19 52 57c0 4 5 8 10 8z" />
    <glyph glyph-name="uni041A" unicode="&#x41a;" horiz-adv-x="646" 
d="M627 687l-279 -343l281 -331c6 -6 1 -13 -8 -13h-150c-2 0 -7 2 -8 3l-204 252c-17 -19 -35 -42 -54 -61v-186c0 -4 -4 -8 -9 -8h-115c-6 0 -10 4 -10 8v684c0 4 4 8 10 8h115c5 0 9 -4 9 -8v-318l263 323c1 1 6 3 8 3h143c9 0 14 -7 8 -13z" />
    <glyph glyph-name="uni041B" unicode="&#x41b;" horiz-adv-x="656" 
d="M10 3v113c0 5 5 9 11 8c14 -2 70 -10 70 54v286c0 146 88 236 232 236h243c6 0 10 -4 10 -8v-684c0 -4 -4 -8 -10 -8h-117c-6 0 -10 4 -10 8v566h-112c-67 0 -102 -38 -102 -110v-286c0 -59 -11 -198 -206 -183c-5 0 -9 4 -9 8z" />
    <glyph glyph-name="uni041C" unicode="&#x41c;" horiz-adv-x="1022" 
d="M596 701h124c3 0 8 -2 9 -5l286 -685c3 -6 -1 -11 -9 -11h-123c-3 0 -8 2 -9 5l-215 516l-81 -194c44 -105 87 -212 131 -316c3 -6 -1 -11 -9 -11h-123c-3 0 -8 3 -9 5l-63 148l-61 -148c-1 -3 -6 -5 -9 -5h-124c-8 0 -12 5 -9 11l132 316c-30 71 -51 122 -81 194
l-215 -516c-1 -3 -6 -5 -9 -5h-123c-8 0 -12 5 -9 11l285 685c1 3 6 5 9 5h123c3 0 8 -2 9 -5l82 -198l82 198c1 2 6 5 9 5z" />
    <glyph glyph-name="uni041D" unicode="&#x41d;" horiz-adv-x="681" 
d="M480 700h114c6 0 10 -4 10 -8v-684c0 -4 -4 -8 -10 -8h-114c-6 0 -10 4 -10 8v163h-265v-163c0 -4 -4 -8 -10 -8h-114c-6 0 -10 4 -10 8v684c0 4 4 8 10 8h114c6 0 10 -4 10 -8v-163h265v163c0 4 4 8 10 8zM205 301h265v98h-265v-98z" />
    <glyph glyph-name="uni041E" unicode="&#x41e;" horiz-adv-x="638" 
d="M313 186c-145 0 -264 118 -264 262c0 143 119 262 264 262s264 -119 264 -262c0 -144 -119 -262 -264 -262zM313 581c-72 0 -131 -59 -131 -133c0 -75 59 -133 131 -133c73 0 131 58 131 133c0 74 -58 133 -131 133zM546 121v-113c0 -4 -4 -8 -10 -8h-451
c-6 0 -10 4 -10 8v113c0 4 4 8 10 8h451c6 0 10 -4 10 -8z" />
    <glyph glyph-name="uni041F" unicode="&#x41f;" horiz-adv-x="686" 
d="M83 700h513c6 0 10 -4 10 -8v-684c0 -4 -4 -8 -10 -8h-114c-6 0 -10 4 -10 8v564h-265v-564c0 -4 -4 -8 -10 -8h-114c-6 0 -10 4 -10 8v684c0 4 4 8 10 8z" />
    <glyph glyph-name="uni0420" unicode="&#x420;" horiz-adv-x="583" 
d="M309 700c0 0 237 0 237 -207c0 -208 -237 -208 -237 -208h-104v-277c0 -4 -4 -8 -10 -8h-114c-6 0 -10 4 -10 8v399c0 4 4 8 10 8h93c-35 53 -69 109 -103 162v115c0 4 4 8 10 8h228zM309 570h-88l97 -154c36 0 95 20 95 77c0 77 -82 77 -104 77z" />
    <glyph glyph-name="uni0421" unicode="&#x421;" horiz-adv-x="687" 
d="M398 130c60 0 114 24 154 65c4 2 10 2 14 0l80 -82c4 -3 4 -8 0 -11c-62 -63 -150 -102 -248 -102c-195 0 -352 157 -352 350s157 350 352 350c98 0 186 -39 248 -103c4 -3 4 -8 0 -11l-80 -81c-4 -2 -10 -2 -14 0c-40 41 -94 65 -154 65c-120 0 -218 -98 -218 -220
s98 -220 218 -220zM493 350c0 55 -43 98 -96 98s-96 -43 -96 -98c0 -54 43 -98 96 -98s96 44 96 98z" />
    <glyph glyph-name="uni0422" unicode="&#x422;" horiz-adv-x="448" 
d="M430 686v-104c0 -4 -4 -7 -10 -7h-133v-567c0 -4 -3 -8 -9 -8h-113c-6 0 -9 4 -9 8v567h-133c-6 0 -10 3 -10 7v104c0 4 4 8 10 8h397c6 0 10 -4 10 -8z" />
    <glyph glyph-name="uni0423" unicode="&#x423;" horiz-adv-x="508" 
d="M9 700h131c4 0 8 -2 9 -5l105 -300l113 300c1 3 4 5 8 5h122c7 0 11 -5 8 -11l-266 -684c-1 -3 -4 -5 -8 -5h-118c-7 0 -11 5 -8 11l79 210l-184 468c-3 6 1 11 9 11z" />
    <glyph glyph-name="uni0424" unicode="&#x424;" horiz-adv-x="746" 
d="M424 -10h-115c-6 0 -10 4 -10 8v81c-182 4 -270 134 -270 266c0 133 91 268 270 272v75c0 4 4 8 10 8h115c5 0 9 -4 9 -8v-75c183 -4 275 -138 275 -271c0 -132 -90 -263 -275 -267v-81c0 -4 -4 -8 -9 -8zM433 498v-301c91 4 139 80 139 155c0 71 -44 142 -139 146z
M299 197v301c-96 -4 -140 -74 -140 -145c0 -75 49 -152 140 -156z" />
    <glyph glyph-name="uni0425" unicode="&#x425;" horiz-adv-x="674" 
d="M13 13l240 337c-80 111 -160 226 -240 337c-5 6 -1 13 7 13h140c2 0 7 -1 8 -3l167 -233l166 233c1 2 6 3 8 3h140c9 0 13 -7 8 -13l-241 -337c81 -111 161 -226 241 -337c5 -6 1 -13 -8 -13h-140c-2 0 -7 1 -8 3l-166 233l-167 -233c-1 -2 -6 -3 -8 -3h-140
c-8 0 -12 7 -7 13z" />
    <glyph glyph-name="uni0426" unicode="&#x426;" horiz-adv-x="700" 
d="M547 0h-465c-5 0 -9 4 -9 8v684c0 4 4 8 9 8h115c6 0 10 -4 10 -8v-564h265v564c0 4 3 8 9 8h115c6 0 9 -4 9 -8v-572h58c6 0 10 -4 10 -8v-211c0 -4 -4 -8 -10 -8h-106c-6 0 -10 4 -10 8v99z" />
    <glyph glyph-name="uni0427" unicode="&#x427;" horiz-adv-x="634" 
d="M546 0h-114c-6 0 -10 4 -10 8v254c-38 -21 -81 -32 -131 -32c-141 0 -246 94 -246 236v226c0 4 4 8 10 8h115c5 0 9 -4 9 -8v-225c9 -71 66 -109 128 -109c39 0 84 15 115 41v293c0 4 4 8 10 8h114c6 0 10 -4 10 -8v-684c0 -4 -4 -8 -10 -8z" />
    <glyph glyph-name="uni0428" unicode="&#x428;" horiz-adv-x="1010" 
d="M916 0h-832c-6 0 -10 4 -10 8v684c0 4 4 8 10 8h114c6 0 10 -4 10 -8v-564h226v564c0 4 4 8 10 8h112c6 0 10 -4 10 -8v-564h226v564c0 4 4 8 9 8h115c6 0 10 -4 10 -8v-684c0 -4 -4 -8 -10 -8z" />
    <glyph glyph-name="uni0429" unicode="&#x429;" horiz-adv-x="1026" 
d="M867 0h-783c-6 0 -10 4 -10 8v684c0 4 4 8 10 8h115c5 0 9 -4 9 -8v-564h226v564c0 4 4 8 10 8h112c6 0 10 -4 10 -8v-564h226v564c0 4 4 8 10 8h114c6 0 10 -4 10 -8v-572h58c6 0 9 -4 9 -8v-211c0 -4 -3 -8 -9 -8h-107c-6 0 -10 4 -10 8v99z" />
    <glyph glyph-name="uni042A" unicode="&#x42a;" horiz-adv-x="624" 
d="M358 288h-104v-158h104c15 0 105 0 105 78s-82 80 -105 80zM358 0h-228c-6 0 -10 4 -10 8v574h-110c-6 0 -10 4 -10 8v102c0 4 4 8 10 8h234c6 0 10 -4 10 -8v-276h104c24 0 241 0 241 -208s-227 -208 -241 -208z" />
    <glyph glyph-name="uni042B" unicode="&#x42b;" horiz-adv-x="848" 
d="M311 0h-229c-6 0 -10 4 -10 8v684c0 4 4 8 10 8h114c6 0 10 -4 10 -8v-276h105c23 0 240 0 240 -208s-227 -208 -240 -208zM311 288h-105v-158h105c14 0 104 0 104 78s-82 80 -104 80zM766 692v-684c0 -4 -4 -8 -9 -8h-115c-6 0 -10 4 -10 8v684c0 4 4 8 10 8h115
c5 0 9 -4 9 -8z" />
    <glyph glyph-name="uni042C" unicode="&#x42c;" horiz-adv-x="580" 
d="M310 0h-229c-6 0 -10 4 -10 8v684c0 4 4 8 10 8h114c6 0 10 -4 10 -8v-276h105c23 0 240 0 240 -208s-227 -208 -240 -208zM310 288h-105v-158h105c14 0 104 0 104 78s-82 80 -104 80z" />
    <glyph glyph-name="uni042D" unicode="&#x42d;" horiz-adv-x="694" 
d="M297 121c100 0 183 73 208 167h-273c-6 0 -10 4 -10 8v112c0 4 4 8 10 8h276c-26 103 -111 164 -211 164c-59 0 -114 -25 -154 -65c-4 -3 -10 -3 -14 0l-80 80c-4 3 -4 9 0 12c62 64 150 103 248 103c195 0 352 -143 352 -360c0 -205 -157 -359 -352 -359
c-98 0 -186 39 -248 102c-4 3 -4 9 0 12l80 81c4 3 10 3 14 0c40 -40 95 -65 154 -65z" />
    <glyph glyph-name="uni042E" unicode="&#x42e;" horiz-adv-x="1006" 
d="M622 709c225 0 337 -180 337 -359s-112 -358 -337 -358c-197 0 -299 140 -325 293h-88v-277c0 -4 -4 -8 -10 -8h-114c-6 0 -10 4 -10 8v684c0 4 4 8 10 8h114c6 0 10 -4 10 -8v-276h88c26 154 128 293 325 293zM622 118c134 0 201 116 201 232c0 115 -67 232 -201 232
c-132 0 -199 -116 -199 -232c0 -115 67 -232 199 -232z" />
    <glyph glyph-name="uni042F" unicode="&#x42f;" horiz-adv-x="618" 
d="M171 0h-134c-7 0 -12 6 -7 12l180 288c-68 21 -147 70 -147 193c0 207 238 207 238 207h228c6 0 10 -4 10 -8v-115l-103 -162h93c6 0 10 -4 10 -8v-399c0 -4 -4 -8 -10 -8h-114c-6 0 -10 4 -10 8v277h-49l-176 -281c-1 -2 -6 -4 -9 -4zM282 416l97 154h-78
s-104 0 -104 -77c0 -57 55 -73 85 -77z" />
    <glyph glyph-name="uni0430" unicode="&#x430;" 
d="M418 5l-29 74h-227l-27 -74c-1 -3 -5 -5 -9 -5h-123c-8 0 -12 5 -9 11l273 704c3 7 15 7 18 0l273 -704c3 -6 -1 -11 -8 -11h-124c-3 0 -7 2 -8 5zM276 407l-71 -210h141z" />
    <glyph glyph-name="uni0431" unicode="&#x431;" horiz-adv-x="603" 
d="M307 421c169 0 245 -80 245 -208c0 -193 -197 -213 -245 -213h-226c-5 0 -9 4 -9 8v684c0 4 4 8 9 8h421c6 0 10 -4 10 -8v-109c0 -4 -4 -8 -10 -8h-298v-154h103zM307 128c44 0 113 13 113 85c0 71 -66 83 -113 83h-103v-168h103z" />
    <glyph glyph-name="uni0432" unicode="&#x432;" horiz-adv-x="603" 
d="M546 500c0 -82 -44 -128 -97 -150c111 -38 107 -146 107 -146c0 -195 -200 -204 -247 -204h-228c-6 0 -10 4 -10 8v684c0 4 4 8 10 8h228s237 5 237 -200zM204 575v-160h105s103 0 103 77c0 84 -103 83 -103 83h-105zM309 128c44 0 113 12 113 79c0 83 -113 77 -113 77
h-105v-156h105z" />
    <glyph glyph-name="uni0433" unicode="&#x433;" horiz-adv-x="548" 
d="M203 575v-567c0 -4 -4 -8 -9 -8h-113c-6 0 -10 4 -10 8v684c0 4 4 8 10 8h421c5 0 9 -4 9 -8v-109c0 -4 -4 -8 -9 -8h-299z" />
    <glyph glyph-name="uni0434" unicode="&#x434;" horiz-adv-x="617" 
d="M488 0h-366v-96c0 -4 -4 -8 -10 -8h-104c-6 0 -10 4 -10 8v205c0 4 4 8 10 8h58c75 197 154 398 229 594c3 7 15 7 18 0l230 -594h59c6 0 9 -4 9 -8v-205c0 -4 -3 -8 -9 -8h-104c-6 0 -10 4 -10 8v96zM304 392l-99 -275h199c-36 100 -64 175 -100 275z" />
    <glyph glyph-name="uni0435" unicode="&#x435;" horiz-adv-x="588" 
d="M534 573h-330v-162h273c6 0 9 -4 9 -8v-109c0 -4 -3 -8 -9 -8h-273v-160h330c6 0 10 -4 10 -8v-110c0 -4 -4 -8 -10 -8h-453c-5 0 -9 4 -9 8v684c0 4 4 8 9 8h453c6 0 10 -4 10 -8v-111c0 -4 -4 -8 -10 -8z" />
    <glyph glyph-name="uni0436" unicode="&#x436;" horiz-adv-x="875" 
d="M362 403v289c0 4 4 8 10 8h113c6 0 10 -4 10 -8v-293c19 31 39 69 58 99l149 199c1 1 6 3 8 3h137c9 0 12 -7 8 -13l-237 -320l241 -354c5 -6 1 -13 -7 -13h-141c-2 0 -7 2 -8 4l-175 261c-12 -16 -20 -30 -33 -45v-212c0 -4 -4 -8 -10 -8h-113c-6 0 -10 4 -10 8v213
c-13 18 -21 26 -35 45c-57 -88 -116 -175 -173 -262c-1 -2 -6 -4 -8 -4h-140c-9 0 -13 7 -8 13l241 354l-236 320c-5 6 -1 13 8 13h136c2 0 7 -2 8 -3l152 -202z" />
    <glyph glyph-name="uni0437" unicode="&#x437;" horiz-adv-x="500" 
d="M242 -10c-129 0 -220 81 -220 207c0 4 4 7 10 7h113c5 0 10 -3 10 -7c2 -57 46 -81 89 -81c45 0 83 41 83 92c0 58 -39 89 -88 89h-52c-6 0 -10 3 -10 7v102c0 4 4 8 10 8h52c38 0 70 29 70 85c0 51 -30 83 -77 83c-48 0 -82 -30 -82 -71c0 -4 -4 -8 -10 -8h-105
c-6 0 -10 4 -10 8c0 113 83 197 207 197c125 0 213 -79 213 -210c0 -53 -24 -108 -74 -138c52 -31 92 -90 92 -152c0 -155 -107 -218 -221 -218z" />
    <glyph glyph-name="uni0438" unicode="&#x438;" horiz-adv-x="744" 
d="M75 8v684c0 4 3 8 9 8h115c5 0 9 -4 9 -8v-468c102 147 220 326 321 473c1 2 6 3 8 3h116c6 0 10 -4 10 -8v-684c0 -4 -4 -8 -10 -8h-115c-6 0 -10 4 -10 8v477l-320 -481c-1 -2 -5 -4 -7 -4h-117c-6 0 -9 4 -9 8z" />
    <glyph glyph-name="uni0439" unicode="&#x439;" horiz-adv-x="747" 
d="M75 8v684c0 4 3 8 9 8h115c5 0 9 -4 9 -8v-468c102 147 220 326 321 473c1 2 6 3 8 3h116c6 0 10 -4 10 -8v-684c0 -4 -4 -8 -10 -8h-115c-6 0 -10 4 -10 8v477l-320 -481c-1 -2 -5 -4 -7 -4h-117c-6 0 -9 4 -9 8zM439 891h89c5 0 9 -4 9 -8c0 -113 -70 -155 -154 -155
s-165 42 -165 155c0 4 4 8 9 8h89c5 0 10 -4 10 -8c1 -38 26 -57 51 -57s50 19 52 57c0 4 5 8 10 8z" />
    <glyph glyph-name="uni043A" unicode="&#x43a;" horiz-adv-x="646" 
d="M626 687l-278 -343l280 -331c6 -6 1 -13 -8 -13h-149c-2 0 -7 2 -8 3l-204 252c-17 -19 -34 -42 -53 -61v-186c0 -4 -4 -8 -10 -8h-114c-6 0 -10 4 -10 8v684c0 4 4 8 10 8h114c6 0 10 -4 10 -8v-324l262 329c1 1 6 3 8 3h142c9 0 14 -7 8 -13z" />
    <glyph glyph-name="uni043B" unicode="&#x43b;" 
d="M415 5l-140 388l-140 -388c-1 -3 -5 -5 -9 -5h-122c-7 0 -11 5 -8 11l270 699c3 7 14 7 17 0l272 -699c3 -6 -1 -11 -9 -11h-122c-4 0 -8 2 -9 5z" />
    <glyph glyph-name="uni043C" unicode="&#x43c;" horiz-adv-x="916" 
d="M828 692v-684c0 -4 -4 -8 -10 -8h-113c-6 0 -10 4 -10 8v394l-176 -370c-1 -2 -6 -5 -9 -5h-107c-3 0 -7 3 -8 5l-189 378v-402c0 -4 -4 -8 -10 -8h-113c-6 0 -10 4 -10 8v684c0 4 4 8 10 8h115c3 0 8 -3 9 -5l249 -515l238 515c1 2 6 5 9 5h115c6 0 10 -4 10 -8z" />
    <glyph glyph-name="uni043D" unicode="&#x43d;" horiz-adv-x="686" 
d="M482 700h114c6 0 10 -4 10 -8v-684c0 -4 -4 -8 -10 -8h-114c-6 0 -10 4 -10 8v277h-265v-277c0 -4 -4 -8 -10 -8h-114c-6 0 -10 4 -10 8v684c0 4 4 8 10 8h114c6 0 10 -4 10 -8v-276h265v276c0 4 4 8 10 8z" />
    <glyph glyph-name="uni043E" unicode="&#x43e;" horiz-adv-x="797" 
d="M393 710c229 0 345 -180 345 -359s-116 -360 -345 -360c-233 0 -347 181 -347 360s114 359 347 359zM393 117c139 0 210 116 210 232c0 117 -71 234 -210 234c-141 0 -211 -117 -211 -234c0 -116 70 -232 211 -232z" />
    <glyph glyph-name="uni043F" unicode="&#x43f;" horiz-adv-x="686" 
d="M84 700h509c5 0 9 -4 9 -8v-684c0 -4 -4 -8 -9 -8h-114c-6 0 -10 4 -10 8v564h-262v-564c0 -4 -4 -8 -10 -8h-113c-6 0 -10 4 -10 8v684c0 4 4 8 10 8z" />
    <glyph glyph-name="uni0440" unicode="&#x440;" horiz-adv-x="580" 
d="M308 700c28 0 237 -4 237 -211c0 -206 -220 -208 -237 -208h-104v-275c0 -4 -3 -8 -9 -8h-114c-5 0 -9 4 -9 8v686c0 4 4 8 9 8h227zM308 410c18 0 104 2 104 79c0 78 -88 82 -104 82h-104v-161h104z" />
    <glyph glyph-name="uni0441" unicode="&#x441;" horiz-adv-x="694" 
d="M399 119c59 0 113 24 153 64c4 3 10 3 14 0l79 -80c4 -3 4 -9 0 -12c-62 -62 -149 -101 -246 -101c-192 0 -350 139 -350 357c0 209 145 363 350 363c97 0 184 -38 246 -101c4 -3 4 -9 0 -12l-79 -79c-4 -3 -10 -3 -14 0c-40 39 -94 64 -153 64
c-134 0 -215 -103 -215 -235c0 -141 96 -228 215 -228z" />
    <glyph glyph-name="uni0442" unicode="&#x442;" horiz-adv-x="448" 
d="M430 686v-104c0 -4 -4 -7 -10 -7h-133v-567c0 -4 -3 -8 -9 -8h-113c-6 0 -9 4 -9 8v567h-133c-6 0 -10 3 -10 7v104c0 4 4 8 10 8h397c6 0 10 -4 10 -8z" />
    <glyph glyph-name="uni0443" unicode="&#x443;" horiz-adv-x="511" 
d="M10 700h130c3 0 7 -2 8 -5l105 -304l111 304c1 3 5 5 9 5h120c8 0 12 -5 9 -11l-264 -684c-1 -3 -4 -5 -8 -5h-117c-6 0 -11 5 -8 11l78 208l-182 470c-3 6 1 11 9 11z" />
    <glyph glyph-name="uni0444" unicode="&#x444;" horiz-adv-x="746" 
d="M421 -10h-113c-6 0 -10 4 -10 8v80c-181 4 -268 133 -268 264c0 132 90 272 268 275v75c0 4 4 8 10 8h113c6 0 10 -4 10 -8v-75c181 -3 272 -142 272 -274c0 -131 -89 -261 -272 -265v-80c0 -4 -4 -8 -10 -8zM431 499v-304c90 5 138 79 138 154c0 71 -44 146 -138 150z
M298 195v304c-96 -4 -139 -78 -139 -149c0 -75 48 -150 139 -155z" />
    <glyph glyph-name="uni0445" unicode="&#x445;" horiz-adv-x="674" 
d="M14 13l238 334c-79 110 -159 230 -238 340c-5 6 -1 13 8 13h138c2 0 7 -1 8 -3l166 -237l164 237c1 2 6 3 8 3h139c8 0 12 -7 8 -13l-239 -340c80 -111 159 -224 239 -334c4 -6 0 -13 -8 -13h-139c-2 0 -7 1 -8 3l-164 231l-166 -231c-1 -2 -6 -3 -8 -3h-138
c-9 0 -13 7 -8 13z" />
    <glyph glyph-name="uni0446" unicode="&#x446;" horiz-adv-x="700" 
d="M544 0h-461c-5 0 -9 4 -9 8v684c0 4 4 8 9 8h114c6 0 9 -4 9 -8v-565h263v565c0 4 4 8 10 8h113c6 0 10 -4 10 -8v-573h57c6 0 10 -4 10 -8v-209c0 -4 -4 -8 -10 -8h-106c-5 0 -9 4 -9 8v98z" />
    <glyph glyph-name="uni0447" unicode="&#x447;" horiz-adv-x="634" 
d="M543 0h-114c-6 0 -10 4 -10 8v252c-37 -21 -80 -32 -129 -32c-140 0 -244 93 -244 234v230c0 4 4 8 10 8h113c6 0 10 -4 10 -8v-229c9 -71 65 -108 127 -108c38 0 82 15 113 40v297c0 4 4 8 10 8h114c5 0 9 -4 9 -8v-684c0 -4 -4 -8 -9 -8z" />
    <glyph glyph-name="uni0448" unicode="&#x448;" horiz-adv-x="1011" 
d="M910 0h-825c-5 0 -9 4 -9 8v684c0 4 4 8 9 8h114c6 0 9 -4 9 -8v-565h224v565c0 4 4 8 10 8h111c6 0 10 -4 10 -8v-565h224v565c0 4 4 8 10 8h113c6 0 10 -4 10 -8v-684c0 -4 -4 -8 -10 -8z" />
    <glyph glyph-name="uni0449" unicode="&#x449;" horiz-adv-x="1026" 
d="M862 0h-776c-6 0 -10 4 -10 8v684c0 4 4 8 10 8h113c6 0 10 -4 10 -8v-565h224v565c0 4 4 8 9 8h112c6 0 10 -4 10 -8v-565h223v565c0 4 4 8 10 8h114c5 0 9 -4 9 -8v-573h57c6 0 10 -4 10 -8v-209c0 -4 -4 -8 -10 -8h-105c-6 0 -10 4 -10 8v98z" />
    <glyph glyph-name="uni044A" unicode="&#x44a;" horiz-adv-x="624" 
d="M356 286h-103v-157h103c15 0 104 0 104 77c0 78 -81 80 -104 80zM356 0h-226c-6 0 -10 4 -10 8v575h-109c-5 0 -9 3 -9 7v102c0 4 4 8 9 8h232c6 0 10 -4 10 -8v-279h103c24 0 239 0 239 -207c0 -206 -225 -206 -239 -206z" />
    <glyph glyph-name="uni044B" unicode="&#x44b;" horiz-adv-x="848" 
d="M310 0h-227c-6 0 -10 4 -10 8v684c0 4 4 8 10 8h113c6 0 10 -4 10 -8v-279h104c23 0 238 0 238 -207c0 -206 -225 -206 -238 -206zM310 286h-104v-157h104c14 0 104 0 104 77c0 78 -82 80 -104 80zM761 692v-684c0 -4 -3 -8 -9 -8h-114c-5 0 -9 4 -9 8v684c0 4 4 8 9 8
h114c6 0 9 -4 9 -8z" />
    <glyph glyph-name="uni044C" unicode="&#x44c;" horiz-adv-x="580" 
d="M308 0h-227c-5 0 -9 4 -9 8v684c0 4 4 8 9 8h114c6 0 9 -4 9 -8v-279h104c23 0 239 0 239 -207c0 -206 -225 -206 -239 -206zM308 286h-104v-157h104c15 0 104 0 104 77c0 78 -82 80 -104 80z" />
    <glyph glyph-name="uni044D" unicode="&#x44d;" horiz-adv-x="694" 
d="M296 120c99 0 181 72 207 166h-272c-6 0 -9 4 -9 8v110c0 4 3 8 9 8h274c-26 103 -110 168 -209 168c-59 0 -113 -25 -153 -64c-4 -3 -10 -3 -14 0l-79 79c-4 3 -4 9 0 12c62 63 149 101 246 101c193 0 349 -146 349 -361c0 -204 -156 -356 -349 -356
c-97 0 -184 39 -246 101c-4 3 -4 9 0 12l79 80c4 3 10 3 14 0c40 -40 94 -64 153 -64z" />
    <glyph glyph-name="uni044E" unicode="&#x44e;" horiz-adv-x="993" 
d="M611 710c223 0 334 -186 334 -363s-111 -355 -334 -355c-195 0 -295 139 -320 291h-82v-275c0 -4 -4 -8 -10 -8h-113c-6 0 -10 4 -10 8v685c0 4 4 8 10 8h113c6 0 10 -4 10 -8v-280h82c25 152 125 297 320 297zM611 117c133 0 199 115 199 230c0 114 -66 237 -199 237
c-131 0 -195 -122 -195 -237c0 -114 64 -230 195 -230z" />
    <glyph glyph-name="uni044F" unicode="&#x44f;" horiz-adv-x="593" 
d="M304 283l-128 -278c-1 -2 -6 -5 -9 -5h-125c-8 0 -12 5 -9 11l136 293c-61 25 -129 77 -129 184c0 206 189 212 237 212h225c6 0 10 -4 10 -8v-684c0 -4 -4 -8 -10 -8h-113c-6 0 -10 4 -10 8v275h-75zM379 397v177h-102c-24 0 -104 -9 -104 -86s69 -91 104 -91h102z" />
    </font>
</defs>
</svg>
