<?xml version="1.0" standalone="no"?>
<!DOCTYPE svg PUBLIC "-//W3C//DTD SVG 1.1//EN" "http://www.w3.org/Graphics/SVG/1.1/DTD/svg11.dtd" >
<svg xmlns="http://www.w3.org/2000/svg" xmlns:xlink="http://www.w3.org/1999/xlink" version="1.1">
<metadata>
Created by FontForge 20141024 at Thu Dec 10 12:46:05 2015
 By Jimmy Warting
Copyright \(c\) 2013 by Frank Hemmekam. All rights reserved.
</metadata>
<defs>
<font id="BaronNeueBoldItalic" horiz-adv-x="559" >
  <font-face 
    font-family="Baron Neue Bold Italic"
    font-weight="700"
    font-style="italic"
    font-stretch="normal"
    units-per-em="1000"
    panose-1="0 0 5 0 0 0 0 0 0 0"
    ascent="750"
    descent="-250"
    x-height="694"
    cap-height="700"
    bbox="-170.096 -241 1014.64 985"
    underline-thickness="50"
    underline-position="-50"
    stemh="117"
    stemv="88"
    unicode-range="U+0020-25CA"
  />
<missing-glyph horiz-adv-x="440" 
 />
    <glyph glyph-name=".notdef" horiz-adv-x="440" 
 />
    <glyph glyph-name="Y.alt" horiz-adv-x="641" 
d="M-1 700h627c9 0 18 -10 14 -16l-333 -354l-71 -325c-1 -4 0 -4 -6 -4h-113c-6 0 -13 8 -12 12l69 317l-177 360c-4 6 -7 10 2 10zM190 599l70 -149l139 149h-209z" />
    <glyph glyph-name="W.alt" horiz-adv-x="997" 
d="M1 700l977 -1c8 0 16 -9 13 -15l-425 -703c-4 -6 -15 1 -15 7l-93 528l-321 -535c-4 -6 -17 1 -15 7l-125 704c-1 6 -4 8 4 8zM783 578h-201l39 -277zM353 574h-205l43 -274z" />
    <glyph glyph-name="exclam" unicode="!" horiz-adv-x="276" 
d="M74 700h114c6 0 13 -8 12 -12l-103 -485c0 -4 1 -4 -5 -4h-114c-6 0 -14 8 -13 12l103 485c1 4 0 4 6 4zM6 138c48 0 77 -38 69 -80c-8 -37 -42 -66 -80 -66c-45 0 -77 37 -67 80c7 36 43 66 78 66z" />
    <glyph glyph-name="period" unicode="." horiz-adv-x="180" 
d="M-44 133c46 0 75 -36 66 -77c-7 -35 -39 -62 -75 -62c-43 0 -73 35 -64 76c8 35 40 63 73 63z" />
    <glyph glyph-name="question" unicode="?" horiz-adv-x="490" 
d="M222 710c127 0 210 -78 179 -221c-17 -83 -103 -155 -192 -179l-30 -117c0 -3 1 -3 -5 -3h-103c-6 0 -14 8 -13 11l44 207c1 5 1 4 2 4c112 -7 157 50 166 91c14 64 -19 77 -56 77c-47 0 -92 -29 -101 -74c0 -1 1 -1 -5 -1h-113c-6 0 -14 8 -12 15
c24 112 128 190 239 190zM20 74c9 44 47 65 80 65c43 0 79 -28 68 -79c-9 -43 -47 -64 -81 -64c-42 0 -78 28 -67 78z" />
    <glyph glyph-name="bracketright" unicode="]" horiz-adv-x="352" 
d="M275 688l-145 -684c-1 -4 1 -4 -5 -4h-228c-6 0 -13 8 -12 12l24 114c1 4 0 4 6 4h109l93 440h-99c-6 0 -13 8 -12 12l24 114c1 4 0 4 6 4h228c6 0 12 -8 11 -12z" />
    <glyph glyph-name="bracketleft" unicode="[" horiz-adv-x="344" 
d="M73 700h228c6 0 13 -8 12 -12l-24 -114c-1 -4 0 -4 -6 -4h-108l-93 -440h98c6 0 13 -8 12 -12l-24 -114c-1 -4 0 -4 -6 -4h-228c-5 0 -12 8 -11 12l145 684c1 4 0 4 5 4z" />
    <glyph glyph-name="eight" unicode="8" horiz-adv-x="487" 
d="M404 490c-11 -52 -47 -109 -103 -144c33 -35 53 -93 41 -150c-30 -139 -145 -206 -245 -206c-109 0 -203 75 -172 220c11 51 49 109 100 146c-29 32 -50 91 -38 148c29 137 144 205 243 205c110 0 205 -76 174 -219zM112 490c-9 -44 15 -77 55 -77c50 0 101 41 111 91
c12 56 -18 82 -54 82c-46 0 -98 -34 -112 -96zM53 196c-12 -55 17 -80 51 -80c44 0 96 33 109 94c9 42 -14 78 -53 78c-48 0 -97 -44 -107 -92z" />
    <glyph glyph-name="three" unicode="3" horiz-adv-x="493" 
d="M240 574h-208c-6 0 -13 8 -12 12l23 110c1 4 0 4 6 4h402c8 0 18 -9 14 -15l-211 -258c87 -27 126 -111 102 -226c-32 -151 -151 -211 -261 -211c-120 0 -207 84 -179 214c0 1 -1 1 5 1h113c5 0 12 -8 11 -15c-10 -45 21 -71 58 -71c65 0 112 53 123 104
c12 58 -12 97 -68 102h-94c-8 0 -18 9 -14 15z" />
    <glyph glyph-name="seven" unicode="7" horiz-adv-x="436" 
d="M225 574h-227c-6 0 -13 8 -12 12l23 110c1 4 0 4 6 4h409c7 0 16 -9 13 -15l-403 -683c-2 -3 -2 -2 -6 -2h-122c-6 0 -15 9 -12 15z" />
    <glyph glyph-name="nine" unicode="9" horiz-adv-x="486" 
d="M225 708c130 0 194 -100 170 -217c-4 -19 -11 -42 -23 -69l-237 -420c-2 -3 -3 -2 -7 -2h-121c-7 0 -14 9 -13 15l169 282c-10 -3 -20 -2 -31 -2c-119 0 -172 105 -149 213c24 111 133 200 242 200zM162 418c48 0 100 41 110 91c10 43 -15 76 -54 76
c-50 0 -100 -41 -111 -90c-9 -43 15 -77 55 -77z" />
    <glyph glyph-name="six" unicode="6" horiz-adv-x="472" 
d="M88 -8c-129 0 -194 100 -169 217c4 21 11 44 21 68l239 421c1 3 1 2 5 2h122c6 0 14 -9 12 -15l-168 -282c10 3 20 2 31 2c119 0 172 -105 149 -213c-24 -111 -132 -200 -242 -200zM151 284c-49 0 -102 -43 -112 -93c-10 -44 15 -78 55 -78c51 0 103 42 114 92
c9 44 -16 79 -57 79z" />
    <glyph glyph-name="zero" unicode="0" horiz-adv-x="565" 
d="M446 504l-67 -316c-28 -134 -142 -198 -241 -198c-110 0 -204 72 -175 206l67 316c28 133 141 198 241 198c109 0 204 -73 175 -206zM246 191l70 329c11 51 -18 72 -50 72c-43 0 -91 -29 -102 -80l-70 -329c-11 -51 18 -73 50 -73c43 0 91 30 102 81z" />
    <glyph glyph-name="bar" unicode="|" horiz-adv-x="281" 
d="M67 700h114c6 0 13 -8 12 -12l-145 -684c-1 -4 0 -4 -6 -4h-114c-6 0 -13 8 -12 12l145 684c1 4 0 4 6 4z" />
    <glyph glyph-name="five" unicode="5" horiz-adv-x="501" 
d="M104 -7c-121 0 -203 76 -174 214c0 1 -1 1 5 1h113c6 0 14 -8 12 -15c-10 -50 14 -71 51 -71c61 0 107 50 118 101c12 57 -1 99 -59 103h-194c-6 0 -14 8 -13 12l76 358c1 4 0 4 6 4h367c6 0 13 -8 12 -12l-22 -106c-1 -4 0 -4 -6 -4h-248l-29 -135h65
c152 0 204 -97 173 -241c-28 -133 -143 -209 -253 -209z" />
    <glyph glyph-name="four" unicode="4" horiz-adv-x="515" 
d="M437 688l-145 -684c-1 -4 0 -4 -6 -4h-114c-5 0 -12 8 -11 12l41 195h-268c-6 0 -13 8 -12 12l20 106l364 375c1 1 3 0 5 0h114c6 0 13 -8 12 -12zM228 323l42 190l-191 -190h149z" />
    <glyph glyph-name="two" unicode="2" horiz-adv-x="490" 
d="M229 709c109 0 194 -81 170 -192c-8 -39 -31 -85 -73 -132l-252 -255h237c6 0 13 -8 12 -12l-24 -114c-1 -4 0 -4 -6 -4h-399c-6 0 -13 8 -12 12l19 101l319 344c22 23 37 45 42 67c7 33 -11 55 -41 55c-41 0 -90 -26 -102 -82h-5h-107c-6 0 -13 8 -12 14
c23 111 100 198 234 198z" />
    <glyph glyph-name="one" unicode="1" horiz-adv-x="332" 
d="M257 688l-145 -684c-1 -4 1 -4 -5 -4h-115c-6 0 -12 8 -11 12l119 537c-33 -10 -66 -23 -92 -34c-9 0 -18 7 -17 11l-21 81c-1 4 -5 7 -1 9l181 84h96c6 0 12 -8 11 -12z" />
    <glyph glyph-name="braceright" unicode="}" horiz-adv-x="360" 
d="M154 283l-60 -279c-1 -4 0 -4 -6 -4h-191c-6 0 -12 8 -11 12l24 114c1 4 -1 4 5 4h72l93 440h-62c-6 0 -12 8 -11 12l24 114c1 4 -1 4 5 4h191c6 0 13 -8 12 -12l-62 -273c37 -20 72 -41 103 -61c12 -1 21 -9 12 -12z" />
    <glyph glyph-name="braceleft" unicode="{" horiz-adv-x="346" 
d="M43 417l60 279c1 4 0 4 6 4h191c6 0 12 -8 11 -12l-24 -114c-1 -4 1 -4 -5 -4h-72l-93 -440h62c6 0 12 -8 11 -12l-24 -114c-1 -4 1 -4 -5 -4h-191c-6 0 -13 8 -12 12l62 273c-37 20 -71 41 -103 61c-12 1 -20 9 -12 12z" />
    <glyph glyph-name="ampersand" unicode="&#x26;" horiz-adv-x="653" 
d="M497 80l-98 -80c-4 -3 -9 2 -12 5l-60 67c-60 -54 -130 -80 -193 -80c-93 0 -157 39 -185 102c-46 96 -10 218 101 306c-29 30 -39 83 -28 133c20 95 113 172 206 172c106 0 173 -85 152 -186c-13 -57 -56 -111 -110 -145l66 -92l29 124c0 4 -1 4 5 4h172
c6 0 14 -8 13 -12l-20 -93c-1 -4 0 -4 -6 -4h-81l-13 -64c-4 -19 -9 -30 -15 -44l-3 2l77 -103c2 -3 6 -9 3 -12zM223 588c-38 0 -76 -32 -83 -69c-7 -31 9 -56 37 -56c39 0 77 33 85 70c6 31 -10 55 -39 55zM254 169l-119 147c-105 -71 -98 -193 11 -193c38 0 76 17 108 46
z" />
    <glyph glyph-name="percent" unicode="%" horiz-adv-x="664" 
d="M114 413c-87 0 -146 71 -128 155c17 79 94 142 171 142c87 0 146 -71 128 -156c-17 -78 -94 -141 -171 -141zM-31 2h-108c-9 0 -18 10 -14 16l677 682c1 1 4 0 6 0h108c9 0 18 -10 14 -16l-677 -682c-2 -1 -4 0 -6 0zM158 619c-35 0 -71 -29 -79 -65
c-6 -29 10 -49 35 -49c35 0 71 28 78 63c6 30 -9 51 -34 51zM347 -9c-89 0 -147 71 -128 157c17 80 93 143 172 143c90 0 147 -71 129 -157c-17 -80 -93 -143 -173 -143zM391 198c-36 0 -71 -29 -78 -64c-6 -29 8 -50 34 -50c35 0 72 29 80 64c6 29 -11 50 -36 50z" />
    <glyph glyph-name="dollar" unicode="$" horiz-adv-x="543" 
d="M345 774l-21 -74c87 -23 141 -100 121 -202c0 -2 1 -2 -5 -2h-112c-5 0 -14 8 -12 16c8 47 -22 67 -63 67c-54 0 -106 -32 -119 -95c-10 -48 23 -71 64 -71c10 0 60 -2 99 -26c74 -35 103 -109 85 -195c-23 -109 -104 -175 -198 -196l-21 -75c0 -3 1 -3 -5 -3h-95
c-6 0 -14 8 -13 11l20 69c-92 19 -152 90 -128 206c0 1 -1 0 5 0h113c5 0 13 -7 12 -14c-9 -49 23 -70 64 -70c52 0 106 34 117 86c11 50 -27 79 -62 81c-11 0 -60 2 -101 26c-72 34 -104 99 -86 185c23 110 109 183 205 204l22 80c1 4 0 4 6 4h95c6 0 14 -8 13 -12z" />
    <glyph glyph-name="colon" unicode=":" horiz-adv-x="180" 
d="M17 418c46 0 74 -36 66 -77c-8 -35 -39 -62 -75 -62c-43 0 -73 35 -64 76c7 35 40 63 73 63zM-44 133c46 0 75 -36 66 -77c-7 -35 -39 -62 -75 -62c-43 0 -73 35 -64 76c8 35 40 63 73 63z" />
    <glyph glyph-name="semicolon" unicode=";" horiz-adv-x="181" 
d="M17 418c46 0 74 -36 66 -77c-8 -35 -39 -62 -75 -62c-43 0 -73 35 -64 76c7 35 40 63 73 63zM-50 129c62 0 80 -39 71 -84c-11 -49 -54 -113 -96 -140c-11 -2 -21 8 -20 15l21 72c-34 4 -57 38 -49 76c7 34 40 61 73 61z" />
    <glyph glyph-name="comma" unicode="," horiz-adv-x="186" 
d="M-50 129c62 0 80 -39 71 -84c-11 -49 -54 -113 -96 -140c-11 -2 -21 8 -20 15l21 72c-34 4 -57 38 -49 76c7 34 40 61 73 61z" />
    <glyph glyph-name="asciitilde" unicode="~" horiz-adv-x="464" 
d="M33 258l-88 26c-5 1 -13 7 -11 14c28 76 81 107 141 107c36 0 69 -10 101 -26l-1 -1c0 -1 11 1 7 0c6 -4 19 -10 27 -10c17 0 35 10 47 34c2 -1 6 -2 10 -3l89 -27c5 0 13 -9 11 -16c-42 -77 -87 -103 -139 -103c-35 0 -68 9 -100 24l-15 6c-13 4 -24 9 -30 9
c-15 0 -29 -12 -38 -36c-3 0 -6 1 -11 2z" />
    <glyph glyph-name="OE" unicode="&#x152;" horiz-adv-x="946" 
d="M529 415h221c6 0 14 -8 13 -12l-23 -109c-1 -4 0 -4 -6 -4h-231l-35 -162h278c6 0 14 -8 13 -12l-24 -112c-1 -4 0 -4 -6 -4h-399c-25 -5 -54 -7 -77 -7c-229 0 -308 183 -270 365c38 176 183 351 402 351c34 0 65 -5 88 -10l382 1c6 0 13 -8 12 -12l-23 -109
c-1 -4 0 -4 -6 -4h-275zM257 109c29 0 53 4 77 11l108 462c-20 6 -44 9 -62 9c-135 0 -232 -125 -258 -248c-25 -117 10 -234 135 -234z" />
    <glyph glyph-name="numbersign" unicode="#" horiz-adv-x="654" 
d="M532 416l-82 -4c-28 -55 -54 -103 -80 -159l69 4c7 0 16 -9 14 -14l-49 -98c-2 -3 -4 -3 -8 -3h-82l-67 -140c-2 -3 -3 -3 -7 -3h-104c-7 0 -14 9 -13 14l65 129h-92l-66 -140c-2 -3 -4 -3 -8 -3h-103c-6 0 -15 9 -13 14l64 129h-77c-6 0 -15 9 -13 14l49 98c2 3 4 3 8 3
l91 4c27 56 52 104 79 159l-78 -4c-7 0 -16 9 -14 14l47 96c2 3 4 3 8 3h91l81 168c2 3 4 3 8 3h103c7 0 16 -9 14 -14l-80 -157h92l81 168c2 3 4 3 8 3h103c7 0 16 -9 14 -14l-80 -157h68c7 0 16 -9 14 -14l-48 -96c-1 -3 -3 -3 -7 -3zM229 429l-93 -185h112l93 185h-112z
" />
    <glyph glyph-name="quotesingle" unicode="'" horiz-adv-x="166" 
d="M-26 478l46 218c1 4 0 4 6 4h104c6 0 13 -8 12 -12l-46 -218c-1 -4 0 -4 -6 -4h-104c-6 0 -13 8 -12 12z" />
    <glyph glyph-name="quotedbl" unicode="&#x22;" horiz-adv-x="318" 
d="M-25 478l46 218c1 4 0 4 6 4h94c6 0 13 -8 12 -12l-46 -218c-1 -4 0 -4 -6 -4h-94c-6 0 -13 8 -12 12zM132 478l46 218c1 4 0 4 6 4h93c6 0 13 -8 12 -12l-46 -218c-1 -4 0 -4 -6 -4h-93c-6 0 -13 8 -12 12z" />
    <glyph glyph-name="grave" unicode="`" horiz-adv-x="265" 
d="M241 614l-64 -78c-4 -4 -8 0 -11 2l-160 97c-5 1 -11 9 -9 13l69 82c4 4 8 0 12 -2l154 -100c4 -2 11 -10 9 -14z" />
    <glyph glyph-name="underscore" unicode="_" horiz-adv-x="539" 
d="M356 3l-20 -94c-1 -4 0 -4 -6 -4h-452c-6 0 -13 8 -12 12l20 94c0 4 -1 4 5 4h452c6 0 14 -8 13 -12z" />
    <glyph glyph-name="asterisk" unicode="*" horiz-adv-x="383" 
d="M317 564l-11 -50c0 -4 1 -4 -5 -4h-75l41 -57c4 -3 9 -10 7 -13l-43 -33c-5 -3 -11 2 -13 5l-44 48l-17 -70c-1 -4 0 -4 -6 -4h-50c-5 0 -12 8 -11 12l15 62l-62 -53c-5 -3 -11 2 -12 5l-29 33c-4 3 -9 10 -5 13l69 52h-62c-6 0 -14 8 -13 12l11 50c1 4 0 4 6 4h76
l-42 58c-4 2 -9 9 -6 12l43 34c4 3 10 -2 13 -5l44 -49l17 70c1 4 0 4 5 4h50c6 0 13 -8 12 -12l-15 -62l62 54c4 3 10 -2 12 -5l28 -34c4 -3 9 -10 7 -12l-70 -53h61c6 0 13 -8 12 -12z" />
    <glyph glyph-name="plus" unicode="+" horiz-adv-x="467" 
d="M364 395l-21 -99c-1 -4 0 -4 -6 -4h-144l-31 -146c-1 -4 0 -4 -6 -4h-99c-6 0 -13 8 -12 12l29 138h-127c-6 0 -13 8 -12 12l21 99c1 4 0 4 6 4h137l30 144c1 4 0 4 6 4h99c6 0 13 -8 13 -12l-29 -136h134c6 0 13 -8 12 -12z" />
    <glyph glyph-name="minus" unicode="&#x2212;" horiz-adv-x="401" 
d="M292 386l-22 -103c0 -3 1 -3 -5 -3h-329c-6 0 -14 8 -13 11l22 103c1 4 0 4 6 4h329c6 0 13 -8 12 -12z" />
    <glyph glyph-name="equal" unicode="=" horiz-adv-x="427" 
d="M331 423l-21 -98c0 -3 2 -3 -4 -3h-342c-6 0 -14 8 -13 11l21 98c1 4 0 4 6 4h342c6 0 12 -8 11 -12zM294 250l-21 -99c0 -3 2 -3 -4 -3h-342c-6 0 -14 8 -13 11l21 99c1 4 0 4 6 4h342c6 0 12 -8 11 -12z" />
    <glyph glyph-name="endash" unicode="&#x2013;" horiz-adv-x="509" 
d="M398 391l-23 -109c0 -3 1 -3 -5 -3h-413c-6 0 -14 8 -13 11l23 109c1 4 0 4 6 4h413c6 0 13 -8 12 -12z" />
    <glyph glyph-name="emdash" unicode="&#x2014;" horiz-adv-x="579" 
d="M457 391l-23 -109c0 -3 1 -3 -5 -3h-472c-6 0 -14 8 -13 11l23 109c1 4 0 4 6 4h472c6 0 13 -8 12 -12z" />
    <glyph glyph-name="divide" unicode="&#xf7;" horiz-adv-x="490" 
d="M212 583c49 0 80 -38 71 -82c-9 -39 -44 -69 -83 -69c-48 0 -79 38 -69 83c8 38 43 68 81 68zM-16 396l-23 -109h396l23 109h-396zM141 249c49 0 80 -38 71 -82c-8 -38 -44 -68 -83 -68c-48 0 -79 38 -69 82c8 38 43 68 81 68z" />
    <glyph glyph-name="slash" unicode="/" horiz-adv-x="452" 
d="M315 700h117c7 0 15 -9 12 -15l-466 -684c-1 -2 -3 -2 -6 -2h-114c-7 0 -15 9 -12 15l463 684c1 2 3 2 6 2z" />
    <glyph glyph-name="backslash" unicode="\" horiz-adv-x="454" 
d="M126 692l170 -685c1 -6 4 -8 -3 -8h-117c-3 0 -14 6 -13 8l-169 685c-1 6 -4 8 3 8h117c3 0 14 -6 12 -8z" />
    <glyph glyph-name="hyphen" unicode="-" horiz-adv-x="443" 
d="M332 400l-22 -104c-1 -4 1 -4 -5 -4h-344c-6 0 -13 8 -12 12l22 104c1 4 0 4 6 4h344c6 0 12 -8 11 -12z" />
    <glyph glyph-name="multiply" unicode="&#xd7;" horiz-adv-x="403" 
d="M271 230l-84 -68c-5 -3 -10 2 -12 5l-76 92l-114 -97c-5 -3 -11 2 -12 5l-55 68c-3 3 -9 9 -5 12l119 93l-72 97c-3 3 -9 10 -6 13l84 68c5 3 11 -2 13 -5l76 -93l115 97c5 3 10 -2 11 -5l56 -67c3 -3 9 -10 5 -13l-120 -92l72 -98c3 -3 9 -9 5 -12z" />
    <glyph glyph-name="questiondown" unicode="&#xbf;" horiz-adv-x="490" 
d="M305 626c-9 -44 -47 -65 -80 -65c-42 0 -78 28 -67 79c9 43 47 64 80 64c42 0 78 -28 67 -78zM103 -10c-126 0 -208 78 -178 221c18 83 102 155 192 179l30 117c1 3 -1 3 5 3h104c6 0 13 -8 12 -11l-44 -207c-1 -5 -1 -4 -2 -4c-113 7 -157 -50 -166 -91
c-14 -64 18 -77 55 -77c47 0 92 29 101 74c1 1 0 1 6 1h114c6 0 12 -8 10 -15c-23 -112 -127 -190 -239 -190z" />
    <glyph glyph-name="exclamdown" unicode="&#xa1;" horiz-adv-x="276" 
d="M114 554c-47 0 -77 39 -68 81c8 36 42 65 79 65c46 0 77 -37 68 -79c-7 -36 -43 -67 -79 -67zM47 -8h-114c-6 0 -14 8 -13 12l103 485c1 4 0 4 6 4h114c6 0 13 -8 12 -12l-103 -485c0 -4 1 -4 -5 -4z" />
    <glyph glyph-name="degree" unicode="&#xb0;" horiz-adv-x="365" 
d="M126 400c-92 0 -153 75 -134 164c18 83 99 151 181 151c92 0 153 -76 134 -165c-18 -83 -99 -150 -181 -150zM173 622c-39 0 -79 -34 -87 -72c-7 -32 11 -56 40 -56c39 0 79 32 87 70c7 32 -11 58 -40 58z" />
    <glyph glyph-name="lozenge" unicode="&#x25ca;" horiz-adv-x="484" 
d="M401 341l-301 -342c-5 -5 -13 1 -14 6l-156 343c-1 2 -3 7 -3 9l300 342c5 5 13 -1 14 -6l157 -343c1 -2 3 -7 3 -9zM198 493l-134 -147c24 -52 41 -94 63 -143c46 51 88 100 132 149z" />
    <glyph glyph-name="dagger" unicode="&#x2020;" horiz-adv-x="543" 
d="M299 529h157c6 0 13 -8 12 -12l-24 -114c-1 -4 0 -4 -6 -4h-167l-84 -395c-1 -4 1 -4 -5 -4h-115c-6 0 -13 8 -12 12l82 387h-156c-6 0 -13 8 -12 12l24 114c1 4 0 4 6 4h166l35 167c1 4 0 4 6 4h115c6 0 12 -8 11 -12z" />
    <glyph glyph-name="daggerdbl" unicode="&#x2021;" horiz-adv-x="537" 
d="M297 529h157c6 0 13 -8 12 -12l-24 -114c-1 -4 0 -4 -6 -4h-167l-18 -85h157c6 0 13 -8 12 -12l-24 -114c-1 -4 0 -4 -6 -4h-167l-38 -180c-1 -4 1 -4 -5 -4h-115c-6 0 -12 8 -11 12l36 172h-157c-6 0 -13 8 -12 12l24 114c1 4 0 4 6 4h167l18 85h-157c-6 0 -13 8 -12 12
l24 114c1 4 0 4 6 4h167l35 167c1 4 -1 4 5 4h115c6 0 12 -8 11 -12z" />
    <glyph glyph-name="A.alt" horiz-adv-x="683" 
d="M539 577c25 -53 15 -111 14 -117l-97 -456c-1 -4 0 -4 -6 -4h-114c-6 0 -13 8 -12 12l24 112h-265l-26 -120c-1 -4 0 -4 -6 -4h-114c-6 0 -13 8 -12 12l97 456c1 6 12 61 54 121c45 50 120 111 251 111c142 0 196 -67 212 -123zM373 243l47 224c1 2 8 32 2 59
c-18 30 -50 44 -103 44c-62 0 -107 -21 -133 -59c-23 -23 -32 -51 -32 -51l-46 -217h265z" />
    <glyph glyph-name="C.alt" horiz-adv-x="456" 
d="M258 4l-2 -7c-198 3 -326 164 -284 360c40 190 225 343 415 343c10 0 17 -8 16 -12l-24 -114l-2 -7c-124 3 -247 -99 -274 -224c-25 -119 47 -213 163 -213c10 0 17 -8 16 -12z" />
    <glyph glyph-name="A.alt1" horiz-adv-x="554" 
d="M406 0h-547c-8 0 -16 9 -13 15l423 703c4 7 16 0 16 -7l124 -703c2 -6 4 -8 -3 -8zM49 115h209l-41 290z" />
    <glyph glyph-name="O.011" horiz-adv-x="261" 
d="M100 284h-114c-6 0 -14 8 -13 12l85 400c1 4 0 4 6 4h114c6 0 13 -8 12 -12l-85 -400c0 -4 1 -4 -5 -4zM8 187c57 0 94 -47 82 -101c-10 -48 -55 -87 -102 -87c-59 0 -96 47 -85 101c11 48 56 87 105 87z" />
    <glyph glyph-name="germandbls" unicode="&#xdf;" horiz-adv-x="592" 
d="M76 700h236s230 -4 186 -213c-22 -100 -94 -139 -132 -143c98 -32 77 -143 76 -146c-43 -202 -289 -198 -284 -198c-1 0 -7 8 -6 12l24 112c0 4 -2 4 9 4c5 0 112 4 129 84c15 71 -93 70 -96 70c-1 0 -7 8 -6 12l24 113c1 4 -1 4 0 4c25 0 115 5 133 90
c12 56 -41 73 -85 73h-100l-122 -570c-1 -4 0 -4 -5 -4h-120c-5 0 -12 8 -11 12l145 684c1 4 0 4 5 4z" />
    <glyph glyph-name="parenright" unicode=")" horiz-adv-x="308" 
d="M157 699l6 -7c14 -44 27 -103 29 -173c4 -47 2 -107 -13 -178c-21 -99 -67 -216 -158 -344c-3 2 -5 3 -8 3h-132c-9 0 -17 10 -13 19c93 102 155 215 180 334c10 45 14 95 14 148c-6 93 -30 157 -40 192c-7 3 -10 6 -1 6h136z" />
    <glyph glyph-name="parenleft" unicode="(" horiz-adv-x="311" 
d="M1 0l-6 7c-34 105 -42 225 -15 352c21 99 65 215 157 343c3 -2 5 -3 8 -3h132c8 0 16 -10 12 -19c-92 -102 -154 -215 -179 -334c-25 -117 -16 -236 24 -340c8 -3 11 -6 3 -6h-136z" />
    <glyph glyph-name="trademark" unicode="&#x2122;" horiz-adv-x="646" 
d="M547 700h57c2 0 8 -6 7 -8l-63 -299h-55c-3 0 -8 6 -8 8l38 168l-111 -165c-1 -1 -1 1 -2 1h-47c-2 0 -10 4 -10 5l-44 163l-40 -180h-57c-2 0 -8 6 -8 8l64 299h58c1 0 10 -4 10 -5l60 -206l149 212c1 1 1 -1 2 -1zM268 700h-1c-2 0 1 2 1 0zM226 688l-9 -44
c-1 -4 0 -4 -6 -4h-62l-51 -242c-1 -4 0 -4 -6 -4h-49c-6 0 -13 8 -12 12l49 234h-53c-5 0 -12 8 -11 12l9 44c1 4 0 4 5 4h184c6 0 13 -8 12 -12zM269 393h1c3 0 -2 -2 -1 0zM548 393h1c2 0 -2 -2 -1 0z" />
    <glyph glyph-name="cent" unicode="&#xa2;" horiz-adv-x="580" 
d="M119 11l18 61c-122 32 -196 148 -167 285c28 130 140 240 275 272l22 81c1 4 0 4 6 4h88c6 0 13 -8 12 -12l-19 -68c64 -8 116 -43 146 -86c7 -4 11 -16 6 -21l-77 -63c-11 -9 -24 -1 -25 11c-18 17 -41 29 -66 35l-78 -319c30 7 61 24 83 47c13 5 23 -2 31 -12l49 -59
c2 -7 4 -20 2 -27c-54 -40 -114 -66 -182 -74l-18 -63c-1 -4 0 -4 -6 -4h-88c-6 0 -13 8 -12 12zM101 343c-13 -64 4 -118 54 -144l71 298c-57 -28 -110 -85 -125 -154z" />
    <glyph glyph-name="acute" unicode="&#xb4;" horiz-adv-x="278" 
d="M30 549l-31 79c-2 4 -8 7 -4 8l209 102c6 2 14 -4 14 -8l36 -81c1 -4 4 -8 1 -10l-211 -98c-5 -2 -14 4 -14 8z" />
    <glyph glyph-name="pi" unicode="&#x3c0;" horiz-adv-x="564" 
d="M35 694h473c6 0 13 -8 12 -12l-24 -112c0 -4 1 -4 -5 -4h-80l-120 -562c-1 -4 1 -4 -5 -4h-115c-5 0 -12 8 -11 12l118 554h-57l-120 -562c-1 -4 0 -4 -6 -4h-114c-5 0 -12 8 -11 12l118 554h-70c-6 0 -13 8 -12 12l24 112c1 4 -1 4 5 4z" />
    <glyph glyph-name="periodcentered" unicode="&#xb7;" horiz-adv-x="204" 
d="M27 427c48 0 78 -38 69 -81c-8 -36 -42 -65 -80 -65c-45 0 -76 37 -67 79c8 37 43 67 78 67z" />
    <glyph glyph-name="Euro" unicode="&#x20ac;" horiz-adv-x="593" 
d="M-70 376l18 85c1 3 0 3 6 3l67 4c68 129 191 232 369 232c66 0 110 -17 148 -45c9 0 15 -7 13 -11l-73 -100c-4 -3 -11 3 -10 6c-30 12 -54 20 -86 20c-97 0 -170 -47 -216 -109l148 3c6 0 13 -8 12 -11l-18 -85c0 -3 1 -3 -5 -3l-187 -4c-4 -13 -8 -28 -9 -40l177 4
c6 0 14 -8 13 -12l-18 -84c-1 -4 0 -4 -6 -4l-156 -3c23 -55 73 -92 152 -92c41 0 83 11 112 26c10 0 17 -6 16 -10l18 -109v-11c-50 -17 -107 -26 -154 -26c-185 0 -269 102 -285 228l-63 -3c-6 0 -13 8 -12 12l17 84c1 4 0 4 6 4l51 4c2 13 5 27 8 40l-40 -4
c-6 0 -14 8 -13 11z" />
    <glyph glyph-name="at" unicode="@" horiz-adv-x="895" 
d="M300 529c104 0 173 -85 151 -186c-3 -14 -12 -47 -26 -65l62 3l15 73c32 148 -54 231 -170 231c-154 0 -269 -117 -296 -242c-25 -119 33 -229 180 -229h342c6 0 14 -8 13 -12l-23 -106c0 -4 1 -4 -5 -4h-342c-221 0 -332 169 -290 365c40 190 211 353 427 353
c199 0 343 -138 295 -364l-37 -171c0 -4 1 -4 -5 -4h-352c-101 0 -169 84 -147 186c20 95 112 172 208 172zM209 343c-7 -32 11 -56 39 -56c38 0 78 32 86 70c7 32 -11 56 -39 56c-38 0 -78 -32 -86 -70z" />
    <glyph glyph-name="V.001" horiz-adv-x="424" 
d="M384 484l-76 -59c-5 -3 -11 2 -13 5l-112 128c-58 -45 -112 -89 -166 -136c-7 0 -13 5 -15 8l-51 59c-3 3 -9 10 -5 13l252 198c5 3 12 -2 13 -5l168 -198c3 -3 9 -10 5 -13z" />
    <glyph glyph-name="less" unicode="&#x3c;" horiz-adv-x="349" 
d="M213 573l52 -67c3 -3 9 -8 5 -11l-183 -153l110 -155c3 -3 9 -9 6 -12l-81 -68c-4 -2 -9 3 -11 5l-168 226c-3 3 -9 10 -6 13l264 227c5 3 10 -2 12 -5z" />
    <glyph glyph-name="greater" unicode="&#x3e;" horiz-adv-x="346" 
d="M-12 511l80 67c5 3 11 -2 12 -5l168 -227c3 -3 9 -10 6 -13l-264 -226c-4 -2 -10 3 -12 5l-53 68c-3 3 -9 9 -5 12l183 150l-110 158c-3 3 -9 8 -5 11z" />
    <glyph glyph-name="F.alt" horiz-adv-x="617" 
d="M76 700h456c6 0 13 -8 12 -12l-24 -114c-1 -4 0 -4 -6 -4h-456c-6 0 -13 8 -12 12l24 114c1 4 0 4 6 4zM-75 12l85 399c0 4 -1 4 5 4h456c6 0 14 -8 13 -12l-24 -114c-1 -4 0 -4 -6 -4h-337l-60 -281c-1 -4 0 -4 -6 -4h-114c-6 0 -13 8 -12 12z" />
    <glyph glyph-name="onesuperior" unicode="&#xb9;" horiz-adv-x="267" 
d="M187 688l-71 -338c-1 -4 0 -4 -6 -4h-66c-6 0 -14 8 -13 12l54 246l-39 -15c-5 -2 -13 4 -13 7l-12 61c-1 4 -5 7 0 9l100 34h54c6 0 13 -8 12 -12z" />
    <glyph glyph-name="twosuperior" unicode="&#xb2;" horiz-adv-x="341" 
d="M206 361l-14 -65c-1 -4 0 -4 -5 -4h-230c-6 0 -13 8 -12 12l10 56l177 195c45 46 33 72 13 72c-23 0 -49 -14 -55 -42c-1 -1 0 -1 -6 -1h-65c-6 0 -13 8 -11 15c13 63 68 109 137 109c101 0 153 -97 63 -196l-135 -140h121c5 0 13 -7 12 -11z" />
    <glyph glyph-name="threesuperior" unicode="&#xb3;" horiz-adv-x="333" 
d="M260 571c-6 -28 -21 -57 -57 -77c24 -20 32 -53 25 -86c-16 -77 -82 -116 -145 -116c-74 0 -121 59 -106 130h5h65c6 0 13 -8 12 -14c-5 -21 5 -35 21 -35c30 0 60 24 65 49c5 23 0 42 -19 42h-27c-11 0 -19 7 -18 11l12 55c1 4 0 4 6 4h28c24 0 46 28 51 51
c4 20 -8 34 -25 34c-26 0 -56 -22 -61 -48c-1 -1 0 -1 -6 -1h-63c-6 0 -13 8 -11 15c13 63 74 115 138 115c73 0 126 -54 110 -129z" />
    <glyph glyph-name="D.alt" horiz-adv-x="670" 
d="M76 700h114c171 0 406 -43 339 -357c-63 -296 -304 -343 -478 -343h-114c-6 0 -13 8 -12 12l145 684c1 4 0 4 6 4zM398 348c42 198 -96 229 -182 232l143 -338c15 28 30 64 39 106zM148 419l-70 -294c6 -1 16 0 24 0c39 0 94 7 150 35c-35 95 -63 162 -104 259z" />
    <glyph glyph-name="E.alt" horiz-adv-x="617" 
d="M162 501h327c6 0 13 -8 12 -12l-23 -108c-1 -4 1 -3 -5 -3h-337l-13 -57h327c6 0 14 -7 13 -11l-23 -107c0 -4 1 -4 -5 -4h-337l-15 -69h327c6 0 13 -8 12 -12l-24 -114c-1 -4 0 -4 -6 -4h-456c-6 0 -13 8 -12 12l145 684c1 4 0 4 6 4h456c6 0 13 -8 12 -12l-24 -114
c-1 -4 0 -4 -6 -4h-337z" />
    <glyph glyph-name="space" unicode=" " horiz-adv-x="345" 
 />
    <glyph glyph-name="X.alt" horiz-adv-x="647" 
d="M641 684l-320 -337c55 -111 114 -225 166 -339c7 -3 10 -7 1 -7h-628c-9 0 -17 10 -13 16l316 333l-166 340c-4 6 -7 10 2 10h628c9 0 18 -10 14 -16zM198 580l65 -122c41 45 75 79 118 125zM292 116l-68 131c-42 -48 -78 -84 -125 -134z" />
    <glyph glyph-name="dieresis" unicode="&#xa8;" horiz-adv-x="376" 
d="M140 627c-7 -36 -43 -65 -78 -65c-44 0 -75 37 -67 79c8 36 43 65 77 65c45 0 77 -37 68 -79zM344 627c-7 -36 -42 -65 -77 -65c-45 0 -76 37 -68 79c8 36 43 65 78 65c45 0 76 -37 67 -79z" />
    <glyph glyph-name="M.alt" horiz-adv-x="740" 
d="M658 688l-97 -458c-1 -4 0 -4 -6 -4h-112c-6 0 -13 8 -12 12l43 193l-142 -183c-2 -2 -3 -1 -6 -1h-91c-3 0 -14 5 -13 7l-71 185l-47 -209c-1 -4 0 -4 -6 -4h-114c-5 0 -12 8 -11 12l97 458c1 4 0 4 5 4h106c3 0 14 -5 13 -7l112 -286c77 98 151 194 227 296
c3 -2 5 -3 8 -3h105c6 0 13 -8 12 -12zM537 117l-24 -113c-1 -4 0 -4 -6 -4h-571c-5 0 -12 8 -11 12l24 113c1 4 0 4 5 4h571c6 0 13 -8 12 -12z" />
    <glyph glyph-name="asciicircum" unicode="^" horiz-adv-x="594" 
d="M388 484l-76 -59c-5 -3 -11 2 -13 5l-112 128c-58 -45 -112 -89 -166 -136c-7 0 -13 5 -15 8l-51 59c-3 3 -9 10 -5 13l252 198c5 3 12 -2 13 -5l168 -198c3 -3 9 -10 5 -13z" />
    <glyph glyph-name="cedilla" unicode="&#xb8;" horiz-adv-x="429" 
d="M15 -235c-102 0 -166 83 -145 180c0 1 -1 1 4 1h93c6 0 13 -8 12 -15c-7 -32 10 -56 40 -56c38 0 76 32 85 70c7 33 -11 56 -39 56c-11 0 -18 8 -17 12l20 94c1 4 0 3 1 3c100 0 166 -82 146 -179c-20 -91 -110 -166 -200 -166z" />
    <glyph glyph-name="bullet" unicode="&#x2022;" horiz-adv-x="312" 
d="M186 343c-12 -59 -68 -106 -128 -106c-67 0 -114 55 -100 120c13 60 71 106 128 106c70 0 114 -54 100 -120z" />
    <glyph glyph-name="circumflex" unicode="&#x2c6;" horiz-adv-x="392" 
d="M41 553l-33 69c-2 4 -7 9 -3 11l188 96c2 1 8 -4 9 -5l149 -89c5 -2 11 -9 9 -13l-60 -75c-3 -3 -7 0 -10 1l-110 67l-127 -69c-3 -1 -11 4 -12 7z" />
    <glyph glyph-name="scaron" unicode="&#x161;" horiz-adv-x="543" 
d="M442 917l32 -66c2 -4 7 -9 3 -11l-183 -93h-8l-149 91c-3 2 -9 9 -7 13l58 72c4 4 7 0 10 -2l108 -64l124 68c4 2 11 -5 12 -8zM262 710c128 0 211 -87 186 -212h-5h-113c-5 0 -13 8 -12 14c8 48 -22 68 -64 68c-54 0 -107 -33 -119 -94c-11 -49 23 -72 64 -72
c10 0 61 -2 101 -27c74 -34 104 -107 85 -194c-28 -132 -146 -203 -256 -203c-128 3 -215 79 -188 214c0 1 -1 1 5 1h114c5 0 13 -8 12 -15c-9 -48 24 -70 65 -70c53 0 107 36 118 87c11 50 -27 78 -63 80c-11 0 -60 2 -102 27c-73 34 -105 99 -87 186
c29 132 149 210 259 210z" />
    <glyph glyph-name="caron" unicode="&#x2c7;" horiz-adv-x="395" 
d="M326 721l33 -68c2 -4 7 -9 4 -11l-188 -95h-9l-150 92c-5 2 -11 10 -9 14l60 74c4 4 8 0 10 -2l110 -65l127 69c5 2 11 -5 12 -8z" />
    <glyph glyph-name="yen" unicode="&#xa5;" horiz-adv-x="640" 
d="M487 700h140c9 0 18 -10 14 -16l-275 -292h64c6 0 13 -8 12 -12l-19 -91c-1 -4 0 -4 -6 -4h-120l-9 -42h110c6 0 13 -8 12 -12l-18 -88c-1 -4 0 -4 -6 -4h-120l-29 -135c-1 -4 0 -4 -6 -4h-114c-6 0 -13 8 -12 12l27 127h-114c-6 0 -14 8 -13 12l19 88c1 4 0 4 6 4h124
l9 42h-115c-6 0 -14 8 -13 12l20 91c1 4 0 4 6 4l81 3c-47 94 -98 201 -141 298c-8 3 -11 7 -2 7h139c2 0 13 -4 12 -6l113 -234l220 240c1 2 2 0 4 0z" />
    <glyph glyph-name="infinity" unicode="&#x221e;" horiz-adv-x="812" 
d="M432 128h-20c-2 0 -13 4 -13 5l-90 117l-146 -123c-1 -1 -3 1 -5 1h-20c-5 0 -53 3 -90 29c-65 33 -94 98 -76 182c17 79 64 140 134 177c58 22 104 21 109 21h20c2 0 14 -4 13 -5l88 -117l149 123c1 1 2 -1 4 -1h20c5 0 53 -3 90 -29c66 -33 94 -98 76 -183
c-16 -78 -63 -139 -134 -175c-58 -23 -104 -22 -109 -22zM406 332l64 -86c9 2 20 8 26 14c34 12 57 38 65 79c8 36 4 59 -16 75c-12 4 -20 4 -27 6zM242 332l-65 86c-8 -2 -20 -5 -27 -13c-32 -11 -55 -38 -64 -80c-7 -35 -3 -57 17 -73c13 -3 19 -6 26 -8z" />
    <glyph glyph-name="notequal" unicode="&#x2260;" horiz-adv-x="524" 
d="M413 404l-135 -3c-21 -33 -38 -56 -61 -90l167 3c6 0 13 -8 12 -12l-22 -105c-1 -4 0 -3 -6 -3h-232l-69 -105c-1 -2 -3 -2 -6 -2h-117c-7 0 -15 9 -12 15l63 92h-45c-6 0 -13 7 -12 11l22 105c1 4 0 4 6 4l111 3c22 33 39 56 61 90l-143 -3c-6 0 -13 8 -12 12l22 104
c1 4 0 4 6 4h208l59 91c1 2 3 2 6 2h117c8 0 16 -9 13 -15l-54 -78h69c6 0 13 -8 12 -12l-22 -104c-1 -4 0 -4 -6 -4z" />
    <glyph glyph-name="A.alt2" horiz-adv-x="558" 
d="M-18 0h-123c-8 0 -16 9 -13 15l419 683c5 7 15 0 15 -7l129 -683c2 -6 4 -8 -3 -8h-124c-2 0 -13 5 -11 8l-64 351l-218 -357c-2 -3 -4 -2 -7 -2z" />
    <glyph glyph-name="sterling" unicode="&#xa3;" horiz-adv-x="592" 
d="M256 238l-146 -4c-13 -34 -26 -67 -36 -103l341 4c6 0 13 -8 12 -12l-25 -119c-1 -4 0 -4 -6 -4h-476c-6 0 -13 8 -12 12l12 59c13 61 30 119 50 171l-54 -4c-6 0 -14 7 -13 11l26 120c0 4 -1 3 5 3l100 3c12 21 21 37 31 56c56 75 128 141 202 191c138 73 263 78 264 78
c11 0 18 -8 17 -12l-25 -119c-1 -4 0 -4 -1 -4c-6 0 -95 -4 -190 -66c-57 -31 -106 -76 -146 -130l88 3c6 0 14 -7 13 -11l-26 -120c0 -4 1 -3 -5 -3z" />
    <glyph glyph-name="T.alt" horiz-adv-x="556" 
d="M288 461h157c6 0 13 -7 12 -11l-22 -104c-1 -4 1 -4 -5 -4h-167l-72 -338c-1 -4 0 -4 -5 -4h-115c-6 0 -13 8 -12 12l70 330h-156c-6 0 -13 8 -13 12l23 104c0 4 -1 3 5 3h166l25 117h-156c-6 0 -13 8 -12 12l22 106c1 4 0 4 6 4h457c6 0 12 -8 11 -12l-22 -106
c-1 -4 1 -4 -5 -4h-167z" />
    <glyph glyph-name="O.alt" horiz-adv-x="855" 
d="M771 688l-145 -682c0 -4 1 -4 -5 -4h-682c-6 0 -14 8 -13 12l145 682c1 4 0 4 6 4h682c6 0 13 -8 12 -12zM520 131l94 440h-436l-94 -440h436z" />
    <glyph glyph-name="H.alt" horiz-adv-x="568" 
d="M361 700h113c6 0 13 -8 12 -12l-96 -456c-1 -4 0 -4 -6 -4h-113c-6 0 -14 8 -13 12l34 159h-151l-35 -167c-1 -4 0 -4 -6 -4h-115c-5 0 -13 8 -12 12l97 456c1 4 0 4 5 4h115c6 0 13 -8 12 -12l-33 -159h151l35 167c1 4 0 4 6 4zM-35 114l-20 -98h380l20 98h-380z" />
    <glyph glyph-name="O.alt1" horiz-adv-x="817" 
d="M394 700c200 0 328 -161 286 -357c-40 -191 -225 -343 -415 -343c-199 0 -328 160 -286 357c40 190 226 343 415 343zM273 129c126 0 250 103 276 228c25 119 -47 213 -163 213c-125 0 -249 -102 -276 -227c-25 -119 48 -214 163 -214zM246 350l63 -85l107 85l-66 84z
" />
    <glyph glyph-name="zero.alt" horiz-adv-x="558" 
d="M264 709c120 0 196 -97 172 -211l-65 -306c-24 -113 -130 -202 -240 -202c-121 0 -198 97 -174 210l65 306c24 114 131 203 242 203zM255 580c-47 0 -93 -38 -101 -79l-48 -215l186 280c-10 10 -25 14 -37 14zM138 120c47 0 93 38 102 79l46 210l-184 -277
c10 -9 24 -12 36 -12z" />
    <glyph glyph-name="O.alt2" horiz-adv-x="812" 
d="M394 706c235 0 317 -183 279 -365c-37 -174 -186 -350 -411 -350c-238 0 -319 184 -280 364c37 176 184 351 412 351zM540 354c20 94 -4 189 -97 217l-105 -446c105 29 181 129 202 229zM114 340c-20 -95 6 -191 103 -218l105 448c-108 -27 -186 -129 -208 -230z" />
    <glyph glyph-name="S.alt" horiz-adv-x="528" 
d="M118 0c-10 0 -58 4 -97 25c-69 33 -106 96 -93 174l7 37c1 1 6 4 6 5l111 82c-53 37 -78 97 -61 175c26 124 146 200 256 200c10 0 59 -3 101 -26c74 -35 105 -101 87 -185l-6 -25c0 -1 -5 -4 -6 -5l-109 -82c53 -37 76 -97 60 -175c-27 -124 -146 -200 -256 -200z
M121 484c-9 -43 11 -61 46 -69l140 106c-1 21 -8 28 -21 40c-19 4 -35 6 -48 6c-52 0 -105 -29 -117 -83zM198 283l-139 -105c2 -37 38 -49 67 -49c54 0 107 33 118 85c9 42 -10 61 -46 69z" />
    <glyph glyph-name="C.alt1" horiz-adv-x="687" 
d="M267 130c65 0 127 27 171 69c8 0 13 -5 15 -7l64 -81c3 -3 7 -10 5 -15c-76 -60 -170 -96 -263 -96c-200 0 -328 161 -286 357c40 190 225 343 415 343c103 0 184 -42 228 -108c7 0 13 -6 10 -9l-98 -80c-4 -2 -12 4 -12 8c-33 38 -81 59 -136 59
c-125 0 -249 -102 -276 -227c-25 -119 48 -213 163 -213zM420 357c11 52 -19 91 -67 91c-58 0 -116 -47 -128 -105c-11 -51 19 -91 67 -91c58 0 116 48 128 105z" />
    <glyph glyph-name="copyright" unicode="&#xa9;" horiz-adv-x="692" 
d="M330 700c174 0 283 -140 247 -309c-34 -162 -191 -292 -355 -292c-173 0 -282 138 -247 306c35 163 192 295 355 295zM222 190c120 0 237 98 262 215c24 113 -44 203 -154 203c-118 0 -237 -98 -263 -217c-23 -111 47 -201 155 -201zM255 316c28 0 53 13 69 29
c7 0 11 -5 13 -8l29 -31c3 -3 3 -10 3 -15c-31 -23 -70 -37 -107 -37c-84 0 -142 71 -124 152c16 77 92 140 166 140c47 0 82 -20 99 -48c7 -1 11 -7 8 -10l-40 -31c-4 -3 -12 3 -11 8c-13 12 -31 19 -49 19c-50 0 -100 -41 -110 -92c-10 -43 14 -76 54 -76z" />
    <glyph glyph-name="registered" unicode="&#xae;" horiz-adv-x="675" 
d="M325 700c174 0 283 -140 247 -309c-34 -162 -191 -292 -355 -292c-173 0 -282 138 -247 306c35 163 192 295 355 295zM218 197c116 0 230 94 254 208c23 109 -41 195 -148 195c-114 0 -229 -94 -254 -209c-23 -108 44 -194 148 -194zM231 369l-25 -117c-1 -4 0 -4 -6 -4
h-49c-6 0 -12 8 -12 12l60 280c1 4 -1 4 5 4h97c67 0 105 -43 93 -98c-5 -25 -24 -53 -67 -72l26 -118c1 -6 4 -8 -4 -8h-53c-3 0 -14 6 -12 8l-28 113h-25zM243 426h33c27 0 48 18 51 35c3 12 -4 21 -29 22h-43z" />
    <glyph glyph-name="W.alt1" horiz-adv-x="1024" 
d="M271 0h-124c-3 0 -14 5 -12 8l-137 685c-2 6 -5 8 3 8h123c3 0 14 -5 13 -8l102 -513l128 197c-21 105 -42 212 -61 320c-4 2 -7 4 1 4h123c3 0 14 -6 14 -8l25 -152l97 158c1 3 3 2 6 2h124c8 0 16 -9 13 -15l-203 -315c15 -71 24 -122 39 -194l327 522c1 3 3 2 6 2h123
c8 0 16 -9 13 -15l-431 -684c-2 -3 -4 -2 -7 -2h-123c-3 0 -14 5 -12 8l-38 195l-125 -201c-2 -2 -4 -2 -7 -2z" />
    <glyph glyph-name="O.alt3" horiz-adv-x="745" 
d="M460 252l-14 -247c0 -7 -2 -6 -9 -3l-195 111c-80 -39 -161 -76 -236 -115c-12 -1 -24 8 -22 15l95 239l-136 174c-5 5 -10 11 -1 12l253 35l156 225c5 6 15 0 16 -6l64 -219l232 -35c8 -1 17 -12 12 -17zM142 357l53 -72c2 -1 3 -7 4 -9l-37 -89c32 16 60 28 87 45
c6 -1 13 -4 14 -5l82 -39c1 32 1 64 4 98c-1 -1 1 4 1 5l85 66l-86 14c-2 0 -13 7 -12 9l-22 79l-61 -85c-2 -2 -5 -3 -7 -3z" />
    <glyph glyph-name="N.alt" horiz-adv-x="742" 
d="M533 700h113c6 0 13 -8 12 -12l-145 -684c-1 -4 0 -4 -6 -4h-115c-2 0 -13 4 -12 6l-109 224c-70 -77 -144 -154 -211 -233c-4 1 -6 3 -8 3h-115c-5 0 -12 8 -11 12l145 684c1 4 0 4 5 4h116c2 0 13 -4 12 -6l223 -458l100 460c1 4 0 4 6 4zM158 465l-56 -243l116 116z
" />
    <glyph glyph-name="S.alt1" horiz-adv-x="505" 
d="M129 416h288c8 0 16 -9 12 -15l-251 -398c-2 -3 -3 -2 -6 -2h-124c-7 0 -15 9 -11 15l172 269h-289c-8 0 -16 9 -13 15l251 398c1 3 3 2 6 2h123c8 0 16 -9 13 -15z" />
    <glyph glyph-name="E.alt1" horiz-adv-x="583" 
d="M522 688l-24 -114c-1 -4 0 -4 -5 -4h-457c-6 0 -13 8 -12 12l24 114c1 4 0 4 6 4h457c5 0 12 -8 11 -12zM462 403l-24 -114c-1 -4 0 -4 -5 -4h-457c-6 0 -14 8 -13 12l25 114c0 4 -1 4 5 4h457c5 0 13 -8 12 -12zM372 0h-457c-6 0 -13 8 -12 12l24 114c1 4 0 4 6 4h457
c5 0 12 -8 11 -12l-24 -114c-1 -4 0 -4 -5 -4z" />
    <glyph glyph-name="A" unicode="A" horiz-adv-x="570" 
d="M40 79l-42 -77c-2 -3 -3 -2 -7 -2h-123c-8 0 -16 9 -13 15l423 703c4 7 16 0 16 -7l124 -703c2 -6 4 -8 -3 -8h-124c-3 0 -13 5 -11 8l-12 71h-228zM249 197l-23 210l-118 -210h141z" />
    <glyph glyph-name="B" unicode="B" horiz-adv-x="603" 
d="M502 493c-17 -79 -65 -122 -128 -146c98 -36 76 -147 75 -150c-41 -192 -237 -197 -284 -197h-228c-6 0 -13 8 -12 12l145 684c1 4 0 4 6 4h238s232 1 188 -207zM143 415h110s99 4 116 84c17 81 -82 76 -82 76h-110zM82 128h100c44 0 122 16 137 86c17 80 -93 70 -93 70
h-110z" />
    <glyph glyph-name="C" unicode="C" horiz-adv-x="694" 
d="M268 120c65 0 127 28 172 70c7 0 13 -5 14 -8l64 -80c3 -3 7 -11 4 -16c-75 -60 -169 -96 -262 -96c-199 0 -332 144 -285 367c44 208 217 353 418 353c103 0 184 -42 228 -108c7 0 13 -7 10 -10l-98 -79c-4 -3 -12 3 -12 8c-33 37 -81 59 -136 59
c-140 0 -248 -101 -277 -237c-29 -139 45 -223 160 -223z" />
    <glyph glyph-name="D" unicode="D" horiz-adv-x="662" 
d="M76 700h114c171 0 406 -43 339 -357c-63 -296 -304 -343 -478 -343h-114c-6 0 -13 8 -12 12l145 684c1 4 0 4 6 4zM183 572l-104 -443c84 -4 272 9 318 228c35 163 -61 223 -214 215z" />
    <glyph glyph-name="E" unicode="E" horiz-adv-x="588" 
d="M144 415h270c5 0 13 -8 12 -12l-24 -111c-1 -4 0 -4 -5 -4h-280l-33 -158h327c6 0 13 -8 12 -12l-24 -114c-1 -4 0 -4 -6 -4h-456c-6 0 -13 8 -12 12l145 684c1 4 0 4 6 4h447c6 0 13 -8 12 -12l-23 -111c-1 -4 0 -4 -6 -4h-328z" />
    <glyph glyph-name="F" unicode="F" horiz-adv-x="580" 
d="M144 412h270c5 0 12 -8 11 -12l-23 -111c-1 -4 0 -4 -5 -4h-280l-60 -281c-1 -4 0 -4 -6 -4h-114c-6 0 -13 8 -12 12l145 684c1 4 0 4 6 4h456c6 0 13 -8 12 -12l-24 -114c-1 -4 0 -4 -6 -4h-337z" />
    <glyph glyph-name="G" unicode="G" horiz-adv-x="773" 
d="M383 405h238c5 0 13 -8 12 -12l-84 -392c0 -4 1 -4 -4 -4h-100c-5 0 -14 7 -13 11l11 58c-59 -55 -123 -76 -196 -76c-194 0 -318 135 -269 367c44 205 228 353 417 353c103 0 184 -42 228 -108c7 0 13 -7 10 -10l-98 -79c-4 -3 -13 3 -12 8c-32 37 -81 59 -136 59
c-125 0 -246 -89 -278 -237c-33 -158 46 -223 161 -223c69 0 133 31 184 76l22 88h-108c-6 0 -14 7 -13 11l22 106c1 4 0 4 6 4z" />
    <glyph glyph-name="H" unicode="H" horiz-adv-x="686" 
d="M477 700h114c6 0 13 -8 12 -12l-145 -684c-1 -4 0 -4 -6 -4h-114c-6 0 -13 8 -12 12l58 273h-265l-60 -281c-1 -4 0 -4 -6 -4h-114c-6 0 -13 8 -12 12l145 684c1 4 0 4 6 4h114c6 0 13 -8 12 -12l-57 -272h265l59 280c1 4 0 4 6 4z" />
    <glyph glyph-name="I" unicode="I" horiz-adv-x="350" 
d="M116 120h65c6 0 13 -8 12 -12l-22 -104c-1 -4 0 -4 -6 -4h-275c-6 0 -13 8 -12 12l22 104c1 4 0 4 6 4h76l97 460h-62c-6 0 -13 8 -12 12l22 104c1 4 0 4 6 4h267c6 0 13 -8 12 -12l-22 -104c-1 -4 0 -4 -6 -4h-71z" />
    <glyph glyph-name="K" unicode="K" horiz-adv-x="646" 
d="M272 344l207 -334c5 -6 7 -10 -2 -10h-150c-2 0 -14 5 -14 6l-146 246c-21 -19 -44 -42 -67 -61l-43 -187c-1 -4 0 -4 -5 -4h-115c-6 0 -13 8 -12 12l145 684c1 4 0 4 6 4h115c5 0 12 -8 11 -12l-68 -314l331 326c1 1 4 0 6 0h143c9 0 20 -10 15 -16z" />
    <glyph glyph-name="L" unicode="L" horiz-adv-x="501" 
d="M83 130h239c6 0 13 -8 12 -12l-24 -114c-1 -4 0 -4 -6 -4h-368c-6 0 -13 8 -12 12l145 684c1 4 0 4 6 4h115c5 0 12 -8 11 -12z" />
    <glyph glyph-name="M" unicode="M" horiz-adv-x="916" 
d="M831 689l-146 -685c-1 -4 0 -4 -6 -4h-114c-6 0 -13 8 -12 12l83 380l-255 -362c-2 -2 -4 -2 -6 -2h-108c-3 0 -14 6 -12 8l-111 365l-86 -397c-1 -4 0 -4 -6 -4h-115c-6 0 -12 8 -11 12l145 685c1 4 -1 4 5 4h117c3 0 14 -6 13 -8l139 -511l351 517c1 2 3 2 6 2h116
c6 0 14 -8 13 -12z" />
    <glyph glyph-name="N" unicode="N" horiz-adv-x="742" 
d="M658 688l-145 -684c-1 -4 0 -4 -6 -4h-115c-2 0 -13 4 -12 6l-222 458l-100 -460c-1 -4 0 -4 -6 -4h-115c-5 0 -12 8 -11 12l145 684c1 4 0 4 5 4h116c2 0 13 -4 12 -6l223 -458l100 460c1 4 0 4 6 4h113c6 0 13 -8 12 -12z" />
    <glyph glyph-name="O" unicode="O" horiz-adv-x="638" 
d="M214 186c-150 0 -248 122 -217 269c30 140 168 255 308 255c150 0 248 -123 217 -269c-30 -141 -168 -255 -308 -255zM298 581c-77 0 -155 -63 -171 -140c-15 -72 27 -126 94 -126c78 0 154 62 171 140c15 71 -26 126 -94 126zM422 117l-24 -113c-1 -4 0 -4 -6 -4h-451
c-6 0 -13 8 -12 12l24 113c1 4 0 4 6 4h451c6 0 13 -8 12 -12z" />
    <glyph glyph-name="P" unicode="P" horiz-adv-x="583" 
d="M76 700h238s231 -4 187 -214c-44 -205 -275 -201 -275 -201h-109l-60 -281c-1 -4 0 -4 -6 -4h-114c-6 0 -13 8 -12 12l85 399c0 4 -1 4 5 4l102 3c-24 53 -46 109 -69 162l22 116c1 4 0 4 6 4zM191 570l62 -154c36 0 105 24 117 84c16 74 -62 70 -84 70h-95z" />
    <glyph glyph-name="Q" unicode="Q" horiz-adv-x="822" 
d="M580 146l48 -72c3 -3 9 -10 6 -12l-100 -78c-5 -3 -11 2 -12 5l-53 63c-65 -40 -136 -61 -207 -61c-201 0 -329 159 -284 368c40 191 214 351 417 351c212 0 327 -168 286 -365c-15 -68 -50 -143 -101 -199zM550 359c25 119 -47 221 -163 221c-36 0 -66 -8 -97 -19
l214 -309c19 30 38 70 46 107zM270 121c44 0 87 15 127 36c-73 108 -147 213 -221 320c-32 -37 -58 -87 -67 -132c-29 -134 45 -224 161 -224z" />
    <glyph glyph-name="R" unicode="R" horiz-adv-x="612" 
d="M430 0h-134c-3 0 -14 5 -12 7l-115 278h-51l-60 -281c-1 -4 0 -4 -6 -4h-114c-6 0 -13 8 -12 12l85 399c0 4 -1 4 5 4l102 3c-23 53 -46 109 -69 162l22 116c1 4 0 4 6 4h238s232 -4 188 -214c-26 -120 -110 -166 -184 -187l112 -290c3 -6 6 -9 -1 -9zM196 570l62 -154
c38 1 100 21 113 84c16 74 -61 70 -84 70h-91z" />
    <glyph glyph-name="S" unicode="S" horiz-adv-x="543" 
d="M262 710c128 0 211 -87 186 -212h-5h-113c-5 0 -13 8 -12 14c8 48 -22 68 -64 68c-54 0 -107 -33 -119 -94c-11 -49 23 -72 64 -72c10 0 61 -2 101 -27c74 -34 104 -107 85 -194c-28 -132 -146 -203 -256 -203c-128 3 -215 79 -188 214c0 1 -1 1 5 1h114
c5 0 13 -8 12 -15c-9 -48 24 -70 65 -70c53 0 107 36 118 87c11 50 -27 78 -63 80c-11 0 -60 2 -102 27c-73 34 -105 99 -87 186c29 132 149 210 259 210z" />
    <glyph glyph-name="T" unicode="T" horiz-adv-x="448" 
d="M430 688l-22 -104c-1 -4 0 -4 -6 -4h-139l-122 -576c-1 -4 0 -4 -6 -4h-113c-6 0 -13 8 -12 12l120 568h-129c-6 0 -13 8 -12 12l22 104c1 4 0 4 6 4h401c6 0 13 -8 12 -12z" />
    <glyph glyph-name="U" unicode="U" horiz-adv-x="740" 
d="M76 700h569c6 0 13 -8 12 -12l-86 -409c-2 -7 -15 -74 -63 -146c-70 -92 -169 -143 -283 -143c-124 0 -207 56 -232 157c-22 64 -10 133 -9 140l87 409c1 4 0 4 5 4zM394 203c32 38 45 84 45 85l62 292h-322l-62 -293s-12 -52 -2 -98c19 -47 57 -69 118 -69
c71 0 125 28 161 83z" />
    <glyph glyph-name="V" unicode="V" horiz-adv-x="575" 
d="M9 700h547c6 0 15 -9 12 -15l-423 -711c-5 -7 -16 0 -17 7l-123 711c-1 6 -3 8 4 8zM362 576h-203l40 -280z" />
    <glyph glyph-name="W" unicode="W" horiz-adv-x="1014" 
d="M1003 685l-425 -710c-5 -7 -15 0 -16 7l-91 535l-321 -542c-5 -7 -17 0 -16 7l-122 710c-1 6 -3 8 4 8h123c4 0 12 -6 11 -9l58 -375l227 382c1 3 2 2 6 2h123c4 0 14 -5 12 -8l61 -376l224 382c1 3 2 2 6 2h123c8 0 16 -9 13 -15z" />
    <glyph glyph-name="X" unicode="X" horiz-adv-x="674" 
d="M-136 16l318 337c-56 111 -112 226 -164 340c-8 3 -11 7 -3 7h140c2 0 13 -4 12 -6l114 -230l218 236c1 2 3 0 5 0h140c9 0 18 -10 14 -16l-320 -337c57 -111 113 -226 166 -340c7 -3 10 -7 1 -7h-140c-2 0 -13 4 -12 6l-113 230l-219 -236c-1 -2 -3 0 -5 0h-140
c-8 0 -17 10 -12 16z" />
    <glyph glyph-name="Y" unicode="Y" horiz-adv-x="645" 
d="M487 700h140c9 0 18 -10 14 -16l-333 -355l-71 -325c-1 -4 0 -4 -6 -4h-114c-6 0 -13 8 -12 12l71 320c-59 120 -120 239 -175 361c-8 3 -11 7 -2 7h139c2 0 13 -4 12 -6l114 -230l219 236c1 2 2 0 4 0z" />
    <glyph glyph-name="Z" unicode="Z" horiz-adv-x="475" 
d="M319 118l-24 -114c-1 -4 0 -4 -6 -4h-398c-8 0 -16 9 -13 15l342 555h-209c-6 0 -13 8 -12 12l24 114c1 4 0 4 6 4h398c8 0 16 -9 13 -15l-342 -555h209c6 0 13 -8 12 -12z" />
    <glyph glyph-name="a" unicode="a" horiz-adv-x="571" 
d="M40 79l-42 -77c-2 -3 -3 -2 -7 -2h-123c-8 0 -16 9 -13 15l423 703c4 7 16 0 16 -7l124 -703c2 -6 4 -8 -3 -8h-124c-3 0 -13 5 -11 8l-12 71h-228zM249 197l-23 210l-118 -210h141z" />
    <glyph glyph-name="b" unicode="b" horiz-adv-x="603" 
d="M499 495c-16 -77 -64 -119 -126 -142c97 -36 73 -154 72 -157c-41 -191 -234 -196 -282 -196h-226c-5 0 -12 8 -11 12l145 684c1 4 0 4 5 4h236s231 2 187 -205zM143 412h98c19 0 110 11 127 90c17 80 -83 70 -83 70h-108zM82 128h98c44 0 122 17 137 86
c17 80 -70 76 -92 76h-108z" />
    <glyph glyph-name="c" unicode="c" horiz-adv-x="694" 
d="M266 119c64 0 125 27 170 69c7 0 13 -5 14 -8l64 -79c3 -3 6 -11 4 -16c-75 -59 -168 -95 -260 -95c-197 0 -330 143 -283 364c44 206 216 356 416 356c102 0 182 -41 227 -106c7 0 12 -7 9 -10l-96 -78c-5 -3 -13 3 -12 8c-33 36 -81 58 -135 58
c-139 0 -248 -107 -277 -242c-29 -138 45 -221 159 -221z" />
    <glyph glyph-name="d" unicode="d" horiz-adv-x="662" 
d="M77 700h113c169 0 402 -44 336 -355c-63 -294 -302 -345 -475 -345h-113c-6 0 -13 8 -12 12l145 684c1 4 0 4 6 4zM184 576l-106 -451c83 -4 271 16 318 234c38 182 -60 225 -212 217z" />
    <glyph glyph-name="e" unicode="e" horiz-adv-x="588" 
d="M143 411h268c6 0 12 -8 11 -12l-23 -109c-1 -4 1 -4 -5 -4h-278l-34 -160h325c6 0 13 -8 12 -12l-23 -110c-1 -4 0 -4 -6 -4h-453c-5 0 -12 8 -11 12l145 684c1 4 0 4 5 4h453c6 0 13 -8 12 -12l-23 -111c-1 -4 0 -4 -6 -4h-335z" />
    <glyph glyph-name="f" unicode="f" horiz-adv-x="580" 
d="M143 411h268c6 0 12 -8 11 -12l-24 -112c-1 -4 1 -4 -5 -4h-278l-59 -279c-1 -4 1 -4 -5 -4h-114c-5 0 -12 8 -11 12l144 678c1 4 0 4 5 4h453c6 0 13 -8 12 -12l-24 -113c-1 -4 0 -4 -6 -4h-335z" />
    <glyph glyph-name="H.alt1" horiz-adv-x="681" 
d="M475 700h114c6 0 13 -8 12 -12l-145 -684c-1 -4 0 -4 -6 -4h-114c-6 0 -13 8 -12 12l34 159h-265l-36 -167c-1 -4 0 -4 -6 -4h-114c-6 0 -13 8 -12 12l145 684c1 4 0 4 6 4h114c6 0 13 -8 12 -12l-33 -159h265l35 167c1 4 0 4 6 4zM406 399h-265l-21 -98h265z" />
    <glyph glyph-name="i" unicode="i" horiz-adv-x="280" 
d="M-74 12l145 684c1 4 0 4 6 4h113c6 0 13 -8 12 -12l-145 -684c-1 -4 0 -4 -6 -4h-113c-6 0 -13 8 -12 12z" />
    <glyph glyph-name="k" unicode="k" horiz-adv-x="646" 
d="M272 344l206 -334c5 -6 7 -10 -2 -10h-149c-2 0 -14 5 -14 6l-146 246c-21 -19 -43 -42 -66 -61l-43 -187c-1 -4 0 -4 -6 -4h-114c-6 0 -13 8 -12 12l145 684c1 4 0 4 6 4h114c6 0 13 -8 12 -12l-70 -320l332 332c1 1 4 0 6 0h142c9 0 20 -10 15 -16z" />
    <glyph glyph-name="l.001" horiz-adv-x="561" 
d="M83 129h296c5 0 12 -8 11 -12l-24 -113c-1 -4 0 -4 -5 -4h-424c-6 0 -13 8 -12 12l144 678c1 4 0 4 6 4h114c5 0 12 -8 11 -12l-69 -327h286c6 0 13 -8 12 -12l-22 -104c-1 -4 0 -4 -6 -4h-296z" />
    <glyph glyph-name="M.alt1" horiz-adv-x="1022" 
d="M591 701h124c3 0 14 -5 13 -8l138 -685c2 -6 4 -8 -4 -8h-123c-3 0 -14 5 -12 8l-103 513l-128 -197c22 -105 42 -212 61 -320c5 -2 7 -4 -1 -4h-123c-3 0 -14 6 -13 8l-28 145l-94 -151c-2 -3 -4 -2 -7 -2h-124c-8 0 -16 9 -13 15l203 315c-15 71 -25 122 -38 194
l-327 -522c-2 -3 -4 -2 -7 -2h-123c-8 0 -16 9 -13 15l431 684c1 3 3 2 6 2h123c3 0 14 -5 13 -8l37 -195l126 201c1 2 3 2 6 2z" />
    <glyph glyph-name="n" unicode="n" horiz-adv-x="742" 
d="M655 689l-146 -685c-1 -4 0 -4 -6 -4h-114c-2 0 -13 4 -12 6l-219 463l-101 -465c-1 -4 0 -4 -5 -4h-114c-6 0 -12 8 -11 12l145 685c1 4 -1 4 5 4h115c2 0 12 -4 11 -6l220 -467l101 469c1 4 0 4 6 4h112c6 0 14 -8 13 -12z" />
    <glyph glyph-name="o" unicode="o" horiz-adv-x="797" 
d="M385 710c234 0 316 -184 277 -366c-37 -176 -186 -353 -410 -353c-238 0 -317 185 -279 367c38 176 184 352 412 352zM259 117c144 0 246 120 271 239c24 114 -18 227 -152 227c-146 0 -247 -121 -272 -241c-24 -113 17 -225 153 -225z" />
    <glyph glyph-name="p" unicode="p" horiz-adv-x="580" 
d="M76 700h227c28 0 240 -8 196 -218c-43 -203 -258 -201 -275 -201h-109l-59 -279c-1 -4 1 -4 -5 -4h-114c-5 0 -13 8 -12 12l146 686c1 4 0 4 5 4zM142 410h99c18 0 111 6 128 86c16 75 -67 75 -83 75h-109z" />
    <glyph glyph-name="q" unicode="q" horiz-adv-x="827" 
d="M622 60l-96 -78c-4 -3 -10 2 -13 5l-53 61c-64 -37 -136 -58 -203 -58c-215 0 -322 173 -281 368c40 188 203 352 414 352c212 0 323 -172 281 -366c-14 -68 -51 -148 -102 -205l48 -66c3 -3 9 -10 5 -13zM264 118c37 0 79 12 118 30c-14 21 -30 43 -43 66
c-7 0 -13 7 -10 10l98 79c4 3 10 -2 13 -5l52 -56c21 31 42 77 50 116c25 118 -23 224 -159 224c-142 0 -250 -114 -277 -238c-25 -118 32 -226 158 -226z" />
    <glyph glyph-name="r" unicode="r" horiz-adv-x="599" 
d="M115 283l-59 -279c-1 -4 0 -4 -6 -4h-114c-5 0 -12 8 -11 12l145 684c1 4 0 4 5 4h226c40 0 241 -6 196 -215c-22 -104 -87 -157 -165 -186c18 -97 45 -193 65 -295c5 -2 7 -4 0 -4h-125c-3 0 -14 6 -13 8l-67 275h-77zM143 411h97c29 0 110 8 127 88
c16 74 -62 74 -83 74h-107z" />
    <glyph glyph-name="s" unicode="s" horiz-adv-x="543" 
d="M128 -10c-127 3 -213 78 -187 213h5h113c5 0 14 -7 12 -14c-8 -49 24 -70 65 -70c52 0 106 34 117 86c10 49 -28 78 -62 80c-11 0 -61 2 -102 26c-71 34 -103 104 -84 190c28 131 146 208 256 208c127 0 209 -86 184 -209c0 -1 1 -1 -5 -1h-112c-5 0 -13 8 -12 15
c8 47 -21 67 -62 67c-54 0 -106 -32 -119 -94c-10 -48 21 -77 62 -77c10 0 60 -2 100 -26c74 -34 103 -108 85 -193c-28 -132 -145 -201 -254 -201z" />
    <glyph glyph-name="t" unicode="t" horiz-adv-x="448" 
d="M426 682l-22 -104c-1 -4 0 -3 -6 -3h-138l-121 -571c-1 -4 1 -4 -5 -4h-113c-6 0 -12 8 -11 12l119 563h-128c-6 0 -13 7 -12 11l22 104c1 4 0 4 6 4h397c6 0 13 -8 12 -12z" />
    <glyph glyph-name="u" unicode="u" horiz-adv-x="683" 
d="M195 -10c-150 0 -254 94 -223 239l98 461c1 4 0 4 6 4h113c6 0 13 -8 12 -12l-99 -460c-6 -70 41 -103 101 -103c71 0 149 39 164 110l98 461c1 4 0 4 6 4h114c5 0 12 -8 11 -12l-98 -461c-31 -149 -158 -231 -303 -231z" />
    <glyph glyph-name="v" unicode="v" horiz-adv-x="571" 
d="M430 700h122c8 0 16 -9 13 -15l-421 -701c-4 -6 -15 1 -16 7l-121 701c-1 6 -4 8 3 8h122c4 0 12 -6 11 -9l56 -387l225 394c1 3 2 2 6 2z" />
    <glyph glyph-name="w" unicode="w" horiz-adv-x="1005" 
d="M992 685l-422 -710c-5 -7 -15 0 -15 7l-89 537l-320 -544c-5 -7 -16 0 -17 7l-119 710c-1 6 -3 8 4 8h122c4 0 12 -6 11 -9l55 -386l226 393c1 3 1 2 5 2h126c4 0 12 -6 11 -9l56 -386l226 393c1 3 2 2 6 2h122c8 0 15 -9 12 -15z" />
    <glyph glyph-name="x" unicode="x" horiz-adv-x="674" 
d="M-135 16l316 334c-56 110 -111 230 -162 343c-8 3 -11 7 -2 7h138c2 0 13 -4 12 -6l112 -234l217 240c1 2 3 0 5 0h139c8 0 17 -10 13 -16l-318 -340c57 -111 112 -224 166 -337c5 -3 8 -7 0 -7h-139c-2 0 -13 4 -12 6l-111 228l-218 -234c-1 -2 -3 0 -5 0h-138
c-9 0 -18 10 -13 16z" />
    <glyph glyph-name="y" unicode="y" horiz-adv-x="655" 
d="M494 700h139c9 0 18 -10 14 -16l-331 -357l-71 -323c-1 -4 0 -4 -6 -4h-113c-6 0 -13 8 -12 12l70 318c-58 118 -117 242 -172 363c-8 3 -11 7 -2 7h139c1 0 12 -4 11 -6l112 -234l218 240c1 2 3 0 4 0z" />
    <glyph glyph-name="z" unicode="z" horiz-adv-x="583" 
d="M410 0h-550c-7 0 -17 9 -13 15l461 556h-297c-5 0 -13 8 -12 12l24 113c1 4 0 4 5 4h521c8 0 16 -10 14 -16l-460 -555h325c6 0 12 -8 11 -12l-24 -113c-1 -4 1 -4 -5 -4z" />
    <glyph glyph-name="h" unicode="h" horiz-adv-x="686" 
d="M474 700h114c5 0 12 -8 11 -12l-145 -684c-1 -4 0 -4 -5 -4h-114c-6 0 -13 8 -12 12l59 280h-262l-61 -288c-1 -4 0 -4 -6 -4h-113c-6 0 -13 8 -12 12l145 684c1 4 0 4 6 4h113c6 0 13 -8 12 -12l-57 -269h262l59 277c1 4 0 4 6 4z" />
    <glyph glyph-name="l" unicode="l" horiz-adv-x="501" 
d="M83 129h236c6 0 13 -8 12 -12l-24 -113c-1 -4 0 -4 -6 -4h-364c-6 0 -13 8 -12 12l145 684c1 4 0 4 6 4h113c6 0 13 -8 12 -12z" />
    <glyph glyph-name="O.alt4" horiz-adv-x="778" 
d="M237 2c-200 0 -327 161 -286 356c40 189 224 342 414 342c198 0 326 -161 284 -356c-40 -189 -224 -342 -412 -342zM372 637c-162 0 -323 -132 -358 -293c-33 -155 64 -278 216 -278c160 0 321 131 355 292c33 155 -63 279 -213 279zM182 464c16 74 45 133 67 133
c32 0 44 -67 27 -147c-16 -74 -44 -133 -66 -133c-32 0 -45 67 -28 147zM372 464c16 74 43 133 66 133c31 0 43 -67 26 -147c-16 -74 -44 -133 -65 -133c-33 0 -44 67 -27 147zM259 109c-141 0 -232 113 -203 249c1 1 0 1 6 1h47c6 0 13 -8 11 -15c-20 -97 39 -173 133 -173
c103 0 205 84 227 187c1 1 0 1 5 1h47c6 0 13 -8 11 -15c-27 -130 -155 -235 -284 -235z" />
    <glyph glyph-name="O.alt5" horiz-adv-x="819" 
d="M728 344l-268 -343c-1 -2 -3 -1 -6 -1h-396c-3 0 -14 5 -12 7l-122 343c-1 2 0 6 -1 8l268 342c1 2 3 1 6 1h396c3 0 14 -5 13 -7l122 -342c1 -2 0 -6 0 -8zM403 129l179 225c-27 74 -54 146 -81 221l-253 -6c-59 -74 -115 -146 -176 -221l79 -219h252z" />
    <glyph glyph-name="m" unicode="m" horiz-adv-x="916" 
d="M825 688l-145 -684c-1 -4 0 -4 -6 -4h-113c-6 0 -13 8 -12 12l85 390l-256 -373c-1 -2 -3 -2 -6 -2h-107c-3 0 -13 6 -11 8l-108 375l-88 -406c-1 -4 0 -4 -6 -4h-113c-6 0 -13 8 -12 12l145 684c1 4 0 4 6 4h115c3 0 14 -6 12 -8l137 -512l350 518c1 2 3 2 6 2h115
c6 0 13 -8 12 -12z" />
    <glyph glyph-name="A.alt3" horiz-adv-x="558" 
d="M358 283l51 -275c2 -6 4 -8 -3 -8h-124c-2 0 -11 6 -10 9l-13 108l-73 -115c-2 -3 -3 -2 -6 -2h-96c-3 0 -14 5 -12 8l-20 109l-63 -115c-2 -3 -4 -2 -7 -2h-123c-8 0 -16 9 -13 15l419 683c5 7 15 0 15 -7zM214 396l-73 -116l20 -106l73 106z" />
    <glyph glyph-name="A.alt4" horiz-adv-x="624" 
d="M591 688l-24 -114c-1 -4 0 -4 -6 -4l-222 -3c34 -188 71 -372 102 -563c5 -2 7 -4 -1 -4h-123c-3 0 -14 5 -12 8l-64 351l-217 -357c-2 -3 -4 -2 -7 -2h-123c-8 0 -16 9 -13 15l342 555h-208c-6 0 -13 8 -12 12l24 114c1 4 0 4 6 4h546c6 0 13 -8 12 -12z" />
    <glyph glyph-name="j" unicode="j" horiz-adv-x="406" 
d="M201 700h114c5 0 12 -8 11 -12l-103 -487c-44 -205 -246 -201 -246 -201h-85c-6 0 -13 8 -12 12l24 113c1 4 0 4 6 4h85c76 0 98 80 98 80l103 487c1 4 -1 4 5 4z" />
    <glyph glyph-name="J" unicode="J" horiz-adv-x="406" 
d="M79 701h238c6 0 13 -8 12 -12l-104 -486c-44 -207 -248 -203 -248 -203h-86c-6 0 -13 8 -12 12l24 114c1 4 0 4 6 4h86c77 0 99 81 99 81l79 370h-109c-6 0 -14 8 -13 12l22 104c1 4 0 4 6 4z" />
    <glyph glyph-name="O.alt6" horiz-adv-x="808" 
d="M388 699c199 0 327 -160 285 -356c-40 -190 -225 -343 -414 -343c-200 0 -327 161 -285 357c40 190 224 342 414 342zM543 357c25 118 -48 213 -163 213c-42 0 -79 -11 -113 -27l215 -306c29 34 51 73 61 120zM103 343c-25 -119 48 -213 164 -213c38 0 68 8 101 22
c-72 103 -138 197 -211 299c-26 -32 -46 -70 -54 -108z" />
    <glyph glyph-name="O.alt7" horiz-adv-x="1135" 
d="M707 700c200 0 328 -161 286 -357c-40 -190 -225 -343 -415 -343c-61 0 -112 15 -149 36c-57 -25 -113 -36 -164 -36c-199 0 -328 161 -286 357c40 190 226 343 415 343c61 0 113 -15 150 -36c58 25 112 36 163 36zM110 343c-25 -119 48 -213 163 -213c16 0 31 2 46 7
c-30 60 -44 135 -26 220c17 79 56 152 122 213h-29c-125 0 -249 -102 -276 -227zM557 130h29c125 0 250 102 276 227c25 119 -48 213 -163 213c-16 0 -30 -2 -46 -7c30 -60 44 -135 26 -220c-17 -79 -56 -152 -122 -213zM549 357c12 57 2 109 -23 146
c-52 -43 -89 -96 -103 -160c-12 -56 -1 -109 24 -146c52 43 89 97 102 160z" />
    <glyph glyph-name="I.alt" horiz-adv-x="562" 
d="M335 120h62c6 0 13 -8 12 -12l-22 -104c-1 -4 0 -4 -6 -4h-495c-6 0 -13 8 -12 12l22 104c1 4 0 4 6 4h71l97 460h-61c-6 0 -13 8 -12 12l22 104c1 4 0 4 6 4h495c6 0 13 -8 12 -12l-22 -104c-1 -4 0 -4 -6 -4h-72zM204 580l-97 -460h95l97 460h-95z" />
    <glyph glyph-name="O.009" horiz-adv-x="1022" 
d="M794 130h42c6 0 13 -8 12 -12l-24 -114c-1 -4 0 -4 -6 -4h-913c-6 0 -13 8 -12 12l24 114c1 4 0 4 6 4h52l94 441h-42c-6 0 -14 8 -13 12l24 114c1 4 0 4 6 4h913c6 0 14 -8 13 -12l-25 -114c0 -4 1 -4 -5 -4h-52zM297 571h-94l-94 -441h94zM526 571h-95l-94 -441h95z
M659 571l-94 -441h95l94 441h-95z" />
    <glyph glyph-name="ampersand.alt" horiz-adv-x="607" 
d="M476 68l-100 -81c-3 -3 -8 3 -10 6l-60 68c-50 -40 -100 -72 -172 -72c-155 0 -226 121 -199 252c12 56 48 108 97 152c-22 30 -41 83 -30 132c20 94 112 171 205 171c105 0 173 -85 152 -185c-13 -60 -51 -111 -111 -143l46 -59l23 100c1 4 0 4 6 4h113
c6 0 13 -8 12 -12l-36 -171c-4 -17 -10 -36 -17 -52l75 -98c4 -3 9 -9 6 -12zM202 577c-36 0 -72 -29 -80 -66c-7 -31 9 -52 35 -52c36 0 74 29 82 66c6 31 -11 52 -37 52zM139 122c34 0 63 11 89 30l-119 149c-21 -18 -39 -45 -46 -77c-12 -57 21 -102 76 -102z" />
    <glyph glyph-name="A.alt5" horiz-adv-x="817" 
d="M416 814c208 0 342 -167 298 -371c0 -1 1 -1 -5 -1h-114c-6 0 -13 8 -12 15c26 121 -40 218 -159 227l119 -676c2 -6 4 -8 -4 -8h-123c-3 0 -14 6 -13 8l-15 73l-216 2c-16 -26 -36 -56 -49 -85c-2 1 -3 2 -7 2h-123c-8 0 -16 9 -13 15l94 142c-77 67 -116 175 -90 300
c42 198 235 357 432 357zM144 285c83 134 166 267 252 400l-3 2c-125 -9 -250 -115 -278 -244c-12 -60 -1 -119 29 -158zM379 214l-31 178l-114 -172c13 -4 27 -5 43 -6h102z" />
    <glyph glyph-name="perthousand" unicode="&#x2030;" horiz-adv-x="1008" 
d="M-29 2h-109c-8 0 -17 10 -13 16l676 682c1 1 4 0 6 0h109c9 0 17 -10 13 -16l-676 -682c-2 -1 -4 0 -6 0zM114 403c-87 0 -146 71 -128 155c17 79 94 142 171 142c87 0 145 -71 127 -156c-17 -78 -93 -141 -170 -141zM157 604c-33 0 -66 -27 -73 -60c-6 -26 7 -44 30 -44
c32 0 66 26 73 58c6 27 -8 46 -30 46zM343 2c-90 0 -147 71 -129 157c17 80 92 143 172 143c90 0 147 -71 129 -157c-17 -80 -92 -143 -172 -143zM681 2c-89 0 -147 71 -129 157c17 80 93 143 172 143c90 0 148 -71 130 -157c-17 -80 -93 -143 -173 -143zM386 205
c-34 0 -67 -27 -74 -60c-6 -27 7 -46 31 -46c33 0 67 27 74 60c6 27 -8 46 -31 46zM724 205c-33 0 -67 -27 -74 -60c-6 -27 8 -46 31 -46c33 0 68 27 75 60c6 27 -9 46 -32 46z" />
    <glyph glyph-name="quotedblbase" unicode="&#x201e;" horiz-adv-x="393" 
d="M-41 129c62 0 80 -39 71 -84c-11 -49 -54 -113 -96 -140c-11 -2 -21 8 -20 15l21 72c-34 4 -57 38 -49 76c7 34 40 61 73 61zM142 129c62 0 80 -39 71 -84c-11 -49 -54 -113 -96 -140c-11 -2 -21 8 -20 15l21 72c-34 4 -57 38 -49 76c7 34 40 61 73 61z" />
    <glyph glyph-name="dotaccent" unicode="&#x2d9;" horiz-adv-x="273" 
d="M180 627c-7 -35 -42 -63 -81 -63c-46 0 -79 36 -71 77c8 36 45 64 81 64c49 0 80 -36 71 -78z" />
    <glyph glyph-name="plusminus" unicode="&#xb1;" horiz-adv-x="518" 
d="M405 426l-21 -99c-1 -3 0 -3 -5 -3h-147l-32 -151c-1 -4 0 -4 -6 -4h-102c-6 0 -12 8 -11 12l30 143h-138c-6 0 -13 8 -13 11l21 99c1 4 0 4 6 4h148l32 148c1 4 -1 4 5 4h102c6 0 13 -8 12 -12l-30 -140h137c5 0 13 -8 12 -12zM-65 122l-24 -114h383l24 114h-383z" />
    <glyph glyph-name="guillemotleft" unicode="&#xab;" horiz-adv-x="504" 
d="M164 551l62 -57c4 -3 9 -9 7 -12l-166 -161l97 -151c3 -3 7 -8 3 -11l-87 -60c-4 -3 -10 3 -11 6l-138 214c-2 3 -6 7 -4 10l226 227c4 3 10 -2 11 -5zM363 551l62 -57c4 -3 9 -9 7 -12l-156 -161l87 -151c3 -3 7 -8 3 -11l-87 -60c-4 -3 -10 3 -11 6l-136 214
c-2 3 -6 7 -4 10l224 227c4 3 10 -2 11 -5z" />
    <glyph glyph-name="guillemotright" unicode="&#xbb;" horiz-adv-x="499" 
d="M-24 499l87 57c5 3 12 -3 13 -6l131 -227c2 -3 6 -7 4 -10l-227 -213c-4 -3 -9 1 -12 4l-63 61c-2 3 -5 9 -4 12l155 144l-80 167c-2 3 -6 8 -4 11zM165 499l86 57c5 3 13 -3 14 -6l131 -227c2 -3 6 -7 4 -10l-227 -213c-4 -3 -10 1 -13 4l-61 60c-3 3 -9 9 -6 12
l155 145l-79 167c-2 3 -6 8 -4 11z" />
    <glyph glyph-name="guilsinglleft" unicode="&#x2039;" horiz-adv-x="314" 
d="M168 551l62 -57c4 -3 9 -9 7 -12l-156 -161l87 -151c3 -3 7 -8 3 -11l-87 -60c-4 -3 -10 3 -11 6l-139 214c-2 3 -6 7 -4 10l227 227c4 3 10 -2 11 -5z" />
    <glyph glyph-name="guilsinglright" unicode="&#x203a;" horiz-adv-x="314" 
d="M-24 499l89 58c3 3 10 -4 11 -7l131 -227c2 -3 6 -7 4 -10l-227 -213c-4 -3 -9 1 -12 4l-62 60c-3 3 -9 9 -6 12l156 145l-80 167c-2 3 -6 8 -4 11z" />
    <glyph glyph-name="section" unicode="&#xa7;" horiz-adv-x="416" 
d="M272 692c54 -25 81 -77 68 -140c-1 -1 0 -1 -6 -1h-83c-6 0 -13 8 -11 15c4 21 2 33 -10 43c-14 3 -28 5 -30 6c-4 -1 -11 -1 -14 -1c-1 0 -6 -1 -3 -1c-4 -1 -21 -4 -34 -10h1c-20 -9 -36 -25 -41 -51c-5 -20 -3 -34 9 -44c19 -5 43 -4 44 -4c5 -1 40 -4 66 -21
c57 -25 80 -77 67 -141c-8 -39 -27 -73 -62 -102c18 -25 27 -62 17 -107c-12 -57 -52 -105 -107 -132c-43 -16 -89 -16 -91 -16c2 0 -36 4 -65 22c-53 25 -81 77 -68 140c1 1 0 1 6 1h83c6 0 13 -8 11 -15c-4 -21 -2 -33 11 -43c19 -6 47 -4 43 -4c-3 0 18 2 34 13
c22 6 38 22 43 48c5 21 3 34 -8 43c-19 5 -42 5 -45 5c-2 0 -38 5 -66 21c-51 26 -79 79 -67 141c8 38 27 73 63 103c-18 24 -28 60 -18 106c12 57 53 105 107 132c44 15 89 16 91 16c0 0 38 -4 65 -22zM108 391c-20 -6 -39 -23 -44 -48c-4 -19 1 -34 11 -44
c15 -3 39 -4 43 -4c1 1 19 4 34 13c21 6 38 23 43 49c4 19 -1 33 -10 43c-15 3 -39 4 -43 4c0 -1 -22 -6 -34 -13z" />
    <glyph glyph-name="O.alt8" horiz-adv-x="814" 
d="M391 700c201 0 328 -161 286 -357c-40 -190 -224 -342 -415 -342c-199 0 -327 160 -285 356c40 190 225 343 414 343zM270 130c126 0 250 103 276 227c25 119 -47 213 -163 213c-125 0 -249 -102 -276 -227c-25 -118 48 -213 163 -213zM424 357c11 52 -19 91 -67 91
c-57 0 -115 -47 -127 -105c-11 -51 19 -91 66 -91c58 0 116 48 128 105z" />
    <glyph glyph-name="X.alt1" horiz-adv-x="571" 
d="M349 350l60 -342c2 -6 4 -8 -3 -8h-124c-2 0 -13 5 -11 8l-64 351l-218 -357c-2 -3 -4 -2 -7 -2h-123c-8 0 -16 9 -13 15l210 335l-62 342c-1 6 -4 8 4 8h113c3 0 14 -5 12 -8l36 -182l106 188c4 7 14 1 15 -6l29 -179c33 53 84 132 116 189c2 -1 3 -2 6 -2h114
c7 0 15 -9 12 -15z" />
    <glyph glyph-name="g" unicode="g" horiz-adv-x="773" 
d="M325 405h295c6 0 14 -8 13 -12l-83 -391c-1 -4 0 -4 -6 -4h-100c-5 0 -13 7 -12 11l11 54c-62 -51 -123 -74 -195 -74c-194 0 -318 135 -269 368c44 205 227 353 416 353c103 0 183 -41 228 -107c7 0 13 -7 10 -10l-98 -79c-4 -3 -12 3 -12 8c-32 36 -80 59 -135 59
c-125 0 -246 -90 -278 -238c-34 -159 45 -224 160 -224c69 0 136 31 187 76l22 93h-169c-6 0 -13 8 -12 12l21 101c1 4 0 4 6 4z" />
    <glyph glyph-name="tilde" unicode="&#x2dc;" horiz-adv-x="392" 
d="M284 703l73 -25c5 -1 14 -8 11 -15c-38 -71 -75 -94 -120 -94c-31 0 -58 9 -84 22l-15 5c-8 4 -19 8 -21 8c-12 0 -26 -10 -33 -32c-3 0 -6 1 -11 2l-74 22c-5 1 -11 8 -10 15c25 69 71 98 122 98c30 0 57 -8 81 -22c3 -1 12 -3 8 -5c6 -3 18 -6 24 -6c14 0 29 9 38 30
c3 -1 6 -2 11 -3z" />
    <glyph glyph-name="quotesinglbase" unicode="&#x201a;" horiz-adv-x="201" 
d="M-41 129c62 0 80 -39 71 -84c-11 -49 -54 -113 -96 -140c-11 -2 -21 8 -20 15l21 72c-34 4 -57 38 -49 76c7 34 40 61 73 61z" />
    <glyph glyph-name="ellipsis" unicode="&#x2026;" horiz-adv-x="556" 
d="M-42 133c46 0 75 -36 66 -77c-7 -35 -39 -62 -75 -62c-43 0 -73 35 -64 76c8 35 40 63 73 63zM134 133c46 0 75 -36 66 -77c-7 -35 -39 -62 -75 -62c-43 0 -73 35 -64 76c8 35 40 63 73 63zM310 133c46 0 75 -36 66 -77c-7 -35 -39 -62 -75 -62c-43 0 -73 35 -64 76
c8 35 40 63 73 63z" />
    <glyph glyph-name="Scaron" unicode="&#x160;" horiz-adv-x="543" 
d="M448 923l33 -68c2 -4 7 -9 4 -11l-188 -95h-9l-150 92c-5 2 -11 10 -9 14l60 74c4 4 8 0 10 -2l110 -65l127 69c5 2 11 -5 12 -8zM262 710c128 0 211 -87 186 -212h-5h-113c-5 0 -13 8 -12 14c8 48 -22 68 -64 68c-54 0 -107 -33 -119 -94c-11 -49 23 -72 64 -72
c10 0 61 -2 101 -27c74 -34 104 -107 85 -194c-28 -132 -146 -203 -256 -203c-128 3 -215 79 -188 214c0 1 -1 1 5 1h114c5 0 13 -8 12 -15c-9 -48 24 -70 65 -70c53 0 107 36 118 87c11 50 -27 78 -63 80c-11 0 -60 2 -102 27c-73 34 -105 99 -87 186
c29 132 149 210 259 210z" />
    <glyph glyph-name="oe" unicode="&#x153;" horiz-adv-x="946" 
d="M526 411h219c5 0 12 -8 11 -12l-23 -107c-1 -4 0 -4 -5 -4h-229l-34 -161h276c6 0 14 -8 13 -12l-24 -111c-1 -4 0 -4 -6 -4h-396c-25 -5 -54 -7 -76 -7c-228 0 -306 182 -267 362c37 174 180 348 398 348c33 0 64 -5 87 -10l378 1c6 0 13 -8 12 -12l-23 -108
c-1 -4 0 -4 -6 -4h-272zM256 109c28 0 53 3 76 10l107 458c-19 5 -44 9 -61 9c-134 0 -231 -124 -257 -246c-24 -116 11 -231 135 -231z" />
    <glyph glyph-name="Zcaron" unicode="&#x17d;" horiz-adv-x="475" 
d="M406 912l32 -66c2 -4 7 -9 4 -11l-183 -93h-9l-147 90c-5 2 -11 10 -9 14l58 72c4 4 9 -1 11 -3l107 -63l125 68c4 2 10 -5 11 -8zM319 118l-24 -114c-1 -4 0 -4 -6 -4h-398c-8 0 -16 9 -13 15l342 555h-209c-6 0 -13 8 -12 12l24 114c1 4 0 4 6 4h398c8 0 16 -9 13 -15
l-342 -555h209c6 0 13 -8 12 -12z" />
    <glyph glyph-name="zcaron" unicode="&#x17e;" horiz-adv-x="583" 
d="M464 921l33 -68c2 -4 7 -9 3 -11l-187 -95h-9l-150 92c-5 2 -11 10 -9 14l59 74c4 4 8 0 11 -2l110 -65l127 69c4 2 11 -5 12 -8zM410 0h-550c-7 0 -17 9 -13 15l461 556h-297c-5 0 -13 8 -12 12l24 113c1 4 0 4 5 4h521c8 0 16 -10 14 -16l-460 -555h325
c6 0 12 -8 11 -12l-24 -113c-1 -4 1 -4 -5 -4z" />
    <glyph glyph-name="Ydieresis" unicode="&#x178;" horiz-adv-x="645" 
d="M315 810c-7 -36 -43 -65 -78 -65c-44 0 -76 37 -67 79c8 36 43 65 77 65c45 0 77 -37 68 -79zM519 810c-7 -36 -42 -65 -77 -65c-45 0 -77 37 -68 79c8 36 43 65 78 65c45 0 76 -37 67 -79zM487 700h140c9 0 18 -10 14 -16l-333 -355l-71 -325c-1 -4 0 -4 -6 -4h-114
c-6 0 -13 8 -12 12l71 320c-59 120 -120 239 -175 361c-8 3 -11 7 -2 7h139c2 0 13 -4 12 -6l114 -230l219 236c1 2 2 0 4 0z" />
    <glyph glyph-name="Agrave" unicode="&#xc0;" 
d="M430 807l-64 -78c-4 -4 -8 0 -11 2l-160 97c-5 1 -11 9 -9 13l69 82c4 4 8 0 12 -2l154 -100c4 -2 11 -10 9 -14zM31 79l-42 -77c-2 -3 -3 -2 -7 -2h-123c-8 0 -16 9 -13 15l423 703c4 7 16 0 16 -7l124 -703c2 -6 4 -8 -3 -8h-124c-3 0 -13 5 -11 8l-12 71h-228z
M240 197l-23 210l-118 -210h141z" />
    <glyph glyph-name="Aacute" unicode="&#xc1;" 
d="M208 735l-31 79c-2 4 -7 7 -3 8l209 102c5 2 14 -4 14 -8l36 -81c1 -4 4 -8 1 -10l-211 -98c-6 -2 -14 4 -15 8zM31 79l-42 -77c-2 -3 -3 -2 -7 -2h-123c-8 0 -16 9 -13 15l423 703c4 7 16 0 16 -7l124 -703c2 -6 4 -8 -3 -8h-124c-3 0 -13 5 -11 8l-12 71h-228zM240 197
l-23 210l-118 -210h141z" />
    <glyph glyph-name="Acircumflex" unicode="&#xc2;" 
d="M157 722l-33 69c-2 4 -7 9 -3 11l188 96c2 1 8 -4 9 -5l149 -89c5 -2 11 -9 9 -13l-60 -75c-3 -3 -7 0 -10 1l-110 67l-127 -69c-3 -1 -11 4 -12 7zM31 79l-42 -77c-2 -3 -3 -2 -7 -2h-123c-8 0 -16 9 -13 15l423 703c4 7 16 0 16 -7l124 -703c2 -6 4 -8 -3 -8h-124
c-3 0 -13 5 -11 8l-12 71h-228zM240 197l-23 210l-118 -210h141z" />
    <glyph glyph-name="Atilde" unicode="&#xc3;" 
d="M201 745l-75 22c-5 1 -11 8 -10 15c25 69 71 98 122 98c31 0 59 -9 84 -24l-3 2c1 0 12 -3 9 -5c5 -3 17 -6 23 -6c14 0 29 9 39 30c2 -1 5 -2 10 -3l74 -25c4 -1 13 -8 10 -15c-38 -71 -74 -94 -119 -94c-31 0 -59 9 -85 22l-15 5c-8 4 -19 8 -21 8
c-12 0 -25 -10 -33 -32c-3 0 -6 1 -10 2zM31 79l-42 -77c-2 -3 -3 -2 -7 -2h-123c-8 0 -16 9 -13 15l423 703c4 7 16 0 16 -7l124 -703c2 -6 4 -8 -3 -8h-124c-3 0 -13 5 -11 8l-12 71h-228zM240 197l-23 210l-118 -210h141z" />
    <glyph glyph-name="Adieresis" unicode="&#xc4;" 
d="M269 795c-7 -36 -44 -65 -79 -65c-44 0 -75 37 -66 79c8 36 43 65 77 65c45 0 77 -37 68 -79zM473 795c-7 -36 -43 -65 -78 -65c-45 0 -76 37 -67 79c8 36 43 65 78 65c45 0 76 -37 67 -79zM31 79l-42 -77c-2 -3 -3 -2 -7 -2h-123c-8 0 -16 9 -13 15l423 703
c4 7 16 0 16 -7l124 -703c2 -6 4 -8 -3 -8h-124c-3 0 -13 5 -11 8l-12 71h-228zM240 197l-23 210l-118 -210h141z" />
    <glyph glyph-name="ring" unicode="&#x2da;" horiz-adv-x="341" 
d="M116 435c-82 0 -138 68 -121 147c15 73 88 133 160 133c82 0 138 -68 121 -147c-16 -73 -88 -133 -160 -133zM156 623c-29 0 -61 -26 -67 -55c-5 -24 7 -40 26 -40c30 0 61 24 67 54c5 23 -6 41 -26 41z" />
    <glyph glyph-name="Aring" unicode="&#xc5;" 
d="M-18 0h-123c-8 0 -16 9 -13 15l351 572c-46 20 -72 72 -59 133c16 73 89 133 161 133c82 0 137 -68 120 -147c-10 -50 -55 -99 -106 -122l96 -576c2 -6 4 -8 -3 -8h-124c-3 0 -11 6 -10 9l-13 70h-228l-42 -77c-2 -3 -3 -2 -7 -2zM299 761c-30 0 -61 -26 -67 -55
c-5 -24 7 -40 27 -40c29 0 60 24 66 54c5 23 -7 41 -26 41zM98 194l143 3c-10 76 -18 124 -26 201z" />
    <glyph glyph-name="AE" unicode="&#xc6;" horiz-adv-x="790" 
d="M426 415h184c6 0 14 -8 13 -12l-23 -106c-1 -4 0 -4 -6 -4h-194l-36 -171h241c6 0 13 -8 13 -12l-23 -106c-1 -4 0 -4 -6 -4h-370c-6 0 -13 8 -12 12l16 78h-161l-66 -89c-1 -2 -3 -1 -6 -1h-132c-8 0 -18 9 -14 15l497 678h1c0 1 2 2 3 6c0 1 -1 1 5 1h367
c6 0 13 -8 12 -12l-22 -106c-1 -4 0 -4 -6 -4h-240zM141 204l107 4c11 49 23 103 61 252z" />
    <glyph glyph-name="Ccedilla" unicode="&#xc7;" horiz-adv-x="694" 
d="M271 129c65 0 127 27 173 70c8 0 13 -5 15 -7l64 -83c4 -3 7 -10 5 -15c-40 -31 -88 -58 -141 -79c12 -22 20 -50 12 -88c-20 -92 -111 -168 -203 -168c-103 0 -171 71 -150 171h5h95c6 0 14 -7 12 -14c-7 -33 13 -46 42 -46c39 0 79 33 87 71c6 31 -7 53 -34 57l1 -1
c-196 2 -324 164 -281 362c40 192 228 350 421 350c104 0 186 -42 231 -109c7 0 12 -6 10 -9l-99 -81c-5 -2 -13 4 -13 8c-34 38 -82 59 -137 59c-127 0 -254 -106 -280 -232c-26 -121 48 -216 165 -216z" />
    <glyph glyph-name="Edieresis" unicode="&#xcb;" horiz-adv-x="588" 
d="M310 809c-7 -36 -44 -65 -79 -65c-44 0 -75 37 -66 79c8 36 43 65 77 65c45 0 77 -37 68 -79zM514 809c-7 -36 -43 -65 -78 -65c-45 0 -76 37 -67 79c8 36 43 65 78 65c45 0 76 -37 67 -79zM144 415h270c5 0 13 -8 12 -12l-24 -111c-1 -4 0 -4 -5 -4h-280l-33 -158h327
c6 0 13 -8 12 -12l-24 -114c-1 -4 0 -4 -6 -4h-456c-6 0 -13 8 -12 12l145 684c1 4 0 4 6 4h447c6 0 13 -8 12 -12l-23 -111c-1 -4 0 -4 -6 -4h-328z" />
    <glyph glyph-name="Ecircumflex" unicode="&#xca;" horiz-adv-x="588" 
d="M197 751l-32 69c-3 4 -8 9 -4 11l188 96c2 1 8 -4 9 -5l149 -89c5 -2 11 -9 10 -13l-60 -75c-4 -3 -7 0 -11 1l-110 67l-127 -69c-3 -1 -11 4 -12 7zM144 415h270c5 0 13 -8 12 -12l-24 -111c-1 -4 0 -4 -5 -4h-280l-33 -158h327c6 0 13 -8 12 -12l-24 -114
c-1 -4 0 -4 -6 -4h-456c-6 0 -13 8 -12 12l145 684c1 4 0 4 6 4h447c6 0 13 -8 12 -12l-23 -111c-1 -4 0 -4 -6 -4h-328z" />
    <glyph glyph-name="Eacute" unicode="&#xc9;" horiz-adv-x="588" 
d="M255 749l-31 79c-2 4 -7 7 -3 8l209 102c5 2 14 -4 14 -8l36 -81c1 -4 4 -8 1 -10l-211 -98c-6 -2 -14 4 -15 8zM144 415h270c5 0 13 -8 12 -12l-24 -111c-1 -4 0 -4 -5 -4h-280l-33 -158h327c6 0 13 -8 12 -12l-24 -114c-1 -4 0 -4 -6 -4h-456c-6 0 -13 8 -12 12
l145 684c1 4 0 4 6 4h447c6 0 13 -8 12 -12l-23 -111c-1 -4 0 -4 -6 -4h-328z" />
    <glyph glyph-name="Egrave" unicode="&#xc8;" horiz-adv-x="588" 
d="M452 819l-63 -78c-4 -4 -8 0 -12 2l-159 97c-5 1 -11 9 -9 13l69 82c4 4 8 0 12 -2l153 -100c5 -2 11 -10 9 -14zM144 415h270c5 0 13 -8 12 -12l-24 -111c-1 -4 0 -4 -5 -4h-280l-33 -158h327c6 0 13 -8 12 -12l-24 -114c-1 -4 0 -4 -6 -4h-456c-6 0 -13 8 -12 12
l145 684c1 4 0 4 6 4h447c6 0 13 -8 12 -12l-23 -111c-1 -4 0 -4 -6 -4h-328z" />
    <glyph glyph-name="agrave" unicode="&#xe0;" 
d="M430 807l-64 -78c-4 -4 -8 0 -11 2l-160 97c-5 1 -11 9 -9 13l69 82c4 4 8 0 12 -2l154 -100c4 -2 11 -10 9 -14zM31 79l-42 -77c-2 -3 -3 -2 -7 -2h-123c-8 0 -16 9 -13 15l423 703c4 7 16 0 16 -7l124 -703c2 -6 4 -8 -3 -8h-124c-3 0 -13 5 -11 8l-12 71h-228z
M240 197l-23 210l-118 -210h141z" />
    <glyph glyph-name="aacute" unicode="&#xe1;" 
d="M208 735l-31 79c-2 4 -7 7 -3 8l209 102c5 2 14 -4 14 -8l36 -81c1 -4 4 -8 1 -10l-211 -98c-6 -2 -14 4 -15 8zM31 79l-42 -77c-2 -3 -3 -2 -7 -2h-123c-8 0 -16 9 -13 15l423 703c4 7 16 0 16 -7l124 -703c2 -6 4 -8 -3 -8h-124c-3 0 -13 5 -11 8l-12 71h-228zM240 197
l-23 210l-118 -210h141z" />
    <glyph glyph-name="acircumflex" unicode="&#xe2;" 
d="M157 722l-33 69c-2 4 -7 9 -3 11l188 96c2 1 8 -4 9 -5l149 -89c5 -2 11 -9 9 -13l-60 -75c-3 -3 -7 0 -10 1l-110 67l-127 -69c-3 -1 -11 4 -12 7zM31 79l-42 -77c-2 -3 -3 -2 -7 -2h-123c-8 0 -16 9 -13 15l423 703c4 7 16 0 16 -7l124 -703c2 -6 4 -8 -3 -8h-124
c-3 0 -13 5 -11 8l-12 71h-228zM240 197l-23 210l-118 -210h141z" />
    <glyph glyph-name="atilde" unicode="&#xe3;" 
d="M401 878l74 -25c4 -1 13 -8 10 -15c-38 -71 -75 -94 -120 -94c-31 0 -58 9 -84 22l-15 5c-8 4 -19 8 -21 8c-12 0 -25 -10 -33 -32c-3 0 -6 1 -11 2l-74 22c-5 1 -11 8 -10 15c25 69 71 98 122 98c30 0 57 -8 81 -22c3 -1 12 -3 8 -5c6 -3 18 -6 24 -6c14 0 29 9 38 30
c3 -1 6 -2 11 -3zM285 711l124 -703c2 -6 4 -8 -3 -8h-124c-3 0 -13 5 -11 8l-12 71h-228l-42 -77c-2 -3 -3 -2 -7 -2h-123c-8 0 -16 9 -13 15l423 703c4 7 16 0 16 -7zM240 197l-23 210l-118 -210h141z" />
    <glyph glyph-name="adieresis" unicode="&#xe4;" 
d="M269 795c-7 -36 -44 -65 -79 -65c-44 0 -75 37 -66 79c8 36 43 65 77 65c45 0 77 -37 68 -79zM473 795c-7 -36 -43 -65 -78 -65c-45 0 -76 37 -67 79c8 36 43 65 78 65c45 0 76 -37 67 -79zM31 79l-42 -77c-2 -3 -3 -2 -7 -2h-123c-8 0 -16 9 -13 15l423 703
c4 7 16 0 16 -7l124 -703c2 -6 4 -8 -3 -8h-124c-3 0 -13 5 -11 8l-12 71h-228zM240 197l-23 210l-118 -210h141z" />
    <glyph glyph-name="aring" unicode="&#xe5;" 
d="M-18 0h-122c-7 0 -15 9 -12 15l348 566c-46 21 -72 72 -59 132c15 73 87 132 159 132c81 0 136 -67 119 -146c-11 -49 -54 -97 -105 -121l96 -570c2 -6 4 -8 -4 -8h-122c-4 0 -12 6 -11 9l-12 69h-226l-42 -76c-2 -3 -3 -2 -7 -2zM296 754c-30 0 -60 -25 -66 -55
c-5 -23 6 -39 26 -39c29 0 60 24 66 53c5 24 -7 41 -26 41zM98 192l141 3c-10 75 -17 123 -26 200z" />
    <glyph glyph-name="ae" unicode="&#xe6;" horiz-adv-x="790" 
d="M423 411h182c6 0 13 -8 12 -12l-23 -108c-1 -4 0 -4 -6 -4h-192l-34 -162h240c5 0 12 -8 11 -12l-23 -109c-1 -4 0 -4 -5 -4h-368c-5 0 -12 8 -11 12l14 66h-167l-57 -77c-1 -2 -2 -1 -5 -1h-131c-8 0 -18 9 -14 15l502 672h1c0 1 3 2 4 6c0 1 -2 1 4 1h354
c6 0 13 -8 12 -12l-23 -110c-1 -4 0 -4 -6 -4h-238zM138 201l109 4c10 48 21 95 31 142l25 96l-72 -116z" />
    <glyph glyph-name="ccedilla" unicode="&#xe7;" horiz-adv-x="694" 
d="M268 129c64 0 125 27 170 69c7 0 13 -5 15 -8l63 -80c3 -3 6 -10 4 -15c-40 -30 -86 -56 -137 -77c10 -22 18 -50 11 -86c-20 -91 -109 -165 -198 -165c-101 0 -168 69 -147 167c0 1 -1 1 5 1h92c5 0 13 -8 11 -15c-6 -31 13 -44 42 -44c38 0 77 32 85 70
c6 29 -6 51 -34 55l1 -1c-190 2 -316 161 -275 354c40 188 224 340 412 340c102 0 182 -42 226 -107c7 0 12 -7 10 -10l-97 -78c-4 -3 -12 3 -12 8c-33 37 -81 58 -135 58c-124 0 -247 -101 -274 -225c-25 -118 48 -211 162 -211z" />
    <glyph glyph-name="egrave" unicode="&#xe8;" horiz-adv-x="588" 
d="M472 819l-63 -78c-4 -4 -8 0 -12 2l-159 97c-5 1 -11 9 -9 13l69 82c4 4 8 0 12 -2l153 -100c5 -2 11 -10 9 -14zM144 415h270c5 0 13 -8 12 -12l-24 -111c-1 -4 0 -4 -5 -4h-280l-33 -158h327c6 0 13 -8 12 -12l-24 -114c-1 -4 0 -4 -6 -4h-456c-6 0 -13 8 -12 12
l145 684c1 4 0 4 6 4h447c6 0 13 -8 12 -12l-23 -111c-1 -4 0 -4 -6 -4h-328z" />
    <glyph glyph-name="eacute" unicode="&#xe9;" horiz-adv-x="588" 
d="M255 749l-31 79c-2 4 -7 7 -3 8l209 102c5 2 14 -4 14 -8l36 -81c1 -4 4 -8 1 -10l-211 -98c-6 -2 -14 4 -15 8zM144 415h270c5 0 13 -8 12 -12l-24 -111c-1 -4 0 -4 -5 -4h-280l-33 -158h327c6 0 13 -8 12 -12l-24 -114c-1 -4 0 -4 -6 -4h-456c-6 0 -13 8 -12 12
l145 684c1 4 0 4 6 4h447c6 0 13 -8 12 -12l-23 -111c-1 -4 0 -4 -6 -4h-328z" />
    <glyph glyph-name="ecircumflex" unicode="&#xea;" horiz-adv-x="588" 
d="M206 754l-32 69c-2 4 -7 9 -4 11l189 96c2 1 8 -4 9 -5l149 -89c4 -2 11 -9 9 -13l-60 -75c-3 -3 -7 0 -11 1l-109 67l-127 -69c-3 -1 -11 4 -13 7zM144 415h270c5 0 13 -8 12 -12l-24 -111c-1 -4 0 -4 -5 -4h-280l-33 -158h327c6 0 13 -8 12 -12l-24 -114
c-1 -4 0 -4 -6 -4h-456c-6 0 -13 8 -12 12l145 684c1 4 0 4 6 4h447c6 0 13 -8 12 -12l-23 -111c-1 -4 0 -4 -6 -4h-328z" />
    <glyph glyph-name="edieresis" unicode="&#xeb;" horiz-adv-x="588" 
d="M325 802c-8 -36 -44 -65 -79 -65c-44 0 -75 37 -66 79c7 36 42 65 76 65c45 0 78 -37 69 -79zM529 802c-8 -36 -43 -65 -78 -65c-45 0 -76 37 -67 79c7 36 42 65 77 65c45 0 77 -37 68 -79zM144 415h270c5 0 13 -8 12 -12l-24 -111c-1 -4 0 -4 -5 -4h-280l-33 -158h327
c6 0 13 -8 12 -12l-24 -114c-1 -4 0 -4 -6 -4h-456c-6 0 -13 8 -12 12l145 684c1 4 0 4 6 4h447c6 0 13 -8 12 -12l-23 -111c-1 -4 0 -4 -6 -4h-328z" />
    <glyph glyph-name="Igrave" unicode="&#xcc;" horiz-adv-x="350" 
d="M323 814l-63 -78c-4 -4 -8 0 -12 2l-159 97c-5 1 -11 9 -10 13l70 82c4 4 8 0 11 -2l154 -100c5 -2 11 -10 9 -14zM116 120h65c6 0 13 -8 12 -12l-22 -104c-1 -4 0 -4 -6 -4h-275c-6 0 -13 8 -12 12l22 104c1 4 0 4 6 4h76l97 460h-62c-6 0 -13 8 -12 12l22 104
c1 4 0 4 6 4h267c6 0 13 -8 12 -12l-22 -104c-1 -4 0 -4 -6 -4h-71z" />
    <glyph glyph-name="Idieresis" unicode="&#xcf;" horiz-adv-x="350" 
d="M169 806c-8 -36 -44 -65 -79 -65c-44 0 -75 37 -66 79c7 36 42 65 76 65c45 0 77 -37 69 -79zM373 806c-8 -36 -43 -65 -78 -65c-45 0 -76 37 -67 79c7 36 42 65 77 65c45 0 76 -37 68 -79zM116 120h65c6 0 13 -8 12 -12l-22 -104c-1 -4 0 -4 -6 -4h-275
c-6 0 -13 8 -12 12l22 104c1 4 0 4 6 4h76l97 460h-62c-6 0 -13 8 -12 12l22 104c1 4 0 4 6 4h267c6 0 13 -8 12 -12l-22 -104c-1 -4 0 -4 -6 -4h-71z" />
    <glyph glyph-name="Icircumflex" unicode="&#xce;" horiz-adv-x="350" 
d="M59 750l-33 69c-2 4 -7 9 -3 11l188 96c2 1 8 -4 9 -5l149 -89c5 -2 11 -9 9 -13l-60 -75c-3 -3 -7 0 -10 1l-110 67l-127 -69c-3 -1 -11 4 -12 7zM116 120h65c6 0 13 -8 12 -12l-22 -104c-1 -4 0 -4 -6 -4h-275c-6 0 -13 8 -12 12l22 104c1 4 0 4 6 4h76l97 460h-62
c-6 0 -13 8 -12 12l22 104c1 4 0 4 6 4h267c6 0 13 -8 12 -12l-22 -104c-1 -4 0 -4 -6 -4h-71z" />
    <glyph glyph-name="Iacute" unicode="&#xcd;" horiz-adv-x="350" 
d="M104 739l-31 79c-2 4 -7 7 -3 8l208 102c6 2 15 -4 15 -8l36 -81c1 -4 4 -8 0 -10l-210 -98c-6 -2 -15 4 -15 8zM116 120h65c6 0 13 -8 12 -12l-22 -104c-1 -4 0 -4 -6 -4h-275c-6 0 -13 8 -12 12l22 104c1 4 0 4 6 4h76l97 460h-62c-6 0 -13 8 -12 12l22 104
c1 4 0 4 6 4h267c6 0 13 -8 12 -12l-22 -104c-1 -4 0 -4 -6 -4h-71z" />
    <glyph glyph-name="Eth" unicode="&#xd0;" horiz-adv-x="662" 
d="M76 700h114c170 0 406 -43 339 -357c-63 -296 -304 -343 -478 -343h-114c-6 0 -13 8 -12 12l59 278h-60c-6 0 -12 8 -12 12l21 99c1 4 -1 4 5 4h70l62 291c1 4 0 4 6 4zM118 290l-40 -164c83 -4 273 12 319 231c35 162 -60 226 -214 218l-41 -170h113c6 0 14 -8 13 -12
l-21 -99c-1 -4 0 -4 -6 -4h-123z" />
    <glyph glyph-name="Ntilde" unicode="&#xd1;" horiz-adv-x="742" 
d="M298 761l-74 22c-5 1 -12 8 -10 15c24 69 71 98 122 98c30 0 57 -8 81 -22c3 -1 11 -3 8 -5c5 -3 18 -6 24 -6c14 0 29 9 38 30l10 -3l74 -25c5 -1 13 -8 11 -15c-38 -71 -75 -94 -120 -94c-31 0 -58 9 -84 22l-15 5c-9 4 -20 8 -22 8c-12 0 -25 -10 -32 -32
c-3 0 -6 1 -11 2zM533 700h113c6 0 13 -8 12 -12l-145 -684c-1 -4 0 -4 -6 -4h-115c-2 0 -13 4 -12 6l-222 458l-100 -460c-1 -4 0 -4 -6 -4h-115c-5 0 -12 8 -11 12l145 684c1 4 0 4 5 4h116c2 0 13 -4 12 -6l223 -458l100 460c1 4 0 4 6 4z" />
    <glyph glyph-name="eth" unicode="&#xf0;" horiz-adv-x="662" 
d="M75 694h114c168 0 402 -43 335 -354c-62 -294 -301 -340 -473 -340h-114c-6 0 -12 8 -11 12l59 281h-59c-6 0 -13 8 -12 12l20 92c0 4 -1 4 5 4h69l62 289c1 4 -1 4 5 4zM393 354c42 197 -104 217 -175 217c-17 0 -37 -1 -37 -1l-41 -169h113c5 0 13 -8 12 -12l-20 -92
c-1 -4 0 -4 -5 -4h-123l-40 -169c6 -1 14 0 21 0c79 0 252 26 295 230z" />
    <glyph glyph-name="ntilde" unicode="&#xf1;" horiz-adv-x="742" 
d="M298 761l-74 22c-5 1 -12 8 -10 15c24 69 71 98 122 98c30 0 57 -8 81 -22c3 -1 11 -3 8 -5c5 -3 18 -6 24 -6c14 0 29 9 38 30l10 -3l74 -25c5 -1 13 -8 11 -15c-38 -71 -75 -94 -120 -94c-31 0 -58 9 -84 22l-15 5c-9 4 -20 8 -22 8c-12 0 -25 -10 -32 -32
c-3 0 -6 1 -11 2zM533 700h113c6 0 13 -8 12 -12l-145 -684c-1 -4 0 -4 -6 -4h-115c-2 0 -13 4 -12 6l-222 458l-100 -460c-1 -4 0 -4 -6 -4h-115c-5 0 -12 8 -11 12l145 684c1 4 0 4 5 4h116c2 0 13 -4 12 -6l223 -458l100 460c1 4 0 4 6 4z" />
    <glyph glyph-name="igrave" unicode="&#xec;" horiz-adv-x="280" 
d="M290 821l-64 -78c-4 -4 -8 0 -11 2l-160 97c-5 1 -11 9 -9 13l69 82c4 4 8 0 12 -2l154 -100c4 -2 11 -10 9 -14zM-74 12l145 684c1 4 0 4 6 4h113c6 0 13 -8 12 -12l-145 -684c-1 -4 0 -4 -6 -4h-113c-6 0 -13 8 -12 12z" />
    <glyph glyph-name="iacute" unicode="&#xed;" horiz-adv-x="280" 
d="M73 752l-31 79c-2 4 -8 7 -3 8l208 102c6 2 14 -4 15 -8l35 -81c1 -4 5 -8 1 -10l-211 -98c-5 -2 -14 4 -14 8zM-74 12l145 684c1 4 0 4 6 4h113c6 0 13 -8 12 -12l-145 -684c-1 -4 0 -4 -6 -4h-113c-6 0 -13 8 -12 12z" />
    <glyph glyph-name="icircumflex" unicode="&#xee;" horiz-adv-x="280" 
d="M22 741l-33 69c-2 4 -7 9 -3 11l188 96c2 1 8 -4 9 -5l149 -89c5 -2 11 -9 9 -13l-60 -75c-3 -3 -7 0 -10 1l-110 67l-127 -69c-3 -1 -11 4 -12 7zM-74 12l145 684c1 4 0 4 6 4h113c6 0 13 -8 12 -12l-145 -684c-1 -4 0 -4 -6 -4h-113c-6 0 -13 8 -12 12z" />
    <glyph glyph-name="idieresis" unicode="&#xef;" horiz-adv-x="280" 
d="M134 815c-7 -36 -43 -65 -78 -65c-44 0 -76 37 -67 79c8 36 43 65 77 65c45 0 77 -37 68 -79zM338 815c-7 -36 -42 -65 -77 -65c-45 0 -77 37 -68 79c8 36 43 65 78 65c45 0 76 -37 67 -79zM-74 12l145 684c1 4 0 4 6 4h113c6 0 13 -8 12 -12l-145 -684c-1 -4 0 -4 -6 -4
h-113c-6 0 -13 8 -12 12z" />
    <glyph glyph-name="Odieresis" unicode="&#xd6;" horiz-adv-x="638" 
d="M310 797c-8 -36 -44 -65 -79 -65c-44 0 -75 37 -66 79c7 36 42 65 76 65c45 0 78 -37 69 -79zM514 797c-8 -36 -43 -65 -78 -65c-45 0 -76 37 -67 79c7 36 42 65 77 65c45 0 77 -37 68 -79zM214 186c-150 0 -248 122 -217 269c30 140 168 255 308 255
c150 0 248 -123 217 -269c-30 -141 -168 -255 -308 -255zM298 581c-77 0 -155 -63 -171 -140c-15 -72 27 -126 94 -126c78 0 154 62 171 140c15 71 -26 126 -94 126zM422 117l-24 -113c-1 -4 0 -4 -6 -4h-451c-6 0 -13 8 -12 12l24 113c1 4 0 4 6 4h451c6 0 13 -8 12 -12z
" />
    <glyph glyph-name="Otilde" unicode="&#xd5;" horiz-adv-x="638" 
d="M242 752l-74 22c-5 1 -12 8 -10 15c25 69 71 98 122 98c30 0 57 -8 81 -22c3 -1 11 -3 8 -5c5 -3 18 -6 24 -6c14 0 29 9 38 30l10 -3l74 -25c5 -1 13 -8 11 -15c-38 -71 -75 -94 -120 -94c-31 0 -58 9 -84 22l-15 5c-8 4 -20 8 -22 8c-12 0 -25 -10 -32 -32
c-3 0 -6 1 -11 2zM305 710c150 0 248 -123 217 -269c-30 -141 -168 -255 -308 -255c-150 0 -248 122 -217 269c30 140 168 255 308 255zM392 455c15 71 -26 126 -94 126c-77 0 -155 -63 -171 -140c-15 -72 27 -126 94 -126c78 0 154 62 171 140zM-41 129h451
c6 0 13 -8 12 -12l-24 -113c-1 -4 0 -4 -6 -4h-451c-6 0 -13 8 -12 12l24 113c1 4 0 4 6 4z" />
    <glyph glyph-name="Ocircumflex" unicode="&#xd4;" horiz-adv-x="638" 
d="M199 738l-32 69c-2 4 -7 9 -4 11l188 96c3 1 9 -4 9 -5l150 -89c4 -2 11 -9 9 -13l-60 -75c-4 -3 -7 0 -11 1l-110 67l-126 -69c-4 -1 -12 4 -13 7zM214 186c-150 0 -248 122 -217 269c30 140 168 255 308 255c150 0 248 -123 217 -269c-30 -141 -168 -255 -308 -255z
M298 581c-77 0 -155 -63 -171 -140c-15 -72 27 -126 94 -126c78 0 154 62 171 140c15 71 -26 126 -94 126zM422 117l-24 -113c-1 -4 0 -4 -6 -4h-451c-6 0 -13 8 -12 12l24 113c1 4 0 4 6 4h451c6 0 13 -8 12 -12z" />
    <glyph glyph-name="Oacute" unicode="&#xd3;" horiz-adv-x="638" 
d="M250 749l-31 79c-2 4 -7 7 -3 8l209 102c5 2 14 -4 14 -8l36 -81c1 -4 4 -8 1 -10l-211 -98c-6 -2 -14 4 -15 8zM214 186c-150 0 -248 122 -217 269c30 140 168 255 308 255c150 0 248 -123 217 -269c-30 -141 -168 -255 -308 -255zM298 581c-77 0 -155 -63 -171 -140
c-15 -72 27 -126 94 -126c78 0 154 62 171 140c15 71 -26 126 -94 126zM422 117l-24 -113c-1 -4 0 -4 -6 -4h-451c-6 0 -13 8 -12 12l24 113c1 4 0 4 6 4h451c6 0 13 -8 12 -12z" />
    <glyph glyph-name="Ograve" unicode="&#xd2;" horiz-adv-x="638" 
d="M467 814l-63 -78c-4 -4 -8 0 -12 2l-159 97c-5 1 -11 9 -10 13l70 82c4 4 8 0 11 -2l154 -100c5 -2 11 -10 9 -14zM214 186c-150 0 -248 122 -217 269c30 140 168 255 308 255c150 0 248 -123 217 -269c-30 -141 -168 -255 -308 -255zM298 581c-77 0 -155 -63 -171 -140
c-15 -72 27 -126 94 -126c78 0 154 62 171 140c15 71 -26 126 -94 126zM422 117l-24 -113c-1 -4 0 -4 -6 -4h-451c-6 0 -13 8 -12 12l24 113c1 4 0 4 6 4h451c6 0 13 -8 12 -12z" />
    <glyph glyph-name="Oslash" unicode="&#xd8;" horiz-adv-x="638" 
d="M212 176c-37 0 -65 6 -91 17l-37 -38c-1 -2 -3 0 -5 0h-116c-9 0 -18 9 -14 15l86 86c-34 48 -54 118 -39 189c30 141 167 255 307 255c41 0 76 -10 102 -23l43 48c2 2 3 0 5 0h120c8 0 17 -9 13 -15l-98 -102c32 -47 46 -109 32 -177c-30 -141 -168 -255 -308 -255z
M296 571c-77 0 -155 -63 -171 -140c-4 -20 -3 -49 1 -64c67 74 118 133 189 205c-6 -1 -16 -1 -19 -1zM390 445c4 18 5 37 1 55l-180 -195c5 -1 19 0 18 0c68 0 144 63 161 140zM422 117l-24 -113c-1 -4 0 -4 -6 -4h-451c-6 0 -13 8 -12 12l24 113c1 4 0 4 6 4h451
c6 0 13 -8 12 -12z" />
    <glyph glyph-name="Udieresis" unicode="&#xdc;" horiz-adv-x="740" 
d="M364 812c-8 -36 -44 -65 -79 -65c-44 0 -75 37 -66 79c7 36 43 65 77 65c45 0 77 -37 68 -79zM568 812c-8 -36 -43 -65 -78 -65c-45 0 -76 37 -67 79c7 36 43 65 78 65c45 0 76 -37 67 -79zM76 700h569c6 0 13 -8 12 -12l-86 -409c-2 -7 -15 -74 -63 -146
c-70 -92 -169 -143 -283 -143c-124 0 -207 56 -232 157c-22 64 -10 133 -9 140l87 409c1 4 0 4 5 4zM394 203c32 38 45 84 45 85l62 292h-322l-62 -293s-12 -52 -2 -98c19 -47 57 -69 118 -69c71 0 125 28 161 83z" />
    <glyph glyph-name="Ucircumflex" unicode="&#xdb;" horiz-adv-x="740" 
d="M253 753l-32 69c-2 4 -7 9 -4 11l189 96c2 1 8 -4 9 -5l149 -89c4 -2 11 -9 9 -13l-60 -75c-4 -3 -7 0 -11 1l-110 67l-126 -69c-3 -1 -11 4 -13 7zM76 700h569c6 0 13 -8 12 -12l-86 -409c-2 -7 -15 -74 -63 -146c-70 -92 -169 -143 -283 -143c-124 0 -207 56 -232 157
c-22 64 -10 133 -9 140l87 409c1 4 0 4 5 4zM394 203c32 38 45 84 45 85l62 292h-322l-62 -293s-12 -52 -2 -98c19 -47 57 -69 118 -69c71 0 125 28 161 83z" />
    <glyph glyph-name="Uacute" unicode="&#xda;" horiz-adv-x="740" 
d="M301 749l-31 79c-2 4 -7 7 -3 8l209 102c5 2 14 -4 14 -8l36 -81c1 -4 4 -8 1 -10l-211 -98c-6 -2 -14 4 -15 8zM76 700h569c6 0 13 -8 12 -12l-86 -409c-2 -7 -15 -74 -63 -146c-70 -92 -169 -143 -283 -143c-124 0 -207 56 -232 157c-22 64 -10 133 -9 140l87 409
c1 4 0 4 5 4zM394 203c32 38 45 84 45 85l62 292h-322l-62 -293s-12 -52 -2 -98c19 -47 57 -69 118 -69c71 0 125 28 161 83z" />
    <glyph glyph-name="Ugrave" unicode="&#xd9;" horiz-adv-x="740" 
d="M518 814l-63 -78c-4 -4 -8 0 -12 2l-159 97c-5 1 -11 9 -10 13l70 82c4 4 8 0 11 -2l154 -100c5 -2 11 -10 9 -14zM76 700h569c6 0 13 -8 12 -12l-86 -409c-2 -7 -15 -74 -63 -146c-70 -92 -169 -143 -283 -143c-124 0 -207 56 -232 157c-22 64 -10 133 -9 140l87 409
c1 4 0 4 5 4zM394 203c32 38 45 84 45 85l62 292h-322l-62 -293s-12 -52 -2 -98c19 -47 57 -69 118 -69c71 0 125 28 161 83z" />
    <glyph glyph-name="Yacute" unicode="&#xdd;" horiz-adv-x="645" 
d="M252 738l-31 79c-2 4 -8 7 -3 8l208 102c6 2 14 -4 15 -8l35 -81c1 -4 5 -8 1 -10l-211 -98c-5 -2 -14 4 -14 8zM487 700h140c9 0 18 -10 14 -16l-333 -355l-71 -325c-1 -4 0 -4 -6 -4h-114c-6 0 -13 8 -12 12l71 320c-59 120 -120 239 -175 361c-8 3 -11 7 -2 7h139
c2 0 13 -4 12 -6l114 -230l219 236c1 2 2 0 4 0z" />
    <glyph glyph-name="Thorn" unicode="&#xde;" horiz-adv-x="583" 
d="M175 561h99c10 0 242 -4 197 -214c-43 -200 -240 -200 -275 -200h-109l-30 -143c-1 -4 0 -4 -6 -4h-114c-6 0 -13 8 -12 12l55 260c1 4 0 4 6 4l102 3c-24 53 -46 109 -69 162l51 256c1 4 0 4 6 4h114c6 0 14 -8 13 -12zM162 431l61 -153c39 0 105 23 118 83
c14 66 -54 70 -84 70h-95z" />
    <glyph glyph-name="thorn" unicode="&#xfe;" horiz-adv-x="580" 
d="M175 562h109s231 -4 186 -213c-43 -204 -274 -200 -274 -200h-109l-31 -147c-1 -4 1 -4 -5 -4h-114c-5 0 -13 8 -12 12l145 680c1 4 0 4 5 4h114c6 0 12 -8 11 -12zM114 278h109s100 4 117 85c16 74 -84 70 -84 70h-109z" />
    <glyph glyph-name="ydieresis" unicode="&#xff;" horiz-adv-x="645" 
d="M314 802c-8 -36 -44 -65 -79 -65c-44 0 -75 37 -66 79c7 36 42 65 76 65c45 0 78 -37 69 -79zM518 802c-8 -36 -43 -65 -78 -65c-45 0 -76 37 -67 79c7 36 42 65 77 65c45 0 77 -37 68 -79zM484 700h139c9 0 18 -10 14 -16l-331 -357l-71 -323c-1 -4 0 -4 -6 -4h-113
c-6 0 -13 8 -12 12l70 318c-58 118 -117 242 -172 363c-8 3 -11 7 -2 7h139c1 0 12 -4 11 -6l112 -234l218 240c1 2 3 0 4 0z" />
    <glyph glyph-name="yacute" unicode="&#xfd;" horiz-adv-x="645" 
d="M257 741l-31 79c-3 4 -8 7 -4 8l209 102c5 2 14 -4 14 -8l36 -81c1 -4 4 -8 1 -10l-211 -98c-5 -2 -14 4 -14 8zM484 700h139c9 0 18 -10 14 -16l-331 -357l-71 -323c-1 -4 0 -4 -6 -4h-113c-6 0 -13 8 -12 12l70 318c-58 118 -117 242 -172 363c-8 3 -11 7 -2 7h139
c1 0 12 -4 11 -6l112 -234l218 240c1 2 3 0 4 0z" />
    <glyph glyph-name="ograve" unicode="&#xf2;" horiz-adv-x="797" 
d="M546 819l-63 -78c-4 -4 -8 0 -12 2l-159 97c-5 1 -11 9 -9 13l69 82c4 4 8 0 12 -2l153 -100c5 -2 11 -10 9 -14zM385 710c234 0 316 -184 277 -366c-37 -176 -186 -353 -410 -353c-238 0 -317 185 -279 367c38 176 184 352 412 352zM259 117c144 0 246 120 271 239
c24 114 -18 227 -152 227c-146 0 -247 -121 -272 -241c-24 -113 17 -225 153 -225z" />
    <glyph glyph-name="oacute" unicode="&#xf3;" horiz-adv-x="797" 
d="M337 749l-31 79c-2 4 -7 7 -3 8l209 102c5 2 14 -4 14 -8l36 -81c1 -4 4 -8 1 -10l-211 -98c-6 -2 -14 4 -15 8zM385 710c234 0 316 -184 277 -366c-37 -176 -186 -353 -410 -353c-238 0 -317 185 -279 367c38 176 184 352 412 352zM259 117c144 0 246 120 271 239
c24 114 -18 227 -152 227c-146 0 -247 -121 -272 -241c-24 -113 17 -225 153 -225z" />
    <glyph glyph-name="ocircumflex" unicode="&#xf4;" horiz-adv-x="797" 
d="M280 740l-33 69c-2 4 -7 9 -3 11l188 96c2 1 8 -4 9 -5l149 -89c5 -2 11 -9 9 -13l-60 -75c-3 -3 -7 0 -11 1l-109 67l-127 -69c-3 -1 -11 4 -12 7zM385 710c234 0 316 -184 277 -366c-37 -176 -186 -353 -410 -353c-238 0 -317 185 -279 367c38 176 184 352 412 352z
M259 117c144 0 246 120 271 239c24 114 -18 227 -152 227c-146 0 -247 -121 -272 -241c-24 -113 17 -225 153 -225z" />
    <glyph glyph-name="otilde" unicode="&#xf5;" horiz-adv-x="797" 
d="M330 767l-74 22c-5 1 -11 8 -10 15c25 69 71 98 122 98c30 0 57 -8 81 -22c3 -1 12 -3 8 -5c6 -3 18 -6 24 -6c14 0 29 9 38 30c3 -1 6 -2 11 -3l73 -25c5 -1 14 -8 11 -15c-38 -71 -75 -94 -120 -94c-31 0 -58 9 -84 22l-15 5c-8 4 -19 8 -21 8c-12 0 -26 -10 -33 -32
c-3 0 -6 1 -11 2zM385 710c234 0 316 -184 277 -366c-37 -176 -186 -353 -410 -353c-238 0 -317 185 -279 367c38 176 184 352 412 352zM530 356c24 114 -18 227 -152 227c-146 0 -247 -121 -272 -241c-24 -113 17 -225 153 -225c144 0 246 120 271 239z" />
    <glyph glyph-name="odieresis" unicode="&#xf6;" horiz-adv-x="797" 
d="M392 813c-8 -36 -44 -65 -79 -65c-44 0 -75 37 -66 79c8 36 43 65 77 65c45 0 77 -37 68 -79zM596 813c-8 -36 -43 -65 -78 -65c-45 0 -76 37 -67 79c8 36 43 65 78 65c45 0 76 -37 67 -79zM385 710c234 0 316 -184 277 -366c-37 -176 -186 -353 -410 -353
c-238 0 -317 185 -279 367c38 176 184 352 412 352zM259 117c144 0 246 120 271 239c24 114 -18 227 -152 227c-146 0 -247 -121 -272 -241c-24 -113 17 -225 153 -225z" />
    <glyph glyph-name="oslash" unicode="&#xf8;" horiz-adv-x="797" 
d="M382 703c47 0 87 -8 118 -19l57 72c1 2 3 1 6 1h115c8 0 16 -10 14 -16l-98 -117c68 -69 87 -175 63 -284c-37 -174 -182 -347 -406 -347c-51 0 -91 8 -122 18c-25 -27 -43 -48 -61 -77c-2 2 -4 3 -7 3h-112c-8 0 -18 9 -14 15l101 121c-63 69 -86 176 -63 282
c37 174 183 348 409 348zM375 577c-146 0 -246 -120 -271 -237c-11 -56 -12 -110 14 -150c105 132 196 254 301 384c-13 1 -32 3 -44 3zM257 118c144 0 246 119 270 236c13 58 13 114 -16 154c-100 -125 -203 -261 -305 -386c16 -2 35 -4 51 -4z" />
    <glyph glyph-name="ugrave" unicode="&#xf9;" horiz-adv-x="683" 
d="M474 807l-64 -78c-4 -4 -8 0 -11 2l-160 97c-5 1 -11 9 -9 13l69 82c4 4 8 0 12 -2l154 -100c4 -2 11 -10 9 -14zM195 -10c-150 0 -254 94 -223 239l98 461c1 4 0 4 6 4h113c6 0 13 -8 12 -12l-99 -460c-6 -70 41 -103 101 -103c71 0 149 39 164 110l98 461c1 4 0 4 6 4
h114c5 0 12 -8 11 -12l-98 -461c-31 -149 -158 -231 -303 -231z" />
    <glyph glyph-name="uacute" unicode="&#xfa;" horiz-adv-x="683" 
d="M278 733l-31 79c-2 4 -8 7 -3 8l208 102c6 2 14 -4 14 -8l36 -81c1 -4 5 -8 1 -10l-211 -98c-5 -2 -14 4 -14 8zM195 -10c-150 0 -254 94 -223 239l98 461c1 4 0 4 6 4h113c6 0 13 -8 12 -12l-99 -460c-6 -70 41 -103 101 -103c71 0 149 39 164 110l98 461c1 4 0 4 6 4
h114c5 0 12 -8 11 -12l-98 -461c-31 -149 -158 -231 -303 -231z" />
    <glyph glyph-name="ucircumflex" unicode="&#xfb;" horiz-adv-x="683" 
d="M222 738l-32 69c-2 4 -7 9 -4 11l188 96c3 1 9 -4 9 -5l150 -89c4 -2 11 -9 9 -13l-60 -75c-4 -3 -7 0 -11 1l-110 67l-126 -69c-4 -1 -12 4 -13 7zM195 -10c-150 0 -254 94 -223 239l98 461c1 4 0 4 6 4h113c6 0 13 -8 12 -12l-99 -460c-6 -70 41 -103 101 -103
c71 0 149 39 164 110l98 461c1 4 0 4 6 4h114c5 0 12 -8 11 -12l-98 -461c-31 -149 -158 -231 -303 -231z" />
    <glyph glyph-name="udieresis" unicode="&#xfc;" horiz-adv-x="683" 
d="M333 803c-8 -36 -44 -65 -79 -65c-44 0 -75 37 -66 79c8 36 43 65 77 65c45 0 77 -37 68 -79zM537 803c-8 -36 -43 -65 -78 -65c-45 0 -76 37 -67 79c8 36 43 65 78 65c45 0 76 -37 67 -79zM195 -10c-150 0 -254 94 -223 239l98 461c1 4 0 4 6 4h113c6 0 13 -8 12 -12
l-99 -460c-6 -70 41 -103 101 -103c71 0 149 39 164 110l98 461c1 4 0 4 6 4h114c5 0 12 -8 11 -12l-98 -461c-31 -149 -158 -231 -303 -231z" />
    <glyph glyph-name="Sacute" unicode="&#x15a;" horiz-adv-x="543" 
d="M208 749l-31 79c-2 4 -7 7 -3 8l209 102c5 2 14 -4 14 -8l36 -81c1 -4 4 -8 1 -10l-211 -98c-6 -2 -14 4 -15 8zM262 710c128 0 211 -87 186 -212h-5h-113c-5 0 -13 8 -12 14c8 48 -22 68 -64 68c-54 0 -107 -33 -119 -94c-11 -49 23 -72 64 -72c10 0 61 -2 101 -27
c74 -34 104 -107 85 -194c-28 -132 -146 -203 -256 -203c-128 3 -215 79 -188 214c0 1 -1 1 5 1h114c5 0 13 -8 12 -15c-9 -48 24 -70 65 -70c53 0 107 36 118 87c11 50 -27 78 -63 80c-11 0 -60 2 -102 27c-73 34 -105 99 -87 186c29 132 149 210 259 210z" />
    <glyph glyph-name="Tcaron" unicode="&#x164;" horiz-adv-x="448" 
d="M394 921l33 -68c2 -4 7 -9 3 -11l-187 -95h-9l-150 92c-5 2 -11 10 -9 14l59 74c4 4 8 0 11 -2l110 -65l127 69c4 2 11 -5 12 -8zM430 688l-22 -104c-1 -4 0 -4 -6 -4h-139l-122 -576c-1 -4 0 -4 -6 -4h-113c-6 0 -13 8 -12 12l120 568h-129c-6 0 -13 8 -12 12l22 104
c1 4 0 4 6 4h401c6 0 13 -8 12 -12z" />
    <glyph glyph-name="Zacute" unicode="&#x179;" horiz-adv-x="475" 
d="M175 743l-31 79c-2 4 -8 7 -3 8l208 102c6 2 14 -4 15 -8l35 -81c2 -4 5 -8 1 -10l-211 -98c-5 -2 -14 4 -14 8zM319 118l-24 -114c-1 -4 0 -4 -6 -4h-398c-8 0 -16 9 -13 15l342 555h-209c-6 0 -13 8 -12 12l24 114c1 4 0 4 6 4h398c8 0 16 -9 13 -15l-342 -555h209
c6 0 13 -8 12 -12z" />
    <glyph glyph-name="sacute" unicode="&#x15b;" horiz-adv-x="543" 
d="M203 735l-31 79c-2 4 -7 7 -3 8l209 102c5 2 14 -4 14 -8l36 -81c1 -4 4 -8 1 -10l-211 -98c-6 -2 -14 4 -15 8zM128 -10c-127 3 -213 78 -187 213h5h113c5 0 14 -7 12 -14c-8 -49 24 -70 65 -70c52 0 106 34 117 86c10 49 -28 78 -62 80c-11 0 -61 2 -102 26
c-71 34 -103 104 -84 190c28 131 146 208 256 208c127 0 209 -86 184 -209c0 -1 1 -1 -5 -1h-112c-5 0 -13 8 -12 15c8 47 -21 67 -62 67c-54 0 -106 -32 -119 -94c-10 -48 21 -77 62 -77c10 0 60 -2 100 -26c74 -34 103 -108 85 -193c-28 -132 -145 -201 -254 -201z" />
    <glyph glyph-name="tcaron" unicode="&#x165;" horiz-adv-x="448" 
d="M390 908l33 -68c2 -4 7 -9 3 -11l-187 -95h-9l-150 92c-5 2 -11 10 -9 14l59 74c4 4 8 0 11 -2l110 -65l127 69c4 2 11 -5 12 -8zM426 682l-22 -104c-1 -4 0 -3 -6 -3h-138l-121 -571c-1 -4 1 -4 -5 -4h-113c-6 0 -12 8 -11 12l119 563h-128c-6 0 -13 7 -12 11l22 104
c1 4 0 4 6 4h397c6 0 13 -8 12 -12z" />
    <glyph glyph-name="zacute" unicode="&#x17a;" horiz-adv-x="583" 
d="M234 741l-31 79c-3 4 -8 7 -4 8l209 102c5 2 14 -4 14 -8l36 -81c1 -4 4 -8 1 -10l-211 -98c-5 -2 -14 4 -14 8zM410 0h-550c-7 0 -17 9 -13 15l461 556h-297c-5 0 -13 8 -12 12l24 113c1 4 0 4 5 4h521c8 0 16 -10 14 -16l-460 -555h325c6 0 12 -8 11 -12l-24 -113
c-1 -4 1 -4 -5 -4z" />
    <glyph glyph-name="breve" unicode="&#x2d8;" horiz-adv-x="342" 
d="M230 710h89c5 0 12 -8 11 -15c-23 -110 -97 -148 -176 -148c-89 0 -165 46 -140 162c0 1 -1 1 4 1h89c5 0 13 -8 12 -15c-7 -35 10 -50 30 -50c30 0 65 23 76 64c0 1 0 1 5 1z" />
    <glyph glyph-name="Lslash" unicode="&#x141;" horiz-adv-x="501" 
d="M83 130h238c6 0 13 -8 12 -12l-24 -114c-1 -4 0 -4 -6 -4h-367c-6 0 -13 8 -12 12l48 224l-57 -20c-7 -2 -15 7 -14 13l21 99c1 3 -1 3 2 4l72 20l73 344c1 4 0 4 6 4h114c6 0 13 -8 12 -12l-62 -292l97 31c7 2 16 -7 15 -13l-21 -98c0 -3 2 -4 -3 -5l-112 -31z" />
    <glyph glyph-name="ogonek" unicode="&#x2db;" horiz-adv-x="301" 
d="M-47 26l89 -2c10 0 20 -13 13 -19c-38 -14 -79 -60 -78 -95c8 -10 17 -13 25 -13c24 0 55 14 70 27c10 1 19 -8 19 -13l8 -75c1 -3 -1 -8 -1 -12c-33 -17 -79 -28 -118 -28c-60 0 -110 27 -112 93c-4 7 -4 19 -1 33c8 40 41 75 86 104z" />
    <glyph glyph-name="Aogonek" unicode="&#x104;" 
d="M413 11l-6 -11c-76 -6 -115 -58 -108 -90c8 -11 16 -13 24 -13c25 0 55 14 71 28c9 0 18 -9 18 -14l9 -75c1 -3 -1 -8 -1 -12c-34 -17 -80 -28 -119 -28c-59 0 -110 27 -112 93c-4 7 -4 20 -1 34c8 38 36 70 78 98l-7 58h-227l-43 -77c-2 -3 -3 -2 -6 -2h-124
c-7 0 -15 9 -12 15l422 703c4 7 16 0 16 -7zM99 194l143 3c-11 76 -18 123 -27 200z" />
    <glyph glyph-name="aogonek" unicode="&#x105;" 
d="M409 11l-6 -11c-75 -6 -114 -57 -107 -89c8 -11 17 -13 25 -13c24 0 54 14 69 27c9 -1 19 -8 19 -13l9 -75c0 -3 -2 -8 -2 -12c-32 -16 -79 -28 -118 -28c-59 0 -109 28 -112 93c-2 7 -2 20 1 34c8 37 35 69 76 96l-6 58h-225l-42 -76c-2 -3 -3 -2 -7 -2h-122
c-8 0 -16 9 -13 15l418 696c5 7 16 0 17 -7zM98 192l142 3c-10 75 -18 123 -27 200z" />
    <glyph glyph-name="Scedilla" unicode="&#x15e;" horiz-adv-x="543" 
d="M262 708c128 0 210 -87 186 -212h-5h-113c-5 0 -14 8 -12 14c8 48 -22 68 -64 68c-54 0 -107 -31 -119 -92c-11 -49 23 -72 64 -72c10 0 61 -2 101 -27c74 -34 104 -107 85 -194c-16 -76 -60 -131 -125 -168c19 -19 34 -51 24 -97c-18 -85 -102 -155 -190 -155
c-98 0 -160 78 -141 169c0 1 -2 1 4 1h89c6 0 13 -8 12 -15c-6 -29 10 -51 38 -51c37 0 73 30 81 65c6 30 -9 51 -41 51h-11c-124 3 -211 78 -184 214c0 1 -1 1 5 1h114c5 0 14 -8 12 -15c-8 -48 24 -70 65 -70c53 0 107 33 118 84c11 50 -27 78 -63 80c-11 0 -60 2 -102 27
c-73 34 -105 99 -87 186c29 132 149 208 259 208z" />
    <glyph glyph-name="Zdotaccent" unicode="&#x17b;" horiz-adv-x="475" 
d="M340 804c-8 -36 -44 -65 -85 -65c-47 0 -82 37 -73 79c8 37 47 66 84 66c51 0 83 -37 74 -80zM319 118l-24 -114c-1 -4 0 -4 -6 -4h-398c-8 0 -16 9 -13 15l342 555h-209c-6 0 -13 8 -12 12l24 114c1 4 0 4 6 4h398c8 0 16 -9 13 -15l-342 -555h209c6 0 13 -8 12 -12z
" />
    <glyph glyph-name="lslash" unicode="&#x142;" horiz-adv-x="490" 
d="M83 130h238c6 0 13 -8 12 -12l-24 -114c-1 -4 0 -4 -6 -4h-367c-6 0 -13 8 -12 12l48 224l-57 -20c-7 -2 -15 7 -14 13l21 99c1 3 -1 3 2 4l72 20l73 344c1 4 0 4 6 4h114c6 0 13 -8 12 -12l-62 -292l97 31c7 2 16 -7 15 -13l-21 -98c0 -3 2 -4 -3 -5l-112 -31z" />
    <glyph glyph-name="scedilla" unicode="&#x15f;" horiz-adv-x="543" 
d="M262 708c128 0 210 -87 186 -212h-5h-113c-5 0 -14 8 -12 14c8 48 -22 68 -64 68c-54 0 -107 -31 -119 -92c-11 -49 23 -72 64 -72c10 0 61 -2 101 -27c74 -34 104 -107 85 -194c-16 -76 -60 -131 -125 -168c19 -19 34 -51 24 -97c-18 -85 -102 -155 -190 -155
c-98 0 -160 78 -141 169c0 1 -2 1 4 1h89c6 0 13 -8 12 -15c-6 -29 10 -51 38 -51c37 0 73 30 81 65c6 30 -9 51 -41 51h-11c-124 3 -211 78 -184 214c0 1 -1 1 5 1h114c5 0 14 -8 12 -15c-8 -48 24 -70 65 -70c53 0 107 33 118 84c11 50 -27 78 -63 80c-11 0 -60 2 -102 27
c-73 34 -105 99 -87 186c29 132 149 208 259 208z" />
    <glyph glyph-name="zdotaccent" unicode="&#x17c;" horiz-adv-x="585" 
d="M414 814c-8 -38 -48 -69 -93 -69c-52 0 -90 39 -81 83c8 39 51 69 93 69c55 0 91 -38 81 -83zM410 0h-550c-7 0 -17 9 -13 15l461 556h-297c-5 0 -13 8 -12 12l24 113c1 4 0 4 5 4h521c8 0 16 -10 14 -16l-460 -555h325c6 0 12 -8 11 -12l-24 -113c-1 -4 1 -4 -5 -4z" />
    <glyph glyph-name="Lcaron" unicode="&#x13d;" horiz-adv-x="501" 
d="M362 714c62 0 81 -39 71 -84c-10 -49 -54 -113 -96 -140c-11 -2 -21 8 -19 15l20 72c-33 4 -57 38 -49 76c7 34 40 61 73 61zM83 130h239c6 0 13 -8 12 -12l-24 -114c-1 -4 0 -4 -6 -4h-368c-6 0 -13 8 -12 12l145 684c1 4 0 4 6 4h115c5 0 12 -8 11 -12z" />
    <glyph glyph-name="lcaron" unicode="&#x13e;" horiz-adv-x="501" 
d="M362 714c62 0 81 -39 71 -84c-10 -49 -54 -113 -96 -140c-11 -2 -21 8 -19 15l20 72c-33 4 -57 38 -49 76c7 34 40 61 73 61zM83 130h239c6 0 13 -8 12 -12l-24 -114c-1 -4 0 -4 -6 -4h-368c-6 0 -13 8 -12 12l145 684c1 4 0 4 6 4h115c5 0 12 -8 11 -12z" />
    <glyph glyph-name="hungarumlaut" unicode="&#x2dd;" horiz-adv-x="416" 
d="M35 560l-45 55c-3 3 -9 10 -5 13l157 125c5 3 11 -2 12 -5l49 -57c3 -3 9 -9 6 -12l-163 -124c-3 -2 -9 3 -11 5zM235 551l-44 60c-3 3 -9 10 -5 13l157 125c5 3 11 -2 12 -5l49 -62c4 -3 9 -9 6 -12l-163 -124c-4 -2 -10 3 -12 5z" />
    <glyph glyph-name="Racute" unicode="&#x154;" horiz-adv-x="612" 
d="M229 742l-31 79c-2 4 -8 7 -4 8l209 102c6 2 14 -4 14 -8l36 -81c1 -4 4 -8 1 -10l-211 -98c-5 -2 -14 4 -14 8zM430 0h-134c-3 0 -14 5 -12 7l-115 278h-51l-60 -281c-1 -4 0 -4 -6 -4h-114c-6 0 -13 8 -12 12l85 399c0 4 -1 4 5 4l102 3c-23 53 -46 109 -69 162l22 116
c1 4 0 4 6 4h238s232 -4 188 -214c-26 -120 -110 -166 -184 -187l112 -290c3 -6 6 -9 -1 -9zM196 570l62 -154c38 1 100 21 113 84c16 74 -61 70 -84 70h-91z" />
    <glyph glyph-name="Abreve" unicode="&#x102;" 
d="M374 891h89c5 0 12 -8 10 -15c-23 -110 -96 -148 -175 -148c-89 0 -165 46 -141 162c1 1 0 1 5 1h89c5 0 13 -8 11 -15c-6 -35 11 -50 31 -50c30 0 65 23 75 64c1 1 1 1 6 1zM31 79l-42 -77c-2 -3 -3 -2 -7 -2h-123c-8 0 -16 9 -13 15l423 703c4 7 16 0 16 -7l124 -703
c2 -6 4 -8 -3 -8h-124c-3 0 -13 5 -11 8l-12 71h-228zM240 197l-23 210l-118 -210h141z" />
    <glyph glyph-name="abreve" unicode="&#x103;" 
d="M374 887h89c5 0 12 -8 11 -15c-24 -110 -97 -148 -176 -148c-89 0 -165 46 -140 162c0 1 -1 1 4 1h89c5 0 13 -8 12 -15c-7 -35 10 -50 30 -50c30 0 65 23 76 64c0 1 0 1 5 1zM31 79l-42 -77c-2 -3 -3 -2 -7 -2h-123c-8 0 -16 9 -13 15l423 703c4 7 16 0 16 -7l124 -703
c2 -6 4 -8 -3 -8h-124c-3 0 -13 5 -11 8l-12 71h-228zM240 197l-23 210l-118 -210h141z" />
    <glyph glyph-name="Lacute" unicode="&#x139;" horiz-adv-x="501" 
d="M78 735l-31 79c-2 4 -7 7 -3 8l209 102c5 2 14 -4 14 -8l36 -81c1 -4 4 -8 1 -10l-211 -98c-6 -2 -14 4 -15 8zM83 130h239c6 0 13 -8 12 -12l-24 -114c-1 -4 0 -4 -6 -4h-368c-6 0 -13 8 -12 12l145 684c1 4 0 4 6 4h115c5 0 12 -8 11 -12z" />
    <glyph glyph-name="Cacute" unicode="&#x106;" horiz-adv-x="694" 
d="M328 753l-31 79c-2 4 -7 7 -3 8l208 102c6 2 15 -4 15 -8l36 -81c1 -4 4 -8 0 -10l-210 -98c-6 -2 -15 4 -15 8zM268 120c65 0 127 28 172 70c7 0 13 -5 14 -8l64 -80c3 -3 7 -11 4 -16c-75 -60 -169 -96 -262 -96c-199 0 -332 144 -285 367c44 208 217 353 418 353
c103 0 184 -42 228 -108c7 0 13 -7 10 -10l-98 -79c-4 -3 -12 3 -12 8c-33 37 -81 59 -136 59c-140 0 -248 -101 -277 -237c-29 -139 45 -223 160 -223z" />
    <glyph glyph-name="Ccaron" unicode="&#x10c;" horiz-adv-x="694" 
d="M566 919l32 -68c2 -4 7 -9 4 -11l-187 -95h-9l-151 92c-4 2 -11 10 -9 14l60 74c4 4 8 0 10 -2l111 -65l126 69c5 2 11 -5 13 -8zM268 120c65 0 127 28 172 70c7 0 13 -5 14 -8l64 -80c3 -3 7 -11 4 -16c-75 -60 -169 -96 -262 -96c-199 0 -332 144 -285 367
c44 208 217 353 418 353c103 0 184 -42 228 -108c7 0 13 -7 10 -10l-98 -79c-4 -3 -12 3 -12 8c-33 37 -81 59 -136 59c-140 0 -248 -101 -277 -237c-29 -139 45 -223 160 -223z" />
    <glyph glyph-name="Eogonek" unicode="&#x118;" horiz-adv-x="588" 
d="M144 415h270c6 0 14 -8 13 -12l-24 -114c-1 -4 0 -4 -6 -4h-280l-33 -155h328c5 0 12 -8 11 -12l-24 -114l-2 -7c-81 3 -119 -55 -113 -87c8 -11 17 -13 25 -13c24 0 55 14 70 27c10 1 19 -8 19 -13l8 -75c1 -3 -2 -8 -2 -12c-34 -17 -82 -29 -121 -29
c-60 0 -108 28 -111 90c-4 7 -5 16 -2 31c7 33 26 64 60 86l-293 -2c-6 0 -13 8 -12 12l145 684c1 4 0 4 6 4h457c5 0 12 -8 11 -12l-24 -114c-1 -4 0 -4 -5 -4h-338z" />
    <glyph glyph-name="Ecaron" unicode="&#x11a;" horiz-adv-x="588" 
d="M488 907l33 -68c2 -4 7 -9 3 -11l-187 -95h-9l-150 92c-5 2 -11 10 -9 14l59 74c4 4 8 0 11 -2l110 -65l127 69c4 2 11 -5 12 -8zM144 415h270c5 0 13 -8 12 -12l-24 -111c-1 -4 0 -4 -5 -4h-280l-33 -158h327c6 0 13 -8 12 -12l-24 -114c-1 -4 0 -4 -6 -4h-456
c-6 0 -13 8 -12 12l145 684c1 4 0 4 6 4h447c6 0 13 -8 12 -12l-23 -111c-1 -4 0 -4 -6 -4h-328z" />
    <glyph glyph-name="Dcaron" unicode="&#x10e;" horiz-adv-x="662" 
d="M465 919l32 -68c2 -4 7 -9 4 -11l-187 -95h-9l-151 92c-4 2 -11 10 -9 14l60 74c4 4 8 0 10 -2l111 -65l126 69c5 2 11 -5 13 -8zM76 700h114c171 0 406 -43 339 -357c-63 -296 -304 -343 -478 -343h-114c-6 0 -13 8 -12 12l145 684c1 4 0 4 6 4zM183 572l-104 -443
c84 -4 272 9 318 228c35 163 -61 223 -214 215z" />
    <glyph glyph-name="Dcroat" unicode="&#x110;" horiz-adv-x="662" 
d="M-79 299l21 102c1 4 0 4 6 4h60l62 291c1 4 0 4 6 4h114c170 0 406 -43 339 -357c-63 -296 -304 -343 -478 -343h-114c-6 0 -13 8 -12 12l58 275h-50c-6 0 -13 8 -12 12zM117 287l-39 -162c6 -1 14 0 21 0c80 0 255 27 298 232c42 198 -106 219 -177 219
c-18 0 -37 -1 -37 -1l-41 -170h116c6 0 14 -8 13 -12l-22 -102c-1 -4 0 -4 -6 -4h-126z" />
    <glyph glyph-name="Nacute" unicode="&#x143;" horiz-adv-x="742" 
d="M302 732l-32 81c-2 4 -7 7 -3 8l212 105c5 2 13 -3 15 -7l36 -84c1 -5 4 -9 0 -11l-214 -100c-5 -2 -14 4 -14 8zM658 688l-145 -684c-1 -4 0 -4 -6 -4h-115c-2 0 -13 4 -12 6l-222 458l-100 -460c-1 -4 0 -4 -6 -4h-115c-5 0 -12 8 -11 12l145 684c1 4 0 4 5 4h116
c2 0 13 -4 12 -6l223 -458l100 460c1 4 0 4 6 4h113c6 0 13 -8 12 -12z" />
    <glyph glyph-name="Ncaron" unicode="&#x147;" horiz-adv-x="742" 
d="M536 903l33 -68c2 -4 7 -9 3 -11l-187 -95h-9l-150 92c-5 2 -11 10 -9 14l59 74c4 4 8 0 11 -2l110 -65l127 69c4 2 11 -5 12 -8zM658 688l-145 -684c-1 -4 0 -4 -6 -4h-115c-2 0 -13 4 -12 6l-222 458l-100 -460c-1 -4 0 -4 -6 -4h-115c-5 0 -12 8 -11 12l145 684
c1 4 0 4 5 4h116c2 0 13 -4 12 -6l223 -458l100 460c1 4 0 4 6 4h113c6 0 13 -8 12 -12z" />
    <glyph glyph-name="Ohungarumlaut" unicode="&#x150;" horiz-adv-x="638" 
d="M217 741l-46 51c-4 3 -10 9 -6 12l156 115c4 3 10 -2 12 -5l48 -52c4 -3 10 -9 7 -11l-160 -115c-4 -2 -10 3 -11 5zM416 733l-45 55c-4 3 -9 9 -6 12l156 116c4 2 10 -3 12 -5l50 -58c3 -2 9 -8 5 -11l-160 -114c-4 -2 -10 3 -12 5zM214 186c-150 0 -248 122 -217 269
c30 140 168 255 308 255c150 0 248 -123 217 -269c-30 -141 -168 -255 -308 -255zM298 581c-77 0 -155 -63 -171 -140c-15 -72 27 -126 94 -126c78 0 154 62 171 140c15 71 -26 126 -94 126zM422 117l-24 -113c-1 -4 0 -4 -6 -4h-451c-6 0 -13 8 -12 12l24 113c1 4 0 4 6 4
h451c6 0 13 -8 12 -12z" />
    <glyph glyph-name="Rcaron" unicode="&#x158;" horiz-adv-x="612" 
d="M460 907l33 -68c2 -4 7 -9 3 -11l-187 -95h-9l-150 92c-5 2 -11 10 -9 14l59 74c4 4 8 0 11 -2l110 -65l127 69c4 2 11 -5 12 -8zM430 0h-134c-3 0 -14 5 -12 7l-115 278h-51l-60 -281c-1 -4 0 -4 -6 -4h-114c-6 0 -13 8 -12 12l85 399c0 4 -1 4 5 4l102 3
c-23 53 -46 109 -69 162l22 116c1 4 0 4 6 4h238s232 -4 188 -214c-26 -120 -110 -166 -184 -187l112 -290c3 -6 6 -9 -1 -9zM196 570l62 -154c38 1 100 21 113 84c16 74 -61 70 -84 70h-91z" />
    <glyph glyph-name="Uring" unicode="&#x16e;" horiz-adv-x="740" 
d="M391 733c-83 0 -141 62 -126 133c14 66 87 119 160 119c83 0 140 -61 124 -133c-14 -65 -85 -119 -158 -119zM427 903c-29 0 -61 -24 -67 -51c-4 -21 10 -35 29 -35c30 0 60 22 65 49c5 21 -7 37 -27 37zM76 700h569c6 0 13 -8 12 -12l-86 -409c-2 -7 -15 -74 -63 -146
c-70 -92 -169 -143 -283 -143c-124 0 -207 56 -232 157c-22 64 -10 133 -9 140l87 409c1 4 0 4 5 4zM394 203c32 38 45 84 45 85l62 292h-322l-62 -293s-12 -52 -2 -98c19 -47 57 -69 118 -69c71 0 125 28 161 83z" />
    <glyph glyph-name="Uhungarumlaut" unicode="&#x170;" horiz-adv-x="740" 
d="M256 749l-44 49c-4 3 -9 10 -7 12l152 114c4 2 10 -3 12 -5l47 -52c4 -3 10 -8 6 -11l-157 -113c-2 -2 -7 4 -9 6zM450 739l-44 56c-3 3 -9 9 -5 12l150 113c4 3 10 -2 12 -5l48 -56c3 -3 9 -8 5 -11l-154 -112c-4 -1 -10 2 -12 3zM76 700h569c6 0 13 -8 12 -12l-86 -409
c-2 -7 -15 -74 -63 -146c-70 -92 -169 -143 -283 -143c-124 0 -207 56 -232 157c-22 64 -10 133 -9 140l87 409c1 4 0 4 5 4zM394 203c32 38 45 84 45 85l62 292h-322l-62 -293s-12 -52 -2 -98c19 -47 57 -69 118 -69c71 0 125 28 161 83z" />
    <glyph glyph-name="racute" unicode="&#x155;" horiz-adv-x="599" 
d="M223 736l-32 79c-2 4 -7 7 -3 8l209 102c5 2 14 -4 14 -8l36 -81c1 -4 4 -8 1 -10l-211 -98c-5 -2 -14 4 -14 8zM115 283l-59 -279c-1 -4 0 -4 -6 -4h-114c-5 0 -12 8 -11 12l145 684c1 4 0 4 5 4h226c40 0 241 -6 196 -215c-22 -104 -87 -157 -165 -186
c18 -97 45 -193 65 -295c5 -2 7 -4 0 -4h-125c-3 0 -14 6 -13 8l-67 275h-77zM143 411h97c29 0 110 8 127 88c16 74 -62 74 -83 74h-107z" />
    <glyph glyph-name="uni0162" unicode="&#x162;" horiz-adv-x="448" 
d="M430 688l-22 -104c-1 -4 0 -4 -6 -4h-139l-122 -576c-1 -4 0 -4 -6 -4h-113c-6 0 -13 8 -12 12l120 568h-129c-6 0 -13 8 -12 12l22 104c1 4 0 4 6 4h401c6 0 13 -8 12 -12zM59 -22c63 0 82 -37 73 -80c-10 -46 -53 -107 -96 -132c-11 -2 -21 8 -20 14l20 68
c-33 4 -57 37 -50 73c7 32 40 57 73 57z" />
    <glyph glyph-name="uni0163" unicode="&#x163;" horiz-adv-x="448" 
d="M426 682l-22 -104c-1 -4 0 -3 -6 -3h-138l-121 -571c-1 -4 1 -4 -5 -4h-113c-6 0 -12 8 -11 12l119 563h-128c-6 0 -13 7 -12 11l22 104c1 4 0 4 6 4h397c6 0 13 -8 12 -12zM58 -23c63 0 82 -37 73 -80c-9 -46 -52 -107 -95 -132c-11 -2 -21 8 -20 14l20 68
c-33 4 -57 37 -50 73c7 32 39 57 72 57z" />
    <glyph glyph-name="lacute" unicode="&#x13a;" horiz-adv-x="501" 
d="M91 740l-32 79c-2 4 -7 7 -3 8l209 102c5 2 14 -4 14 -8l36 -81c1 -4 4 -8 1 -10l-211 -98c-6 -2 -14 4 -14 8zM83 129h236c6 0 13 -8 12 -12l-24 -113c-1 -4 0 -4 -6 -4h-364c-6 0 -13 8 -12 12l145 684c1 4 0 4 6 4h113c6 0 13 -8 12 -12z" />
    <glyph glyph-name="cacute" unicode="&#x107;" horiz-adv-x="694" 
d="M341 750l-32 79c-2 4 -7 7 -3 8l209 102c5 2 14 -4 14 -8l36 -81c1 -4 4 -8 1 -10l-211 -98c-5 -2 -14 4 -14 8zM266 119c64 0 125 27 170 69c7 0 13 -5 14 -8l64 -79c3 -3 6 -11 4 -16c-75 -59 -168 -95 -260 -95c-197 0 -330 143 -283 364c44 206 216 356 416 356
c102 0 182 -41 227 -106c7 0 12 -7 9 -10l-96 -78c-5 -3 -13 3 -12 8c-33 36 -81 58 -135 58c-139 0 -248 -107 -277 -242c-29 -138 45 -221 159 -221z" />
    <glyph glyph-name="ccaron" unicode="&#x10d;" horiz-adv-x="694" 
d="M572 918l33 -68c2 -4 7 -9 4 -11l-188 -95h-9l-150 92c-5 2 -11 10 -9 14l60 74c3 4 8 0 10 -2l110 -65l127 69c4 2 11 -5 12 -8zM266 119c64 0 125 27 170 69c7 0 13 -5 14 -8l64 -79c3 -3 6 -11 4 -16c-75 -59 -168 -95 -260 -95c-197 0 -330 143 -283 364
c44 206 216 356 416 356c102 0 182 -41 227 -106c7 0 12 -7 9 -10l-96 -78c-5 -3 -13 3 -12 8c-33 36 -81 58 -135 58c-139 0 -248 -107 -277 -242c-29 -138 45 -221 159 -221z" />
    <glyph glyph-name="eogonek" unicode="&#x119;" horiz-adv-x="588" 
d="M144 415h270c6 0 14 -8 13 -12l-24 -114c-1 -4 0 -4 -6 -4h-280l-33 -155h328c5 0 12 -8 11 -12l-24 -114l-2 -7c-81 3 -119 -55 -113 -87c8 -11 17 -13 25 -13c24 0 55 14 70 27c10 1 19 -8 19 -13l8 -75c1 -3 -2 -8 -2 -12c-34 -17 -82 -29 -121 -29
c-60 0 -108 28 -111 90c-4 7 -5 16 -2 31c7 33 26 64 60 86l-293 -2c-6 0 -13 8 -12 12l145 684c1 4 0 4 6 4h457c5 0 12 -8 11 -12l-24 -114c-1 -4 0 -4 -5 -4h-338z" />
    <glyph glyph-name="ecaron" unicode="&#x11b;" horiz-adv-x="588" 
d="M482 904l33 -68c2 -4 7 -9 4 -11l-188 -95h-9l-150 92c-5 2 -11 10 -9 14l60 74c3 4 8 0 10 -2l110 -65l127 69c4 2 11 -5 12 -8zM143 411h268c6 0 12 -8 11 -12l-23 -109c-1 -4 1 -4 -5 -4h-278l-34 -160h325c6 0 13 -8 12 -12l-23 -110c-1 -4 0 -4 -6 -4h-453
c-5 0 -12 8 -11 12l145 684c1 4 0 4 5 4h453c6 0 13 -8 12 -12l-23 -111c-1 -4 0 -4 -6 -4h-335z" />
    <glyph glyph-name="dcaron" unicode="&#x10f;" horiz-adv-x="662" 
d="M449 922l33 -68c2 -4 7 -9 3 -11l-187 -95h-9l-150 92c-5 2 -11 10 -9 14l59 74c4 4 8 0 11 -2l110 -65l127 69c4 2 11 -5 12 -8zM77 700h113c169 0 402 -44 336 -355c-63 -294 -302 -345 -475 -345h-113c-6 0 -13 8 -12 12l145 684c1 4 0 4 6 4zM184 576l-106 -451
c83 -4 271 16 318 234c38 182 -60 225 -212 217z" />
    <glyph glyph-name="dcroat" unicode="&#x111;" horiz-adv-x="633" 
d="M-78 297l22 100c0 4 -1 4 4 4h60l62 289c1 4 0 4 5 4h114c168 0 402 -43 335 -354c-62 -294 -301 -340 -473 -340h-114c-5 0 -12 8 -11 12l58 273h-50c-5 0 -13 8 -12 12zM116 285l-39 -161c5 -1 14 0 22 0c78 0 251 26 294 230c42 197 -104 217 -175 217
c-17 0 -37 -1 -37 -1l-41 -169h116c5 0 13 -8 12 -12l-21 -100c-1 -4 0 -4 -5 -4h-126z" />
    <glyph glyph-name="nacute" unicode="&#x144;" horiz-adv-x="742" 
d="M302 733l-31 79c-2 4 -8 7 -3 8l208 102c6 2 14 -4 14 -8l36 -81c1 -4 5 -8 1 -10l-211 -98c-5 -2 -14 4 -14 8zM655 689l-146 -685c-1 -4 0 -4 -6 -4h-114c-2 0 -13 4 -12 6l-219 463l-101 -465c-1 -4 0 -4 -5 -4h-114c-6 0 -12 8 -11 12l145 685c1 4 -1 4 5 4h115
c2 0 12 -4 11 -6l220 -467l101 469c1 4 0 4 6 4h112c6 0 14 -8 13 -12z" />
    <glyph glyph-name="ncaron" unicode="&#x148;" horiz-adv-x="742" 
d="M534 894l33 -68c2 -4 7 -9 3 -11l-187 -95h-9l-150 92c-5 2 -11 10 -9 14l60 74c3 4 8 0 10 -2l110 -65l127 69c4 2 11 -5 12 -8zM655 689l-146 -685c-1 -4 0 -4 -6 -4h-114c-2 0 -13 4 -12 6l-219 463l-101 -465c-1 -4 0 -4 -5 -4h-114c-6 0 -12 8 -11 12l145 685
c1 4 -1 4 5 4h115c2 0 12 -4 11 -6l220 -467l101 469c1 4 0 4 6 4h112c6 0 14 -8 13 -12z" />
    <glyph glyph-name="ohungarumlaut" unicode="&#x151;" horiz-adv-x="797" 
d="M293 741l-48 53c-3 3 -9 10 -5 13l160 120c5 3 11 -2 13 -5l50 -55c4 -3 10 -9 7 -11l-166 -120c-4 -2 -10 3 -11 5zM498 732l-46 58c-3 3 -9 10 -5 13l159 120c5 3 11 -2 13 -5l51 -60c3 -2 9 -8 5 -11l-163 -119c-5 -2 -13 2 -14 4zM385 710c234 0 316 -184 277 -366
c-37 -176 -186 -353 -410 -353c-238 0 -317 185 -279 367c38 176 184 352 412 352zM259 117c144 0 246 120 271 239c24 114 -18 227 -152 227c-146 0 -247 -121 -272 -241c-24 -113 17 -225 153 -225z" />
    <glyph glyph-name="rcaron" unicode="&#x159;" horiz-adv-x="599" 
d="M463 902l32 -68c3 -4 8 -9 4 -11l-187 -95h-9l-150 92c-5 2 -11 10 -10 14l60 74c4 4 8 0 11 -2l110 -65l127 69c4 2 11 -5 12 -8zM115 283l-59 -279c-1 -4 0 -4 -6 -4h-114c-5 0 -12 8 -11 12l145 684c1 4 0 4 5 4h226c40 0 241 -6 196 -215
c-22 -104 -87 -157 -165 -186c18 -97 45 -193 65 -295c5 -2 7 -4 0 -4h-125c-3 0 -14 6 -13 8l-67 275h-77zM143 411h97c29 0 110 8 127 88c16 74 -62 74 -83 74h-107z" />
    <glyph glyph-name="uring" unicode="&#x16f;" horiz-adv-x="683" 
d="M351 719c-81 0 -136 60 -121 130c13 63 82 116 153 116c81 0 136 -61 122 -130c-14 -64 -83 -116 -154 -116zM386 884c-29 0 -59 -23 -64 -49c-5 -21 7 -35 26 -35c30 0 59 22 65 49c4 20 -7 35 -27 35zM195 -10c-150 0 -254 94 -223 239l98 461c1 4 0 4 6 4h113
c6 0 13 -8 12 -12l-99 -460c-6 -70 41 -103 101 -103c71 0 149 39 164 110l98 461c1 4 0 4 6 4h114c5 0 12 -8 11 -12l-98 -461c-31 -149 -158 -231 -303 -231z" />
    <glyph glyph-name="uhungarumlaut" unicode="&#x171;" horiz-adv-x="683" 
d="M233 744l-46 49c-4 3 -9 9 -6 12l156 113c5 3 11 -2 13 -5l50 -52c4 -2 10 -8 7 -10l-162 -112c-3 -2 -10 3 -12 5zM436 736l-46 54c-3 2 -9 9 -7 11l157 113c5 3 11 -2 13 -5l50 -56c3 -2 9 -8 5 -11l-160 -111c-5 -2 -11 3 -12 5zM195 -10c-150 0 -254 94 -223 239
l98 461c1 4 0 4 6 4h113c6 0 13 -8 12 -12l-99 -460c-6 -70 41 -103 101 -103c71 0 149 39 164 110l98 461c1 4 0 4 6 4h114c5 0 12 -8 11 -12l-98 -461c-31 -149 -158 -231 -303 -231z" />
    <glyph glyph-name="a.alt" 
d="M31 78l-42 -76c-2 -3 -3 -2 -7 -2h-122c-7 0 -15 9 -12 15l418 696c5 7 15 0 16 -7l124 -696c2 -6 4 -8 -4 -8h-122c-4 0 -14 5 -12 8l-11 70h-226zM98 192l141 3c-10 75 -17 123 -26 200z" />
    <glyph glyph-name="uni0401" unicode="&#x401;" horiz-adv-x="588" 
d="M313 806c-8 -36 -44 -65 -79 -65c-44 0 -75 37 -66 79c7 36 42 65 76 65c45 0 77 -37 69 -79zM517 806c-8 -36 -43 -65 -78 -65c-45 0 -76 37 -67 79c7 36 42 65 77 65c45 0 76 -37 68 -79zM144 415h270c5 0 13 -8 12 -12l-24 -111c-1 -4 0 -4 -5 -4h-280l-33 -158h327
c6 0 13 -8 12 -12l-24 -114c-1 -4 0 -4 -6 -4h-456c-6 0 -13 8 -12 12l145 684c1 4 0 4 6 4h447c6 0 13 -8 12 -12l-23 -111c-1 -4 0 -4 -6 -4h-328z" />
    <glyph glyph-name="uni0451" unicode="&#x451;" horiz-adv-x="588" 
d="M310 805c-7 -34 -43 -61 -78 -61c-44 0 -75 35 -67 75c8 34 42 61 76 61c45 0 78 -35 69 -75zM514 805c-7 -34 -42 -61 -77 -61c-45 0 -76 35 -68 75c8 34 42 61 77 61c45 0 77 -35 68 -75zM143 411h268c6 0 12 -8 11 -12l-23 -109c-1 -4 1 -4 -5 -4h-278l-34 -160h325
c6 0 13 -8 12 -12l-23 -110c-1 -4 0 -4 -6 -4h-453c-5 0 -12 8 -11 12l145 684c1 4 0 4 5 4h453c6 0 13 -8 12 -12l-23 -111c-1 -4 0 -4 -6 -4h-335z" />
    <glyph glyph-name="uni0410" unicode="&#x410;" horiz-adv-x="683" 
d="M539 577c25 -53 15 -111 14 -117l-97 -456c-1 -4 0 -4 -6 -4h-114c-6 0 -13 8 -12 12l24 112h-265l-26 -120c-1 -4 0 -4 -6 -4h-114c-6 0 -13 8 -12 12l97 456c1 6 12 61 54 121c45 50 120 111 251 111c142 0 196 -67 212 -123zM373 243l47 224c1 2 8 32 2 59
c-18 30 -50 44 -103 44c-62 0 -107 -21 -133 -59c-23 -23 -32 -51 -32 -51l-46 -217h265z" />
    <glyph glyph-name="uni0411" unicode="&#x411;" horiz-adv-x="603" 
d="M145 424h100c170 0 234 -84 206 -216c-40 -191 -239 -208 -286 -208h-228c-6 0 -13 8 -12 12l145 684c1 4 0 4 6 4h424c6 0 13 -8 12 -12l-23 -110c-1 -4 0 -4 -6 -4h-306zM83 129h100c44 0 121 17 137 93c15 68 -45 76 -91 76h-110z" />
    <glyph glyph-name="uni0412" unicode="&#x412;" horiz-adv-x="603" 
d="M502 493c-17 -79 -65 -122 -128 -146c98 -36 76 -147 75 -150c-41 -192 -237 -197 -284 -197h-228c-6 0 -13 8 -12 12l145 684c1 4 0 4 6 4h238s232 1 188 -207zM143 415h110s99 4 116 84c17 81 -82 76 -82 76h-110zM82 128h100c44 0 122 16 137 86c17 80 -93 70 -93 70
h-110z" />
    <glyph glyph-name="uni0413" unicode="&#x413;" horiz-adv-x="548" 
d="M177 574l-121 -570c-1 -4 0 -4 -6 -4h-113c-6 0 -13 8 -12 12l145 684c1 4 0 4 6 4h424c6 0 13 -8 12 -12l-23 -110c-1 -4 0 -4 -6 -4h-306z" />
    <glyph glyph-name="uni0414" unicode="&#x414;" horiz-adv-x="714" 
d="M-12 0l-21 -101c-1 -4 0 -4 -6 -4h-107c-5 0 -12 8 -12 12l45 209c1 4 0 4 5 4h36c19 2 50 16 59 60l62 288c31 146 140 232 283 232h244c6 0 12 -8 11 -12l-120 -568h65c6 0 13 -8 12 -12l-44 -209c-1 -4 0 -4 -6 -4h-107c-6 0 -12 8 -12 12l20 93h-407zM181 460
l-61 -288c-3 -14 -12 -35 -25 -55l236 3l96 454h-108c-67 0 -123 -42 -138 -114z" />
    <glyph glyph-name="uni0415" unicode="&#x415;" horiz-adv-x="595" 
d="M160 493h308c6 0 12 -8 11 -12l-20 -95c-1 -4 1 -4 -5 -4h-318l-12 -60h308c6 0 12 -7 11 -11l-21 -98c0 -4 2 -4 -4 -4h-318l-17 -79h317c6 0 13 -8 12 -12l-24 -114c-1 -4 0 -4 -6 -4h-446c-6 0 -13 8 -12 12l145 684c1 4 0 4 6 4h446c6 0 13 -8 12 -12l-24 -114
c-1 -4 0 -4 -6 -4h-327z" />
    <glyph glyph-name="uni0416" unicode="&#x416;" horiz-adv-x="870" 
d="M300 407l63 289c1 4 0 4 5 4h115c6 0 13 -8 12 -12l-62 -282c25 31 53 63 76 94l195 200c1 1 4 0 6 0h137c9 0 18 -10 14 -16l-309 -313l163 -361c4 -6 7 -10 -2 -10h-141c-2 0 -13 5 -11 7l-120 257l-42 -45l-49 -215c-1 -4 0 -4 -6 -4h-115c-5 0 -12 8 -11 12l48 214
c-10 18 -16 26 -25 42c-78 -91 -157 -179 -232 -270c-4 1 -5 2 -7 2h-142c-9 0 -18 10 -13 16l322 355l-167 319c-4 6 -7 10 2 10h138c2 0 13 -5 13 -6l105 -200z" />
    <glyph glyph-name="uni0417" unicode="&#x417;" horiz-adv-x="493" 
d="M98 -10c-133 0 -210 84 -182 214c0 1 -1 1 5 1h112c5 0 13 -8 12 -15c-10 -54 24 -74 62 -74c49 0 100 45 112 99c12 55 -16 82 -64 82h-51c-6 0 -13 8 -12 12l22 102c0 4 -1 4 5 4h51c38 0 82 33 95 92c10 47 -10 77 -51 77c-52 0 -98 -35 -108 -80c0 -1 1 -1 -4 -1
h-105c-6 0 -13 8 -12 15c24 112 118 192 236 192c129 0 203 -83 175 -218c-11 -50 -42 -104 -102 -136c41 -29 72 -89 58 -155c-32 -151 -146 -211 -254 -211z" />
    <glyph glyph-name="uni0418" unicode="&#x418;" horiz-adv-x="742" 
d="M-72 12l145 684c1 4 0 4 5 4h116c6 0 13 -8 12 -12l-100 -459c133 148 289 322 422 474c3 -1 5 -3 7 -3h117c6 0 13 -8 12 -12l-145 -684c-1 -4 0 -4 -6 -4h-116c-6 0 -13 8 -12 12l102 471l-425 -482c-1 -2 -3 -1 -5 -1h-118c-5 0 -12 8 -11 12z" />
    <glyph glyph-name="uni0419" unicode="&#x419;" horiz-adv-x="744" 
d="M476 893h89c5 0 12 -8 11 -15c-24 -110 -97 -148 -176 -148c-89 0 -165 46 -140 162c0 1 -1 1 4 1h89c5 0 13 -8 12 -15c-7 -35 10 -50 30 -50c30 0 65 23 76 64c0 1 0 1 5 1zM-72 12l145 684c1 4 0 4 5 4h116c6 0 13 -8 12 -12l-100 -459c133 148 289 322 422 474
c3 -1 5 -3 7 -3h117c6 0 13 -8 12 -12l-145 -684c-1 -4 0 -4 -6 -4h-116c-6 0 -13 8 -12 12l102 471l-425 -482c-1 -2 -3 -1 -5 -1h-118c-5 0 -12 8 -11 12z" />
    <glyph glyph-name="uni041A" unicode="&#x41a;" horiz-adv-x="646" 
d="M272 344l207 -334c5 -6 7 -10 -2 -10h-150c-2 0 -14 5 -14 6l-146 246c-21 -19 -44 -42 -67 -61l-43 -187c-1 -4 0 -4 -5 -4h-115c-6 0 -13 8 -12 12l145 684c1 4 0 4 6 4h115c5 0 12 -8 11 -12l-68 -314l331 326c1 1 4 0 6 0h143c9 0 20 -10 15 -16z" />
    <glyph glyph-name="uni041B" unicode="&#x41b;" horiz-adv-x="656" 
d="M-137 7l24 113c1 5 3 2 4 0c16 1 76 -2 90 62l61 286c31 146 132 232 276 232h243c6 0 13 -8 12 -12l-145 -684c-1 -4 0 -4 -6 -4h-117c-6 0 -13 8 -12 12l119 562h-107c-67 0 -116 -42 -131 -114l-61 -286c-12 -59 -47 -194 -234 -179c-10 0 -17 8 -16 12z" />
    <glyph glyph-name="uni041C" unicode="&#x41c;" horiz-adv-x="1022" 
d="M591 701h124c3 0 14 -5 13 -8l138 -685c2 -6 4 -8 -4 -8h-123c-3 0 -14 5 -12 8l-103 513l-128 -197c22 -105 42 -212 61 -320c5 -2 7 -4 -1 -4h-123c-3 0 -14 6 -13 8l-28 145l-94 -151c-2 -3 -4 -2 -7 -2h-124c-8 0 -16 9 -13 15l203 315c-15 71 -25 122 -38 194
l-327 -522c-2 -3 -4 -2 -7 -2h-123c-8 0 -16 9 -13 15l431 684c1 3 3 2 6 2h123c3 0 14 -5 13 -8l37 -195l126 201c1 2 3 2 6 2z" />
    <glyph glyph-name="uni041D" unicode="&#x41d;" horiz-adv-x="681" 
d="M475 700h114c6 0 13 -8 12 -12l-145 -684c-1 -4 0 -4 -6 -4h-114c-6 0 -13 8 -12 12l34 159h-265l-36 -167c-1 -4 0 -4 -6 -4h-114c-6 0 -13 8 -12 12l145 684c1 4 0 4 6 4h114c6 0 13 -8 12 -12l-33 -159h265l35 167c1 4 0 4 6 4zM406 399h-265l-21 -98h265z" />
    <glyph glyph-name="uni041E" unicode="&#x41e;" horiz-adv-x="638" 
d="M214 186c-150 0 -248 122 -217 269c30 140 168 255 308 255c150 0 248 -123 217 -269c-30 -141 -168 -255 -308 -255zM298 581c-77 0 -155 -63 -171 -140c-15 -72 27 -126 94 -126c78 0 154 62 171 140c15 71 -26 126 -94 126zM422 117l-24 -113c-1 -4 0 -4 -6 -4h-451
c-6 0 -13 8 -12 12l24 113c1 4 0 4 6 4h451c6 0 13 -8 12 -12z" />
    <glyph glyph-name="uni041F" unicode="&#x41f;" horiz-adv-x="686" 
d="M78 700h513c6 0 13 -8 12 -12l-145 -684c-1 -4 0 -4 -6 -4h-114c-6 0 -13 8 -12 12l119 560h-265l-121 -568c-1 -4 0 -4 -6 -4h-114c-6 0 -13 8 -12 12l145 684c1 4 0 4 6 4z" />
    <glyph glyph-name="uni0420" unicode="&#x420;" horiz-adv-x="583" 
d="M76 700h238s231 -4 187 -214c-44 -205 -275 -201 -275 -201h-109l-60 -281c-1 -4 0 -4 -6 -4h-114c-6 0 -13 8 -12 12l85 399c0 4 -1 4 5 4l102 3c-24 53 -46 109 -69 162l22 116c1 4 0 4 6 4zM191 570l62 -154c36 0 105 24 117 84c16 74 -62 70 -84 70h-95z" />
    <glyph glyph-name="uni0421" unicode="&#x421;" horiz-adv-x="687" 
d="M267 130c65 0 127 27 171 69c8 0 13 -5 15 -7l64 -81c3 -3 7 -10 5 -15c-76 -60 -170 -96 -263 -96c-200 0 -328 161 -286 357c40 190 225 343 415 343c103 0 184 -42 228 -108c7 0 13 -6 10 -9l-98 -80c-4 -2 -12 4 -12 8c-33 38 -81 59 -136 59
c-125 0 -249 -102 -276 -227c-25 -119 48 -213 163 -213zM420 357c11 52 -19 91 -67 91c-58 0 -116 -47 -128 -105c-11 -51 19 -91 67 -91c58 0 116 48 128 105z" />
    <glyph glyph-name="uni0422" unicode="&#x422;" horiz-adv-x="448" 
d="M426 682l-22 -104c-1 -4 0 -3 -6 -3h-138l-121 -571c-1 -4 1 -4 -5 -4h-113c-6 0 -12 8 -11 12l119 563h-128c-6 0 -13 7 -12 11l22 104c1 4 0 4 6 4h397c6 0 13 -8 12 -12z" />
    <glyph glyph-name="uni0423" unicode="&#x423;" horiz-adv-x="508" 
d="M4 700h131c4 0 12 -6 11 -9l40 -296l179 303c1 3 1 2 5 2h122c7 0 15 -9 12 -15l-411 -683c-2 -3 -2 -2 -6 -2h-118c-7 0 -15 9 -12 15l125 206l-82 471c-1 6 -4 8 4 8z" />
    <glyph glyph-name="uni0424" unicode="&#x424;" horiz-adv-x="746" 
d="M278 -10h-115c-6 0 -13 8 -12 12l21 77c-181 4 -246 138 -217 273c28 130 142 261 321 265l22 79c1 4 0 4 6 4h115c5 0 12 -8 11 -12l-20 -71c183 -4 250 -142 221 -278c-27 -129 -139 -256 -325 -260l-23 -85c-1 -4 0 -4 -5 -4zM187 197l74 301
c-97 -4 -162 -78 -177 -152c-16 -72 13 -145 103 -149zM395 498l-74 -301c92 4 162 84 179 162c14 68 -11 135 -105 139z" />
    <glyph glyph-name="uni0425" unicode="&#x425;" horiz-adv-x="674" 
d="M-136 16l318 337c-56 111 -112 226 -164 340c-8 3 -11 7 -3 7h140c2 0 13 -4 12 -6l114 -230l218 236c1 2 3 0 5 0h140c9 0 18 -10 14 -16l-320 -337c57 -111 113 -226 166 -340c7 -3 10 -7 1 -7h-140c-2 0 -13 4 -12 6l-113 230l-219 -236c-1 -2 -3 0 -5 0h-140
c-8 0 -17 10 -12 16z" />
    <glyph glyph-name="uni0426" unicode="&#x426;" horiz-adv-x="700" 
d="M398 0h-460c-5 0 -12 8 -11 12l145 684c1 4 0 4 5 4h115c6 0 13 -8 12 -12l-119 -560h265l121 568c1 4 -1 4 5 4h115c6 0 12 -8 11 -12l-120 -568h53c6 0 13 -8 12 -12l-45 -211c-1 -4 0 -4 -6 -4h-106c-6 0 -13 8 -12 12z" />
    <glyph glyph-name="uni0427" unicode="&#x427;" horiz-adv-x="634" 
d="M402 0h-114c-6 0 -13 8 -12 12l56 248c-42 -21 -86 -30 -131 -30c-146 0 -235 98 -205 240l48 226c1 4 0 4 6 4h115c5 0 12 -8 11 -12l-48 -225c-6 -71 39 -105 96 -105c44 0 94 17 130 43l67 295c1 4 0 4 6 4h114c6 0 13 -8 12 -12l-145 -684c-1 -4 0 -4 -6 -4z" />
    <glyph glyph-name="uni0428" unicode="&#x428;" horiz-adv-x="1010" 
d="M772 0h-832c-6 0 -13 8 -12 12l145 684c1 4 0 4 6 4h114c6 0 13 -8 12 -12l-119 -560h226l121 568c1 4 0 4 6 4h112c6 0 13 -8 12 -12l-119 -560h226l121 568c1 4 0 4 5 4h115c6 0 13 -8 12 -12l-145 -684c-1 -4 0 -4 -6 -4z" />
    <glyph glyph-name="uni0429" unicode="&#x429;" horiz-adv-x="1026" 
d="M718 0h-778c-6 0 -13 8 -12 12l145 684c1 4 0 4 6 4h115c5 0 12 -8 11 -12l-119 -560h226l121 568c1 4 0 4 6 4h112c6 0 13 -8 12 -12l-119 -560h226l121 568c1 4 0 4 6 4h114c6 0 13 -8 12 -12l-120 -568h53c6 0 12 -8 11 -12l-45 -211c-1 -4 1 -4 -5 -4h-107
c-6 0 -13 8 -12 12z" />
    <glyph glyph-name="uni042A" unicode="&#x42a;" horiz-adv-x="624" 
d="M214 0h-228c-6 0 -13 8 -12 12l121 570h-105c-6 0 -13 8 -13 12l22 102c1 4 0 4 6 4h234c6 0 13 -8 12 -12l-57 -272h99c24 0 245 -4 200 -215c-44 -205 -265 -201 -279 -201zM133 130h99c15 0 111 4 128 85c16 75 -62 73 -85 73h-109z" />
    <glyph glyph-name="uni042B" unicode="&#x42b;" horiz-adv-x="848" 
d="M167 0h-229c-6 0 -13 8 -12 12l145 684c1 4 0 4 6 4h114c6 0 13 -8 12 -12l-57 -272h100c23 0 244 -4 199 -215c-44 -205 -265 -201 -278 -201zM763 688l-145 -684c-1 -4 0 -4 -5 -4h-115c-6 0 -13 8 -12 12l145 684c1 4 0 4 6 4h115c5 0 12 -8 11 -12zM85 130h100
c14 0 110 4 127 85c16 75 -62 73 -84 73h-110z" />
    <glyph glyph-name="uni042C" unicode="&#x42c;" horiz-adv-x="580" 
d="M166 0h-229c-6 0 -13 8 -12 12l145 684c1 4 0 4 6 4h114c6 0 13 -8 12 -12l-57 -272h100c23 0 244 -4 199 -215c-44 -205 -265 -201 -278 -201zM84 130h100c14 0 110 4 127 85c16 75 -62 73 -84 73h-110z" />
    <glyph glyph-name="uni042D" unicode="&#x42d;" horiz-adv-x="694" 
d="M164 121c105 0 208 77 253 171l-268 -4c-6 0 -13 8 -12 12l24 112c1 4 0 4 6 4l282 4c-4 103 -73 160 -168 160c-64 0 -126 -28 -171 -70c-7 0 -13 5 -15 8l-64 79c-3 3 -7 11 -4 16c75 61 169 97 262 97c200 0 331 -147 284 -367c-43 -202 -227 -352 -417 -352
c-103 0 -184 42 -228 107c-7 0 -12 7 -10 10l98 80c5 3 13 -3 12 -8c34 -37 82 -59 136 -59z" />
    <glyph glyph-name="uni042E" unicode="&#x42e;" horiz-adv-x="1006" 
d="M614 709c230 0 308 -184 269 -366c-37 -176 -181 -351 -401 -351c-202 0 -278 144 -271 297l-90 -4l-60 -281c-1 -4 0 -4 -6 -4h-114c-6 0 -13 8 -12 12l145 684c1 4 0 4 6 4h114c6 0 13 -8 12 -12l-57 -272l87 4c59 154 186 289 378 289zM488 118c139 0 237 120 262 239
c24 112 -14 225 -143 225c-137 0 -235 -120 -260 -239c-24 -112 14 -225 141 -225z" />
    <glyph glyph-name="uni042F" unicode="&#x42f;" horiz-adv-x="618" 
d="M27 0h-134c-7 0 -17 9 -13 15l250 286c-63 21 -136 73 -110 199c44 204 276 200 276 200h228c6 0 13 -8 12 -12l-21 -111l-138 -162h86c6 0 14 -8 13 -12l-85 -399c-1 -4 0 -4 -6 -4h-114c-6 0 -13 8 -12 12l58 273h-47l-237 -284c-1 -2 -3 -1 -6 -1zM349 570h-81
s-99 -4 -116 -84c-12 -54 35 -67 62 -71z" />
    <glyph glyph-name="uni0430" unicode="&#x430;" 
d="M31 79l-42 -77c-2 -3 -3 -2 -7 -2h-123c-8 0 -16 9 -13 15l423 703c4 7 16 0 16 -7l124 -703c2 -6 4 -8 -3 -8h-124c-3 0 -13 5 -11 8l-12 71h-228zM240 197l-23 210l-118 -210h141z" />
    <glyph glyph-name="uni0431" unicode="&#x431;" horiz-adv-x="603" 
d="M145 421h98c169 0 232 -84 204 -215c-40 -190 -236 -206 -284 -206h-226c-5 0 -12 8 -11 12l145 684c1 4 0 4 5 4h421c6 0 13 -8 12 -12l-23 -109c-1 -4 0 -4 -6 -4h-303zM82 128h98c44 0 122 17 138 92c14 68 -45 76 -92 76h-108z" />
    <glyph glyph-name="uni0432" unicode="&#x432;" horiz-adv-x="603" 
d="M502 493c-17 -79 -65 -122 -128 -146c98 -36 76 -147 75 -150c-41 -192 -237 -197 -284 -197h-228c-6 0 -13 8 -12 12l145 684c1 4 0 4 6 4h238s232 1 188 -207zM143 415h110s99 4 116 84c17 81 -82 76 -82 76h-110zM82 128h100c44 0 122 16 137 86c17 80 -93 70 -93 70
h-110z" />
    <glyph glyph-name="uni0433" unicode="&#x433;" horiz-adv-x="548" 
d="M176 575l-121 -571c-1 -4 0 -4 -5 -4h-113c-6 0 -13 8 -12 12l145 684c1 4 0 4 6 4h421c5 0 12 -8 11 -12l-23 -109c-1 -4 0 -4 -5 -4h-304z" />
    <glyph glyph-name="uni0434" unicode="&#x434;" horiz-adv-x="617" 
d="M-27 0l-21 -100c-1 -4 0 -4 -6 -4h-104c-6 0 -13 8 -12 12l43 205c1 4 0 4 6 4l62 3c117 197 238 398 354 598c5 3 17 -4 17 -11l105 -590h56c6 0 12 -8 12 -12l-44 -205c-1 -4 1 -4 -5 -4h-104c-6 0 -13 8 -12 12l19 92h-366zM82 117l201 3c-15 100 -27 175 -41 275z
" />
    <glyph glyph-name="uni0435" unicode="&#x435;" horiz-adv-x="588" 
d="M143 411h268c6 0 12 -8 11 -12l-23 -109c-1 -4 1 -4 -5 -4h-278l-34 -160h325c6 0 13 -8 12 -12l-23 -110c-1 -4 0 -4 -6 -4h-453c-5 0 -12 8 -11 12l145 684c1 4 0 4 5 4h453c6 0 13 -8 12 -12l-23 -111c-1 -4 0 -4 -6 -4h-335z" />
    <glyph glyph-name="uni0436" unicode="&#x436;" horiz-adv-x="875" 
d="M297 403l64 293c1 4 0 4 6 4h113c6 0 13 -8 12 -12l-63 -286c25 31 54 69 78 99l192 199c1 1 4 0 6 0h137c9 0 17 -10 13 -16l-308 -317l162 -357c4 -6 7 -10 -1 -10h-141c-2 0 -13 5 -11 7l-118 255c-16 -16 -26 -30 -43 -45l-48 -213c-1 -4 0 -4 -6 -4h-113
c-6 0 -13 8 -12 12l48 212c-9 18 -16 26 -24 42c-79 -91 -156 -178 -230 -268c-4 1 -6 2 -8 2h-140c-9 0 -18 10 -13 16l319 351l-164 323c-4 6 -7 10 2 10h136c2 0 14 -5 14 -6l103 -199z" />
    <glyph glyph-name="uni0437" unicode="&#x437;" horiz-adv-x="500" 
d="M101 -10c-134 0 -212 85 -184 214c0 1 -1 0 5 0h113c5 0 13 -7 12 -14c-10 -54 25 -74 63 -74c50 0 102 45 114 99c12 55 -17 82 -66 82h-52c-6 0 -13 7 -12 11l21 102c1 4 0 4 6 4h52c38 0 82 33 95 92c10 48 -9 76 -51 76c-53 0 -99 -34 -109 -78c0 -1 1 -1 -5 -1h-105
c-6 0 -13 8 -12 15c24 110 119 190 238 190c130 0 205 -83 177 -217c-11 -50 -42 -103 -103 -135c42 -29 73 -90 59 -155c-32 -152 -147 -211 -256 -211z" />
    <glyph glyph-name="uni0438" unicode="&#x438;" horiz-adv-x="744" 
d="M-71 12l145 684c1 4 -1 4 5 4h115c5 0 12 -8 11 -12l-101 -461c134 147 290 326 421 476c3 -1 5 -3 7 -3h116c6 0 13 -8 12 -12l-145 -684c-1 -4 0 -4 -6 -4h-115c-6 0 -13 8 -12 12l102 473l-423 -484c-1 -2 -2 -1 -4 -1h-117c-6 0 -12 8 -11 12z" />
    <glyph glyph-name="uni0439" unicode="&#x439;" horiz-adv-x="747" 
d="M475 891h89c5 0 12 -8 10 -15c-23 -110 -96 -148 -175 -148c-89 0 -165 46 -141 162c1 1 0 1 5 1h89c5 0 13 -8 11 -15c-6 -35 11 -50 31 -50c30 0 65 23 75 64c1 1 1 1 6 1zM-71 12l145 684c1 4 -1 4 5 4h115c5 0 12 -8 11 -12l-101 -461c134 147 290 326 421 476
c3 -1 5 -3 7 -3h116c6 0 13 -8 12 -12l-145 -684c-1 -4 0 -4 -6 -4h-115c-6 0 -13 8 -12 12l102 473l-423 -484c-1 -2 -2 -1 -4 -1h-117c-6 0 -12 8 -11 12z" />
    <glyph glyph-name="uni043A" unicode="&#x43a;" horiz-adv-x="646" 
d="M272 344l206 -334c5 -6 7 -10 -2 -10h-149c-2 0 -14 5 -14 6l-146 246c-21 -19 -43 -42 -66 -61l-43 -187c-1 -4 0 -4 -6 -4h-114c-6 0 -13 8 -12 12l145 684c1 4 0 4 6 4h114c6 0 13 -8 12 -12l-70 -320l332 332c1 1 4 0 6 0h142c9 0 20 -10 15 -16z" />
    <glyph glyph-name="uni043B" unicode="&#x43b;" 
d="M213 393l-224 -391c-2 -3 -3 -2 -7 -2h-122c-7 0 -15 9 -12 15l419 698c4 7 15 0 15 -7l124 -698c2 -6 4 -8 -4 -8h-122c-4 0 -12 6 -11 9z" />
    <glyph glyph-name="uni043C" unicode="&#x43c;" horiz-adv-x="916" 
d="M825 688l-145 -684c-1 -4 0 -4 -6 -4h-113c-6 0 -13 8 -12 12l85 390l-256 -373c-1 -2 -3 -2 -6 -2h-107c-3 0 -13 6 -11 8l-108 375l-88 -406c-1 -4 0 -4 -6 -4h-113c-6 0 -13 8 -12 12l145 684c1 4 0 4 6 4h115c3 0 14 -6 12 -8l137 -512l350 518c1 2 3 2 6 2h115
c6 0 13 -8 12 -12z" />
    <glyph glyph-name="uni043D" unicode="&#x43d;" horiz-adv-x="686" 
d="M477 700h114c6 0 13 -8 12 -12l-145 -684c-1 -4 0 -4 -6 -4h-114c-6 0 -13 8 -12 12l58 273h-265l-60 -281c-1 -4 0 -4 -6 -4h-114c-6 0 -13 8 -12 12l145 684c1 4 0 4 6 4h114c6 0 13 -8 12 -12l-57 -272h265l59 280c1 4 0 4 6 4z" />
    <glyph glyph-name="uni043E" unicode="&#x43e;" horiz-adv-x="797" 
d="M385 710c234 0 316 -184 277 -366c-37 -176 -186 -353 -410 -353c-238 0 -317 185 -279 367c38 176 184 352 412 352zM259 117c144 0 246 120 271 239c24 114 -18 227 -152 227c-146 0 -247 -121 -272 -241c-24 -113 17 -225 153 -225z" />
    <glyph glyph-name="uni043F" unicode="&#x43f;" horiz-adv-x="686" 
d="M79 700h509c5 0 12 -8 11 -12l-145 -684c-1 -4 0 -4 -5 -4h-114c-6 0 -13 8 -12 12l119 560h-262l-121 -568c-1 -4 0 -4 -6 -4h-113c-6 0 -13 8 -12 12l145 684c1 4 0 4 6 4z" />
    <glyph glyph-name="uni0440" unicode="&#x440;" horiz-adv-x="580" 
d="M76 700h227c28 0 240 -8 196 -218c-43 -203 -258 -201 -275 -201h-109l-59 -279c-1 -4 1 -4 -5 -4h-114c-5 0 -13 8 -12 12l146 686c1 4 0 4 5 4zM142 410h99c18 0 111 6 128 86c16 75 -67 75 -83 75h-109z" />
    <glyph glyph-name="uni0441" unicode="&#x441;" horiz-adv-x="694" 
d="M266 119c64 0 125 27 170 69c7 0 13 -5 14 -8l64 -79c3 -3 6 -11 4 -16c-75 -59 -168 -95 -260 -95c-197 0 -330 143 -283 364c44 206 216 356 416 356c102 0 182 -41 227 -106c7 0 12 -7 9 -10l-96 -78c-5 -3 -13 3 -12 8c-33 36 -81 58 -135 58
c-139 0 -248 -107 -277 -242c-29 -138 45 -221 159 -221z" />
    <glyph glyph-name="uni0442" unicode="&#x442;" horiz-adv-x="448" 
d="M426 682l-22 -104c-1 -4 0 -3 -6 -3h-138l-121 -571c-1 -4 1 -4 -5 -4h-113c-6 0 -12 8 -11 12l119 563h-128c-6 0 -13 7 -12 11l22 104c1 4 0 4 6 4h397c6 0 13 -8 12 -12z" />
    <glyph glyph-name="uni0443" unicode="&#x443;" horiz-adv-x="511" 
d="M5 700h130c3 0 11 -6 10 -9l39 -300l178 307c1 3 2 2 6 2h120c8 0 16 -9 13 -15l-409 -683c-2 -3 -2 -2 -6 -2h-117c-6 0 -15 9 -12 15l124 204l-80 473c-1 6 -4 8 4 8z" />
    <glyph glyph-name="uni0444" unicode="&#x444;" horiz-adv-x="746" 
d="M275 -10h-113c-6 0 -13 8 -12 12l21 76c-180 4 -244 137 -216 271c28 129 142 265 320 268l22 79c1 4 0 4 6 4h113c6 0 13 -8 12 -12l-20 -71c181 -3 246 -146 218 -281c-28 -128 -138 -254 -322 -258l-23 -84c-1 -4 0 -4 -6 -4zM186 195l74 304
c-97 -4 -161 -82 -177 -156c-15 -72 13 -143 103 -148zM393 499l-74 -304c91 5 160 83 177 161c14 68 -10 139 -103 143z" />
    <glyph glyph-name="uni0445" unicode="&#x445;" horiz-adv-x="674" 
d="M-135 16l316 334c-56 110 -111 230 -162 343c-8 3 -11 7 -2 7h138c2 0 13 -4 12 -6l112 -234l217 240c1 2 3 0 5 0h139c8 0 17 -10 13 -16l-318 -340c57 -111 112 -224 166 -337c5 -3 8 -7 0 -7h-139c-2 0 -13 4 -12 6l-111 228l-218 -234c-1 -2 -3 0 -5 0h-138
c-9 0 -18 10 -13 16z" />
    <glyph glyph-name="uni0446" unicode="&#x446;" horiz-adv-x="700" 
d="M395 0h-456c-5 0 -12 8 -11 12l145 684c1 4 0 4 5 4h114c6 0 12 -8 11 -12l-119 -561h263l121 569c1 4 0 4 6 4h113c6 0 13 -8 12 -12l-120 -569h52c6 0 13 -8 12 -12l-44 -209c-1 -4 0 -4 -6 -4h-106c-5 0 -13 8 -12 12z" />
    <glyph glyph-name="uni0447" unicode="&#x447;" horiz-adv-x="634" 
d="M399 0h-114c-6 0 -13 8 -12 12l56 246c-41 -21 -85 -30 -129 -30c-145 0 -234 97 -204 238l49 230c1 4 0 4 6 4h113c6 0 13 -8 12 -12l-49 -229c-6 -71 39 -104 96 -104c43 0 91 17 128 42l67 299c1 4 0 4 6 4h114c5 0 12 -8 11 -12l-145 -684c-1 -4 0 -4 -5 -4z" />
    <glyph glyph-name="uni0448" unicode="&#x448;" horiz-adv-x="1011" 
d="M766 0h-825c-5 0 -12 8 -11 12l145 684c1 4 0 4 5 4h114c6 0 12 -8 11 -12l-119 -561h224l121 569c1 4 0 4 6 4h111c6 0 13 -8 12 -12l-119 -561h224l121 569c1 4 0 4 6 4h113c6 0 13 -8 12 -12l-145 -684c-1 -4 0 -4 -6 -4z" />
    <glyph glyph-name="uni0449" unicode="&#x449;" horiz-adv-x="1026" 
d="M713 0h-771c-6 0 -13 8 -12 12l145 684c1 4 0 4 6 4h113c6 0 13 -8 12 -12l-119 -561h224l121 569c1 4 0 4 5 4h112c6 0 13 -8 12 -12l-119 -561h223l121 569c1 4 0 4 6 4h114c5 0 12 -8 11 -12l-120 -569h52c6 0 13 -8 12 -12l-44 -209c-1 -4 0 -4 -6 -4h-105
c-6 0 -14 8 -13 12z" />
    <glyph glyph-name="uni044A" unicode="&#x44a;" horiz-adv-x="624" 
d="M212 0h-226c-6 0 -13 8 -12 12l121 571h-104c-5 0 -12 7 -12 11l22 102c1 4 0 4 5 4h232c6 0 13 -8 12 -12l-58 -275h98c24 0 243 -4 199 -214c-44 -203 -263 -199 -277 -199zM132 129h98c15 0 109 4 126 84c16 75 -60 73 -83 73h-108z" />
    <glyph glyph-name="uni044B" unicode="&#x44b;" horiz-adv-x="848" 
d="M166 0h-227c-6 0 -13 8 -12 12l145 684c1 4 0 4 6 4h113c6 0 13 -8 12 -12l-58 -275h99c23 0 242 -4 198 -214c-44 -203 -263 -199 -276 -199zM758 688l-145 -684c-1 -4 1 -4 -5 -4h-114c-5 0 -12 8 -11 12l145 684c1 4 0 4 5 4h114c6 0 12 -8 11 -12zM85 129h99
c14 0 109 4 126 84c16 75 -61 73 -83 73h-109z" />
    <glyph glyph-name="uni044C" unicode="&#x44c;" horiz-adv-x="580" 
d="M164 0h-227c-5 0 -12 8 -11 12l145 684c1 4 0 4 5 4h114c6 0 12 -8 11 -12l-58 -275h99c23 0 243 -4 199 -214c-44 -203 -263 -199 -277 -199zM83 129h99c15 0 109 4 126 84c16 75 -61 73 -83 73h-109z" />
    <glyph glyph-name="uni044D" unicode="&#x44d;" horiz-adv-x="694" 
d="M163 120c104 0 206 76 252 170l-267 -4c-6 0 -12 8 -11 12l23 110c1 4 -1 4 5 4l281 4c-4 103 -72 164 -166 164c-64 0 -125 -28 -170 -69c-7 0 -13 5 -14 8l-64 78c-3 3 -7 11 -4 16c75 60 168 95 260 95c198 0 327 -150 280 -368c-42 -201 -225 -349 -413 -349
c-102 0 -182 42 -226 106c-7 0 -13 7 -10 10l97 79c4 3 12 -3 12 -8c33 -37 81 -58 135 -58z" />
    <glyph glyph-name="uni044E" unicode="&#x44e;" horiz-adv-x="993" 
d="M603 710c228 0 304 -190 265 -370c-37 -174 -179 -348 -397 -348c-200 0 -274 143 -267 295l-84 -4l-59 -279c-1 -4 0 -4 -6 -4h-113c-6 0 -13 8 -12 12l145 685c1 4 0 4 6 4h113c6 0 14 -8 13 -12l-59 -276l82 4c57 152 183 293 373 293zM477 117c138 0 234 119 259 237
c24 111 -12 230 -140 230c-136 0 -231 -126 -257 -244c-23 -111 12 -223 138 -223z" />
    <glyph glyph-name="uni044F" unicode="&#x44f;" horiz-adv-x="593" 
d="M217 283l-187 -281c-2 -2 -4 -2 -7 -2h-125c-8 0 -16 9 -14 15l206 290c-56 25 -117 80 -94 190c44 203 228 205 276 205h225c6 0 13 -8 12 -12l-145 -684c-1 -4 0 -4 -6 -4h-113c-6 0 -13 8 -12 12l57 271h-73zM352 574h-97c-24 0 -112 -13 -129 -93
c-15 -74 47 -84 82 -84h107z" />
    </font>
</defs>
</svg>
