<?xml version="1.0" encoding="utf-8"?>
<!-- Generator: Adobe Illustrator 19.0.1, SVG Export Plug-In . SVG Version: 6.00 Build 0)  -->
<svg version="1.1" id="Слой_1" xmlns="http://www.w3.org/2000/svg" xmlns:xlink="http://www.w3.org/1999/xlink" x="0px" y="0px"
	 viewBox="0 0 35 35.1" style="enable-background:new 0 0 35 35.1;" xml:space="preserve">
<style type="text/css">
	.st0{fill:#FFFFFF;}
	.st1{fill:#0F1012;}
	.st2{opacity:0.5;fill:#FFFFFF;}
	.st3{fill:none;stroke:#FFFFFF;stroke-width:5;stroke-miterlimit:10;}
	.st4{clip-path:url(#SVGID_4_);}
	.st5{opacity:0.8;}
	.st6{fill:none;stroke:#FFFFFF;stroke-width:0.25;stroke-miterlimit:10;}
	.st7{fill:none;stroke:#FFFFFF;stroke-miterlimit:10;}
	.st8{fill:#E41936;}
	.st9{opacity:0.5;fill:none;stroke:#000000;stroke-width:0.5;stroke-miterlimit:10;}
	.st10{opacity:0.85;}
	.st11{clip-path:url(#SVGID_28_);}
	.st12{opacity:0.7;}
	.st13{fill:none;stroke:#FFFFFF;stroke-width:2;stroke-miterlimit:10;}
	.st14{opacity:0.8;fill:#FFFFFF;}
	.st15{opacity:0.5;fill:none;stroke:#000000;stroke-miterlimit:10;}
	.st16{fill:none;stroke:#000000;stroke-miterlimit:10;}
	.st17{fill:none;stroke:#FFFFFF;stroke-width:4;stroke-miterlimit:10;}
	.st18{fill:none;stroke:#FFFFFF;stroke-width:0.5;stroke-miterlimit:10;}
	.st19{opacity:0.5;fill:none;stroke:#FFFFFF;stroke-width:0.5;stroke-miterlimit:10;}
	.st20{stroke:#FFFFFF;stroke-miterlimit:10;}
</style>
<path class="st5" d="M23,25.5c-6.4,4.9-15.2,3.6-19.9-2.3C-1.4,17.4-1,9.3,4.2,4.1c5.2-5.1,13.3-5.6,19-0.9
	c5.9,4.7,7.2,13.5,2.2,19.9c0.1,0.1,0.3,0.1,0.4,0.2c2.9,2.9,5.8,5.8,8.6,8.6c0.5,0.5,0.7,1.1,0.5,1.8c-0.3,1.3-1.9,1.7-2.9,0.8
	c-0.9-0.9-1.8-1.8-2.7-2.7c-2.1-2.1-4.1-4.1-6.2-6.2C23.2,25.6,23.1,25.6,23,25.5z M14.2,25.1c5.9,0,10.8-4.8,10.8-10.8
	c0-6-4.8-10.9-10.8-10.9c-6,0-10.8,4.8-10.9,10.8C3.4,20.2,8.3,25.1,14.2,25.1z"/>
</svg>
